<?xml version="1.0" encoding="UTF-8" standalone="no"?>
<!-- Generator: Adobe Illustrator 28.0.0, SVG Export Plug-In . SVG Version: 6.00 Build 0)  -->

<svg
   version="1.1"
   id="Capa_1"
   x="0px"
   y="0px"
   viewBox="0 0 1166400 1166400"
   xml:space="preserve"
   sodipodi:docname="logo-huella.svg"
   width="1166400"
   height="1166400"
   xmlns:inkscape="http://www.inkscape.org/namespaces/inkscape"
   xmlns:sodipodi="http://sodipodi.sourceforge.net/DTD/sodipodi-0.dtd"
   xmlns="http://www.w3.org/2000/svg"
   xmlns:svg="http://www.w3.org/2000/svg"><defs
   id="defs129" /><sodipodi:namedview
   id="namedview127"
   pagecolor="#ffffff"
   bordercolor="#000000"
   borderopacity="0.25"
   inkscape:showpageshadow="2"
   inkscape:pageopacity="0.0"
   inkscape:pagecheckerboard="0"
   inkscape:deskcolor="#d1d1d1"
   showgrid="false" />
<style
   type="text/css"
   id="style2">
	.st0{fill:#2ED8AC;}
	.st1{fill:#737A82;}
	.st2{fill:#CBB32B;}
</style>
<g
   id="g124"
   transform="matrix(1.1096198,0,0,1.0843943,-57.116009,-50.772188)"
   style="opacity:1">
	<g
   id="g92">
		<g
   id="g24">
			<g
   id="g6">
				<path
   class="st0"
   d="M 559.7,354"
   id="path4" />
			</g>
			<g
   id="g10">
				<path
   d="m 119.6,544.1 c -11.5,0 -22.8,-1.4 -33.3,-4.3 -10.7,-2.9 -19.5,-6.6 -26.1,-11.1 l -2.9,-2 16,-36.1 4.1,2.6 c 5.7,3.7 12.5,6.7 20,9.1 7.5,2.4 15.1,3.6 22.5,3.6 5,0 9,-0.4 11.7,-1.2 2.3,-0.7 4.1,-1.6 5,-2.6 0.8,-0.9 1.2,-1.9 1.2,-3.2 0,-1 -0.3,-2.3 -2.3,-3.5 -2.5,-1.5 -5.9,-2.9 -10,-4 -4.5,-1.2 -9.4,-2.4 -14.7,-3.4 -5.5,-1.1 -11.1,-2.6 -16.8,-4.5 -5.9,-1.9 -11.3,-4.5 -16.1,-7.6 -5,-3.3 -9.2,-7.7 -12.3,-13 -3.1,-5.4 -4.7,-12.2 -4.7,-20.1 0,-8.8 2.5,-16.9 7.3,-24.2 4.8,-7.2 12.1,-13.1 21.7,-17.4 9.4,-4.2 21.2,-6.4 35,-6.4 9.2,0 18.3,1 27.2,3.1 9,2.1 17,5.3 24,9.5 l 3,1.9 -14.8,35.9 -4.1,-2.3 c -6.1,-3.4 -12.3,-6 -18.2,-7.6 -6,-1.6 -11.8,-2.4 -17.3,-2.4 -4.8,0 -8.6,0.5 -11.4,1.5 -2.4,0.9 -4.2,1.9 -5.1,3.1 -0.8,1.1 -1.2,2.1 -1.2,3.2 0,1.2 0.3,2.5 2.3,3.7 2.5,1.5 5.8,2.8 9.8,3.8 4.4,1.1 9.4,2.2 14.9,3.4 5.6,1.2 11.2,2.7 16.8,4.5 5.7,1.8 11.1,4.3 16,7.4 5.1,3.2 9.3,7.5 12.5,12.8 3.2,5.4 4.9,12 4.9,19.9 0,8.7 -2.5,16.8 -7.4,24.1 -4.9,7.3 -12.2,13.2 -21.8,17.5 -9.6,4.1 -21.4,6.3 -35.4,6.3 z M 67.7,523.6 c 5.5,3.2 12.5,5.9 20.7,8.2 9.9,2.7 20.4,4 31.2,4 12.8,0 23.5,-1.9 31.8,-5.6 8.1,-3.7 14.3,-8.5 18.3,-14.5 4,-6 6,-12.4 6,-19.5 0,-6.3 -1.2,-11.5 -3.7,-15.6 -2.5,-4.1 -5.8,-7.5 -9.8,-10.1 -4.3,-2.7 -9,-4.9 -14.1,-6.5 -5.3,-1.7 -10.6,-3.1 -16,-4.2 -5.5,-1.2 -10.6,-2.3 -15.1,-3.4 -4.9,-1.2 -9,-2.8 -12.2,-4.8 -4.1,-2.5 -6.2,-6.2 -6.2,-10.8 0,-3 1,-5.8 3,-8.4 1.9,-2.5 4.8,-4.4 8.8,-5.8 3.7,-1.3 8.4,-2 14.2,-2 6.3,0 12.8,0.9 19.5,2.7 5.3,1.4 10.6,3.5 16,6.1 l 8.5,-20.6 c -5.5,-2.9 -11.7,-5.2 -18.5,-6.8 -8.2,-1.9 -16.8,-2.9 -25.3,-2.9 -12.6,0 -23.3,1.9 -31.6,5.6 -8.1,3.7 -14.3,8.5 -18.2,14.4 -4,5.9 -5.9,12.3 -5.9,19.6 0,6.5 1.2,11.8 3.6,15.9 2.4,4.2 5.7,7.6 9.6,10.2 4.2,2.8 8.9,5 14.1,6.7 5.4,1.8 10.7,3.2 15.9,4.2 5.4,1.1 10.5,2.3 15.2,3.5 5,1.3 9,3 12.2,4.9 5.2,3.2 6.2,7.5 6.2,10.6 0,3.4 -1.1,6.3 -3.3,8.8 -2,2.3 -5,4 -9,5.1 -3.6,1 -8.2,1.5 -14,1.5 -8.3,0 -16.7,-1.3 -25,-4 -6.5,-2.1 -12.5,-4.6 -17.8,-7.6 z"
   id="path8" />
			</g>
			<g
   id="g14">
				<path
   d="m 407.8,541.4 h -46.7 v -144 h 114.5 v 38.2 h -67.8 v 21.3 h 59.7 v 38 H 407.8 Z M 369.4,533 h 30 v -46.5 h 59.7 v -21.3 h -59.7 v -38 h 67.8 v -21.5 h -97.8 z"
   id="path12" />
			</g>
			<g
   id="g18">
				<path
   d="m 227.3,542.5 h -48.8 l 63.9,-144.2 h 43.3 l 64.6,143.8 H 300.6 L 289.8,515.7 H 238 Z m -36,-8.4 h 30.3 l 10.8,-26.8 h 63 l 10.8,26.4 h 31.2 L 280.3,406.6 h -32.4 z m 96.8,-46.5 h -48.3 l 24.3,-56.7 z m -35.7,-8.3 h 23.1 L 264,452.2 Z"
   id="path16" />
			</g>
			<g
   id="g22">
				<path
   d="m 612.8,539.7 h -117 V 395.8 H 610.3 V 434 h -68.4 v 15.1 H 602 v 36.8 h -60.1 v 15.7 h 70.9 z m -108.7,-8.3 h 100.3 v -21.5 h -70.9 v -32.4 h 60.1 V 457.4 H 533.5 V 425.6 H 602 v -21.5 h -97.8 v 127.3 z"
   id="path20" />
			</g>
		</g>
		<g
   id="g90">
			<g
   id="g28">
				<path
   class="st0"
   d="M 457,726 V 590.4 h 38.4 V 726 Z"
   id="path26" />
			</g>
			<g
   id="g32">
				<path
   class="st0"
   d="M 522.6,726 V 590.4 H 561 v 105.2 h 64.5 V 726 Z"
   id="path30" />
			</g>
			<g
   id="g88">
				<path
   d="m 282.1,666.9 c 1,-0.2 1.9,0.3 2.3,1.2 -1.6,-7.5 -1.8,-15.1 -0.7,-22.6 1.1,-7.3 3.6,-14.4 7.2,-21 0.5,-0.9 0.1,-2 -0.9,-2.5 -1,-0.5 -2.2,-0.1 -2.7,0.8 -3.9,7 -6.4,14.5 -7.6,22.2 -1.2,8 -1,16.1 0.8,24.2 0,0.1 0.1,0.1 0.1,0.2 0,-0.1 0,-0.2 -0.1,-0.2 -0.2,-1.1 0.5,-2.1 1.6,-2.3 z"
   id="path34" />
				<path
   d="m 294.1,615.8 c 0.4,0.2 0.8,0.4 1.2,0.4 0.6,0 1.2,-0.3 1.6,-0.8 10.7,-13.6 26.4,-22.9 44.3,-26.3 15.8,-3 31.8,-1 46.3,5.5 1,0.5 2.2,0.1 2.7,-0.9 0.5,-0.9 0.1,-2 -0.9,-2.5 -15.3,-6.9 -32.1,-9 -48.8,-5.8 -18.8,3.5 -35.4,13.4 -46.7,27.7 -0.8,0.9 -0.6,2.1 0.3,2.7 z"
   id="path36" />
				<path
   d="m 428.3,639.5 c 0.9,-0.2 1.9,0.3 2.2,1.1 -4,-17.8 -15,-33.3 -31,-43.7 -0.9,-0.6 -2.2,-0.4 -2.8,0.5 -0.6,0.8 -0.4,2 0.5,2.6 15.3,10 25.7,24.8 29.4,41.8 0,0.1 0.1,0.1 0.1,0.2 0,-0.1 0,-0.1 0,-0.2 -0.2,-1.1 0.5,-2.1 1.6,-2.3 z"
   id="path38" />
				<path
   d="m 430.6,641 c 0,-0.1 -0.1,-0.3 -0.1,-0.4 0,0.1 0.1,0.3 0.1,0.4 0.2,1 -0.5,2 -1.6,2.2 -0.1,0 -0.3,0 -0.4,0 -0.9,0 -1.6,-0.5 -1.9,-1.3 1,4.8 1.5,9.6 1.4,14.5 0,1 0.9,1.9 2,1.9 0,0 0,0 0,0 1.1,0 2,-0.8 2,-1.8 0.1,-5.2 -0.4,-10.4 -1.5,-15.5 z"
   id="path40" />
				<path
   d="m 428.6,643.2 c 0.1,0 0.3,0 0.4,0 1.1,-0.2 1.8,-1.2 1.6,-2.2 0,-0.1 -0.1,-0.3 -0.1,-0.4 -0.4,-0.8 -1.3,-1.2 -2.2,-1.1 -1.1,0.2 -1.8,1.2 -1.6,2.2 0,0.1 0,0.1 0,0.2 0.3,0.8 1,1.3 1.9,1.3 z"
   id="path42" />
				<path
   d="m 285.1,671.2 c -0.3,-1 -0.5,-1.9 -0.7,-2.9 0,-0.1 -0.1,-0.2 -0.1,-0.3 0,0.1 0,0.2 0.1,0.3 0.2,1 -0.5,2 -1.6,2.2 -0.1,0 -0.3,0 -0.4,0 -0.9,0 -1.6,-0.5 -1.9,-1.3 0.2,0.9 0.4,1.9 0.7,2.8 0.2,0.9 1,1.4 2,1.4 0.2,0 0.3,0 0.5,-0.1 1,-0.1 1.7,-1.1 1.4,-2.1 z"
   id="path44" />
				<path
   d="m 282.4,670.6 c 0.1,0 0.3,0 0.4,0 1.1,-0.2 1.8,-1.2 1.6,-2.2 0,-0.1 0,-0.2 -0.1,-0.3 -0.3,-0.8 -1.3,-1.4 -2.3,-1.2 -1.1,0.2 -1.8,1.2 -1.6,2.2 0,0.1 0,0.2 0.1,0.2 0.3,0.8 1.1,1.3 1.9,1.3 z"
   id="path46" />
				<path
   d="m 354.6,679.6 c -0.5,3.7 -1.2,7.4 -2.3,11 -3.3,11 -9.3,21.4 -17.5,30 -0.7,0.8 -0.7,2 0.2,2.6 0.4,0.3 0.9,0.5 1.3,0.5 0.6,0 1.1,-0.2 1.5,-0.6 8.6,-9 14.9,-19.9 18.3,-31.5 1.2,-4 2,-8.1 2.5,-12.2 -1,0.1 -2.1,0.2 -3.1,0.2 -0.3,0 -0.6,0 -0.9,0 z"
   id="path48" />
				<path
   d="m 343.5,693.8 c -1,-0.4 -2.2,0.1 -2.6,1.1 -3.6,8.5 -8.9,16.1 -15.7,22.6 -0.8,0.7 -0.8,1.9 0,2.6 0.4,0.4 0.9,0.5 1.4,0.5 0.5,0 1,-0.2 1.4,-0.6 7.2,-6.9 12.8,-14.9 16.6,-23.9 0.5,-0.9 0,-1.9 -1.1,-2.3 z"
   id="path50" />
				<path
   d="m 344.3,684.5 c -0.2,1 0.5,2 1.5,2.2 1.1,0.2 2.2,-0.4 2.4,-1.4 0.5,-2.1 0.9,-4.3 1.1,-6.5 -1.3,-0.3 -2.6,-0.8 -3.9,-1.4 -0.2,2.4 -0.6,4.8 -1.1,7.1 z"
   id="path52" />
				<path
   d="m 345.1,722.6 c -0.7,0.8 -0.5,2 0.3,2.6 0.4,0.3 0.8,0.4 1.2,0.4 0.6,0 1.2,-0.2 1.6,-0.7 12,-14.2 18.8,-31.2 20,-48.8 -1.3,0.8 -2.7,1.5 -4.2,2 -1.5,16 -7.9,31.5 -18.9,44.5 z"
   id="path54" />
				<path
   d="m 336.5,670.6 c -0.1,16 -7.2,31.6 -20.1,42.7 -0.8,0.7 -0.9,1.9 -0.1,2.6 0.4,0.4 0.9,0.6 1.5,0.6 0.5,0 1,-0.2 1.4,-0.5 12.6,-11 20.1,-25.9 21.2,-41.7 -1.4,-1 -2.7,-2.3 -3.9,-3.7 z"
   id="path56" />
				<path
   d="m 375.9,672.1 c 0,0 0,0 0,0 1.1,0 2,-0.8 2,-1.9 0,-1.5 -0.1,-3.1 -0.1,-4.6 -1,2 -2.2,3.9 -3.6,5.5 0.2,0.6 0.9,1 1.7,1 z"
   id="path58" />
				<path
   d="m 375.4,679.4 c -1.1,-0.1 -2.1,0.6 -2.2,1.6 -1.8,15 -7.7,29.6 -17,42.1 -0.6,0.9 -0.4,2 0.5,2.6 0.3,0.2 0.7,0.3 1.1,0.3 0.6,0 1.3,-0.3 1.7,-0.8 9.6,-13 15.7,-28.2 17.6,-43.8 0.2,-1 -0.6,-1.9 -1.7,-2 z"
   id="path60" />
				<path
   d="m 358.9,630.6 c 0.5,-0.3 0.8,-0.8 0.8,-1.4 0.1,-1 -0.7,-1.9 -1.9,-2 -2.8,-0.2 -5.5,0 -8.3,0.5 -7.9,1.5 -14.6,5.7 -19.1,11.9 -4.4,6.2 -6,13.6 -4.4,20.9 l 0.4,1.8 v 0 c 1.5,8.3 0.7,16.8 -2.3,24.7 -3.1,8.2 -8.5,15.6 -15.6,21.3 -0.8,0.7 -0.9,1.9 -0.2,2.6 0.4,0.4 1,0.6 1.5,0.6 0.5,0 0.9,-0.1 1.3,-0.5 7.6,-6.1 13.4,-14 16.8,-22.9 3.5,-9.1 4.2,-18.9 2.1,-28.4 l -0.3,-1.5 c -0.9,-5.8 0.6,-11.6 4.1,-16.6 2.1,-2.9 4.8,-5.3 7.8,-7.1 3.9,-2.7 8.7,-4.3 13.8,-4.3 1.3,0.2 2.4,0.3 3.5,0.4 z"
   id="path62" />
				<path
   d="m 385.3,651.1 v 0 l -0.3,-1.6 c -1.7,-8 -7.1,-14.8 -14.8,-18.8 -1,-0.5 -2.2,-0.2 -2.7,0.7 -0.4,0.7 -0.3,1.6 0.3,2.1 0.7,0.4 1.4,0.8 2,1.3 5.6,3.4 9.6,8.6 11.2,14.6 l 0.2,0.8 c 5.3,24.6 0.8,50.1 -12.9,71.7 -0.6,0.9 -0.2,2 0.7,2.6 0.3,0.2 0.7,0.3 1,0.3 0.7,0 1.4,-0.3 1.7,-0.9 13.7,-22 18.6,-47.8 13.6,-72.8 z"
   id="path64" />
				<path
   d="m 318.6,686.7 c 0.4,-1 -0.1,-2 -1.1,-2.4 -1,-0.4 -2.2,0.1 -2.6,1.1 -2.8,6.7 -7.4,12.6 -13.4,17.1 -0.9,0.7 -1,1.8 -0.3,2.6 0.4,0.5 1,0.7 1.6,0.7 0.4,0 0.9,-0.1 1.3,-0.4 6.5,-5 11.5,-11.4 14.5,-18.7 z"
   id="path66" />
				<path
   d="m 394.9,689 c 2.4,-13.3 2.2,-26.9 -0.6,-40.3 v 0 l -0.2,-0.9 c -2.1,-9.5 -8,-17.8 -16.8,-23.2 -8.7,-5.4 -19.2,-7.3 -29.5,-5.4 -10.3,1.9 -19.2,7.5 -25,15.6 -5.8,8.1 -7.9,17.8 -5.8,27.4 l 0.4,1.8 c 0.6,3.6 0.7,7.2 0.3,10.8 -0.1,1 0.7,1.9 1.8,2.1 1.1,0.1 2.1,-0.6 2.2,-1.7 0.5,-4.6 0.3,-9.2 -0.7,-13.7 l -0.4,-1.7 c -1.3,-8 0.6,-16.1 5.5,-22.9 5.2,-7.3 13.2,-12.2 22.4,-14 9.2,-1.7 18.7,0 26.5,4.8 7.7,4.7 13,11.9 15,20.3 l 0.1,0.5 c 2.9,13.2 3.1,26.6 0.8,39.8 -0.2,1 0.6,2 1.7,2.1 0.1,0 0.2,0 0.3,0 1,0.1 1.8,-0.5 2,-1.4 z"
   id="path68" />
				<path
   d="m 390.9,697.6 c -1.1,-0.3 -2.2,0.3 -2.5,1.3 -2,6.8 -4.7,13.5 -8,19.8 -0.5,0.9 -0.1,2 0.9,2.5 0.3,0.1 0.6,0.2 0.9,0.2 0.7,0 1.5,-0.4 1.8,-1 3.5,-6.6 6.2,-13.5 8.3,-20.5 0.3,-1 -0.3,-2 -1.4,-2.3 z"
   id="path70" />
				<path
   d="m 403,645.4 v 0 c -1.5,-6.1 -4.2,-11.8 -8.2,-16.9 -0.7,-0.8 -1.9,-1 -2.8,-0.4 -0.9,0.6 -1.1,1.8 -0.4,2.6 3.8,4.8 6.4,10.3 7.6,16.2 l 0.1,0.5 c 4.7,22 2.6,44.7 -6,65.6 -0.4,1 0.1,2 1.2,2.4 0.2,0.1 0.5,0.1 0.7,0.1 0.8,0 1.6,-0.5 1.9,-1.2 9,-21.7 11.1,-45.3 6.1,-68.1 z"
   id="path72" />
				<path
   d="m 345.9,610.8 c -3.7,0.7 -7.3,1.8 -10.7,3.2 -1,0.4 -1.5,1.5 -1,2.5 0.5,0.9 1.7,1.3 2.7,0.9 3.1,-1.3 6.4,-2.3 9.8,-3 13.2,-2.5 26.7,0.7 37.1,8.6 0.4,0.3 0.8,0.4 1.3,0.4 0.6,0 1.2,-0.2 1.6,-0.7 0.7,-0.8 0.6,-2 -0.3,-2.6 -11.4,-8.6 -26.1,-12 -40.5,-9.3 z"
   id="path74" />
				<path
   d="m 311.8,663.2 -0.4,-1.6 c -2.5,-14.6 3.5,-29.3 16,-38.7 0.9,-0.7 1,-1.8 0.3,-2.6 -0.7,-0.8 -2,-0.9 -2.8,-0.3 -14.1,10.6 -20.6,27.5 -17,44 l 0.3,1.5 c 1.9,11.6 -2.9,23.2 -12.8,30.6 -0.9,0.6 -1,1.8 -0.3,2.6 0.4,0.5 1,0.7 1.6,0.7 0.4,0 0.9,-0.1 1.3,-0.4 11.4,-8.7 16.7,-22.4 13.8,-35.8 z"
   id="path76" />
				<path
   d="m 302.7,664.9 -0.4,-1.6 c -0.4,-2.1 -0.6,-4.2 -0.7,-6.3 0,-1 -1,-1.8 -2.1,-1.8 -1.1,0 -2,0.9 -1.9,1.9 0.1,2.9 0.5,5.7 1.1,8.5 l 0.2,1.1 c 1.4,8.3 -2,16.6 -8.9,22.1 -0.8,0.7 -1,1.8 -0.2,2.6 0.4,0.4 1,0.7 1.5,0.7 0.5,0 0.9,-0.1 1.3,-0.4 8.4,-6.6 12.3,-16.8 10.1,-26.8 z"
   id="path78" />
				<path
   d="m 408.4,645.1 0.2,0.9 c 0.4,1.9 0.7,3.8 1.1,5.7 0.1,0.9 1,1.6 2,1.6 0.1,0 0.2,0 0.3,0 1.1,-0.2 1.9,-1.1 1.7,-2.1 -0.4,-2.3 -0.8,-4.6 -1.3,-6.8 l -0.3,-1.3 v 0 c -3.3,-13.5 -11.9,-25.1 -24.4,-32.8 -12.9,-7.9 -28.4,-10.8 -43.5,-7.9 -11.7,2.2 -22.2,7.5 -30.4,15.5 -8,7.8 -13.3,17.5 -15.3,28 -0.2,1 0.5,2 1.6,2.2 1.1,0.2 2.1,-0.5 2.3,-1.5 1.8,-9.8 6.8,-18.8 14.2,-26.1 7.6,-7.4 17.4,-12.4 28.3,-14.4 14.1,-2.6 28.5,0 40.5,7.4 12,7.3 20.1,18.6 23,31.6 z"
   id="path80" />
				<path
   d="m 412.7,660.5 c -1.1,0.1 -2,1 -1.9,2 0.9,13.7 -0.5,27.5 -4.4,40.8 -0.3,1 0.4,2 1.4,2.3 0.2,0 0.3,0.1 0.5,0.1 0.9,0 1.7,-0.6 1.9,-1.4 3.9,-13.7 5.4,-27.8 4.5,-42 0.1,-1.1 -0.8,-1.8 -2,-1.8 z"
   id="path82" />
				<path
   d="m 293.6,666.6 -0.2,-1 c -3,-15 0.4,-30.3 9.5,-43 9.3,-13 23.6,-21.9 40.2,-25 7,-1.3 14,-1.5 21,-0.6 1.1,0.1 2.1,-0.6 2.3,-1.6 0.1,-1 -0.6,-2 -1.7,-2.1 -7.4,-0.9 -14.9,-0.7 -22.3,0.7 -17.6,3.3 -32.8,12.7 -42.7,26.6 -9.9,13.9 -13.5,30.5 -9.9,46.9 l 0.1,0.6 c 0.8,4.7 -0.8,9.5 -4.3,12.9 -0.8,0.8 -0.7,1.9 0.1,2.6 0.4,0.3 0.9,0.5 1.4,0.5 0.5,0 1.1,-0.2 1.5,-0.6 4.3,-4.5 6.3,-10.8 5,-16.9 z"
   id="path84" />
				<path
   d="m 421.1,641 v 0 c -5.4,-21.3 -22.5,-38.6 -45.1,-45.4 -1.1,-0.3 -2.2,0.2 -2.5,1.2 -0.3,1 0.2,2 1.3,2.3 21.8,6.5 38.2,23.5 42.7,44.3 l 0.3,1.2 c 2.9,14.1 3.5,28.5 1.6,42.7 -0.1,1 0.6,2 1.7,2.1 0.1,0 0.2,0 0.3,0 1,0 1.9,-0.7 2,-1.6 2,-15 1.4,-30.1 -1.9,-45.1 z"
   id="path86" />
			</g>
		</g>
	</g>
	<g
   id="g122">
		<g
   id="g118">
			<g
   id="g104">
				<g
   id="g98">
					<g
   id="g96">
						<path
   class="st1"
   d="m 1004.1,519.7 c -10.3,0 -18.7,-8.4 -18.7,-18.7 0,-10.3 8.4,-18.7 18.7,-18.7 10.3,0 18.7,8.4 18.7,18.7 0,10.3 -8.4,18.7 -18.7,18.7 z m 0,-27.6 c -5,0 -9,4 -9,9 0,5 4,9 9,9 5,0 9,-4 9,-9 0,-5 -4,-9 -9,-9 z"
   id="path94"
   style="fill:#000000" />
					</g>
				</g>
				<g
   id="g102">
					<polygon
   class="st1"
   points="690.1,454.3 690.1,509.4 676.3,509.4 676.2,444.3 838.7,345.4 1011.3,444.4 1011.4,490.1 997.5,490.1 997.5,455 838.9,359.9 "
   id="polygon100"
   style="fill:#000000" />
				</g>
			</g>
			<g
   id="g116">
				<g
   id="g110">
					<g
   id="g108">
						<path
   class="st1"
   d="m 683.9,580.1 c -10.3,0 -18.7,-8.4 -18.7,-18.7 0,-10.3 8.4,-18.7 18.7,-18.7 10.3,0 18.7,8.4 18.7,18.7 0,10.4 -8.4,18.7 -18.7,18.7 z m 0,-27.6 c -5,0 -9,4 -9,9 0,5 4,9 9,9 5,0 9,-4 9,-9 0,-5 -4,-9 -9,-9 z"
   id="path106"
   style="fill:#000000" />
					</g>
				</g>
				<g
   id="g114">
					<polygon
   class="st1"
   points="690.1,635.4 838.8,718.4 997.5,632.3 997.5,550.6 1011.4,550.6 1011.3,642.9 838.7,734.6 676.3,642.7 676.3,574 690.1,573.9 "
   id="polygon112"
   style="fill:#000000" />
				</g>
			</g>
		</g>
		<path
   class="st2"
   d="m 887.4,500.1 c -42.6,-46.9 -31,-82.5 -39.5,-82.5 -2.8,0 -85.5,87.7 -85.5,176.5 0,50.8 58.7,68.4 87,68.4 85.2,-0.1 100.8,-93.1 38,-162.4 z m -78.4,119 c -21.8,-21 -13.5,-65.8 -11.1,-66.1 2.4,-0.3 15,32.2 37.4,34.4 15.4,1.5 31.6,13.3 31.7,27.6 0.1,13.9 -25,35.9 -58,4.1 z"
   id="path120"
   style="fill:#000000" />
	</g>
</g>
</svg>
