<?xml version="1.0" encoding="UTF-8" standalone="no"?>
<!-- Generator: Adobe Illustrator 28.0.0, SVG Export Plug-In . SVG Version: 6.00 Build 0)  -->

<svg
   version="1.1"
   id="Capa_1"
   x="0px"
   y="0px"
   viewBox="0 0 1080 1080"
   style="enable-background:new 0 0 1080 1080;"
   xml:space="preserve"
   sodipodi:docname="logo-nombre-negro.svg"
   inkscape:export-filename="logo-nombre-negro.svg"
   inkscape:export-xdpi="96"
   inkscape:export-ydpi="96"
   inkscape:version="1.2.1 (9c6d41e410, 2022-07-14)"
   xmlns:inkscape="http://www.inkscape.org/namespaces/inkscape"
   xmlns:sodipodi="http://sodipodi.sourceforge.net/DTD/sodipodi-0.dtd"
   xmlns="http://www.w3.org/2000/svg"
   xmlns:svg="http://www.w3.org/2000/svg"><defs
   id="defs57" /><sodipodi:namedview
   id="namedview55"
   pagecolor="#ffffff"
   bordercolor="#000000"
   borderopacity="0.25"
   inkscape:showpageshadow="2"
   inkscape:pageopacity="0.0"
   inkscape:pagecheckerboard="0"
   inkscape:deskcolor="#d1d1d1"
   showgrid="false"
   inkscape:zoom="0.775"
   inkscape:cx="499.35484"
   inkscape:cy="539.35484"
   inkscape:window-width="1920"
   inkscape:window-height="1017"
   inkscape:window-x="-8"
   inkscape:window-y="-8"
   inkscape:window-maximized="1"
   inkscape:current-layer="g20" />
<style
   type="text/css"
   id="style2">
	.st0{fill:#2ED8AC;}
	.st1{fill:#FFFFFF;}
	.st2{fill:#CBB32B;}
</style>
<g
   id="g52">
	<g
   id="g10">
		<path
   class="st0"
   d="M385.8,707.8c-10,0-19.4-1.6-28-4.9c-8.6-3.3-16.1-7.9-22.4-13.9c-6.3-6-11.2-13-14.8-21    c-3.6-8-5.4-16.8-5.4-26.4c0-9.4,1.8-18.1,5.4-26.1c3.6-8,8.5-15,14.8-20.9c6.3-6,13.7-10.6,22.3-13.9c8.6-3.3,18-4.9,28.1-4.9    c10.2,0,19.5,1.6,28.1,4.9c8.6,3.3,16,7.9,22.3,13.8c6.3,5.9,11.2,12.9,14.8,20.9c3.6,8,5.4,16.7,5.4,26.3    c0,9.7-1.8,18.5-5.3,26.6c-3.5,8-8.4,15-14.8,20.9c-6.3,5.9-13.8,10.5-22.4,13.8C405.3,706.1,395.9,707.8,385.8,707.8z M385.8,678    c4.8,0,9.3-0.8,13.5-2.5c4.2-1.7,7.8-4.1,10.9-7.3c3.1-3.2,5.5-7,7.3-11.4c1.8-4.4,2.6-9.4,2.6-15c0-5.6-0.9-10.5-2.6-15    c-1.8-4.4-4.2-8.2-7.3-11.4c-3.1-3.2-6.7-5.7-10.9-7.3c-4.2-1.7-8.7-2.5-13.5-2.5c-4.8,0-9.3,0.8-13.5,2.5    c-4.2,1.7-7.8,4.1-11,7.3c-3.1,3.2-5.6,7-7.3,11.4c-1.7,4.4-2.5,9.4-2.5,15c0,5.6,0.8,10.6,2.5,15c1.7,4.4,4.1,8.2,7.3,11.4    c3.1,3.2,6.8,5.7,11,7.3C376.4,677.2,380.9,678,385.8,678z"
   id="path4" />
		<path
   class="st0"
   d="M470.3,705.2v-127h35.9v127H470.3z"
   id="path6" />
		<path
   class="st0"
   d="M531.7,705.2v-127h35.9v98.5H628v28.5H531.7z"
   id="path8" />
	</g>
	<g
   id="g20">
		<path
   class="st1"
   d="M149.3,543.2c-10.8,0-21.3-1.4-31.2-4c-10-2.7-18.2-6.2-24.5-10.4l-2.7-1.8l14.9-33.8l3.8,2.4    c5.4,3.4,11.7,6.3,18.8,8.5c7,2.2,14.1,3.4,21,3.4c4.7,0,8.4-0.4,11-1.1c2.2-0.6,3.8-1.5,4.7-2.5c0.8-0.9,1.1-1.8,1.1-3    c0-1-0.3-2.1-2.1-3.3c-2.3-1.4-5.5-2.7-9.4-3.7c-4.2-1.1-8.8-2.2-13.7-3.2c-5.1-1.1-10.4-2.5-15.8-4.2c-5.5-1.8-10.6-4.2-15.1-7.2    c-4.7-3.1-8.6-7.2-11.5-12.2c-2.9-5-4.4-11.4-4.4-18.8c0-8.2,2.3-15.9,6.8-22.7c4.5-6.8,11.3-12.2,20.3-16.3c8.8-4,19.8-6,32.8-6    c8.6,0,17.2,1,25.5,2.9c8.4,2,16,5,22.5,8.9l2.9,1.7l-13.8,33.6l-3.8-2.1c-5.7-3.2-11.5-5.6-17.1-7.1c-5.6-1.5-11-2.2-16.2-2.2    c-4.5,0-8.1,0.5-10.6,1.4c-2.3,0.8-3.9,1.8-4.8,2.9c-0.8,1-1.2,2-1.2,3c0,1.1,0.3,2.3,2.1,3.5c2.3,1.4,5.4,2.6,9.2,3.5    c4.2,1,8.8,2.1,13.9,3.1c5.2,1.1,10.5,2.5,15.7,4.2c5.4,1.7,10.4,4.1,15,6.9c4.8,3,8.7,7.1,11.7,12c3,5,4.6,11.3,4.6,18.6    c0,8.1-2.3,15.7-6.9,22.6c-4.6,6.8-11.4,12.3-20.4,16.4C173.4,541.2,162.3,543.2,149.3,543.2z M100.7,524c5.2,3,11.7,5.5,19.4,7.6    c9.2,2.5,19.1,3.8,29.2,3.8c12,0,22-1.8,29.8-5.3c7.6-3.4,13.4-8,17.1-13.6c3.8-5.6,5.6-11.6,5.6-18.2c0-5.9-1.2-10.8-3.4-14.6    c-2.3-3.9-5.4-7-9.2-9.4c-4-2.5-8.4-4.6-13.2-6.1c-4.9-1.6-10-2.9-14.9-4c-5.2-1.1-9.9-2.2-14.2-3.2c-4.6-1.1-8.5-2.6-11.5-4.5    c-3.8-2.3-5.9-5.8-5.9-10.1c0-2.8,1-5.5,2.8-7.9c1.8-2.3,4.5-4.1,8.3-5.4c3.5-1.3,7.8-1.9,13.3-1.9c5.9,0,12,0.8,18.2,2.5    c4.9,1.3,10,3.2,15,5.7l7.9-19.3c-5.1-2.7-10.9-4.8-17.3-6.3c-7.7-1.8-15.7-2.7-23.7-2.7c-11.8,0-21.8,1.8-29.6,5.3    c-7.6,3.4-13.4,8-17,13.5c-3.7,5.6-5.5,11.6-5.5,18.3c0,6,1.1,11.1,3.4,14.9c2.3,3.9,5.3,7.2,9,9.6c3.9,2.6,8.4,4.7,13.2,6.3    c5,1.6,10,3,14.9,4c5.1,1,9.9,2.2,14.2,3.3c4.7,1.3,8.5,2.8,11.5,4.6c4.8,3,5.9,7,5.9,9.9c0,3.1-1,5.9-3.1,8.2    c-1.9,2.1-4.7,3.7-8.4,4.8c-3.3,1-7.6,1.4-13.1,1.4c-7.7,0-15.6-1.3-23.4-3.7c-6.1-1.9-11.7-4.3-16.7-7.1L100.7,524z"
   id="path12"
   style="fill:#0a0a0a;fill-opacity:1" />
		<path
   class="st1"
   d="M429.3,543.2h-43.7V408.4h107.2v35.7h-63.5v19.9h55.9v35.6h-55.9V543.2z M393.4,535.4h28.1v-43.5h55.9v-19.9    h-55.9v-35.6H485v-20.1h-91.6V535.4z"
   id="path14"
   style="fill:#0a0a0a;fill-opacity:1" />
		<path
   class="st1"
   d="M257.7,543.2H212l59.8-135h40.5l60.5,134.6h-46.5L316.3,518h-48.5L257.7,543.2z M224,535.4h28.4l10.1-25.1h59    l10.1,24.8h29.2l-53.5-119h-30.4L224,535.4z M314.7,491.8h-45.3l22.8-53.1L314.7,491.8z M281.3,484h21.6l-10.8-25.4L281.3,484z"
   id="path16"
   style="fill:#0a0a0a;fill-opacity:1" />
		<path
   class="st1"
   d="M616.2,543.2H506.6V408.4h107.2v35.7h-64v14.1H606v34.5h-56.2v14.7h66.4V543.2z M514.4,535.4h93.9v-20.1H542    v-30.3h56.2v-18.9H542v-29.7h64v-20.1h-91.6V535.4z"
   id="path18"
   style="fill:#0a0a0a;fill-opacity:1" />
	</g>
	<g
   id="g50"
   style="fill:#000000;fill-opacity:1">
		<g
   id="g46"
   style="fill:#000000;fill-opacity:1">
			<g
   id="g32"
   style="fill:#000000;fill-opacity:1">
				<g
   id="g26"
   style="fill:#000000;fill-opacity:1">
					<g
   id="g24"
   style="fill:#000000;fill-opacity:1">
						<path
   class="st1"
   d="M971.7,521c-9.6,0-17.4-7.8-17.4-17.4s7.8-17.4,17.4-17.4s17.4,7.8,17.4,17.4S981.3,521,971.7,521z         M971.7,495.2c-4.6,0-8.4,3.8-8.4,8.4s3.8,8.4,8.4,8.4c4.6,0,8.4-3.8,8.4-8.4S976.3,495.2,971.7,495.2z"
   id="path22"
   style="fill:#000000;fill-opacity:1" />
					</g>
				</g>
				<g
   id="g30"
   style="fill:#000000;fill-opacity:1">
					<polygon
   class="st1"
   points="978.5,493.3 965.5,493.3 965.5,460.5 817.2,371.5 678,459.9 678,511.4 665.1,511.4 665,450.5        817,358 978.4,450.6      "
   id="polygon28"
   style="fill:#000000;fill-opacity:1" />
				</g>
			</g>
			<g
   id="g44"
   style="fill:#000000;fill-opacity:1">
				<g
   id="g38"
   style="fill:#000000;fill-opacity:1">
					<g
   id="g36"
   style="fill:#000000;fill-opacity:1">
						<path
   class="st1"
   d="M672.2,577.6c-9.6,0-17.4-7.8-17.4-17.4s7.8-17.4,17.4-17.4c9.6,0,17.4,7.8,17.4,17.4        S681.9,577.6,672.2,577.6z M672.2,551.7c-4.6,0-8.4,3.8-8.4,8.4c0,4.6,3.8,8.4,8.4,8.4c4.6,0,8.4-3.8,8.4-8.4        C680.6,555.5,676.9,551.7,672.2,551.7z"
   id="path34"
   style="fill:#000000;fill-opacity:1" />
					</g>
				</g>
				<g
   id="g42"
   style="fill:#000000;fill-opacity:1">
					<polygon
   class="st1"
   points="817,722 665.1,636.1 665.1,571.8 678,571.7 678,629.2 817,706.8 965.5,626.3 965.5,549.9        978.5,549.9 978.4,636.2      "
   id="polygon40"
   style="fill:#000000;fill-opacity:1" />
				</g>
			</g>
		</g>
		<path
   class="st2"
   d="M862.5,502.7c-39.8-43.9-29-77.2-36.9-77.2c-2.6,0-80,82-80,165.1c0,47.5,54.9,63.9,81.3,63.9    C906.7,654.5,921.2,567.5,862.5,502.7z M789.2,614c-20.4-19.7-12.7-61.5-10.4-61.8c2.3-0.3,14,30.1,35,32.1    c14.4,1.4,29.6,12.5,29.6,25.8C843.6,623.2,820.1,643.8,789.2,614z"
   id="path48"
   style="fill:#cbb32b;fill-opacity:1" />
	</g>
</g>
</svg>
