<?xml version="1.0" encoding="UTF-8" standalone="no"?>
<!-- Generator: Adobe Illustrator 28.0.0, SVG Export Plug-In . SVG Version: 6.00 Build 0)  -->

<svg
   version="1.1"
   id="Capa_1"
   x="0px"
   y="0px"
   viewBox="0 0 1166400 1166400"
   xml:space="preserve"
   sodipodi:docname="logo-todo-blanco.svg"
   width="1166400"
   height="1166400"
   xmlns:inkscape="http://www.inkscape.org/namespaces/inkscape"
   xmlns:sodipodi="http://sodipodi.sourceforge.net/DTD/sodipodi-0.dtd"
   xmlns="http://www.w3.org/2000/svg"
   xmlns:svg="http://www.w3.org/2000/svg"><defs
   id="defs63" /><sodipodi:namedview
   id="namedview61"
   pagecolor="#ffffff"
   bordercolor="#000000"
   borderopacity="0.25"
   inkscape:showpageshadow="2"
   inkscape:pageopacity="0.0"
   inkscape:pagecheckerboard="0"
   inkscape:deskcolor="#d1d1d1"
   showgrid="false" />
<style
   type="text/css"
   id="style2">
	.st0{fill:#2ED8AC;}
	.st1{fill:#FFFFFF;}
</style>
<g
   id="g58"
   transform="translate(0,-1.2903226)"
   style="fill:#1a1a1a">
	<g
   id="g6"
   style="fill:#1a1a1a">
		<path
   class="st0"
   d="M 578,549.1"
   id="path4"
   style="fill:#1a1a1a" />
	</g>
	<g
   id="g10"
   style="fill:#1a1a1a">
		<path
   class="st0"
   d="M 567.3,549.1"
   id="path8"
   style="fill:#1a1a1a" />
	</g>
	<g
   id="g18"
   style="fill:#1a1a1a">
		<path
   class="st1"
   d="m 380.7,713.2 c -10.4,0 -20,-1.7 -28.9,-5.1 -8.9,-3.4 -16.6,-8.1 -23.1,-14.3 -6.5,-6.2 -11.6,-13.4 -15.3,-21.7 -3.7,-8.3 -5.5,-17.4 -5.5,-27.3 0,-9.7 1.8,-18.7 5.5,-27 3.7,-8.2 8.8,-15.5 15.3,-21.6 6.5,-6.2 14.2,-11 23,-14.3 8.9,-3.4 18.5,-5.1 29,-5.1 10.5,0 20.2,1.7 29,5.1 8.9,3.4 16.5,8.1 23,14.2 6.5,6.1 11.6,13.3 15.3,21.5 3.7,8.2 5.5,17.3 5.5,27.2 0,10 -1.8,19.1 -5.4,27.4 -3.6,8.3 -8.7,15.5 -15.3,21.6 -6.6,6.1 -14.3,10.9 -23.1,14.2 -8.8,3.6 -18.5,5.2 -29,5.2 z m 0,-30.7 c 5,0 9.6,-0.9 14,-2.6 4.3,-1.7 8.1,-4.3 11.2,-7.6 3.2,-3.3 5.7,-7.2 7.5,-11.8 1.8,-4.6 2.7,-9.7 2.7,-15.5 0,-5.7 -0.9,-10.9 -2.7,-15.5 -1.8,-4.6 -4.3,-8.5 -7.5,-11.8 -3.2,-3.3 -6.9,-5.8 -11.2,-7.6 -4.3,-1.7 -9,-2.6 -14,-2.6 -5,0 -9.6,0.9 -14,2.6 -4.3,1.8 -8.1,4.3 -11.3,7.6 -3.2,3.3 -5.7,7.2 -7.5,11.8 -1.7,4.6 -2.6,9.7 -2.6,15.5 0,5.7 0.9,10.9 2.6,15.5 1.7,4.6 4.2,8.5 7.5,11.8 3.2,3.3 7,5.8 11.3,7.6 4.4,1.8 9,2.6 14,2.6 z"
   id="path12"
   style="fill:#1a1a1a" />
		<path
   class="st1"
   d="M 468,710.6 V 579.5 h 37.1 v 131.1 z"
   id="path14"
   style="fill:#1a1a1a" />
		<path
   class="st1"
   d="M 531.5,710.6 V 579.5 h 37.1 V 681.2 H 631 v 29.4 z"
   id="path16"
   style="fill:#1a1a1a" />
	</g>
	<g
   id="g28"
   style="fill:#1a1a1a">
		<path
   class="st1"
   d="m 136.5,543.3 c -11.2,0 -22,-1.4 -32.2,-4.2 C 94,536.3 85.5,532.7 79,528.3 l -2.8,-1.9 15.4,-34.9 4,2.5 c 5.5,3.5 12.1,6.5 19.4,8.8 7.2,2.3 14.6,3.5 21.7,3.5 4.8,0 8.7,-0.4 11.3,-1.2 2.3,-0.6 3.9,-1.5 4.8,-2.5 0.8,-0.9 1.1,-1.9 1.1,-3.1 0,-1 -0.3,-2.2 -2.2,-3.4 -2.4,-1.5 -5.7,-2.8 -9.7,-3.8 -4.3,-1.2 -9.1,-2.3 -14.2,-3.3 -5.3,-1.1 -10.8,-2.5 -16.3,-4.3 -5.7,-1.9 -10.9,-4.3 -15.6,-7.4 C 91,474.1 87,469.9 84,464.7 c -3,-5.2 -4.6,-11.8 -4.6,-19.4 0,-8.5 2.4,-16.4 7,-23.4 4.6,-7 11.7,-12.6 21,-16.8 9.1,-4.1 20.5,-6.2 33.9,-6.2 8.9,0 17.7,1 26.3,3 8.7,2 16.5,5.1 23.2,9.2 l 2.9,1.8 -14.3,34.7 -4,-2.2 c -5.9,-3.3 -11.9,-5.8 -17.6,-7.3 -5.8,-1.5 -11.4,-2.3 -16.8,-2.3 -4.6,0 -8.3,0.5 -11,1.4 -2.4,0.8 -4.1,1.9 -4.9,3 -0.8,1 -1.2,2 -1.2,3.1 0,1.2 0.3,2.4 2.2,3.6 2.4,1.5 5.6,2.7 9.5,3.6 4.3,1 9.1,2.1 14.4,3.3 5.4,1.1 10.9,2.6 16.2,4.3 5.5,1.8 10.7,4.2 15.4,7.2 4.9,3.1 9,7.3 12.1,12.4 3.1,5.2 4.7,11.6 4.7,19.2 0,8.4 -2.4,16.2 -7.1,23.3 -4.7,7 -11.8,12.7 -21.1,16.9 -8.7,4.1 -20.2,6.2 -33.7,6.2 z M 86.4,523.4 c 5.3,3.1 12.1,5.7 20,7.9 9.5,2.6 19.7,3.9 30.1,3.9 12.3,0 22.7,-1.8 30.7,-5.5 7.9,-3.5 13.8,-8.3 17.7,-14 3.9,-5.8 5.8,-12 5.8,-18.8 0,-6.1 -1.2,-11.2 -3.5,-15.1 -2.4,-4 -5.6,-7.3 -9.5,-9.7 -4.1,-2.6 -8.7,-4.7 -13.6,-6.3 -5.1,-1.6 -10.3,-3 -15.4,-4.1 -5.3,-1.1 -10.3,-2.2 -14.6,-3.3 -4.8,-1.2 -8.7,-2.7 -11.8,-4.6 -4,-2.4 -6,-6 -6,-10.5 0,-2.9 1,-5.6 2.9,-8.1 1.9,-2.4 4.7,-4.2 8.5,-5.6 3.6,-1.3 8.1,-1.9 13.7,-1.9 6.1,0 12.4,0.9 18.8,2.6 5.1,1.4 10.3,3.3 15.5,5.9 l 8.2,-20 c -5.3,-2.8 -11.3,-5 -17.8,-6.5 -8,-1.9 -16.2,-2.8 -24.5,-2.8 -12.2,0 -22.5,1.8 -30.6,5.5 -7.9,3.5 -13.8,8.2 -17.6,13.9 -3.8,5.7 -5.7,11.9 -5.7,18.9 0,6.2 1.2,11.4 3.5,15.4 2.4,4.1 5.5,7.4 9.3,9.9 4,2.7 8.6,4.8 13.6,6.5 5.2,1.7 10.4,3.1 15.4,4.1 5.2,1.1 10.2,2.2 14.7,3.4 4.9,1.3 8.7,2.9 11.8,4.8 5,3.1 6,7.3 6,10.3 0,3.2 -1.1,6.1 -3.2,8.5 -1.9,2.2 -4.9,3.9 -8.7,5 -3.4,1 -7.9,1.5 -13.6,1.5 -8,0 -16.1,-1.3 -24.2,-3.8 -6.3,-2 -12.1,-4.5 -17.3,-7.3 z"
   id="path20"
   style="fill:#1a1a1a" />
		<path
   class="st1"
   d="M 425.7,543.3 H 380.6 V 404.1 H 491.3 V 441 h -65.6 v 20.6 h 57.7 v 36.7 h -57.7 z m -37.1,-8.1 h 29 v -44.9 h 57.7 V 469.7 H 417.6 V 433 h 65.6 v -20.8 h -94.6 z"
   id="path22"
   style="fill:#1a1a1a" />
		<path
   class="st1"
   d="m 248.5,543.3 h -47.2 l 61.8,-139.4 h 41.8 l 62.5,139 h -48 L 309,517.3 h -50.1 z m -34.8,-8.1 H 243 l 10.4,-26 h 60.9 l 10.4,25.6 h 30.1 L 299.6,411.9 h -31.4 z m 93.6,-44.9 h -46.7 l 23.5,-54.8 z m -34.5,-8.1 h 22.3 L 284,456 Z"
   id="path24"
   style="fill:#1a1a1a" />
		<path
   class="st1"
   d="M 618.7,543.3 H 505.5 V 404.1 H 616.2 V 441 h -66.1 v 14.6 h 58.1 v 35.6 h -58.1 v 15.2 h 68.5 v 36.9 z m -105.1,-8.1 h 97 v -20.8 h -68.5 v -31.3 h 58.1 V 463.6 H 542.1 V 433 h 66.1 v -20.8 h -94.6 z"
   id="path26"
   style="fill:#1a1a1a" />
	</g>
	<g
   id="g54"
   style="fill:#1a1a1a">
		<g
   id="g40"
   style="fill:#1a1a1a">
			<g
   id="g34"
   style="fill:#1a1a1a">
				<g
   id="g32"
   style="fill:#1a1a1a">
					<path
   class="st1"
   d="m 985.8,520.4 c -9.9,0 -18,-8.1 -18,-18 0,-9.9 8.1,-18 18,-18 9.9,0 18,8.1 18,18 0,9.9 -8.1,18 -18,18 z m 0,-26.7 c -4.8,0 -8.7,3.9 -8.7,8.7 0,4.8 3.9,8.7 8.7,8.7 4.8,0 8.7,-3.9 8.7,-8.7 0,-4.8 -3.9,-8.7 -8.7,-8.7 z"
   id="path30"
   style="fill:#1a1a1a" />
				</g>
			</g>
			<g
   id="g38"
   style="fill:#1a1a1a">
				<polygon
   class="st1"
   points="682.5,510.5 669.2,510.5 669.1,447.6 826.1,352 992.7,447.7 992.8,491.8 979.4,491.8 979.4,457.9 826.2,366 682.6,457.3 "
   id="polygon36"
   style="fill:#1a1a1a" />
			</g>
		</g>
		<g
   id="g52"
   style="fill:#1a1a1a">
			<g
   id="g46"
   style="fill:#1a1a1a">
				<g
   id="g44"
   style="fill:#1a1a1a">
					<path
   class="st1"
   d="m 676.6,578.8 c -9.9,0 -18,-8.1 -18,-18 0,-9.9 8.1,-18 18,-18 9.9,0 18,8.1 18,18 0,9.9 -8.1,18 -18,18 z m 0,-26.7 c -4.8,0 -8.7,3.9 -8.7,8.7 0,4.8 3.9,8.7 8.7,8.7 4.8,0 8.7,-3.9 8.7,-8.7 0,-4.8 -4,-8.7 -8.7,-8.7 z"
   id="path42"
   style="fill:#1a1a1a" />
				</g>
			</g>
			<g
   id="g50"
   style="fill:#1a1a1a">
				<polygon
   class="st1"
   points="826.1,712.3 979.4,629.2 979.4,550.3 992.8,550.2 992.7,639.3 826.1,728 669.1,639.2 669.2,572.8 682.5,572.7 682.5,632.1 "
   id="polygon48"
   style="fill:#1a1a1a" />
			</g>
		</g>
	</g>
	<path
   class="st1"
   d="m 873,501.5 c -41.1,-45.3 -30,-79.7 -38.1,-79.7 -2.7,0 -82.6,84.7 -82.6,170.4 0,49.1 56.7,66 84,66 82.4,0 97.4,-89.8 36.7,-156.7 z m -75.6,114.9 c -21,-20.3 -13.1,-63.5 -10.7,-63.9 2.4,-0.3 14.5,31.1 36.1,33.2 14.8,1.4 30.5,12.9 30.6,26.6 0.1,13.6 -24.2,34.9 -56,4.1 z"
   id="path56"
   style="fill:#1a1a1a" />
</g>
</svg>
