<?xml version="1.0" encoding="utf-8"?>
<!-- Generator: Adobe Illustrator 28.0.0, SVG Export Plug-In . SVG Version: 6.00 Build 0)  -->
<svg version="1.1" id="Capa_1" xmlns="http://www.w3.org/2000/svg" xmlns:xlink="http://www.w3.org/1999/xlink" x="0px" y="0px"
	 viewBox="0 0 1800 1800" style="enable-background:new 0 0 1800 1800;" xml:space="preserve">
<style type="text/css">
	.st0{fill:#2ED8AC;}
	.st1{fill:#737A82;}
	.st2{fill:#CBB32B;}
</style>
<g>
	<g>
		<path class="st0" d="M954.6,913.1"/>
	</g>
	<g>
		<path class="st0" d="M939.2,913.1"/>
	</g>
	<g>
		<g>
			<path class="st0" d="M671.1,1149c-14.9,0-28.8-2.4-41.6-7.3c-12.8-4.8-23.9-11.7-33.2-20.6c-9.3-8.9-16.6-19.3-21.9-31.2
				c-5.3-11.9-7.9-25-7.9-39.2c0-14,2.6-26.9,7.9-38.8c5.3-11.8,12.6-22.2,21.9-31.1c9.3-8.9,20.4-15.7,33.1-20.6
				c12.7-4.8,26.6-7.3,41.7-7.3s29,2.4,41.7,7.3c12.7,4.8,23.8,11.7,33.1,20.5c9.3,8.8,16.6,19.1,21.9,31c5.3,11.8,7.9,24.9,7.9,39
				c0,14.4-2.6,27.5-7.8,39.4c-5.2,11.9-12.5,22.3-21.9,31.1c-9.4,8.8-20.5,15.6-33.2,20.5C700.1,1146.6,686.2,1149,671.1,1149z
				 M671.1,1104.9c7.2,0,13.9-1.3,20.1-3.8c6.2-2.5,11.6-6.1,16.2-10.9c4.6-4.8,8.2-10.4,10.8-17c2.6-6.5,3.9-14,3.9-22.2
				c0-8.3-1.3-15.7-3.9-22.2c-2.6-6.5-6.2-12.2-10.8-17c-4.6-4.8-10-8.4-16.2-10.9c-6.2-2.5-12.9-3.8-20.1-3.8
				c-7.2,0-13.9,1.3-20.1,3.8c-6.2,2.5-11.6,6.1-16.3,10.9c-4.7,4.8-8.3,10.4-10.8,17c-2.5,6.6-3.8,14-3.8,22.2
				c0,8.3,1.3,15.7,3.8,22.2c2.5,6.6,6.1,12.2,10.8,17c4.7,4.8,10.1,8.4,16.3,10.9C657.2,1103.6,663.9,1104.9,671.1,1104.9z"/>
			<path class="st0" d="M796.5,1145.2V956.8h53.3v188.4H796.5z"/>
			<path class="st0" d="M887.7,1145.2V956.8H941V1103h89.6v42.3H887.7z"/>
		</g>
		<g>
			<path d="M320.1,904.7c-16,0-31.6-2-46.3-6c-14.8-4-27-9.2-36.3-15.5l-4-2.7l22.2-50.2l5.7,3.6c8,5.1,17.3,9.4,27.8,12.7
				c10.4,3.3,20.9,5,31.2,5c7,0,12.5-0.6,16.3-1.7c3.2-0.9,5.7-2.2,6.9-3.7c1.1-1.3,1.6-2.7,1.6-4.5c0-1.5-0.4-3.2-3.2-4.9
				c-3.4-2.1-8.1-4-13.9-5.5c-6.2-1.7-13.1-3.3-20.4-4.8c-7.6-1.6-15.5-3.7-23.4-6.2c-8.2-2.7-15.7-6.2-22.4-10.6
				c-7-4.6-12.7-10.7-17-18.1c-4.4-7.5-6.6-16.9-6.6-27.9c0-12.2,3.4-23.6,10.1-33.6c6.7-10,16.8-18.1,30.2-24.1
				c13.1-5.9,29.5-8.9,48.7-8.9c12.8,0,25.5,1.5,37.8,4.3c12.5,2.9,23.7,7.4,33.3,13.2l4.2,2.6l-20.5,49.9l-5.7-3.2
				c-8.5-4.8-17-8.3-25.3-10.5c-8.3-2.2-16.4-3.3-24.1-3.3c-6.7,0-12,0.7-15.8,2.1c-3.4,1.2-5.8,2.7-7.1,4.3
				c-1.2,1.5-1.7,2.9-1.7,4.5c0,1.7,0.4,3.5,3.2,5.2c3.4,2.1,8,3.9,13.7,5.2c6.2,1.5,13.1,3.1,20.7,4.7c7.8,1.6,15.6,3.7,23.3,6.2
				c8,2.6,15.4,6,22.2,10.3c7.1,4.5,12.9,10.5,17.3,17.8c4.5,7.4,6.8,16.7,6.8,27.6c0,12.1-3.5,23.3-10.3,33.5
				c-6.8,10.1-17,18.3-30.3,24.3C355.9,901.7,339.5,904.7,320.1,904.7z M248,876.2c7.7,4.4,17.3,8.2,28.8,11.3
				c13.7,3.7,28.3,5.6,43.3,5.6c17.7,0,32.6-2.6,44.2-7.8c11.3-5.1,19.9-11.9,25.4-20.1c5.6-8.3,8.3-17.2,8.3-27.1
				c0-8.7-1.7-16-5.1-21.6c-3.5-5.7-8-10.4-13.6-14c-5.9-3.8-12.5-6.8-19.5-9.1c-7.3-2.4-14.8-4.3-22.2-5.9
				c-7.7-1.6-14.8-3.2-21-4.7c-6.8-1.7-12.6-3.9-17-6.6c-5.7-3.5-8.7-8.7-8.7-15c0-4.2,1.4-8.1,4.2-11.7c2.7-3.4,6.7-6.1,12.3-8.1
				c5.2-1.9,11.6-2.8,19.7-2.8c8.7,0,17.8,1.2,27.1,3.7c7.3,1.9,14.8,4.8,22.2,8.5l11.8-28.7c-7.6-4-16.2-7.2-25.6-9.4
				c-11.5-2.7-23.3-4-35.2-4c-17.6,0-32.3,2.6-43.9,7.8c-11.3,5.1-19.8,11.8-25.3,20c-5.5,8.3-8.2,17.2-8.2,27.2
				c0,9,1.7,16.4,5,22.1c3.4,5.8,7.9,10.6,13.4,14.2c5.8,3.8,12.4,7,19.6,9.3c7.5,2.4,14.9,4.4,22.1,5.9c7.5,1.5,14.6,3.2,21.1,4.9
				c7,1.9,12.6,4.1,17,6.8c7.2,4.4,8.7,10.5,8.7,14.8c0,4.7-1.5,8.8-4.5,12.2c-2.8,3.2-7,5.6-12.4,7.1c-5,1.4-11.3,2.1-19.5,2.1
				c-11.5,0-23.2-1.9-34.7-5.5c-9-2.9-17.4-6.4-24.8-10.5L248,876.2z"/>
			<path d="M735.7,904.7h-64.9v-200h159.1v53h-94.2v29.6h82.9v52.8h-82.9V904.7z M682.4,893.1h41.7v-64.6H807v-29.6h-82.9v-52.8
				h94.2v-29.9H682.4V893.1z"/>
			<path d="M481,904.7h-67.8L502,704.3h60.1l89.8,199.8h-69l-14.9-36.8h-72L481,904.7z M431.1,893.1h42.1l14.9-37.3h87.6l14.9,36.8
				H634l-79.4-176.7h-45.1L431.1,893.1z M565.6,828.5h-67.2l33.8-78.8L565.6,828.5z M516,816.9h32.1l-16-37.7L516,816.9z"/>
			<path d="M1013.1,904.7H850.5v-200h159.1v53h-95v21H998v51.2h-83.5v21.8h98.5V904.7z M862.1,893.1h139.4v-29.9H903v-45h83.5v-28
				H903v-44.1h95v-29.9H862.1V893.1z"/>
		</g>
	</g>
	<g>
		<g>
			<g>
				<g>
					<g>
						<path class="st1" d="M1540.7,871.8c-14.3,0-25.9-11.6-25.9-25.9c0-14.3,11.6-25.9,25.9-25.9c14.3,0,25.9,11.6,25.9,25.9
							C1566.6,860.2,1555,871.8,1540.7,871.8z M1540.7,833.5c-6.9,0-12.5,5.6-12.5,12.5s5.6,12.5,12.5,12.5
							c6.9,0,12.5-5.6,12.5-12.5S1547.6,833.5,1540.7,833.5z"/>
					</g>
				</g>
				<g>
					<polygon class="st1" points="1550.8,830.7 1531.6,830.7 1531.6,782 1311.4,649.9 1104.9,781.1 1104.9,857.5 1085.6,857.6 
						1085.6,767.2 1311.1,629.8 1550.7,767.3 					"/>
				</g>
			</g>
			<g>
				<g>
					<g>
						<path class="st1" d="M1096.3,955.7c-14.3,0-25.9-11.6-25.9-25.9s11.6-25.9,25.9-25.9c14.3,0,25.9,11.6,25.9,25.9
							S1110.6,955.7,1096.3,955.7z M1096.3,917.4c-6.9,0-12.5,5.6-12.5,12.5s5.6,12.5,12.5,12.5c6.9,0,12.5-5.6,12.5-12.5
							S1103.2,917.4,1096.3,917.4z"/>
					</g>
				</g>
				<g>
					<polygon class="st1" points="1311.2,1170.2 1085.6,1042.6 1085.6,947.2 1104.9,947 1104.9,1032.4 1311.2,1147.6 1531.5,1028.1 
						1531.6,914.7 1550.8,914.7 1550.7,1042.8 					"/>
				</g>
			</g>
		</g>
		<path class="st2" d="M1378.7,844.6c-59.1-65.2-43.1-114.5-54.8-114.5c-3.8,0-118.7,121.7-118.7,245c0,70.5,81.5,94.9,120.7,94.9
			C1444.3,1069.9,1465.8,940.8,1378.7,844.6z M1269.9,1009.9c-30.2-29.2-18.8-91.3-15.4-91.8c3.4-0.5,20.8,44.7,51.9,47.7
			c21.3,2,43.9,18.5,44,38.3C1350.6,1023.4,1315.7,1054,1269.9,1009.9z"/>
	</g>
</g>
</svg>
