<?xml version="1.0" encoding="utf-8"?>
<!-- Generator: Adobe Illustrator 28.0.0, SVG Export Plug-In . SVG Version: 6.00 Build 0)  -->
<svg version="1.1" id="Capa_1" xmlns="http://www.w3.org/2000/svg" xmlns:xlink="http://www.w3.org/1999/xlink" x="0px" y="0px"
	 viewBox="0 0 1080 1080" style="enable-background:new 0 0 1080 1080;" xml:space="preserve">
<style type="text/css">
	.st0{fill:#2ED8AC;}
	.st1{fill:#737A82;}
	.st2{fill:#CBB32B;}
</style>
<g>
	<g>
		<g>
			<g>
				<path class="st0" d="M559.7,354"/>
			</g>
			<g>
				<path d="M119.6,544.1c-11.5,0-22.8-1.4-33.3-4.3c-10.7-2.9-19.5-6.6-26.1-11.1l-2.9-2l16-36.1l4.1,2.6c5.7,3.7,12.5,6.7,20,9.1
					c7.5,2.4,15.1,3.6,22.5,3.6c5,0,9-0.4,11.7-1.2c2.3-0.7,4.1-1.6,5-2.6c0.8-0.9,1.2-1.9,1.2-3.2c0-1-0.3-2.3-2.3-3.5
					c-2.5-1.5-5.9-2.9-10-4c-4.5-1.2-9.4-2.4-14.7-3.4c-5.5-1.1-11.1-2.6-16.8-4.5c-5.9-1.9-11.3-4.5-16.1-7.6
					c-5-3.3-9.2-7.7-12.3-13c-3.1-5.4-4.7-12.2-4.7-20.1c0-8.8,2.5-16.9,7.3-24.2c4.8-7.2,12.1-13.1,21.7-17.4
					c9.4-4.2,21.2-6.4,35-6.4c9.2,0,18.3,1,27.2,3.1c9,2.1,17,5.3,24,9.5l3,1.9l-14.8,35.9l-4.1-2.3c-6.1-3.4-12.3-6-18.2-7.6
					c-6-1.6-11.8-2.4-17.3-2.4c-4.8,0-8.6,0.5-11.4,1.5c-2.4,0.9-4.2,1.9-5.1,3.1c-0.8,1.1-1.2,2.1-1.2,3.2c0,1.2,0.3,2.5,2.3,3.7
					c2.5,1.5,5.8,2.8,9.8,3.8c4.4,1.1,9.4,2.2,14.9,3.4c5.6,1.2,11.2,2.7,16.8,4.5c5.7,1.8,11.1,4.3,16,7.4
					c5.1,3.2,9.3,7.5,12.5,12.8c3.2,5.4,4.9,12,4.9,19.9c0,8.7-2.5,16.8-7.4,24.1c-4.9,7.3-12.2,13.2-21.8,17.5
					C145.4,541.9,133.6,544.1,119.6,544.1z M67.7,523.6c5.5,3.2,12.5,5.9,20.7,8.2c9.9,2.7,20.4,4,31.2,4c12.8,0,23.5-1.9,31.8-5.6
					c8.1-3.7,14.3-8.5,18.3-14.5c4-6,6-12.4,6-19.5c0-6.3-1.2-11.5-3.7-15.6c-2.5-4.1-5.8-7.5-9.8-10.1c-4.3-2.7-9-4.9-14.1-6.5
					c-5.3-1.7-10.6-3.1-16-4.2c-5.5-1.2-10.6-2.3-15.1-3.4c-4.9-1.2-9-2.8-12.2-4.8c-4.1-2.5-6.2-6.2-6.2-10.8c0-3,1-5.8,3-8.4
					c1.9-2.5,4.8-4.4,8.8-5.8c3.7-1.3,8.4-2,14.2-2c6.3,0,12.8,0.9,19.5,2.7c5.3,1.4,10.6,3.5,16,6.1l8.5-20.6
					c-5.5-2.9-11.7-5.2-18.5-6.8c-8.2-1.9-16.8-2.9-25.3-2.9c-12.6,0-23.3,1.9-31.6,5.6c-8.1,3.7-14.3,8.5-18.2,14.4
					c-4,5.9-5.9,12.3-5.9,19.6c0,6.5,1.2,11.8,3.6,15.9c2.4,4.2,5.7,7.6,9.6,10.2c4.2,2.8,8.9,5,14.1,6.7c5.4,1.8,10.7,3.2,15.9,4.2
					c5.4,1.1,10.5,2.3,15.2,3.5c5,1.3,9,3,12.2,4.9c5.2,3.2,6.2,7.5,6.2,10.6c0,3.4-1.1,6.3-3.3,8.8c-2,2.3-5,4-9,5.1
					c-3.6,1-8.2,1.5-14,1.5c-8.3,0-16.7-1.3-25-4c-6.5-2.1-12.5-4.6-17.8-7.6L67.7,523.6z"/>
			</g>
			<g>
				<path d="M407.8,541.4h-46.7V397.4h114.5v38.2h-67.8v21.3h59.7v38h-59.7V541.4z M369.4,533h30v-46.5h59.7v-21.3h-59.7v-38h67.8
					v-21.5h-97.8V533z"/>
			</g>
			<g>
				<path d="M227.3,542.5h-48.8l63.9-144.2h43.3l64.6,143.8h-49.7l-10.8-26.4H238L227.3,542.5z M191.3,534.1h30.3l10.8-26.8h63
					l10.8,26.4h31.2l-57.1-127.1h-32.4L191.3,534.1z M288.1,487.6h-48.3l24.3-56.7L288.1,487.6z M252.4,479.3h23.1L264,452.2
					L252.4,479.3z"/>
			</g>
			<g>
				<path d="M612.8,539.7h-117V395.8h114.5V434h-68.4v15.1H602v36.8h-60.1v15.7h70.9V539.7z M504.1,531.4h100.3v-21.5h-70.9v-32.4
					h60.1v-20.1h-60.1v-31.8H602v-21.5h-97.8V531.4z"/>
			</g>
		</g>
		<g>
			<g>
				<path class="st0" d="M457,726V590.4h38.4V726H457z"/>
			</g>
			<g>
				<path class="st0" d="M522.6,726V590.4H561v105.2h64.5V726H522.6z"/>
			</g>
			<g>
				<path d="M282.1,666.9c1-0.2,1.9,0.3,2.3,1.2c-1.6-7.5-1.8-15.1-0.7-22.6c1.1-7.3,3.6-14.4,7.2-21c0.5-0.9,0.1-2-0.9-2.5
					c-1-0.5-2.2-0.1-2.7,0.8c-3.9,7-6.4,14.5-7.6,22.2c-1.2,8-1,16.1,0.8,24.2c0,0.1,0.1,0.1,0.1,0.2c0-0.1,0-0.2-0.1-0.2
					C280.3,668.1,281,667.1,282.1,666.9z"/>
				<path d="M294.1,615.8c0.4,0.2,0.8,0.4,1.2,0.4c0.6,0,1.2-0.3,1.6-0.8c10.7-13.6,26.4-22.9,44.3-26.3c15.8-3,31.8-1,46.3,5.5
					c1,0.5,2.2,0.1,2.7-0.9c0.5-0.9,0.1-2-0.9-2.5c-15.3-6.9-32.1-9-48.8-5.8c-18.8,3.5-35.4,13.4-46.7,27.7
					C293,614,293.2,615.2,294.1,615.8z"/>
				<path d="M428.3,639.5c0.9-0.2,1.9,0.3,2.2,1.1c-4-17.8-15-33.3-31-43.7c-0.9-0.6-2.2-0.4-2.8,0.5c-0.6,0.8-0.4,2,0.5,2.6
					c15.3,10,25.7,24.8,29.4,41.8c0,0.1,0.1,0.1,0.1,0.2c0-0.1,0-0.1,0-0.2C426.5,640.7,427.2,639.7,428.3,639.5z"/>
				<path d="M430.6,641c0-0.1-0.1-0.3-0.1-0.4C430.5,640.7,430.6,640.9,430.6,641c0.2,1-0.5,2-1.6,2.2c-0.1,0-0.3,0-0.4,0
					c-0.9,0-1.6-0.5-1.9-1.3c1,4.8,1.5,9.6,1.4,14.5c0,1,0.9,1.9,2,1.9c0,0,0,0,0,0c1.1,0,2-0.8,2-1.8
					C432.2,651.3,431.7,646.1,430.6,641z"/>
				<path d="M428.6,643.2c0.1,0,0.3,0,0.4,0c1.1-0.2,1.8-1.2,1.6-2.2c0-0.1-0.1-0.3-0.1-0.4c-0.4-0.8-1.3-1.2-2.2-1.1
					c-1.1,0.2-1.8,1.2-1.6,2.2c0,0.1,0,0.1,0,0.2C427,642.7,427.7,643.2,428.6,643.2z"/>
				<path d="M285.1,671.2c-0.3-1-0.5-1.9-0.7-2.9c0-0.1-0.1-0.2-0.1-0.3c0,0.1,0,0.2,0.1,0.3c0.2,1-0.5,2-1.6,2.2
					c-0.1,0-0.3,0-0.4,0c-0.9,0-1.6-0.5-1.9-1.3c0.2,0.9,0.4,1.9,0.7,2.8c0.2,0.9,1,1.4,2,1.4c0.2,0,0.3,0,0.5-0.1
					C284.7,673.2,285.4,672.2,285.1,671.2z"/>
				<path d="M282.4,670.6c0.1,0,0.3,0,0.4,0c1.1-0.2,1.8-1.2,1.6-2.2c0-0.1,0-0.2-0.1-0.3c-0.3-0.8-1.3-1.4-2.3-1.2
					c-1.1,0.2-1.8,1.2-1.6,2.2c0,0.1,0,0.2,0.1,0.2C280.8,670.1,281.6,670.6,282.4,670.6z"/>
				<path d="M354.6,679.6c-0.5,3.7-1.2,7.4-2.3,11c-3.3,11-9.3,21.4-17.5,30c-0.7,0.8-0.7,2,0.2,2.6c0.4,0.3,0.9,0.5,1.3,0.5
					c0.6,0,1.1-0.2,1.5-0.6c8.6-9,14.9-19.9,18.3-31.5c1.2-4,2-8.1,2.5-12.2c-1,0.1-2.1,0.2-3.1,0.2
					C355.2,679.6,354.9,679.6,354.6,679.6z"/>
				<path d="M343.5,693.8c-1-0.4-2.2,0.1-2.6,1.1c-3.6,8.5-8.9,16.1-15.7,22.6c-0.8,0.7-0.8,1.9,0,2.6c0.4,0.4,0.9,0.5,1.4,0.5
					c0.5,0,1-0.2,1.4-0.6c7.2-6.9,12.8-14.9,16.6-23.9C345.1,695.2,344.6,694.2,343.5,693.8z"/>
				<path d="M344.3,684.5c-0.2,1,0.5,2,1.5,2.2c1.1,0.2,2.2-0.4,2.4-1.4c0.5-2.1,0.9-4.3,1.1-6.5c-1.3-0.3-2.6-0.8-3.9-1.4
					C345.2,679.8,344.8,682.2,344.3,684.5z"/>
				<path d="M345.1,722.6c-0.7,0.8-0.5,2,0.3,2.6c0.4,0.3,0.8,0.4,1.2,0.4c0.6,0,1.2-0.2,1.6-0.7c12-14.2,18.8-31.2,20-48.8
					c-1.3,0.8-2.7,1.5-4.2,2C362.5,694.1,356.1,709.6,345.1,722.6z"/>
				<path d="M336.5,670.6c-0.1,16-7.2,31.6-20.1,42.7c-0.8,0.7-0.9,1.9-0.1,2.6c0.4,0.4,0.9,0.6,1.5,0.6c0.5,0,1-0.2,1.4-0.5
					c12.6-11,20.1-25.9,21.2-41.7C339,673.3,337.7,672,336.5,670.6z"/>
				<path d="M375.9,672.1C375.9,672.1,375.9,672.1,375.9,672.1c1.1,0,2-0.8,2-1.9c0-1.5-0.1-3.1-0.1-4.6c-1,2-2.2,3.9-3.6,5.5
					C374.4,671.7,375.1,672.1,375.9,672.1z"/>
				<path d="M375.4,679.4c-1.1-0.1-2.1,0.6-2.2,1.6c-1.8,15-7.7,29.6-17,42.1c-0.6,0.9-0.4,2,0.5,2.6c0.3,0.2,0.7,0.3,1.1,0.3
					c0.6,0,1.3-0.3,1.7-0.8c9.6-13,15.7-28.2,17.6-43.8C377.3,680.4,376.5,679.5,375.4,679.4z"/>
				<path d="M358.9,630.6c0.5-0.3,0.8-0.8,0.8-1.4c0.1-1-0.7-1.9-1.9-2c-2.8-0.2-5.5,0-8.3,0.5c-7.9,1.5-14.6,5.7-19.1,11.9
					c-4.4,6.2-6,13.6-4.4,20.9l0.4,1.8l0,0c1.5,8.3,0.7,16.8-2.3,24.7c-3.1,8.2-8.5,15.6-15.6,21.3c-0.8,0.7-0.9,1.9-0.2,2.6
					c0.4,0.4,1,0.6,1.5,0.6c0.5,0,0.9-0.1,1.3-0.5c7.6-6.1,13.4-14,16.8-22.9c3.5-9.1,4.2-18.9,2.1-28.4l-0.3-1.5
					c-0.9-5.8,0.6-11.6,4.1-16.6c2.1-2.9,4.8-5.3,7.8-7.1c3.9-2.7,8.7-4.3,13.8-4.3C356.7,630.4,357.8,630.5,358.9,630.6z"/>
				<path d="M385.3,651.1L385.3,651.1l-0.3-1.6c-1.7-8-7.1-14.8-14.8-18.8c-1-0.5-2.2-0.2-2.7,0.7c-0.4,0.7-0.3,1.6,0.3,2.1
					c0.7,0.4,1.4,0.8,2,1.3c5.6,3.4,9.6,8.6,11.2,14.6l0.2,0.8c5.3,24.6,0.8,50.1-12.9,71.7c-0.6,0.9-0.2,2,0.7,2.6
					c0.3,0.2,0.7,0.3,1,0.3c0.7,0,1.4-0.3,1.7-0.9C385.4,701.9,390.3,676.1,385.3,651.1z"/>
				<path d="M318.6,686.7c0.4-1-0.1-2-1.1-2.4c-1-0.4-2.2,0.1-2.6,1.1c-2.8,6.7-7.4,12.6-13.4,17.1c-0.9,0.7-1,1.8-0.3,2.6
					c0.4,0.5,1,0.7,1.6,0.7c0.4,0,0.9-0.1,1.3-0.4C310.6,700.4,315.6,694,318.6,686.7z"/>
				<path d="M394.9,689c2.4-13.3,2.2-26.9-0.6-40.3l0,0l-0.2-0.9c-2.1-9.5-8-17.8-16.8-23.2c-8.7-5.4-19.2-7.3-29.5-5.4
					c-10.3,1.9-19.2,7.5-25,15.6c-5.8,8.1-7.9,17.8-5.8,27.4l0.4,1.8c0.6,3.6,0.7,7.2,0.3,10.8c-0.1,1,0.7,1.9,1.8,2.1
					c1.1,0.1,2.1-0.6,2.2-1.7c0.5-4.6,0.3-9.2-0.7-13.7l-0.4-1.7c-1.3-8,0.6-16.1,5.5-22.9c5.2-7.3,13.2-12.2,22.4-14
					c9.2-1.7,18.7,0,26.5,4.8c7.7,4.7,13,11.9,15,20.3l0.1,0.5c2.9,13.2,3.1,26.6,0.8,39.8c-0.2,1,0.6,2,1.7,2.1c0.1,0,0.2,0,0.3,0
					C393.9,690.5,394.7,689.9,394.9,689z"/>
				<path d="M390.9,697.6c-1.1-0.3-2.2,0.3-2.5,1.3c-2,6.8-4.7,13.5-8,19.8c-0.5,0.9-0.1,2,0.9,2.5c0.3,0.1,0.6,0.2,0.9,0.2
					c0.7,0,1.5-0.4,1.8-1c3.5-6.6,6.2-13.5,8.3-20.5C392.6,698.9,392,697.9,390.9,697.6z"/>
				<path d="M403,645.4L403,645.4c-1.5-6.1-4.2-11.8-8.2-16.9c-0.7-0.8-1.9-1-2.8-0.4c-0.9,0.6-1.1,1.8-0.4,2.6
					c3.8,4.8,6.4,10.3,7.6,16.2l0.1,0.5c4.7,22,2.6,44.7-6,65.6c-0.4,1,0.1,2,1.2,2.4c0.2,0.1,0.5,0.1,0.7,0.1
					c0.8,0,1.6-0.5,1.9-1.2c9-21.7,11.1-45.3,6.1-68.1L403,645.4z"/>
				<path d="M345.9,610.8c-3.7,0.7-7.3,1.8-10.7,3.2c-1,0.4-1.5,1.5-1,2.5c0.5,0.9,1.7,1.3,2.7,0.9c3.1-1.3,6.4-2.3,9.8-3
					c13.2-2.5,26.7,0.7,37.1,8.6c0.4,0.3,0.8,0.4,1.3,0.4c0.6,0,1.2-0.2,1.6-0.7c0.7-0.8,0.6-2-0.3-2.6
					C375,611.5,360.3,608.1,345.9,610.8z"/>
				<path d="M311.8,663.2l-0.4-1.6c-2.5-14.6,3.5-29.3,16-38.7c0.9-0.7,1-1.8,0.3-2.6c-0.7-0.8-2-0.9-2.8-0.3
					c-14.1,10.6-20.6,27.5-17,44l0.3,1.5c1.9,11.6-2.9,23.2-12.8,30.6c-0.9,0.6-1,1.8-0.3,2.6c0.4,0.5,1,0.7,1.6,0.7
					c0.4,0,0.9-0.1,1.3-0.4C309.4,690.3,314.7,676.6,311.8,663.2z"/>
				<path d="M302.7,664.9l-0.4-1.6c-0.4-2.1-0.6-4.2-0.7-6.3c0-1-1-1.8-2.1-1.8c-1.1,0-2,0.9-1.9,1.9c0.1,2.9,0.5,5.7,1.1,8.5
					l0.2,1.1c1.4,8.3-2,16.6-8.9,22.1c-0.8,0.7-1,1.8-0.2,2.6c0.4,0.4,1,0.7,1.5,0.7c0.5,0,0.9-0.1,1.3-0.4
					C301,685.1,304.9,674.9,302.7,664.9z"/>
				<path d="M408.4,645.1l0.2,0.9c0.4,1.9,0.7,3.8,1.1,5.7c0.1,0.9,1,1.6,2,1.6c0.1,0,0.2,0,0.3,0c1.1-0.2,1.9-1.1,1.7-2.1
					c-0.4-2.3-0.8-4.6-1.3-6.8l-0.3-1.3l0,0c-3.3-13.5-11.9-25.1-24.4-32.8c-12.9-7.9-28.4-10.8-43.5-7.9
					c-11.7,2.2-22.2,7.5-30.4,15.5c-8,7.8-13.3,17.5-15.3,28c-0.2,1,0.5,2,1.6,2.2c1.1,0.2,2.1-0.5,2.3-1.5
					c1.8-9.8,6.8-18.8,14.2-26.1c7.6-7.4,17.4-12.4,28.3-14.4c14.1-2.6,28.5,0,40.5,7.4C397.4,620.8,405.5,632.1,408.4,645.1z"/>
				<path d="M412.7,660.5c-1.1,0.1-2,1-1.9,2c0.9,13.7-0.5,27.5-4.4,40.8c-0.3,1,0.4,2,1.4,2.3c0.2,0,0.3,0.1,0.5,0.1
					c0.9,0,1.7-0.6,1.9-1.4c3.9-13.7,5.4-27.8,4.5-42C414.8,661.2,413.9,660.5,412.7,660.5z"/>
				<path d="M293.6,666.6l-0.2-1c-3-15,0.4-30.3,9.5-43c9.3-13,23.6-21.9,40.2-25c7-1.3,14-1.5,21-0.6c1.1,0.1,2.1-0.6,2.3-1.6
					c0.1-1-0.6-2-1.7-2.1c-7.4-0.9-14.9-0.7-22.3,0.7c-17.6,3.3-32.8,12.7-42.7,26.6c-9.9,13.9-13.5,30.5-9.9,46.9l0.1,0.6
					c0.8,4.7-0.8,9.5-4.3,12.9c-0.8,0.8-0.7,1.9,0.1,2.6c0.4,0.3,0.9,0.5,1.4,0.5c0.5,0,1.1-0.2,1.5-0.6
					C292.9,679,294.9,672.7,293.6,666.6z"/>
				<path d="M421.1,641L421.1,641c-5.4-21.3-22.5-38.6-45.1-45.4c-1.1-0.3-2.2,0.2-2.5,1.2c-0.3,1,0.2,2,1.3,2.3
					c21.8,6.5,38.2,23.5,42.7,44.3l0.3,1.2c2.9,14.1,3.5,28.5,1.6,42.7c-0.1,1,0.6,2,1.7,2.1c0.1,0,0.2,0,0.3,0c1,0,1.9-0.7,2-1.6
					c2-15,1.4-30.1-1.9-45.1L421.1,641z"/>
			</g>
		</g>
	</g>
	<g>
		<g>
			<g>
				<g>
					<g>
						<path class="st1" d="M1004.1,519.7c-10.3,0-18.7-8.4-18.7-18.7c0-10.3,8.4-18.7,18.7-18.7c10.3,0,18.7,8.4,18.7,18.7
							C1022.8,511.3,1014.4,519.7,1004.1,519.7z M1004.1,492.1c-5,0-9,4-9,9c0,5,4,9,9,9c5,0,9-4,9-9
							C1013.1,496.1,1009.1,492.1,1004.1,492.1z"/>
					</g>
				</g>
				<g>
					<polygon class="st1" points="1011.4,490.1 997.5,490.1 997.5,455 838.9,359.9 690.1,454.3 690.1,509.4 676.3,509.4 
						676.2,444.3 838.7,345.4 1011.3,444.4 					"/>
				</g>
			</g>
			<g>
				<g>
					<g>
						<path class="st1" d="M683.9,580.1c-10.3,0-18.7-8.4-18.7-18.7c0-10.3,8.4-18.7,18.7-18.7c10.3,0,18.7,8.4,18.7,18.7
							C702.6,571.8,694.2,580.1,683.9,580.1z M683.9,552.5c-5,0-9,4-9,9c0,5,4,9,9,9c5,0,9-4,9-9
							C692.9,556.5,688.9,552.5,683.9,552.5z"/>
					</g>
				</g>
				<g>
					<polygon class="st1" points="838.7,734.6 676.3,642.7 676.3,574 690.1,573.9 690.1,635.4 838.8,718.4 997.5,632.3 997.5,550.6 
						1011.4,550.6 1011.3,642.9 					"/>
				</g>
			</g>
		</g>
		<path class="st2" d="M887.4,500.1c-42.6-46.9-31-82.5-39.5-82.5c-2.8,0-85.5,87.7-85.5,176.5c0,50.8,58.7,68.4,87,68.4
			C934.6,662.4,950.2,569.4,887.4,500.1z M809,619.1c-21.8-21-13.5-65.8-11.1-66.1c2.4-0.3,15,32.2,37.4,34.4
			c15.4,1.5,31.6,13.3,31.7,27.6C867.1,628.9,842,650.9,809,619.1z"/>
	</g>
</g>
</svg>
