<?xml version="1.0" encoding="utf-8"?>
<!-- Generator: Adobe Illustrator 28.0.0, SVG Export Plug-In . SVG Version: 6.00 Build 0)  -->
<svg version="1.1" id="Capa_1" xmlns="http://www.w3.org/2000/svg" xmlns:xlink="http://www.w3.org/1999/xlink" x="0px" y="0px"
	 viewBox="0 0 1080 1080" style="enable-background:new 0 0 1080 1080;" xml:space="preserve">
<style type="text/css">
	.st0{fill:#2ED8AC;}
	.st1{fill:#FFFFFF;}
</style>
<g>
	<g>
		<path class="st0" d="M578,549.1"/>
	</g>
	<g>
		<path class="st0" d="M567.3,549.1"/>
	</g>
	<g>
		<path class="st1" d="M380.7,713.2c-10.4,0-20-1.7-28.9-5.1c-8.9-3.4-16.6-8.1-23.1-14.3c-6.5-6.2-11.6-13.4-15.3-21.7
			c-3.7-8.3-5.5-17.4-5.5-27.3c0-9.7,1.8-18.7,5.5-27c3.7-8.2,8.8-15.5,15.3-21.6c6.5-6.2,14.2-11,23-14.3c8.9-3.4,18.5-5.1,29-5.1
			s20.2,1.7,29,5.1c8.9,3.4,16.5,8.1,23,14.2c6.5,6.1,11.6,13.3,15.3,21.5c3.7,8.2,5.5,17.3,5.5,27.2c0,10-1.8,19.1-5.4,27.4
			c-3.6,8.3-8.7,15.5-15.3,21.6c-6.6,6.1-14.3,10.9-23.1,14.2C400.9,711.6,391.2,713.2,380.7,713.2z M380.7,682.5
			c5,0,9.6-0.9,14-2.6c4.3-1.7,8.1-4.3,11.2-7.6c3.2-3.3,5.7-7.2,7.5-11.8c1.8-4.6,2.7-9.7,2.7-15.5c0-5.7-0.9-10.9-2.7-15.5
			c-1.8-4.6-4.3-8.5-7.5-11.8c-3.2-3.3-6.9-5.8-11.2-7.6c-4.3-1.7-9-2.6-14-2.6c-5,0-9.6,0.9-14,2.6c-4.3,1.8-8.1,4.3-11.3,7.6
			c-3.2,3.3-5.7,7.2-7.5,11.8c-1.7,4.6-2.6,9.7-2.6,15.5c0,5.7,0.9,10.9,2.6,15.5c1.7,4.6,4.2,8.5,7.5,11.8c3.2,3.3,7,5.8,11.3,7.6
			C371.1,681.7,375.7,682.5,380.7,682.5z"/>
		<path class="st1" d="M468,710.6V579.5h37.1v131.1H468z"/>
		<path class="st1" d="M531.5,710.6V579.5h37.1v101.7h62.4v29.4H531.5z"/>
	</g>
	<g>
		<path class="st1" d="M136.5,543.3c-11.2,0-22-1.4-32.2-4.2c-10.3-2.8-18.8-6.4-25.3-10.8l-2.8-1.9l15.4-34.9l4,2.5
			c5.5,3.5,12.1,6.5,19.4,8.8c7.2,2.3,14.6,3.5,21.7,3.5c4.8,0,8.7-0.4,11.3-1.2c2.3-0.6,3.9-1.5,4.8-2.5c0.8-0.9,1.1-1.9,1.1-3.1
			c0-1-0.3-2.2-2.2-3.4c-2.4-1.5-5.7-2.8-9.7-3.8c-4.3-1.2-9.1-2.3-14.2-3.3c-5.3-1.1-10.8-2.5-16.3-4.3c-5.7-1.9-10.9-4.3-15.6-7.4
			c-4.9-3.2-8.9-7.4-11.9-12.6c-3-5.2-4.6-11.8-4.6-19.4c0-8.5,2.4-16.4,7-23.4c4.6-7,11.7-12.6,21-16.8c9.1-4.1,20.5-6.2,33.9-6.2
			c8.9,0,17.7,1,26.3,3c8.7,2,16.5,5.1,23.2,9.2l2.9,1.8l-14.3,34.7l-4-2.2c-5.9-3.3-11.9-5.8-17.6-7.3c-5.8-1.5-11.4-2.3-16.8-2.3
			c-4.6,0-8.3,0.5-11,1.4c-2.4,0.8-4.1,1.9-4.9,3c-0.8,1-1.2,2-1.2,3.1c0,1.2,0.3,2.4,2.2,3.6c2.4,1.5,5.6,2.7,9.5,3.6
			c4.3,1,9.1,2.1,14.4,3.3c5.4,1.1,10.9,2.6,16.2,4.3c5.5,1.8,10.7,4.2,15.4,7.2c4.9,3.1,9,7.3,12.1,12.4c3.1,5.2,4.7,11.6,4.7,19.2
			c0,8.4-2.4,16.2-7.1,23.3c-4.7,7-11.8,12.7-21.1,16.9C161.5,541.2,150,543.3,136.5,543.3z M86.4,523.4c5.3,3.1,12.1,5.7,20,7.9
			c9.5,2.6,19.7,3.9,30.1,3.9c12.3,0,22.7-1.8,30.7-5.5c7.9-3.5,13.8-8.3,17.7-14c3.9-5.8,5.8-12,5.8-18.8c0-6.1-1.2-11.2-3.5-15.1
			c-2.4-4-5.6-7.3-9.5-9.7c-4.1-2.6-8.7-4.7-13.6-6.3c-5.1-1.6-10.3-3-15.4-4.1c-5.3-1.1-10.3-2.2-14.6-3.3
			c-4.8-1.2-8.7-2.7-11.8-4.6c-4-2.4-6-6-6-10.5c0-2.9,1-5.6,2.9-8.1c1.9-2.4,4.7-4.2,8.5-5.6c3.6-1.3,8.1-1.9,13.7-1.9
			c6.1,0,12.4,0.9,18.8,2.6c5.1,1.4,10.3,3.3,15.5,5.9l8.2-20c-5.3-2.8-11.3-5-17.8-6.5c-8-1.9-16.2-2.8-24.5-2.8
			c-12.2,0-22.5,1.8-30.6,5.5c-7.9,3.5-13.8,8.2-17.6,13.9c-3.8,5.7-5.7,11.9-5.7,18.9c0,6.2,1.2,11.4,3.5,15.4
			c2.4,4.1,5.5,7.4,9.3,9.9c4,2.7,8.6,4.8,13.6,6.5c5.2,1.7,10.4,3.1,15.4,4.1c5.2,1.1,10.2,2.2,14.7,3.4c4.9,1.3,8.7,2.9,11.8,4.8
			c5,3.1,6,7.3,6,10.3c0,3.2-1.1,6.1-3.2,8.5c-1.9,2.2-4.9,3.9-8.7,5c-3.4,1-7.9,1.5-13.6,1.5c-8,0-16.1-1.3-24.2-3.8
			c-6.3-2-12.1-4.5-17.3-7.3L86.4,523.4z"/>
		<path class="st1" d="M425.7,543.3h-45.1V404.1h110.7V441h-65.6v20.6h57.7v36.7h-57.7V543.3z M388.6,535.2h29v-44.9h57.7v-20.6
			h-57.7V433h65.6v-20.8h-94.6V535.2z"/>
		<path class="st1" d="M248.5,543.3h-47.2l61.8-139.4h41.8l62.5,139h-48L309,517.3h-50.1L248.5,543.3z M213.7,535.2h29.3l10.4-26
			h60.9l10.4,25.6h30.1l-55.2-122.9h-31.4L213.7,535.2z M307.3,490.3h-46.7l23.5-54.8L307.3,490.3z M272.8,482.2h22.3L284,456
			L272.8,482.2z"/>
		<path class="st1" d="M618.7,543.3H505.5V404.1h110.7V441h-66.1v14.6h58.1v35.6h-58.1v15.2h68.5V543.3z M513.6,535.2h97v-20.8
			h-68.5v-31.3h58.1v-19.5h-58.1V433h66.1v-20.8h-94.6V535.2z"/>
	</g>
	<g>
		<g>
			<g>
				<g>
					<path class="st1" d="M985.8,520.4c-9.9,0-18-8.1-18-18s8.1-18,18-18c9.9,0,18,8.1,18,18S995.7,520.4,985.8,520.4z M985.8,493.7
						c-4.8,0-8.7,3.9-8.7,8.7s3.9,8.7,8.7,8.7s8.7-3.9,8.7-8.7S990.6,493.7,985.8,493.7z"/>
				</g>
			</g>
			<g>
				<polygon class="st1" points="992.8,491.8 979.4,491.8 979.4,457.9 826.2,366 682.6,457.3 682.5,510.5 669.2,510.5 669.1,447.6 
					826.1,352 992.7,447.7 				"/>
			</g>
		</g>
		<g>
			<g>
				<g>
					<path class="st1" d="M676.6,578.8c-9.9,0-18-8.1-18-18s8.1-18,18-18c9.9,0,18,8.1,18,18S686.5,578.8,676.6,578.8z M676.6,552.1
						c-4.8,0-8.7,3.9-8.7,8.7s3.9,8.7,8.7,8.7c4.8,0,8.7-3.9,8.7-8.7S681.3,552.1,676.6,552.1z"/>
				</g>
			</g>
			<g>
				<polygon class="st1" points="826.1,728 669.1,639.2 669.2,572.8 682.5,572.7 682.5,632.1 826.1,712.3 979.4,629.2 979.4,550.3 
					992.8,550.2 992.7,639.3 				"/>
			</g>
		</g>
	</g>
	<path class="st1" d="M873,501.5c-41.1-45.3-30-79.7-38.1-79.7c-2.7,0-82.6,84.7-82.6,170.4c0,49.1,56.7,66,84,66
		C918.7,658.2,933.7,568.4,873,501.5z M797.4,616.4c-21-20.3-13.1-63.5-10.7-63.9c2.4-0.3,14.5,31.1,36.1,33.2
		c14.8,1.4,30.5,12.9,30.6,26.6C853.5,625.9,829.2,647.2,797.4,616.4z"/>
</g>
</svg>
