<?xml version="1.0" encoding="UTF-8" standalone="no"?>
<!-- Created with Inkscape (http://www.inkscape.org/) -->

<svg
   version="1.1"
   id="svg2"
   width="512"
   height="512"
   viewBox="0 0 512 512"
   sodipodi:docname="blockchain.svg"
   xmlns:inkscape="http://www.inkscape.org/namespaces/inkscape"
   xmlns:sodipodi="http://sodipodi.sourceforge.net/DTD/sodipodi-0.dtd"
   xmlns="http://www.w3.org/2000/svg"
   xmlns:svg="http://www.w3.org/2000/svg">
  <defs
     id="defs6" />
  <sodipodi:namedview
     id="namedview4"
     pagecolor="#ffffff"
     bordercolor="#000000"
     borderopacity="0.25"
     inkscape:showpageshadow="2"
     inkscape:pageopacity="0.0"
     inkscape:pagecheckerboard="0"
     inkscape:deskcolor="#d1d1d1"
     showgrid="false" />
  <g
     inkscape:groupmode="layer"
     inkscape:label="Image"
     id="g8">
    <g
       id="g847"
       transform="translate(0.27576039,0.01055076)">
      <path
         style="fill:#fefefe;fill-opacity:0"
         d="M 0,256 V 0 L 126.75,0.00257073 253.5,0.00514146 248,3.3010762 c -3.025,1.8127642 -12.78551,7.4838518 -21.69003,12.6024178 -8.90451,5.118566 -17.00451,10.205292 -18,11.303835 C 206.71399,28.968542 206.44089,31.8122 206,51.260035 l -0.5,22.055354 -41.47479,23.997183 -41.4748,23.997178 -4.5252,-2.44805 c -2.48887,-1.34644 -11.42037,-6.44113 -19.847788,-11.32155 -9.136808,-5.29123 -16.431306,-8.873483 -18.068973,-8.873483 -4.273177,0 -46.871952,24.975313 -48.731202,28.570713 -1.208399,2.33678 -1.418358,7.46809 -1.174362,28.70098 0.269623,23.46303 0.467497,26.04355 2.138472,27.88824 1.012746,1.11803 10.337278,6.90192 20.721182,12.85309 L 71.942364,207.5 v 48.5 48.5 l -18.879825,10.82031 c -10.383904,5.95117 -19.708436,11.73506 -20.721182,12.85309 -1.670975,1.84469 -1.868849,4.42521 -2.138472,27.88824 -0.243996,21.23289 -0.03404,26.3642 1.174362,28.70098 1.886949,3.64896 44.046432,28.32633 48.615394,28.45623 2.058168,0.0585 8.758541,-3.24559 21.741199,-10.7211 10.32139,-5.94312 19.66616,-11.38868 20.76616,-12.10124 1.79918,-1.16546 6.09175,1.07308 42.75,22.29378 L 206,436.27962 v 22.31314 c 0,14.83753 0.38986,23.16878 1.16364,24.86706 0.71036,1.55906 4.31361,4.37768 9.25,7.23576 4.4475,2.57501 14.58745,8.42192 22.53323,12.99313 L 253.39373,512 H 126.69687 0 Z m 260.2368,255.42987 c 0.31357,-0.31358 10.12725,-6.10194 21.80818,-12.86303 13.00293,-7.52629 21.75106,-13.21845 22.5611,-14.67987 0.98448,-1.77615 1.33212,-8.15866 1.35848,-24.94163 L 306,436.39068 l 40.25,-23.3351 c 22.1375,-12.83431 40.7,-23.34366 41.25,-23.35411 0.55,-0.0104 10.16273,5.30245 21.36162,11.80643 12.35382,7.17474 21.42637,11.82543 23.06897,11.82543 4.14788,0 46.844,-24.99675 48.64505,-28.4796 1.93484,-3.74157 2.05506,-51.0391 0.13942,-54.85373 -0.83519,-1.66312 -7.86005,-6.34607 -20.98526,-13.98928 L 440,304.52143 440.0244,256.01072 440.0488,207.5 458.86101,196.75925 c 10.34671,-5.90741 19.67322,-11.69132 20.72557,-12.85313 1.76528,-1.94892 1.93629,-4.15003 2.20961,-28.44172 l 0.29625,-26.32932 -2.79625,-3.03617 C 475.58459,122.06878 435.29978,99 431.97366,99 c -1.45398,0 -11.00194,4.8335 -21.89695,11.08498 -10.81866,6.20768 -20.0355,10.8766 -20.94774,10.61139 C 388.23304,120.43589 369.275,109.65279 347,96.733926 L 306.5,73.245082 306,51.224881 c -0.44185,-19.459057 -0.71164,-22.253753 -2.31965,-24.02824 -1.0008,-1.104423 -10.2258,-6.860899 -20.5,-12.792169 C 272.90616,8.4732013 263.15,2.8074484 261.5,1.8139099 258.59671,0.06570773 262.58587,0.00735562 385.25,0.00373806 L 512,0 V 256 512 H 385.83333 c -69.39166,0 -125.9101,-0.25656 -125.59653,-0.57013 z M 172.42904,398.65576 130.5,374.4117 130.25631,355.95585 130.01263,337.5 157.60924,321.63638 c 23.86416,-13.71806 27.88701,-15.71994 29.74369,-14.80135 1.18089,0.58425 15.19707,8.63941 31.14707,17.90035 l 29,16.83807 0.23939,30.96327 0.23939,30.96328 -12.73939,7.25005 c -7.00667,3.98753 -14.57132,8.35249 -16.81035,9.69991 l -4.07096,2.44986 z m 108.34495,14.50702 -16.726,-9.66278 0.226,-30.89507 0.22601,-30.89507 29,-16.81658 c 15.95,-9.24913 29.97846,-17.34167 31.17435,-17.98343 1.93291,-1.03727 5.23585,0.5963 29.7456,14.71166 L 381.9912,337.5 l -0.2456,18.46333 -0.2456,18.46334 -41.88478,24.28666 c -23.03663,13.35767 -41.93663,24.24742 -42,24.19945 -0.0634,-0.048 -7.64192,-4.43547 -16.84123,-9.75 z M 105,314.0997 88.5,304.39318 v -48.39474 -48.39475 l 16.95287,-9.78092 16.95288,-9.78092 3.51704,2.0751 c 1.93437,1.1413 14.44307,8.39141 27.79712,16.11134 L 178,220.26453 v 35.72974 35.72975 l -27.88417,16.13799 c -15.3363,8.87589 -28.0488,16.09439 -28.25,16.04111 C 121.66462,323.84983 114.075,319.43829 105,314.0997 Z M 361.75,307.79791 334,291.69455 v -35.69519 -35.69519 l 27.93461,-16.14228 27.9346,-16.14228 16.8154,9.76541 16.81539,9.76541 0.25937,48.48975 0.25938,48.48975 -16.86459,9.73504 c -9.27551,5.35427 -17.04223,9.71282 -17.25937,9.68567 -0.21713,-0.0272 -12.88229,-7.29587 -28.14479,-16.15273 z M 309.45359,196.64603 C 300.12911,191.1941 286.2,183.05008 278.5,178.54822 l -14,-8.18522 v -30.77811 -30.77812 l 12,-6.98383 c 6.6,-3.8411 14.73012,-8.515283 18.06693,-10.387068 l 6.06693,-3.403247 40.43307,23.406565 40.43307,23.40656 0.24056,19.82712 0.24056,19.82713 -27.78697,16.02931 -27.78697,16.02931 z M 157.25775,190.21249 130.01551,174.5 130.25775,154.68715 130.5,134.87429 171.09584,111.42075 211.69168,87.9672 229.59584,98.375386 247.5,108.78357 v 30.78972 30.78972 L 217,188.11773 c -16.775,9.7651 -30.95,17.76655 -31.5,17.78099 -0.55,0.0144 -13.25901,-7.04437 -28.24225,-15.68623 z"
         id="path863" />
      <path
         style="fill:#fdef75;fill-opacity:1"
         d="m 206.43007,459 c 0,-12.925 0.14251,-18.2125 0.3167,-11.75 0.17418,6.4625 0.17418,17.0375 0,23.5 -0.17419,6.4625 -0.3167,1.175 -0.3167,-11.75 z m 99.00459,-2 c 0,-14.025 0.14065,-19.7625 0.31255,-12.75 0.1719,7.0125 0.1719,18.4875 0,25.5 -0.1719,7.0125 -0.31255,1.275 -0.31255,-12.75 z m -52.97588,-1.90182 c -1.375,-0.7414 -12.05911,-7.98346 -23.18174,-14.41126 C 218.1544,434.25911 208.5368,429 207.90459,429 c -2.27823,0 1.34543,-3.01686 9.47924,-7.89189 C 237.99869,408.7525 254.01655,400 256.01357,400 c 2.22967,0 39.68324,21.01532 45.91809,25.76479 2.40061,1.82869 3.00151,2.75437 2,3.08095 -0.78741,0.25677 -11.06309,6.04656 -22.83484,12.86619 -11.77175,6.81964 -22.57175,12.61502 -24,12.87863 -1.42825,0.26361 -3.26304,1.24903 -4.63804,0.50762 z M 32.872445,387.25 C 31.628574,385.66394 31.663944,385.62857 33.25,386.87244 34.915748,388.17881 35.445479,389 34.622445,389 c -0.207656,0 -0.995156,-0.7875 -1.75,-1.75 z M 477,388.62244 c 0,-0.20765 0.7875,-0.99515 1.75,-1.75 1.58606,-1.24387 1.62143,-1.2085 0.37756,0.37756 C 477.82119,388.91575 477,389.44548 477,388.62244 Z M 30.435703,357.5 c 5.72e-4,-14.3 1.763056,-34.28487 1.934141,-26.9649 0.171086,7.31996 -0.261924,47.89222 -0.433543,54.87226 C 31.764605,392.38739 30.435132,371.8 30.435703,357.5 Z m 450.999997,0 c 5.7e-4,-14.3 0.14102,-20.01094 0.31211,-12.69097 0.17108,7.31996 0.17062,19.01996 -0.001,26 -0.17166,6.98003 -0.31164,0.99097 -0.31107,-13.30903 z m -74.455,-14.48893 c -12.36439,-7.14391 -23.45392,-12.79175 -23.45392,-13.47591 0,-1.24816 27.57846,-19.14257 40.83798,-25.93885 6.88109,-3.52697 7.3984,-2.72211 10.87833,-1.2681 4.40414,1.84017 42.44373,24.79146 44.80651,26.86215 1.75063,1.53424 -1.51255,1.62561 -40.63046,23.91462 -2.79447,1.59226 -6.17816,2.89502 -7.5193,2.89502 -1.34115,0 -12.55476,-5.84502 -24.91914,-12.98893 z M 256.23863,240.75 c 0.5551,-14.72413 2.5918,-22.13556 8.69792,-31.65112 4.11978,-6.42013 13.486,-15.11128 20.28607,-18.82398 2.90256,-1.58473 5.15149,-3.46006 4.99762,-4.1674 -0.17917,-0.82365 0.71973,-0.5892 2.5,0.65206 1.52887,1.06598 9.97976,6.08532 18.77976,11.15409 14.43942,8.31706 21.6794,13.40787 20.44697,14.37735 -0.24583,0.19338 -10.12197,5.91707 -21.94697,12.7193 -11.825,6.80223 -28.00109,16.10765 -35.94687,20.6787 -7.94577,4.57105 -14.88444,9.39236 -15.94791,9.39236 -1.83929,0 -2.34176,-1.72751 -1.86659,-14.33136 z M 30.435703,154.5 c 5.72e-4,-14.3 0.141019,-20.01094 0.312104,-12.69097 0.171086,7.31996 0.170619,19.01996 -0.001,26 C 30.575111,174.78906 30.435132,168.8 30.435703,154.5 Z m 450.999997,0 c 5.7e-4,-14.3 0.14102,-20.01094 0.31211,-12.69097 0.17108,7.31996 0.17062,19.01996 -0.001,26 -0.17166,6.98003 -0.31164,0.99097 -0.31107,-13.30903 z m -52.16196,-1.5317 C 427.23236,152.15561 385.04102,128.31608 384,127.20588 c -1.41055,-1.50429 6.25949,-5.86071 25.4661,-16.77385 C 420.73742,104.02769 430.52744,99 431.97873,99 c 2.94253,0 43.18313,22.78363 47.02127,26.62274 1.375,1.37535 2.03492,2.36038 1.46648,2.18895 -0.56843,-0.17143 -11.0757,5.11167 -23,12.33211 -11.79735,7.14356 -23.04194,12.01135 -23.96648,13.17729 -3.18381,4.01513 -3.00182,0.13467 -4.22626,-0.35279 z M 32,125.62244 c 0,-0.20765 0.7875,-0.99515 1.75,-1.75 1.586056,-1.24387 1.621426,-1.2085 0.377555,0.37756 C 32.821186,125.91575 32,126.44548 32,125.62244 Z M 305.43466,55 c 0,-14.025 0.14065,-19.7625 0.31255,-12.75 0.1719,7.0125 0.1719,18.4875 0,25.5 -0.1719,7.0125 -0.31255,1.275 -0.31255,-12.75 z m -99.00852,-3.5 c 7.5e-4,-12.1 0.14515,-16.912559 0.32089,-10.694576 0.17573,6.217983 0.17511,16.117983 -0.001,22 C 206.56916,68.687441 206.42538,63.6 206.42614,51.5 Z M 250.5,52.909729 C 248.3,51.710545 238.09086,45.840281 227.81301,39.864697 217.53517,33.889114 208.5454,29 207.83574,29 c -3.03241,0 5.0087,-5.464895 24.7869,-16.845638 C 244.24009,5.4694628 254.77067,0 256.02393,0 257.27719,0 268.10145,5.6655448 280.07784,12.5901 299.90491,24.053787 307.17941,29 304.21223,29 c -0.60376,0 -10.82676,5.6419 -22.71776,12.537554 -11.89101,6.895655 -22.82927,12.765919 -24.30724,13.045032 -1.6845,0.318113 -4.17982,-0.306107 -6.68723,-1.672857 z"
         id="path861"
         sodipodi:nodetypes="sssssssssssssssssssssssssssscssssssssssssssssssssssssssscssssssssssssssssssssssssscsssssssssss" />
      <path
         style="fill:#59e0fa"
         d="m 206.232,433 c 0,-1.925 0.2058,-2.7125 0.45733,-1.75 0.25152,0.9625 0.25152,2.5375 0,3.5 -0.25153,0.9625 -0.45733,0.175 -0.45733,-1.75 z M 211,424.62244 c 0,-0.20765 0.7875,-0.99515 1.75,-1.75 1.58606,-1.24387 1.62143,-1.2085 0.37756,0.37756 C 211.82119,424.91575 211,425.44548 211,424.62244 Z M 248,372.5 c 0,-16.775 0.3375,-30.50025 0.75,-30.50056 0.4125,-3.1e-4 0.62449,13.53429 0.47108,30.07689 -0.21295,22.96379 9.8e-4,29.90446 0.90451,29.34605 0.74354,-0.45953 0.9182,-0.30226 0.4699,0.42311 C 248.39502,405.40593 248,400.93974 248,372.5 Z m 13.40451,29.34549 c -0.4483,-0.72537 -0.27364,-0.88264 0.4699,-0.42311 0.90353,0.55841 1.11746,-6.38226 0.90451,-29.34605 -0.15341,-16.5426 0.0586,-30.0772 0.47108,-30.07689 0.4125,3.1e-4 0.75,13.72556 0.75,30.50056 0,28.43974 -0.39502,32.90593 -2.59549,29.34549 z M 72,256 c 0,-26.4 0.3375,-48 0.75,-48 0.4125,0 0.75,21.6 0.75,48 0,26.4 -0.3375,48 -0.75,48 C 72.3375,304 72,282.4 72,256 Z m 366.5,0 c 0,-26.4 0.3375,-48 0.75,-48 0.4125,0 0.75,21.6 0.75,48 0,26.4 -0.3375,48 -0.75,48 -0.4125,0 -0.75,-21.6 -0.75,-48 z M 180,210.62244 c 0,-0.20765 0.7875,-0.99515 1.75,-1.75 1.58606,-1.24387 1.62143,-1.2085 0.37756,0.37756 C 180.82119,210.91575 180,211.44548 180,210.62244 Z M 329.87244,209.25 c -1.24387,-1.58606 -1.2085,-1.62143 0.37756,-0.37756 1.66575,1.30637 2.19548,2.12756 1.37244,2.12756 -0.20765,0 -0.99515,-0.7875 -1.75,-1.75 z M 248,139.5 c 0,-28.43974 0.39502,-32.90593 2.59549,-29.34549 0.4483,0.72537 0.27364,0.88264 -0.4699,0.42311 -0.90353,-0.55841 -1.11746,6.38226 -0.90451,29.34605 0.15341,16.5426 -0.0586,30.0772 -0.47108,30.07689 C 248.3375,170.00025 248,156.275 248,139.5 Z m 14.75521,10.25103 c 0.47689,-37.84161 0.81951,-41.32645 1.03241,-10.50103 0.11681,16.9125 -0.12512,30.75046 -0.53762,30.75103 -0.4125,5.7e-4 -0.63516,-9.11193 -0.49479,-20.25 z M 384.5,125 c 0.99549,-1.1 2.03498,-2 2.30998,-2 0.275,0 -0.31449,0.9 -1.30998,2 -0.99549,1.1 -2.03498,2 -2.30998,2 -0.275,0 0.31449,-0.9 1.30998,-2 z M 205.84349,77.5 c -0.19685,-2.475 -0.0172,-4.5 0.3993,-4.5 0.41647,0 0.75721,2.025 0.75721,4.5 0,2.475 -0.17969,4.5 -0.39931,4.5 -0.21961,0 -0.56036,-2.025 -0.7572,-4.5 z"
         id="path859" />
      <path
         style="fill:#cbb32b;fill-opacity:1"
         d="m 256,483.63478 c 0,-28.20263 -1.66,-28.65999 0.44806,-29.32905 1.17164,-0.37187 13.42794,-6.09926 25.18021,-12.91446 C 293.38053,434.57607 303.44692,429 303.99801,429 304.64249,429 305,438.59418 305,455.88922 c 0,24.15557 -0.17791,27.09911 -1.75,28.95387 -1.76865,2.08666 -43.32838,25.56896 -47.16421,26.7864 C 254.02045,512.28501 256,512.01796 256,483.63478 Z M 432,384.5 c 0,-22.1308 0.27935,-28.65399 1.25,-28.65767 0.6875,-0.003 11.36631,-5.85261 23.7307,-13 12.36438,-7.14739 22.21517,-12.76587 23.25,-12.99526 0.41308,-0.0916 0.7693,12.04987 0.7693,26.77749 0,22.08155 -0.26081,27.30279 -1.48723,29.05374 C 478.00783,387.8269 435.29961,413 433.15928,413 432.30736,413 432,405.44379 432,384.5 Z m -302.56645,-27 c -6.1e-4,-13.75 0.14023,-19.5137 0.31298,-12.80822 0.17275,6.70549 0.17325,17.95549 0.001,25 C 129.5755,376.7363 129.43416,371.25 129.43355,357.5 Z M 54.733083,342.78421 c -12.521805,-7.25049 -23.689458,-12.55607 -23.50863,-13.09855 0.351698,-1.05509 40.041168,-24.89391 45.593939,-27.31987 3.083169,-1.34701 3.685689,-1.275 8.5,1.01593 10.060061,4.78716 42.487458,24.91759 42.487458,26.19555 0,1.80728 -44.769717,27.18362 -47.891949,27.16314 -1.394016,-0.009 -12.596766,-6.66967 -25.180818,-13.9562 z M 252.90834,253.67315 c -2.65284,-0.8665 -70.78198,-38.68358 -73.35956,-40.78544 -1.36521,-1.11325 7.3797,-6.94686 37.81977,-24.59117 C 247.90934,170.59385 251.9734,168.5119 256,168.50628 c 3.85004,-0.005 6.70281,1.27104 19.75121,8.83725 8.38817,4.86394 14.99382,9.26 14.67923,9.76902 -0.31459,0.50901 -2.72736,2.01769 -5.36171,3.35262 -10.98578,5.56692 -21.86242,18.56277 -26.23312,31.34439 -1.92473,5.62868 -2.2916,8.7926 -2.31171,19.93674 -0.0131,7.28547 -0.0239,13.21339 -0.0239,13.17315 0,-0.0402 -1.61625,-0.60107 -3.59166,-1.2463 z M 432,182.52204 v -28.42845 l 4.25,-2.39144 c 2.24312,-1.26219 13.025,-6.6731 23.75,-12.96356 10.725,-6.29047 19.8375,-11.25347 20.25,-11.02889 0.4125,0.22459 0.75,12.53178 0.75,27.34932 0,24.65228 -0.15357,27.09455 -1.80769,28.74867 -2.00095,2.00095 -40.64069,24.65189 -44.65982,26.17996 L 432,210.9505 Z M 129.43244,155 c 0,-13.475 0.14155,-18.9875 0.31456,-12.25 0.17301,6.7375 0.17301,17.7625 0,24.5 -0.17301,6.7375 -0.31456,1.225 -0.31456,-12.25 z M 77.892374,154.18663 C 76.000149,153.43139 40.256414,132.11457 34.183079,128.3155 32.425985,127.21639 31.480909,128.2788 32.30815,127.28202 34.413242,124.74554 77.723822,99 80.124625,99 82.649524,99 122.85,121.61299 126.68878,125.19259 l 1.32369,3.12235 -2.89115,1.51855 c -2.29646,1.2062 -12.94632,6.52045 -23.12132,12.36954 -10.175,5.8491 -18.859321,11.51232 -19.959321,11.79195 -1.1,0.27963 -2.966737,0.66324 -4.148305,0.19165 z M 256,83.634775 v -28.5 l 0.95238,-0.820942 C 257.93562,53.466284 270.08826,48.149599 281.80724,41.35458 293.52622,34.559561 303.53872,29 304.05724,29 304.62421,29 305,39.718115 305,55.889216 c 0,24.146619 -0.17849,27.102201 -1.75,28.97738 -1.76772,2.109309 -41.64783,26.031944 -45.67013,26.919554 L 256,112.13478 Z"
         id="path857"
         sodipodi:nodetypes="ssssssssscsssssssscsssssscsssscsssssssccssssssccssssssssscssssccsssssscc" />
      <path
         style="fill:#516741;fill-opacity:1"
         d="M 250.98519,510.1176 C 236.79067,502.45092 210.1809,486.52477 208.75,484.83951 207.17782,482.98786 207,480.04615 207,455.88922 207,437.98099 207.34654,429 208.03755,429 c 0.57065,0 10.71949,5.60224 22.55297,12.44943 11.83349,6.84718 22.23866,13.03336 23.30953,13.37324 1.86922,0.59327 2.09995,1.44823 2.09995,28.74472 0,15.63793 0.5734,28.58554 0.15275,28.58554 -0.42064,0 -3.2507,-1.00001 -5.16756,-2.03533 z M 407.27997,400.24201 c -18.00341,-10.324 -22.51037,-13.33999 -23.75,-15.89314 -1.24099,-2.55594 -1.52739,-7.56128 -1.51632,-26.5 0.0129,-22.11923 0.39465,-27.85505 1.85298,-27.84413 0.34835,0.003 10.74968,5.85261 23.11407,13 C 419.34508,350.15213 431.40892,356 432.10704,356 433.10308,356 432,362.13549 432,384.5 c 0,22.1376 1.09729,29.10993 0.12634,29.10372 -0.6875,-0.004 -12.62535,-6.35361 -24.84637,-13.36171 z M 178.07895,295.41667 c 0.048,-1.16495 0.28494,-1.4019 0.60416,-0.60417 0.28887,0.72187 0.25335,1.58438 -0.0789,1.91667 -0.3323,0.33229 -0.56864,-0.25834 -0.52522,-1.3125 z m 0,-79 c 0.048,-1.16495 0.28494,-1.4019 0.60416,-0.60417 0.28887,0.72187 0.25335,1.58437 -0.0789,1.91667 -0.3323,0.33229 -0.56864,-0.25834 -0.52522,-1.3125 z m 251.19479,-6.43905 c -4.35438,-1.75173 -44.13851,-25.10971 -45.44469,-26.68139 -1.00801,-1.2129 -1.40402,-7.66194 -1.63942,-26.69772 -0.17071,-13.80418 -0.15177,-27.24726 0.30648,-28.48577 0.80392,-2.17291 1.78455,-0.69147 22.02664,11.00863 11.53749,6.66877 22.43975,12.75063 24.22725,13.51525 l 3.25,1.39022 v 28.48658 c 0,15.66762 -0.1125,28.45806 -0.25,28.42319 -0.1375,-0.0349 -1.25182,-0.46641 -2.47626,-0.95899 z M 32.872445,184.25 c -1.243871,-1.58606 -1.208501,-1.62143 0.377555,-0.37756 0.9625,0.75485 1.75,1.54235 1.75,1.75 0,0.82304 -0.821186,0.29331 -2.127555,-1.37244 z M 233,100.03667 C 221.725,93.512766 211.2625,87.201418 209.75,86.011454 L 207,83.847883 V 56.423942 C 207,37.854979 207.34065,29 208.05499,29 c 0.58025,0 10.67253,5.584291 22.42729,12.409535 11.75476,6.825244 23.38638,12.489296 24.52637,12.851115 2.03292,0.645225 0.99135,1.419909 0.99135,29.306738 0,22.106542 0.47883,28.421302 -0.49305,28.381772 -0.6875,-0.028 -11.23195,-5.38858 -22.50695,-11.91249 z"
         id="path855"
         sodipodi:nodetypes="sssssssssssscssscssssssssssssssssscssssssssscsssssss" />
      <path
         style="fill:#2ed9ad;fill-opacity:1"
         d="m 167,413.22482 c -21.175,-12.28458 -39.16563,-22.72377 -39.97919,-23.19822 -1.26525,-0.73786 -1.19581,-1.17574 0.48006,-3.02757 1.14665,-1.26702 2.1749,-4.20915 2.47919,-7.09369 l 0.51994,-4.92876 41.18068,23.76171 42.55702,24.52635 -4.26395,1.88965 c -3.22748,1.43032 -1.97764,4.88934 -2.9614,10.09933 -0.20963,1.11022 -12.07923,-5.82353 -40.01235,-22.0288 z m 137.37796,20.55215 c 0,-3.16797 -0.87814,-6.31336 -3.84075,-8.84443 l -2.34099,-2 41.21935,-23.77271 42.51697,-24.20524 0.95249,4.93975 c 0.43502,2.2561 1.2232,5.4038 2.3024,6.5963 1.03982,1.14898 2.99973,1.08808 0.71476,2.9405 -0.25309,0.20518 -18.30262,10.7622 -40.16053,23.40404 -36.76566,21.26395 -41.3637,23.2323 -41.3637,20.94179 z M 249,372.78518 248.54122,341.05317 256,343.5 263.91756,341.20609 263,372.78518 c -0.83192,28.63145 0.87516,31.70935 -1.0167,30.69684 C 260.91946,402.91267 257.72232,400 256,400 c -1.72232,0 -4.30775,2.30096 -5.37159,2.87031 C 248.73653,403.88282 249,401.42871 249,372.78518 Z M 130,334.60496 c 0,-3.67534 -1.88413,-7.20499 -4.63066,-8.67489 -1.32537,-0.70931 -2.06316,-1.61839 -1.63955,-2.02018 0.42362,-0.40179 12.80771,-7.70361 27.52021,-16.22627 25.74234,-14.91203 27.66781,-16.16033 27.67415,-13.60432 0.007,2.81968 3.18037,7.37352 5.91169,9.42168 1.63561,1.22652 -4.91176,5.1113 -49.04202,30.30693 L 130,337.11582 Z m 224.07577,-13.60479 c -18.87573,-10.96386 -28.28501,-16.73877 -27.14658,-17.17563 2.31045,-0.8866 6.30617,-6.97094 6.30617,-10.02962 0,-2.41269 2.21943,-0.79121 27.51464,13.86097 14.7125,8.52218 27.96168,16.37072 28.3853,16.78038 0.42361,0.40965 0.42274,1.11962 -0.92711,1.84203 -2.44818,1.31023 -4.228,4.45757 -4.78964,8.65267 -0.27022,2.01834 -4.34999,0.58614 -29.34278,-13.9308 z M 84.628397,302.36431 C 81.858298,300.86368 78.413041,300.899 74.75,302.46556 73.097476,303.17229 73,300.58414 73,256 c 0,-44.58414 0.313752,-49.0106 1.966272,-48.30387 3.69739,1.58125 5.913988,1.26828 8.928226,-0.29041 L 87.134914,206.21847 88,255.97432 c 0.459183,26.41013 -0.1125,48.00766 -0.25,47.98564 -0.1375,-0.022 -1.542222,-0.74006 -3.121603,-1.59565 z M 424,256 l 0.30585,-48.96892 3.13228,2.23147 c 2.76379,1.96895 7.49082,0.32387 11.18821,-1.25742 1.65252,-0.70673 0.37366,3.41069 0.37366,47.99483 0,44.58414 -0.20564,47.92924 -1.85814,47.22251 -3.69739,-1.58125 -6.99534,-2.34964 -10.00958,-0.79095 L 424,304.05136 Z m -91.29988,-38.17139 c 0,-3.33798 -0.30049,-8.18591 -4.10723,-9.11818 -2.03904,-0.49936 1.24349,-3.63122 25.5662,-17.75897 24.91848,-14.4738 28.74352,-16.14341 29.01376,-14.12494 0.56164,4.1951 1.88268,7.45058 4.33086,8.76081 1.34985,0.72241 1.19011,1.80158 0.7665,2.21123 -0.42362,0.40966 -12.80771,8.02337 -27.52021,16.54555 -24.92726,14.43905 -28.04988,15.78539 -28.04988,13.4845 z M 154,205.91034 c -12.375,-7.18031 -24.4776,-14.20466 -26.89466,-15.60966 l -5.25975,-3.31149 2.17822,-1.58412 c 2.46498,-1.79267 3.78064,-4.26447 4.34137,-8.4346 0.26994,-2.00754 4.57003,-0.47351 29.31312,13.82441 l 29.77356,15.38071 -3.63173,2.64882 c -2.97557,2.17024 -5.26604,7.83216 -4.63064,8.10985 1.04108,0.45499 -0.12122,3.68001 -0.53372,3.67051 -0.4125,-0.01 -12.28077,-7.51411 -24.65577,-14.69443 z m 95,-66.69552 c 0.0988,-28.64336 -0.28201,-30.77641 1.60985,-29.7639 C 251.67369,110.02027 254.27768,112 256,112 c 1.72232,0 4.0019,-1.65532 5.06574,-2.22467 1.89188,-1.01251 1.93426,0.79596 1.93426,29.43949 l 0.32441,31.12349 L 256,168.5 l -7.10814,2.05458 z m -120.62204,-8.2386 c 0,-2.26037 -0.22581,-3.35347 -2.28566,-5.98303 l -3.36702,-2.74296 41.02077,-24.307662 c 22.13377,-13.115799 42.50125,-25.214605 42.98906,-25.397938 0.48781,-0.183334 0.23807,2.382871 0.12997,4.813561 -0.17315,3.892234 2.75051,8.671071 4.67621,9.312972 1.00256,0.334186 -80.92777,48.302057 -82.49872,48.302057 -0.30606,0 -0.66461,-2.27445 -0.66461,-3.997 z M 340.59401,110.75449 C 318.64572,98.021714 300.0282,86.670486 300.67556,86.454698 c 1.92519,-0.64173 4.35122,-4.98464 4.35122,-8.880235 0,-1.998147 -0.67722,-4.564352 -0.18327,-4.381018 0.49395,0.183333 21.17557,11.844503 43.44801,24.724216 l 41.79297,24.499019 -4.69106,2.11906 c 0.3771,-0.17034 -1.9336,3.36427 -2.79868,5.8998 -0.55623,1.63027 -0.22937,4.40816 -0.64187,4.38203 -0.4125,-0.0261 -19.41057,-11.33031 -41.35887,-24.06308 z"
         id="path853"
         sodipodi:nodetypes="sssscccssssscccsssssscccsssssssssssscsssssssssssssccsssccsssssccsssssssssscssscsscsssssscccssscssssssssssscssss" />
      <path
         style="fill:#cbb32b;fill-opacity:1"
         d="m 80,384.5 c 0,-22.1338 -0.944198,-28.65274 0.02658,-28.65206 0.6875,4.7e-4 12.647486,-5.6966 25.08246,-12.84707 C 117.54402,335.85039 128.00652,330 128.35904,330 128.71157,330 129,342.12491 129,356.94424 c 0,26.55761 -0.0323,26.979 -2.25,29.3671 C 124.46843,388.76821 82.514166,413 80.588499,413 79.88329,413 80,403.6911 80,384.5 Z M 255.15833,299.21222 255.41864,254.81369 260,253.60017 c 1.9695,-0.52169 18.34586,-10.29089 37.01946,-21.12111 23.67128,-13.72875 34.45812,-20.58314 35.27961,-19.95633 0.9126,0.69633 1.20093,16.23464 1.20093,43.27727 0,38.9064 -0.0881,40.84899 -2,44.08079 -1.62455,2.74613 -8.38817,7.08001 -36.02916,23.08617 -18.71603,10.83795 -35.25817,20.01383 -36.76031,20.39084 l -2.73115,0.68548 z M 80,182.01342 v -27.98658 l 3.378572,-1.41166 c 1.858214,-0.77641 12.370701,-6.95686 23.361078,-13.33783 C 117.73003,132.89638 127.23468,128 127.86108,128 c 1.70546,0 1.59886,53.01767 -0.11108,55.24859 -1.6251,2.12023 -45.456465,26.427 -47.492637,26.427 C 78.887747,209.67559 80,206.6636 80,182.01342 Z"
         id="path851"
         sodipodi:nodetypes="ssssssssccsssssssccscssssss" />
      <path
         style="fill:#516741;fill-opacity:1"
         d="M 60.412914,402.69941 C 33.587381,387.27374 32.013338,388.57973 30.906679,386.63954 c -1.553489,-2.72358 -0.835174,-56.01413 0.510954,-56.52194 0.530185,-0.2 11.403309,5.75293 23.708781,12.88557 12.305472,7.13264 23.476765,13.1911 24.164265,13.19891 C 80.261107,356.21308 80,362.37424 80,384.5 c 0,15.675 0.08209,28.65293 -0.378305,28.65293 -0.460397,0 -9.356678,-4.7882 -19.208781,-10.45352 z M 252.71248,343.30345 c -0.98314,-0.2555 -17.18314,-9.37635 -36,-20.26854 -27.6853,-16.02572 -34.59405,-20.44607 -36.21248,-23.16945 -1.91211,-3.21757 -2,-5.15395 -2,-44.06546 0,-29.74094 0.31497,-41.66383 1.16992,-42.51873 0.89324,-0.89324 9.40739,4.25356 36,19.66743 19.15655,11.1037 36.06758,20.43892 37.58008,20.74493 L 256,254.25 v 44.875 c 0,24.68125 0.35067,44.8228 -0.0618,44.759 -0.4125,-0.0638 -2.24255,-0.32505 -3.22569,-0.58055 z M 55.595344,197.58454 C 44.097784,190.84797 32.789794,185.38122 31.774854,184.12783 30.085914,182.04207 31,178.55591 31,154.55588 c 0,-14.4224 0.476792,-26.91561 0.795205,-27.23402 0.318414,-0.31841 8.539642,4.60811 18.533728,10.41917 C 60.32302,143.5521 71.0875,149.66271 74.25,151.32018 l 5.75,3.01359 v 27.83311 c 0,25.87291 0.741838,27.50282 -0.884914,27.42513 -0.9625,-0.046 -12.022181,-5.27091 -23.519742,-12.00747 z"
         id="path849"
         sodipodi:nodetypes="ssssssssssssssscssssssssscsss" />
    </g>
  </g>
</svg>
