<?xml version="1.0" encoding="UTF-8" standalone="no"?>
<!-- Created with Inkscape (http://www.inkscape.org/) -->

<svg
   version="1.1"
   id="svg2"
   width="169"
   height="188"
   viewBox="0 0 169 188"
   sodipodi:docname="caja-con-circulo-central.svg"
   xmlns:inkscape="http://www.inkscape.org/namespaces/inkscape"
   xmlns:sodipodi="http://sodipodi.sourceforge.net/DTD/sodipodi-0.dtd"
   xmlns="http://www.w3.org/2000/svg"
   xmlns:svg="http://www.w3.org/2000/svg">
  <defs
     id="defs6" />
  <sodipodi:namedview
     id="namedview4"
     pagecolor="#ffffff"
     bordercolor="#000000"
     borderopacity="0.25"
     inkscape:showpageshadow="2"
     inkscape:pageopacity="0.0"
     inkscape:pagecheckerboard="0"
     inkscape:deskcolor="#d1d1d1"
     showgrid="false" />
  <g
     inkscape:groupmode="layer"
     inkscape:label="Image"
     id="g8">
    <path
       style="fill:#2ed9ad;fill-opacity:1;stroke-width:0.333333"
       d="m 42.711454,163.67677 -41.90443745,-23.73472 0.0711,-46.999995 0.0711,-47 L 42.615884,23.157877 C 65.532557,10.62658 84.507557,0.31297029 84.782557,0.23874492 85.057557,0.16451952 104.18255,10.437308 127.28255,23.067164 l 42,22.963374 v 46.9191 46.919092 l -41.97387,23.78666 c -23.08564,13.08266 -42.135633,23.77978 -42.333333,23.77138 -0.1977,-0.008 -19.216453,-10.6959 -42.263893,-23.75 z M 77.115891,147.00766 V 128.9066 l -2.416667,-0.77 c -3.259323,-1.03848 -8.368037,-3.68783 -11.101713,-5.75727 -10.015727,-7.58211 -14.950157,-18.02406 -14.373674,-30.416745 0.111394,-2.394624 0.44156,-5.232477 0.733704,-6.30634 0.292146,-1.073864 0.48479,-1.994314 0.428096,-2.045444 -0.235533,-0.212426 -34.001089,-19.835413 -34.131082,-19.835413 -0.07803,0 -0.103649,15.02481 -0.05693,33.388467 l 0.08493,33.388455 30.333335,17.25841 c 16.683333,9.49212 30.370833,17.26731 30.416666,17.2782 0.04583,0.0109 0.08333,-8.12568 0.08333,-18.08126 z m 47.289339,0.26772 29.36264,-16.66667 0.007,-33.436329 c 0.004,-18.389986 -0.10516,-33.37357 -0.24266,-33.296856 -0.1375,0.07672 -7.7875,4.52829 -17,9.89239 -11.32736,6.595506 -16.75,9.92972 -16.75,10.29906 0,0.30038 0.15395,1.070156 0.3421,1.710613 1.12666,3.835017 1.03403,12.077197 -0.1896,16.871012 -2.91253,11.41035 -12.02301,21.04699 -23.910219,25.29112 l -3.075607,1.0981 -0.08621,18.04488 -0.08621,18.04489 1.132894,-0.59277 c 0.6231,-0.32603 14.346092,-8.09277 30.495542,-17.25944 z M 91.742477,112.9899 c 11.586913,-3.97659 17.016223,-17.818535 11.262013,-28.712332 -1.3928,-2.636837 -4.963179,-6.36114 -7.602426,-7.93018 -3.37926,-2.008983 -6.143893,-2.724 -10.45284,-2.70342 -4.663287,0.02227 -7.941007,1.010763 -11.395183,3.436537 -6.092587,4.278656 -9.105304,10.525113 -8.681047,17.99896 0.306457,5.398655 2.09342,9.289925 6.078313,13.236045 2.71246,2.68607 5.95959,4.49644 9.497917,5.29537 3.201603,0.72289 8.1742,0.44947 11.293253,-0.62098 z M 60.230131,67.912318 c 4.531116,-4.11308 10.76653,-7.530207 16.483823,-9.033453 2.6834,-0.705547 4.031307,-0.855747 7.901937,-0.880534 6.44552,-0.04127 10.276156,0.845114 15.999999,3.702314 3.61954,1.806783 6.02484,3.409933 9.11015,6.07198 l 2.31996,2.00169 16.5164,-9.573567 c 9.08401,-5.26546 16.48724,-9.59965 16.45161,-9.631533 -0.0356,-0.0319 -13.47433,-7.28527 -29.86377,-16.118634 C 96.907927,24.618573 85.119294,18.450579 84.753124,18.546335 c -1.046323,0.273619 -59.672909,31.971156 -59.48332,32.160746 0.206979,0.206977 32.61853,19.043377 32.79366,19.058464 0.06283,0.0054 1.03783,-0.82854 2.166667,-1.853227 z"
       id="path170" />
  </g>
</svg>
