<?xml version="1.0" encoding="UTF-8" standalone="no"?>
<!-- Created with Inkscape (http://www.inkscape.org/) -->

<svg
   version="1.1"
   id="svg2"
   width="201.66667"
   height="141"
   viewBox="0 0 201.66667 141"
   sodipodi:docname="candado-celeste.svg"
   inkscape:version="1.2.1 (9c6d41e410, 2022-07-14)"
   xmlns:inkscape="http://www.inkscape.org/namespaces/inkscape"
   xmlns:sodipodi="http://sodipodi.sourceforge.net/DTD/sodipodi-0.dtd"
   xmlns="http://www.w3.org/2000/svg"
   xmlns:svg="http://www.w3.org/2000/svg">
  <defs
     id="defs6" />
  <sodipodi:namedview
     id="namedview4"
     pagecolor="#ffffff"
     bordercolor="#000000"
     borderopacity="0.25"
     inkscape:showpageshadow="2"
     inkscape:pageopacity="0.0"
     inkscape:pagecheckerboard="0"
     inkscape:deskcolor="#d1d1d1"
     showgrid="false"
     inkscape:zoom="2.9680851"
     inkscape:cx="49.863799"
     inkscape:cy="79.175627"
     inkscape:window-width="1920"
     inkscape:window-height="1017"
     inkscape:window-x="-8"
     inkscape:window-y="-8"
     inkscape:window-maximized="1"
     inkscape:current-layer="g8" />
  <g
     inkscape:groupmode="layer"
     inkscape:label="Image"
     id="g8">
    <path
       style="fill:#0a0a0a;fill-opacity:1;stroke-width:0.333333"
       d="M 92.017707,141.186 C 76.45954,139.37044 62.57072,132.5722 51.104117,121.15981 39.96619,110.07454 33.414333,96.860997 31.248683,81.116093 L 31.030901,79.53276 H 15.717992 0.40508325 V 71.199426 62.866093 H 15.723312 31.041541 l 0.198086,-1.25 c 0.738108,-4.657743 1.982765,-10.173567 2.996639,-13.279907 1.370864,-4.2001 4.75103,-11.35891 7.01793,-14.863178 C 51.628813,17.435489 68.14854,5.9133111 85.81977,2.389415 c 10.142457,-2.02255135 20.02817,-2.02255135 30.17063,0 25.05556,4.9964371 46.58378,25.48253 52.87418,50.314658 0.69735,2.752853 1.86732,8.946077 1.8725,9.91202 7.4e-4,0.1375 6.90134,0.25 15.33467,0.25 h 15.33334 v 8.333333 8.333334 h -15.31291 -15.31291 l -0.22205,1.583333 c -1.81789,12.962634 -6.76965,24.651707 -14.4966,34.220467 -11.75163,14.55278 -28.44996,23.83982 -46.48887,25.85551 -3.43105,0.38339 -14.248686,0.37965 -17.554043,-0.006 z m 16.460233,-16.81458 c 11.67112,-1.52995 21.60139,-6.5062 30.2668,-15.16726 8.67422,-8.66987 13.80336,-18.97104 15.35272,-30.833777 0.56782,-4.347567 0.21393,-14.489797 -0.63985,-18.337623 -2.60523,-11.741184 -8.2016,-21.20345 -17.30679,-29.262072 -10.76644,-9.52893 -25.14807,-14.215176 -39.635886,-12.915338 -13.675437,1.226951 -23.742847,5.937606 -33.462917,15.657676 -8.110104,8.110104 -12.33443,15.77943 -14.699084,26.6864 -0.663333,3.059627 -0.758807,4.443654 -0.758807,11 0,6.556347 0.09547,7.940374 0.758807,11 2.38532,11.002301 6.59187,18.604104 14.857644,26.849744 5.038083,5.02581 8.627197,7.68827 14.00521,10.38927 5.03495,2.5287 12.38834,4.63326 18.189297,5.20582 3.117777,0.30772 9.690486,0.17055 13.072856,-0.27284 z M 77.20436,104.73434 C 75.20021,103.80115 73.449727,102.14592 72.550664,100.3339 71.94077,99.104687 71.9,98.069157 71.81312,81.600343 c -0.10247,-19.42313 -0.172433,-18.747827 2.225364,-21.47877 1.249453,-1.423047 4.069943,-2.920003 5.51538,-2.92725 0.559836,-0.0027 1.188433,-0.115307 1.39688,-0.25 0.255446,-0.165063 0.425703,-2.526853 0.52227,-7.244897 0.1338,-6.537276 0.20193,-7.16476 1.030633,-9.492476 2.092883,-5.87863 6.818877,-10.597617 12.568104,-12.549473 2.586023,-0.877953 9.080649,-0.877953 11.666669,0 4.8541,1.647963 9.04252,5.331608 11.32314,9.958503 1.90384,3.86251 2.33084,6.291443 2.33774,13.297783 0.006,6.402773 -0.0304,6.285663 1.9676,6.285663 1.34279,0 4.19132,1.540087 5.40479,2.922147 0.58463,0.665857 1.37881,1.89327 1.76484,2.727583 0.68463,1.479624 0.70189,1.935094 0.70189,18.516937 0,15.423994 -0.0536,17.118604 -0.57861,18.279404 -1.00286,2.217503 -2.51429,3.798373 -4.65355,4.867373 l -2.04099,1.0199 -22.03009,-0.003 -22.030096,-0.003 -1.700724,-0.79191 z m 27.692,-17.012177 c 3.98133,-2.333213 4.68457,-8.367423 1.36182,-11.68514 -3.64169,-3.636163 -9.923023,-2.616377 -12.052376,1.956727 -1.933347,4.152143 -0.08472,8.852726 4.09388,10.409713 1.858006,0.692313 4.765106,0.39207 6.596676,-0.6813 z m 7.17019,-36.272737 c -0.007,-7.772493 -0.83126,-10.518943 -4.01888,-13.398773 -2.17221,-1.962453 -4.02374,-2.654317 -7.14258,-2.66896 -2.259576,-0.0106 -2.956863,0.129743 -4.567543,0.919393 -2.383396,1.16848 -4.65972,3.657094 -5.638607,6.164464 -0.647626,1.65887 -0.760443,2.695296 -0.887193,8.150543 l -0.145213,6.25 h 11.202606 11.20261 l -0.005,-5.416667 z"
       id="path180" />
    <path
       style="fill:#2ed9ad;fill-opacity:1;stroke-width:0.324957"
       d="M 85.048437,136.05804 C 69.672828,134.31208 55.946972,127.77448 44.614905,116.79964 33.607668,106.13936 27.132687,93.432412 24.992447,78.291154 L 24.777221,76.768525 H 9.6439848 -5.4892509 V 68.754684 60.740845 H 9.6492418 24.787736 l 0.195762,-1.202076 C 25.712945,55.0596 26.942998,49.755248 27.944976,46.768003 29.299755,42.728931 32.64026,35.844584 34.880561,32.474667 45.133448,17.052013 61.459345,5.9715868 78.92323,2.5827942 c 10.023444,-1.94500809 19.793167,-1.94500809 29.81663,0 24.76157,4.8048772 46.03719,24.5055508 52.25378,48.3856338 0.68917,2.647312 1.84541,8.603092 1.85053,9.532001 7.3e-4,0.132229 6.82036,0.240416 15.15474,0.240416 l 29.30396,1.010753 -0.67383,7.340004 1.34767,9.024593 -29.95761,-1.34767 h -15.13324 l -0.21944,1.522629 c -1.79656,12.465658 -6.69022,23.706586 -14.32651,32.908486 -11.61374,13.99484 -28.11614,22.92582 -45.94339,24.86423 -3.390793,0.3687 -14.081506,0.3651 -17.348083,-0.006 z m 16.267103,-16.16992 c 11.53418,-1.4713 21.34793,-6.25676 29.91167,-14.58577 8.57244,-8.337478 13.6414,-18.243708 15.17258,-29.651637 0.56116,-4.180885 0.21142,-13.93427 -0.63234,-17.634574 C 143.19278,46.725103 137.66208,37.625612 128.66372,29.875952 118.02361,20.712353 103.81073,16.205774 89.492899,17.455777 75.977919,18.635688 66.028635,23.16574 56.422615,32.51315 48.407674,40.312319 44.23291,47.68761 41.896005,58.176416 c -0.655549,2.942323 -0.749903,4.273288 -0.749903,10.578268 0,6.304982 0.09435,7.635947 0.749903,10.578269 2.357332,10.580482 6.514525,17.890843 14.683309,25.820347 4.978976,4.83313 8.525973,7.39351 13.840881,9.99096 4.975872,2.43175 12.242982,4.45562 17.975877,5.00623 3.081197,0.29593 9.576785,0.16401 12.919468,-0.26237 z M 70.408909,101.0039 C 68.428274,100.10649 66.698324,98.51472 65.809813,96.772163 65.207079,95.59008 65.166787,94.594252 65.080927,78.756839 64.979659,60.078376 64.91051,60.727788 67.280175,58.101548 c 1.23479,-1.368489 4.022186,-2.808053 5.450666,-2.815022 0.553271,-0.0026 1.174486,-0.110886 1.38049,-0.240415 0.252452,-0.158735 0.420705,-2.429976 0.516142,-6.967133 0.13223,-6.286643 0.19956,-6.89007 1.018537,-9.128543 2.068333,-5.653248 6.738871,-10.191313 12.420643,-12.068336 2.555677,-0.844293 8.974104,-0.844293 11.529774,0 4.797153,1.584781 8.936423,5.127198 11.190283,9.576702 1.88151,3.714425 2.3035,6.050234 2.31031,12.787956 0.006,6.157297 -0.03,6.044676 1.94452,6.044676 1.32703,0 4.14214,1.481042 5.34137,2.810115 0.57777,0.640328 1.36263,1.820683 1.74413,2.623009 0.6766,1.422897 0.69366,1.860904 0.69366,17.807013 0,14.83265 -0.053,16.46229 -0.57182,17.57859 -0.9911,2.132485 -2.48479,3.65274 -4.59895,4.68076 l -2.01704,0.9808 -21.771606,-0.003 -21.771611,-0.003 -1.680764,-0.76156 z M 97.775987,84.643953 c 3.934613,-2.243759 4.629603,-8.046623 1.34584,-11.237141 -3.598965,-3.496756 -9.806598,-2.516067 -11.910964,1.881708 -1.910665,3.992953 -0.08371,8.513319 4.045845,10.010612 1.836209,0.665771 4.709194,0.377039 6.519279,-0.655179 z m 7.086063,-34.88207 c -0.007,-7.474502 -0.82151,-10.115655 -3.97173,-12.885074 -2.146723,-1.887214 -3.976533,-2.552553 -7.058773,-2.566634 -2.233067,-0.01019 -2.922175,0.124768 -4.513956,0.884143 -2.355425,1.123682 -4.605046,3.516884 -5.57244,5.928124 -0.640031,1.59527 -0.751528,2.591961 -0.87679,7.838058 l -0.143507,6.01038 h 11.071165 11.071171 l -0.005,-5.208997 z"
       id="path180-8"
       sodipodi:nodetypes="csscccccccsssssssscccccsssccssscsssssssssscssscsssssscsssssscccccssssscsssssccccc" />
  </g>
</svg>
