<?xml version="1.0" encoding="UTF-8" standalone="no"?>
<!-- Created with Inkscape (http://www.inkscape.org/) -->

<svg
   version="1.1"
   id="svg2"
   width="201.66667"
   height="141"
   viewBox="0 0 201.66667 141"
   sodipodi:docname="candado-marron.svg"
   inkscape:version="1.2.1 (9c6d41e410, 2022-07-14)"
   xmlns:inkscape="http://www.inkscape.org/namespaces/inkscape"
   xmlns:sodipodi="http://sodipodi.sourceforge.net/DTD/sodipodi-0.dtd"
   xmlns="http://www.w3.org/2000/svg"
   xmlns:svg="http://www.w3.org/2000/svg">
  <defs
     id="defs6" />
  <sodipodi:namedview
     id="namedview4"
     pagecolor="#ffffff"
     bordercolor="#000000"
     borderopacity="0.25"
     inkscape:showpageshadow="2"
     inkscape:pageopacity="0.0"
     inkscape:pagecheckerboard="0"
     inkscape:deskcolor="#d1d1d1"
     showgrid="false"
     inkscape:zoom="5.9361702"
     inkscape:cx="98.548387"
     inkscape:cy="70.584229"
     inkscape:window-width="1920"
     inkscape:window-height="1017"
     inkscape:window-x="-8"
     inkscape:window-y="-8"
     inkscape:window-maximized="1"
     inkscape:current-layer="g8" />
  <g
     inkscape:groupmode="layer"
     inkscape:label="Image"
     id="g8">
    <path
       style="fill:#2ed9ad;fill-opacity:1;stroke-width:0.333333"
       d="M 92.017707,141.186 C 76.45954,139.37044 62.57072,132.5722 51.104117,121.15981 39.96619,110.07454 33.414333,96.860997 31.248683,81.116093 L 31.030901,79.53276 H 15.717992 0.40508325 V 71.199426 62.866093 H 15.723312 31.041541 l 0.198086,-1.25 c 0.738108,-4.657743 1.982765,-10.173567 2.996639,-13.279907 1.370864,-4.2001 4.75103,-11.35891 7.01793,-14.863178 C 51.628813,17.435489 68.14854,5.9133111 85.81977,2.389415 c 10.142457,-2.02255135 20.02817,-2.02255135 30.17063,0 25.05556,4.9964371 46.58378,25.48253 52.87418,50.314658 0.69735,2.752853 1.86732,8.946077 1.8725,9.91202 7.4e-4,0.1375 6.90134,0.25 15.33467,0.25 h 15.33334 v 8.333333 8.333334 h -15.31291 -15.31291 l -0.22205,1.583333 c -1.81789,12.962634 -6.76965,24.651707 -14.4966,34.220467 -11.75163,14.55278 -28.44996,23.83982 -46.48887,25.85551 -3.43105,0.38339 -14.248686,0.37965 -17.554043,-0.006 z m 16.460233,-16.81458 c 11.67112,-1.52995 21.60139,-6.5062 30.2668,-15.16726 8.67422,-8.66987 13.80336,-18.97104 15.35272,-30.833777 0.56782,-4.347567 0.21393,-14.489797 -0.63985,-18.337623 -2.60523,-11.741184 -8.2016,-21.20345 -17.30679,-29.262072 -10.76644,-9.52893 -25.14807,-14.215176 -39.635886,-12.915338 -13.675437,1.226951 -23.742847,5.937606 -33.462917,15.657676 -8.110104,8.110104 -12.33443,15.77943 -14.699084,26.6864 -0.663333,3.059627 -0.758807,4.443654 -0.758807,11 0,6.556347 0.09547,7.940374 0.758807,11 2.38532,11.002301 6.59187,18.604104 14.857644,26.849744 5.038083,5.02581 8.627197,7.68827 14.00521,10.38927 5.03495,2.5287 12.38834,4.63326 18.189297,5.20582 3.117777,0.30772 9.690486,0.17055 13.072856,-0.27284 z M 77.20436,104.73434 C 75.20021,103.80115 73.449727,102.14592 72.550664,100.3339 71.94077,99.104687 71.9,98.069157 71.81312,81.600343 c -0.10247,-19.42313 -0.172433,-18.747827 2.225364,-21.47877 1.249453,-1.423047 4.069943,-2.920003 5.51538,-2.92725 0.559836,-0.0027 1.188433,-0.115307 1.39688,-0.25 0.255446,-0.165063 0.425703,-2.526853 0.52227,-7.244897 0.1338,-6.537276 0.20193,-7.16476 1.030633,-9.492476 2.092883,-5.87863 6.818877,-10.597617 12.568104,-12.549473 2.586023,-0.877953 9.080649,-0.877953 11.666669,0 4.8541,1.647963 9.04252,5.331608 11.32314,9.958503 1.90384,3.86251 2.33084,6.291443 2.33774,13.297783 0.006,6.402773 -0.0304,6.285663 1.9676,6.285663 1.34279,0 4.19132,1.540087 5.40479,2.922147 0.58463,0.665857 1.37881,1.89327 1.76484,2.727583 0.68463,1.479624 0.70189,1.935094 0.70189,18.516937 0,15.423994 -0.0536,17.118604 -0.57861,18.279404 -1.00286,2.217503 -2.51429,3.798373 -4.65355,4.867373 l -2.04099,1.0199 -22.03009,-0.003 -22.030096,-0.003 -1.700724,-0.79191 z m 27.692,-17.012177 c 3.98133,-2.333213 4.68457,-8.367423 1.36182,-11.68514 -3.64169,-3.636163 -9.923023,-2.616377 -12.052376,1.956727 -1.933347,4.152143 -0.08472,8.852726 4.09388,10.409713 1.858006,0.692313 4.765106,0.39207 6.596676,-0.6813 z m 7.17019,-36.272737 c -0.007,-7.772493 -0.83126,-10.518943 -4.01888,-13.398773 -2.17221,-1.962453 -4.02374,-2.654317 -7.14258,-2.66896 -2.259576,-0.0106 -2.956863,0.129743 -4.567543,0.919393 -2.383396,1.16848 -4.65972,3.657094 -5.638607,6.164464 -0.647626,1.65887 -0.760443,2.695296 -0.887193,8.150543 l -0.145213,6.25 h 11.202606 11.20261 l -0.005,-5.416667 z"
       id="path180" />
  </g>
</svg>
