<svg xmlns="http://www.w3.org/2000/svg" xmlns:xlink="http://www.w3.org/1999/xlink" width="500" zoomAndPan="magnify" viewBox="0 0 375 374.999991" height="500" preserveAspectRatio="xMidYMid meet" version="1.2"><defs><clipPath id="c309b43a59"><path d="M 0 0.15625 L 375 0.15625 L 375 375 L 0 375 Z M 0 0.15625 "/></clipPath></defs><g id="02a47d0962"><g clip-rule="nonzero" clip-path="url(#c309b43a59)"><path style=" stroke:none;fill-rule:nonzero;fill:#1f1f1f;fill-opacity:1;" d="M 357.476562 230.734375 L 357.476562 168.28125 L 374.609375 151.148438 L 374.230469 96.171875 L 362.277344 84.21875 L 362.277344 61.199219 L 374.59375 48.882812 L 374.59375 28.230469 L 224.6875 28.230469 L 196.628906 0.171875 L 161.644531 0.253906 L 150.761719 11.136719 L 126.6875 11.136719 L 115.707031 0.15625 L 57.308594 0.15625 L 0.09375 57.371094 L 0.09375 139.476562 L 19.355469 158.734375 L 19.355469 255.300781 L 0.0820312 274.574219 L 0.0820312 345.414062 L 80.160156 345.414062 L 109.441406 374.699219 L 227.164062 374.839844 L 242.917969 359.085938 L 273.722656 359.085938 L 289.335938 374.699219 L 353.027344 374.699219 L 353.027344 356.058594 L 345.285156 348.316406 L 345.285156 306.726562 L 374.917969 277.09375 L 374.917969 248.175781 Z M 371.878906 275.824219 L 357.828125 289.875 L 345.609375 277.65625 L 345.609375 256.582031 C 348.382812 255.90625 350.4375 253.398438 350.4375 250.414062 C 350.4375 246.910156 347.59375 244.050781 344.074219 244.050781 C 340.566406 244.050781 337.710938 246.894531 337.710938 250.414062 C 337.710938 253.398438 339.765625 255.90625 342.539062 256.582031 L 342.539062 278.921875 L 355.660156 292.042969 L 342.214844 305.488281 L 342.214844 349.582031 L 349.957031 357.328125 L 349.957031 371.628906 L 290.574219 371.628906 L 274.960938 356.015625 L 241.636719 356.015625 L 225.914062 371.769531 L 110.710938 371.628906 L 96.460938 357.382812 L 108.949219 344.882812 L 172.542969 344.882812 C 173.21875 347.65625 175.722656 349.710938 178.707031 349.710938 C 182.214844 349.710938 185.070312 346.867188 185.070312 343.347656 C 185.070312 339.839844 182.226562 336.984375 178.707031 336.984375 C 175.722656 336.984375 173.21875 339.039062 172.542969 341.8125 L 107.695312 341.8125 L 94.308594 355.199219 L 81.425781 342.320312 L 3.136719 342.320312 L 3.136719 275.785156 L 12.0625 266.859375 L 19.972656 274.769531 L 19.972656 316.175781 C 17.199219 316.851562 15.144531 319.355469 15.144531 322.339844 C 15.144531 325.847656 17.988281 328.703125 21.507812 328.703125 C 25.015625 328.703125 27.871094 325.859375 27.871094 322.339844 C 27.871094 319.355469 25.816406 316.851562 23.042969 316.175781 L 23.042969 273.503906 L 14.242188 264.703125 L 22.4375 256.511719 L 22.4375 157.425781 L 15.328125 150.316406 L 23.480469 142.164062 L 23.480469 73.179688 C 26.253906 72.503906 28.308594 70 28.308594 67.015625 C 28.308594 63.507812 25.464844 60.652344 21.945312 60.652344 C 18.4375 60.652344 15.582031 63.496094 15.582031 67.015625 C 15.582031 70 17.636719 72.503906 20.410156 73.179688 L 20.410156 140.953125 L 13.160156 148.207031 L 3.164062 138.210938 L 3.164062 58.625 L 30.671875 31.113281 L 43.722656 44.164062 L 87.15625 44.164062 C 87.832031 46.9375 90.335938 48.996094 93.324219 48.996094 C 96.828125 48.996094 99.6875 46.152344 99.6875 42.632812 C 99.6875 39.125 96.84375 36.265625 93.324219 36.265625 C 90.335938 36.265625 87.832031 38.324219 87.15625 41.097656 L 44.949219 41.097656 L 32.785156 28.976562 L 58.5625 3.195312 L 114.441406 3.195312 L 118.058594 6.816406 L 113.652344 11.222656 L 72.542969 11.222656 C 71.867188 8.449219 69.359375 6.394531 66.375 6.394531 C 62.871094 6.394531 60.011719 9.238281 60.011719 12.757812 C 60.011719 16.261719 62.855469 19.121094 66.375 19.121094 C 69.359375 19.121094 71.867188 17.066406 72.542969 14.289062 L 114.917969 14.289062 L 120.210938 8.996094 L 125.421875 14.179688 L 152.015625 14.179688 L 162.910156 3.28125 L 195.375 3.195312 L 223.433594 31.253906 L 371.570312 31.253906 L 371.570312 47.601562 L 359.25 59.917969 L 359.25 84.191406 L 348.929688 94.511719 L 348.929688 125.003906 C 346.15625 125.679688 344.101562 128.1875 344.101562 131.171875 C 344.101562 134.675781 346.945312 137.535156 350.464844 137.535156 C 353.96875 137.535156 356.828125 134.691406 356.828125 131.171875 C 356.828125 128.1875 354.773438 125.679688 352 125.003906 L 352 95.792969 L 360.796875 86.992188 L 371.230469 97.425781 L 371.597656 149.878906 L 354.476562 167 L 354.476562 231.984375 L 371.921875 249.429688 L 371.921875 275.824219 Z M 371.878906 275.824219 "/></g><path style=" stroke:none;fill-rule:nonzero;fill:#1f1f1f;fill-opacity:1;" d="M 1.617188 351.46875 L 1.617188 373.292969 L 98.023438 373.585938 L 75.90625 351.46875 Z M 1.617188 351.46875 "/><path style=" stroke:none;fill-rule:nonzero;fill:#1f1f1f;fill-opacity:1;" d="M 13.132812 163.464844 L 1.617188 151.949219 L 1.644531 259.734375 L 13.132812 248.246094 Z M 13.132812 163.464844 "/><path style=" stroke:none;fill-rule:nonzero;fill:#1f1f1f;fill-opacity:1;" d="M 357.671875 374.714844 L 373.808594 374.714844 L 373.808594 291.863281 L 357.671875 307.996094 Z M 357.671875 374.714844 "/><path style=" stroke:none;fill-rule:nonzero;fill:#1f1f1f;fill-opacity:1;" d="M 373.808594 16.8125 L 373.808594 1.675781 L 223.96875 1.675781 L 239.117188 16.8125 Z M 373.808594 16.8125 "/><path style=" stroke:none;fill-rule:nonzero;fill:#1f1f1f;fill-opacity:1;" d="M 286.632812 54.921875 L 342.171875 54.921875 L 342.171875 37.519531 L 268.867188 37.167969 Z M 286.632812 54.921875 "/></g></svg>