<svg xmlns="http://www.w3.org/2000/svg" xmlns:xlink="http://www.w3.org/1999/xlink" width="1080" zoomAndPan="magnify" viewBox="0 0 810 1439.999935" height="1920" preserveAspectRatio="xMidYMid meet" version="1.2"><defs><clipPath id="563f33d1ac"><path d="M 252 0.00390625 L 609.4375 0.00390625 L 609.4375 1418.253906 L 252 1418.253906 Z M 252 0.00390625 "/></clipPath></defs><g id="7dd8145a9d"><g clip-rule="nonzero" clip-path="url(#563f33d1ac)"><path style=" stroke:none;fill-rule:nonzero;fill:#2ed9ad;fill-opacity:1;" d="M 553.195312 1398.488281 C 553.195312 1390.207031 547.875 1382.71875 540.132812 1379.941406 L 540.132812 1179.640625 L 472.132812 1111.640625 L 472.132812 952.070312 L 515.828125 995.761719 L 515.828125 1087.417969 L 583.160156 1154.753906 L 583.160156 1248.675781 C 575.402344 1251.457031 570.085938 1258.929688 570.085938 1267.226562 C 570.085938 1278.101562 578.933594 1286.9375 589.796875 1286.9375 C 600.675781 1286.9375 609.507812 1278.089844 609.507812 1267.226562 C 609.507812 1258.929688 604.175781 1251.457031 596.433594 1248.675781 L 596.433594 1149.25 L 529.128906 1081.929688 L 529.128906 990.273438 L 472.148438 933.292969 L 472.148438 897.65625 L 407.492188 832.988281 L 407.492188 585.28125 L 472.148438 520.613281 L 472.148438 484.972656 L 529.128906 427.992188 L 529.128906 336.339844 L 596.433594 269.019531 L 596.433594 169.59375 C 604.191406 166.8125 609.507812 159.339844 609.507812 151.042969 C 609.507812 140.164062 600.660156 131.332031 589.796875 131.332031 C 578.921875 131.332031 570.085938 140.179688 570.085938 151.042969 C 570.085938 159.339844 575.417969 166.8125 583.160156 169.59375 L 583.160156 263.515625 L 515.828125 330.851562 L 515.828125 422.503906 L 472.132812 466.199219 L 472.132812 306.613281 L 540.132812 238.613281 L 540.132812 38.3125 C 547.875 35.535156 553.195312 28.0625 553.195312 19.765625 C 553.195312 8.886719 544.34375 0.0507812 533.484375 0.0507812 C 522.621094 0.0507812 513.785156 8.902344 513.785156 19.765625 C 513.785156 28.046875 519.101562 35.535156 526.84375 38.3125 L 526.84375 233.109375 L 458.84375 301.097656 L 458.84375 515.109375 L 400.828125 573.125 L 350.65625 522.953125 L 350.65625 439.324219 L 406.289062 383.691406 L 406.289062 225.4375 L 353.503906 172.65625 L 353.503906 104.1875 C 361.207031 101.378906 366.496094 93.90625 366.496094 85.664062 C 366.496094 74.789062 357.644531 65.953125 346.78125 65.953125 C 335.921875 65.953125 327.085938 74.804688 327.085938 85.664062 C 327.085938 93.992188 332.429688 101.476562 340.21875 104.230469 L 340.21875 178.15625 L 393 230.941406 L 393 378.171875 L 350.65625 420.519531 L 350.65625 368.316406 L 278.371094 296.035156 L 278.371094 157.539062 C 286.128906 154.742188 291.445312 147.269531 291.445312 138.988281 C 291.445312 128.109375 282.597656 119.277344 271.734375 119.277344 C 260.855469 119.277344 252.023438 128.125 252.023438 138.988281 C 252.023438 147.269531 257.355469 154.742188 265.097656 157.539062 L 265.097656 301.550781 L 337.378906 373.832031 L 337.378906 528.453125 L 394.191406 585.28125 L 394.191406 832.972656 L 337.378906 889.800781 L 337.378906 1044.421875 L 265.097656 1116.703125 L 265.097656 1260.703125 C 257.339844 1263.496094 252.023438 1270.96875 252.023438 1279.25 C 252.023438 1290.128906 260.871094 1298.964844 271.734375 1298.964844 C 282.613281 1298.964844 291.445312 1290.113281 291.445312 1279.25 C 291.445312 1270.96875 286.113281 1263.496094 278.371094 1260.703125 L 278.371094 1122.207031 L 350.65625 1049.921875 L 350.65625 997.71875 L 393 1040.066406 L 393 1187.296875 L 340.21875 1240.082031 L 340.21875 1314.011719 C 332.429688 1316.761719 327.085938 1324.25 327.085938 1332.574219 C 327.085938 1343.449219 335.921875 1352.285156 346.78125 1352.285156 C 357.660156 1352.285156 366.496094 1343.4375 366.496094 1332.574219 C 366.496094 1324.320312 361.207031 1316.859375 353.503906 1314.054688 L 353.503906 1245.585938 L 406.289062 1192.800781 L 406.289062 1034.578125 L 350.65625 978.945312 L 350.65625 895.316406 L 400.828125 845.140625 L 458.84375 903.160156 L 458.84375 1117.171875 L 526.84375 1185.15625 L 526.84375 1379.953125 C 519.101562 1382.734375 513.785156 1390.207031 513.785156 1398.503906 C 513.785156 1409.378906 522.621094 1418.214844 533.484375 1418.214844 C 544.34375 1418.203125 553.195312 1409.351562 553.195312 1398.488281 Z M 553.195312 1398.488281 "/></g><path style=" stroke:none;fill-rule:nonzero;fill:#2ed9ad;fill-opacity:1;" d="M 431.277344 632.078125 C 431.277344 640.347656 436.792969 647.351562 444.351562 649.605469 L 444.351562 768.648438 C 436.808594 770.902344 431.277344 777.90625 431.277344 786.175781 C 431.277344 796.257812 439.488281 804.46875 449.570312 804.46875 C 459.652344 804.46875 467.863281 796.257812 467.863281 786.175781 C 467.863281 777.90625 462.347656 770.902344 454.789062 768.648438 L 454.789062 649.605469 C 462.332031 647.351562 467.863281 640.347656 467.863281 632.078125 C 467.863281 621.996094 459.652344 613.785156 449.570312 613.785156 C 439.488281 613.785156 431.277344 621.996094 431.277344 632.078125 Z M 431.277344 632.078125 "/><path style=" stroke:none;fill-rule:nonzero;fill:#2ed9ad;fill-opacity:1;" d="M 368.777344 786.175781 C 368.777344 777.90625 363.261719 770.902344 355.703125 768.648438 L 355.703125 649.605469 C 363.246094 647.351562 368.777344 640.347656 368.777344 632.078125 C 368.777344 621.996094 360.566406 613.785156 350.484375 613.785156 C 340.402344 613.785156 332.191406 621.996094 332.191406 632.078125 C 332.191406 640.347656 337.707031 647.351562 345.265625 649.605469 L 345.265625 768.648438 C 337.722656 770.902344 332.191406 777.90625 332.191406 786.175781 C 332.191406 796.257812 340.402344 804.46875 350.484375 804.46875 C 360.566406 804.46875 368.777344 796.257812 368.777344 786.175781 Z M 368.777344 786.175781 "/></g></svg>