<svg xmlns="http://www.w3.org/2000/svg" xmlns:xlink="http://www.w3.org/1999/xlink" width="1600" zoomAndPan="magnify" viewBox="0 0 1200 675.000002" height="900" preserveAspectRatio="xMidYMid meet" version="1.2"><defs><clipPath id="a6463b11ab"><path d="M 0.886719 185.972656 L 1199.113281 185.972656 L 1199.113281 487.777344 L 0.886719 487.777344 Z M 0.886719 185.972656 "/></clipPath></defs><g id="b1a7b06b77"><g clip-rule="nonzero" clip-path="url(#a6463b11ab)"><path style=" stroke:none;fill-rule:nonzero;fill:#2ed9ad;fill-opacity:1;" d="M 1182.410156 233.453125 C 1175.414062 233.453125 1169.085938 237.941406 1166.738281 244.480469 L 997.515625 244.480469 L 940.066406 301.882812 L 805.25 301.882812 L 842.167969 265 L 919.601562 265 L 976.488281 208.15625 L 1055.839844 208.15625 C 1058.1875 214.707031 1064.503906 219.195312 1071.511719 219.195312 C 1080.703125 219.195312 1088.167969 211.726562 1088.167969 202.554688 C 1088.167969 193.371094 1080.691406 185.914062 1071.511719 185.914062 C 1064.503906 185.914062 1058.1875 190.414062 1055.839844 196.953125 L 971.839844 196.953125 L 914.964844 253.769531 L 837.527344 253.769531 L 789.386719 301.871094 L 759.28125 301.871094 L 704.644531 356.449219 L 495.367188 356.449219 L 440.734375 301.871094 L 410.625 301.871094 L 362.484375 253.769531 L 285.046875 253.769531 L 228.171875 196.953125 L 144.171875 196.953125 C 141.824219 190.402344 135.507812 185.914062 128.5 185.914062 C 119.308594 185.914062 111.847656 193.386719 111.847656 202.554688 C 111.847656 211.738281 119.320312 219.195312 128.5 219.195312 C 135.507812 219.195312 141.824219 214.695312 144.171875 208.15625 L 223.523438 208.15625 L 280.410156 265 L 357.847656 265 L 394.761719 301.882812 L 259.933594 301.882812 L 202.484375 244.480469 L 33.261719 244.480469 C 30.914062 237.941406 24.597656 233.453125 17.589844 233.453125 C 8.398438 233.453125 0.933594 240.925781 0.933594 250.09375 C 0.933594 259.265625 8.410156 266.722656 17.589844 266.722656 C 24.585938 266.722656 30.914062 262.234375 33.261719 255.695312 L 197.835938 255.695312 L 255.273438 313.101562 L 436.082031 313.101562 L 485.097656 362.074219 L 442.710938 404.429688 L 372.054688 404.429688 L 325.054688 357.46875 L 191.355469 357.46875 L 146.757812 402.023438 L 88.914062 402.023438 C 86.542969 395.523438 80.226562 391.058594 73.265625 391.058594 C 64.078125 391.058594 56.613281 398.53125 56.613281 407.699219 C 56.613281 416.871094 64.089844 424.328125 73.265625 424.328125 C 80.300781 424.328125 86.625 419.816406 88.949219 413.242188 L 151.40625 413.242188 L 196.003906 368.683594 L 320.390625 368.683594 L 356.167969 404.429688 L 312.066406 404.429688 L 250.996094 465.449219 L 133.988281 465.449219 C 131.625 458.902344 125.3125 454.414062 118.316406 454.414062 C 109.125 454.414062 101.660156 461.882812 101.660156 471.054688 C 101.660156 480.234375 109.136719 487.695312 118.316406 487.695312 C 125.3125 487.695312 131.625 483.191406 133.988281 476.65625 L 255.65625 476.65625 L 316.726562 415.636719 L 447.359375 415.636719 L 495.367188 367.679688 L 704.632812 367.679688 L 752.640625 415.636719 L 883.273438 415.636719 L 944.34375 476.65625 L 1066 476.65625 C 1068.359375 483.203125 1074.675781 487.695312 1081.671875 487.695312 C 1090.863281 487.695312 1098.328125 480.222656 1098.328125 471.054688 C 1098.328125 461.871094 1090.851562 454.414062 1081.671875 454.414062 C 1074.675781 454.414062 1068.359375 458.914062 1066 465.449219 L 948.992188 465.449219 L 887.921875 404.429688 L 843.820312 404.429688 L 879.59375 368.683594 L 1003.984375 368.683594 L 1048.578125 413.242188 L 1111.039062 413.242188 C 1113.363281 419.816406 1119.6875 424.328125 1126.722656 424.328125 C 1135.910156 424.328125 1143.375 416.871094 1143.375 407.699219 C 1143.375 398.519531 1135.898438 391.058594 1126.722656 391.058594 C 1119.75 391.058594 1113.445312 395.523438 1111.074219 402.023438 L 1053.230469 402.023438 L 1008.632812 357.46875 L 874.957031 357.46875 L 827.957031 404.429688 L 757.300781 404.429688 L 714.914062 362.074219 L 763.929688 313.101562 L 944.738281 313.101562 L 1002.175781 255.695312 L 1166.75 255.695312 C 1169.101562 262.234375 1175.414062 266.722656 1182.421875 266.722656 C 1191.613281 266.722656 1199.078125 259.265625 1199.078125 250.09375 C 1199.066406 240.925781 1191.589844 233.453125 1182.410156 233.453125 Z M 1182.410156 233.453125 "/></g><path style=" stroke:none;fill-rule:nonzero;fill:#2ed9ad;fill-opacity:1;" d="M 534.90625 336.375 C 541.890625 336.375 547.808594 331.714844 549.714844 325.335938 L 650.285156 325.335938 C 652.191406 331.703125 658.109375 336.375 665.09375 336.375 C 673.613281 336.375 680.550781 329.441406 680.550781 320.929688 C 680.550781 312.417969 673.613281 305.488281 665.09375 305.488281 C 658.109375 305.488281 652.191406 310.144531 650.285156 316.523438 L 549.714844 316.523438 C 547.808594 310.15625 541.890625 305.488281 534.90625 305.488281 C 526.386719 305.488281 519.449219 312.417969 519.449219 320.929688 C 519.449219 329.441406 526.386719 336.375 534.90625 336.375 Z M 534.90625 336.375 "/><path style=" stroke:none;fill-rule:nonzero;fill:#2ed9ad;fill-opacity:1;" d="M 665.09375 389.132812 C 658.109375 389.132812 652.191406 393.789062 650.285156 400.167969 L 549.714844 400.167969 C 547.808594 393.800781 541.890625 389.132812 534.90625 389.132812 C 526.386719 389.132812 519.449219 396.0625 519.449219 404.574219 C 519.449219 413.085938 526.386719 420.019531 534.90625 420.019531 C 541.890625 420.019531 547.808594 415.363281 549.714844 408.980469 L 650.285156 408.980469 C 652.191406 415.351562 658.109375 420.019531 665.09375 420.019531 C 673.613281 420.019531 680.550781 413.085938 680.550781 404.574219 C 680.550781 396.0625 673.613281 389.132812 665.09375 389.132812 Z M 665.09375 389.132812 "/></g></svg>