<svg xmlns="http://www.w3.org/2000/svg" xmlns:xlink="http://www.w3.org/1999/xlink" width="500" zoomAndPan="magnify" viewBox="0 0 375 374.999991" height="500" preserveAspectRatio="xMidYMid meet" version="1.2"><defs><clipPath id="c929e057d3"><path d="M 70 9.28125 L 333 9.28125 L 333 112 L 70 112 Z M 70 9.28125 "/></clipPath><clipPath id="8abae2f8cd"><path d="M 168 346 L 185 346 L 185 365.53125 L 168 365.53125 Z M 168 346 "/></clipPath><clipPath id="5fcf3d514d"><path d="M 2.339844 181 L 30 181 L 30 209 L 2.339844 209 Z M 2.339844 181 "/></clipPath></defs><g id="bf89d634a1"><g clip-rule="nonzero" clip-path="url(#c929e057d3)"><path style=" stroke:none;fill-rule:nonzero;fill:#2ed9ad;fill-opacity:1;" d="M 332.296875 111.367188 C 317.441406 84.605469 295.902344 62.53125 270.027344 47.546875 L 269.917969 47.484375 L 269.917969 47.355469 C 269.265625 40.277344 268.144531 33.097656 266.59375 26.007812 C 247.527344 17.253906 227.164062 11.792969 206.054688 9.785156 C 193.796875 21.863281 183.746094 35.265625 176.179688 49.621094 L 176.117188 49.738281 L 175.976562 49.738281 C 133.554688 53.222656 95.171875 74.984375 70.671875 109.488281 L 70.265625 109.199219 C 82.902344 91.414062 98.859375 77.113281 117.703125 66.722656 C 135.605469 56.847656 155.144531 50.976562 175.796875 49.269531 C 183.394531 34.882812 193.484375 21.457031 205.789062 9.347656 L 205.871094 9.261719 L 205.992188 9.261719 C 227.238281 11.28125 247.738281 16.773438 266.914062 25.601562 L 267.03125 25.65625 L 267.054688 25.773438 C 268.613281 32.882812 269.746094 40.085938 270.390625 47.183594 C 296.289062 62.210938 317.847656 84.316406 332.726562 111.121094 L 332.285156 111.367188 Z M 332.296875 111.367188 "/></g><path style=" stroke:none;fill-rule:nonzero;fill:#2ed9ad;fill-opacity:1;" d="M 207.53125 42.351562 C 178.597656 38.6875 148.765625 43.1875 122.03125 55.851562 C 121.742188 55.285156 121.453125 54.707031 121.167969 54.140625 C 148.25 41.316406 178.476562 36.75 207.796875 40.472656 C 207.710938 41.101562 207.625 41.730469 207.539062 42.351562 Z M 207.53125 42.351562 "/><path style=" stroke:none;fill-rule:nonzero;fill:#2ed9ad;fill-opacity:1;" d="M 207.882812 39.765625 C 178.425781 36.035156 148.046875 40.621094 120.835938 53.511719 C 120.609375 53.0625 120.375 52.613281 120.152344 52.164062 C 147.640625 39.144531 178.328125 34.515625 208.085938 38.28125 C 208.019531 38.773438 207.945312 39.273438 207.882812 39.765625 Z M 207.882812 39.765625 "/><path style=" stroke:none;fill-rule:nonzero;fill:#2ed9ad;fill-opacity:1;" d="M 208.234375 37.179688 C 178.253906 33.382812 147.34375 38.042969 119.648438 51.160156 C 119.5 50.871094 119.359375 50.59375 119.210938 50.304688 C 147.085938 37.105469 178.191406 32.410156 208.363281 36.226562 C 208.320312 36.539062 208.277344 36.859375 208.234375 37.167969 Z M 208.234375 37.179688 "/><path style=" stroke:none;fill-rule:nonzero;fill:#2ed9ad;fill-opacity:1;" d="M 208.589844 34.59375 C 178.082031 30.734375 146.636719 35.46875 118.453125 48.820312 C 118.367188 48.660156 118.28125 48.488281 118.207031 48.328125 C 146.488281 34.933594 178.050781 30.167969 208.664062 34.046875 C 208.640625 34.230469 208.609375 34.410156 208.589844 34.59375 Z M 208.589844 34.59375 "/><path style=" stroke:none;fill-rule:nonzero;fill:#2ed9ad;fill-opacity:1;" d="M 208.941406 32.003906 C 177.910156 28.082031 145.921875 32.902344 117.265625 46.476562 C 117.210938 46.359375 117.148438 46.253906 117.09375 46.136719 C 145.824219 32.53125 177.890625 27.6875 208.992188 31.632812 C 208.972656 31.761719 208.960938 31.878906 208.941406 32.003906 Z M 208.941406 32.003906 "/><path style=" stroke:none;fill-rule:nonzero;fill:#2ed9ad;fill-opacity:1;" d="M 209.292969 29.410156 C 177.742188 25.410156 145.214844 30.316406 116.078125 44.125 C 116.035156 44.042969 115.992188 43.964844 115.949219 43.878906 C 145.140625 30.050781 177.730469 25.132812 209.335938 29.140625 C 209.324219 29.226562 209.316406 29.324219 209.304688 29.410156 Z M 209.292969 29.410156 "/><path style=" stroke:none;fill-rule:nonzero;fill:#2ed9ad;fill-opacity:1;" d="M 209.644531 26.820312 C 177.582031 22.761719 144.511719 27.75 114.882812 41.785156 C 114.839844 41.710938 114.804688 41.625 114.765625 41.550781 C 144.433594 27.496094 177.558594 22.503906 209.679688 26.566406 C 209.667969 26.652344 209.65625 26.734375 209.644531 26.820312 Z M 209.644531 26.820312 "/><path style=" stroke:none;fill-rule:nonzero;fill:#2ed9ad;fill-opacity:1;" d="M 210 24.234375 C 177.410156 20.109375 143.804688 25.175781 113.695312 39.433594 C 113.695312 39.414062 113.671875 39.390625 113.664062 39.378906 C 143.78125 25.113281 177.398438 20.046875 210.007812 24.171875 C 210.007812 24.191406 210.007812 24.214844 210.007812 24.234375 Z M 210 24.234375 "/><path style=" stroke:none;fill-rule:nonzero;fill:#2ed9ad;fill-opacity:1;" d="M 120.867188 59.539062 C 114.476562 62.714844 108.277344 66.371094 102.320312 70.507812 C 95.203125 60.917969 88.074219 51.339844 80.957031 41.753906 C 88.394531 36.582031 96.144531 32.015625 104.128906 28.050781 C 109.707031 38.546875 115.289062 49.042969 120.867188 59.539062 Z M 120.867188 59.539062 "/><path style=" stroke:none;fill-rule:nonzero;fill:#2ed9ad;fill-opacity:1;" d="M 77.515625 69.449219 L 77.878906 67.953125 C 79.0625 63.097656 80.507812 58.214844 82.175781 53.4375 L 84.195312 54.140625 C 82.71875 58.363281 81.425781 62.671875 80.324219 66.96875 C 84.855469 66.476562 89.433594 66.199219 93.933594 66.132812 L 93.964844 68.273438 C 89.027344 68.335938 84.003906 68.667969 79.042969 69.265625 Z M 77.515625 69.449219 "/><path style=" stroke:none;fill-rule:nonzero;fill:#2ed9ad;fill-opacity:1;" d="M 69.101562 77.453125 L 69.371094 75.914062 C 70.234375 70.953125 71.367188 65.941406 72.726562 61.023438 L 74.789062 61.589844 C 73.589844 65.941406 72.574219 70.355469 71.753906 74.761719 C 76.273438 73.914062 80.859375 73.285156 85.390625 72.890625 L 85.582031 75.015625 C 80.613281 75.453125 75.578125 76.171875 70.640625 77.152344 L 69.113281 77.453125 Z M 69.101562 77.453125 "/><path style=" stroke:none;fill-rule:nonzero;fill:#2ed9ad;fill-opacity:1;" d="M 61.171875 86.175781 L 61.34375 84.605469 C 61.886719 79.546875 62.6875 74.429688 63.738281 69.371094 L 65.832031 69.800781 C 64.914062 74.269531 64.175781 78.789062 63.652344 83.269531 C 68.171875 82.058594 72.734375 81.066406 77.257812 80.316406 L 77.609375 82.421875 C 72.660156 83.234375 67.648438 84.359375 62.710938 85.738281 L 61.191406 86.164062 Z M 61.171875 86.175781 "/><path style=" stroke:none;fill-rule:nonzero;fill:#2ed9ad;fill-opacity:1;" d="M 53.753906 95.601562 L 53.816406 94 C 54.042969 88.859375 54.511719 83.632812 55.226562 78.46875 L 57.34375 78.757812 C 56.714844 83.320312 56.277344 87.9375 56.03125 92.492188 C 60.488281 90.910156 65.03125 89.542969 69.53125 88.429688 L 70.042969 90.503906 C 65.105469 91.722656 60.125 93.25 55.25 95.046875 L 53.742188 95.601562 Z M 53.753906 95.601562 "/><path style=" stroke:none;fill-rule:nonzero;fill:#2ed9ad;fill-opacity:1;" d="M 46.890625 105.734375 L 46.859375 104.101562 C 46.753906 98.882812 46.890625 93.570312 47.277344 88.300781 L 49.402344 88.460938 C 49.0625 93.113281 48.921875 97.804688 48.964844 102.433594 C 53.347656 100.464844 57.824219 98.714844 62.304688 97.226562 L 62.976562 99.257812 C 58.0625 100.894531 53.15625 102.839844 48.367188 105.050781 L 46.878906 105.734375 Z M 46.890625 105.734375 "/><path style=" stroke:none;fill-rule:nonzero;fill:#2ed9ad;fill-opacity:1;" d="M 57.527344 109.691406 L 57.109375 109.421875 C 71.667969 86.796875 90.863281 69.019531 114.15625 56.589844 L 114.21875 56.558594 L 114.292969 56.558594 C 117.148438 56.71875 120.023438 56.964844 122.855469 57.292969 C 161.355469 39.070312 206.097656 37.882812 245.625 54.011719 L 245.429688 54.472656 C 206.011719 38.398438 161.386719 39.59375 123.003906 57.777344 L 122.941406 57.808594 L 122.867188 57.808594 C 120.042969 57.464844 117.179688 57.21875 114.335938 57.058594 C 91.140625 69.457031 72.03125 87.167969 57.535156 109.691406 Z M 57.527344 109.691406 "/><path style=" stroke:none;fill-rule:nonzero;fill:#2ed9ad;fill-opacity:1;" d="M 248.863281 55.648438 C 248.1875 57.082031 246.179688 57.59375 244.375 56.855469 C 242.554688 56.117188 241.5625 54.375 242.148438 52.914062 C 242.738281 51.449219 244.769531 50.851562 246.671875 51.621094 C 248.574219 52.390625 249.546875 54.226562 248.875 55.648438 Z M 248.863281 55.648438 "/><path style=" stroke:none;fill-rule:nonzero;fill:#2ed9ad;fill-opacity:1;" d="M 274.644531 83.183594 L 274.449219 83.03125 C 258.867188 70.75 241.070312 62.125 221.5625 57.378906 L 221.316406 57.316406 L 221.382812 57.070312 C 222.898438 51.265625 224.417969 45.453125 225.945312 39.648438 L 226.011719 39.414062 L 226.246094 39.464844 C 248.46875 44.875 268.742188 54.707031 286.507812 68.699219 L 286.710938 68.859375 L 286.539062 69.0625 L 274.644531 83.191406 Z M 221.925781 56.953125 C 241.328125 61.710938 259.039062 70.292969 274.570312 82.488281 L 285.984375 68.933594 C 268.390625 55.125 248.339844 45.386719 226.363281 40.011719 C 224.886719 45.65625 223.402344 51.308594 221.925781 56.953125 Z M 221.925781 56.953125 "/><path style=" stroke:none;fill-rule:nonzero;fill:#2ed9ad;fill-opacity:1;" d="M 76.382812 128.160156 L 76.167969 128.054688 L 56.851562 118.039062 L 56.980469 117.8125 C 61.074219 110.757812 65.714844 104.023438 70.757812 97.804688 L 70.910156 97.613281 L 71.101562 97.75 L 88.382812 110.714844 L 88.222656 110.917969 C 83.925781 116.210938 79.992188 121.9375 76.5 127.945312 L 76.382812 128.148438 Z M 57.558594 117.835938 L 76.1875 127.496094 C 79.621094 121.617188 83.476562 116.007812 87.679688 110.8125 L 71.003906 98.308594 C 66.089844 104.390625 61.566406 110.960938 57.558594 117.835938 Z M 57.558594 117.835938 "/><path style=" stroke:none;fill-rule:nonzero;fill:#2ed9ad;fill-opacity:1;" d="M 72.703125 106.269531 C 74.019531 107.1875 74.09375 109.253906 72.90625 110.929688 C 71.722656 112.609375 69.667969 113.324219 68.289062 112.492188 C 66.910156 111.65625 66.773438 109.507812 68.023438 107.753906 C 69.273438 105.992188 71.390625 105.363281 72.703125 106.269531 Z M 72.703125 106.269531 "/><path style=" stroke:none;fill-rule:nonzero;fill:#2ed9ad;fill-opacity:1;" d="M 89.433594 93.710938 L 88.148438 93.605469 C 88.308594 91.785156 88.5 89.949219 88.738281 88.132812 C 86.960938 88.3125 85.179688 88.527344 83.414062 88.785156 L 83.234375 87.511719 C 85.285156 87.210938 87.359375 86.964844 89.410156 86.773438 L 90.210938 86.699219 L 90.105469 87.5 C 89.828125 89.554688 89.601562 91.648438 89.421875 93.710938 Z M 89.433594 93.710938 "/><path style=" stroke:none;fill-rule:nonzero;fill:#2ed9ad;fill-opacity:1;" d="M 94.21875 89.148438 L 92.949219 88.976562 C 93.183594 87.191406 93.460938 85.375 93.769531 83.566406 C 91.988281 83.652344 90.203125 83.78125 88.460938 83.929688 L 88.339844 82.648438 C 90.363281 82.464844 92.433594 82.328125 94.507812 82.242188 L 95.308594 82.210938 L 95.171875 83 C 94.808594 85.042969 94.476562 87.105469 94.21875 89.136719 Z M 94.21875 89.148438 "/><path style=" stroke:none;fill-rule:nonzero;fill:#2ed9ad;fill-opacity:1;" d="M 99.179688 84.859375 L 97.917969 84.636719 C 98.226562 82.863281 98.59375 81.066406 98.976562 79.292969 C 97.246094 79.292969 95.449219 79.324219 93.6875 79.386719 L 93.644531 78.105469 C 95.707031 78.03125 97.769531 77.988281 99.789062 78.007812 L 100.589844 78.007812 C 100.589844 78.007812 100.410156 78.789062 100.410156 78.789062 C 99.949219 80.800781 99.542969 82.839844 99.179688 84.851562 Z M 99.179688 84.859375 "/><path style=" stroke:none;fill-rule:nonzero;fill:#2ed9ad;fill-opacity:1;" d="M 104.300781 80.851562 L 103.050781 80.574219 C 103.445312 78.820312 103.871094 77.058594 104.34375 75.316406 C 102.601562 75.21875 100.835938 75.167969 99.082031 75.144531 L 99.082031 73.863281 C 101.136719 73.882812 103.1875 73.957031 105.207031 74.074219 L 106 74.117188 L 105.785156 74.878906 C 105.238281 76.855469 104.738281 78.855469 104.300781 80.84375 Z M 104.300781 80.851562 "/><path style=" stroke:none;fill-rule:nonzero;fill:#2ed9ad;fill-opacity:1;" d="M 109.558594 77.113281 L 108.320312 76.78125 C 108.789062 75.058594 109.300781 73.328125 109.847656 71.597656 C 108.117188 71.414062 106.363281 71.277344 104.621094 71.167969 L 104.695312 69.886719 C 106.714844 70.015625 108.757812 70.183594 110.753906 70.410156 L 111.535156 70.496094 L 111.289062 71.242188 C 110.660156 73.1875 110.070312 75.167969 109.535156 77.113281 Z M 109.558594 77.113281 "/><path style=" stroke:none;fill-rule:nonzero;fill:#2ed9ad;fill-opacity:1;" d="M 114.964844 73.648438 L 113.75 73.253906 C 114.292969 71.542969 114.882812 69.832031 115.5 68.164062 C 113.8125 67.910156 112.082031 67.683594 110.328125 67.480469 L 110.46875 66.210938 C 112.496094 66.433594 114.519531 66.710938 116.472656 67.023438 L 117.253906 67.148438 L 116.976562 67.886719 C 116.269531 69.777344 115.585938 71.714844 114.964844 73.660156 Z M 114.964844 73.648438 "/><path style=" stroke:none;fill-rule:nonzero;fill:#2ed9ad;fill-opacity:1;" d="M 120.492188 70.453125 L 119.285156 70.003906 C 119.90625 68.335938 120.566406 66.667969 121.261719 65.011719 C 119.574219 64.671875 117.851562 64.359375 116.152344 64.082031 L 116.355469 62.808594 C 118.332031 63.128906 120.332031 63.496094 122.289062 63.910156 L 123.058594 64.070312 L 122.75 64.796875 C 121.945312 66.667969 121.1875 68.570312 120.492188 70.453125 Z M 120.492188 70.453125 "/><path style=" stroke:none;fill-rule:nonzero;fill:#2ed9ad;fill-opacity:1;" d="M 126.136719 67.535156 L 124.949219 67.03125 C 125.644531 65.40625 126.382812 63.761719 127.152344 62.148438 C 125.496094 61.730469 123.804688 61.335938 122.105469 60.984375 L 122.375 59.730469 C 124.351562 60.148438 126.316406 60.609375 128.230469 61.109375 L 128.988281 61.304688 L 128.648438 62.007812 C 127.761719 63.835938 126.925781 65.695312 126.136719 67.546875 Z M 126.136719 67.535156 "/><path style=" stroke:none;fill-rule:nonzero;fill:#2ed9ad;fill-opacity:1;" d="M 131.886719 64.882812 L 130.730469 64.328125 C 131.492188 62.734375 132.304688 61.132812 133.148438 59.550781 C 131.480469 59.046875 129.824219 58.578125 128.1875 58.148438 L 128.507812 56.910156 C 130.410156 57.402344 132.347656 57.957031 134.269531 58.554688 L 135.019531 58.792969 L 134.644531 59.476562 C 133.683594 61.261719 132.753906 63.089844 131.886719 64.882812 Z M 131.886719 64.882812 "/><path style=" stroke:none;fill-rule:nonzero;fill:#2ed9ad;fill-opacity:1;" d="M 137.742188 62.511719 L 136.609375 61.902344 C 137.433594 60.363281 138.320312 58.800781 139.242188 57.242188 C 137.648438 56.675781 136.011719 56.128906 134.367188 55.617188 L 134.75 54.386719 C 136.664062 54.984375 138.566406 55.628906 140.417969 56.289062 L 141.152344 56.558594 L 140.746094 57.21875 C 139.699219 58.972656 138.695312 60.746094 137.753906 62.488281 Z M 137.742188 62.511719 "/><path style=" stroke:none;fill-rule:nonzero;fill:#2ed9ad;fill-opacity:1;" d="M 143.675781 60.414062 L 142.574219 59.753906 C 143.484375 58.226562 144.433594 56.707031 145.40625 55.222656 C 143.835938 54.578125 142.234375 53.960938 140.621094 53.371094 L 141.058594 52.164062 C 142.929688 52.847656 144.796875 53.574219 146.617188 54.324219 L 147.332031 54.621094 L 146.902344 55.273438 C 145.792969 56.941406 144.714844 58.671875 143.675781 60.40625 Z M 143.675781 60.414062 "/><path style=" stroke:none;fill-rule:nonzero;fill:#2ed9ad;fill-opacity:1;" d="M 149.683594 58.589844 L 148.613281 57.882812 C 149.585938 56.40625 150.601562 54.933594 151.648438 53.488281 C 150.109375 52.773438 148.539062 52.089844 146.96875 51.425781 L 147.460938 50.242188 C 149.289062 51 151.117188 51.8125 152.890625 52.65625 L 153.59375 52.988281 L 153.136719 53.617188 C 151.9375 55.242188 150.785156 56.921875 149.683594 58.589844 Z M 149.683594 58.589844 "/><path style=" stroke:none;fill-rule:nonzero;fill:#2ed9ad;fill-opacity:1;" d="M 155.753906 57.039062 L 154.71875 56.28125 C 155.753906 54.859375 156.832031 53.425781 157.945312 52.027344 C 156.425781 51.234375 154.898438 50.476562 153.382812 49.757812 L 153.925781 48.59375 C 155.691406 49.429688 157.476562 50.316406 159.226562 51.246094 L 159.914062 51.609375 L 159.429688 52.21875 C 158.160156 53.800781 156.929688 55.425781 155.753906 57.039062 Z M 155.753906 57.039062 "/><path style=" stroke:none;fill-rule:nonzero;fill:#2ed9ad;fill-opacity:1;" d="M 161.878906 55.753906 L 160.875 54.953125 C 161.984375 53.554688 163.140625 52.175781 164.292969 50.851562 C 162.820312 49.996094 161.324219 49.171875 159.847656 48.390625 L 160.445312 47.257812 C 162.167969 48.167969 163.898438 49.140625 165.609375 50.132812 L 166.28125 50.527344 L 165.769531 51.105469 C 164.445312 52.613281 163.140625 54.175781 161.878906 55.753906 Z M 161.878906 55.753906 "/><path style=" stroke:none;fill-rule:nonzero;fill:#2ed9ad;fill-opacity:1;" d="M 168.046875 54.75 L 167.074219 53.90625 C 168.21875 52.59375 169.4375 51.265625 170.675781 49.953125 C 169.242188 49.03125 167.800781 48.144531 166.355469 47.300781 L 167.007812 46.191406 C 168.675781 47.171875 170.367188 48.21875 172.023438 49.289062 L 172.675781 49.714844 L 172.140625 50.273438 C 170.71875 51.746094 169.339844 53.253906 168.035156 54.742188 Z M 168.046875 54.75 "/><path style=" stroke:none;fill-rule:nonzero;fill:#2ed9ad;fill-opacity:1;" d="M 188.152344 357.417969 C 187.179688 357.417969 186.207031 357.417969 185.234375 357.398438 L 185.234375 356.894531 C 186.214844 356.917969 187.179688 356.917969 188.152344 356.917969 C 217.75 356.917969 246.554688 349.316406 271.640625 334.878906 L 271.746094 334.8125 L 271.863281 334.867188 C 278.320312 337.847656 285.097656 340.476562 292.011719 342.667969 C 309.125 330.539062 324.035156 315.625 336.328125 298.355469 C 331.988281 281.691406 325.414062 266.289062 316.765625 252.5625 L 316.691406 252.445312 L 316.757812 252.320312 C 334.96875 213.839844 335.300781 169.71875 317.675781 131.261719 L 318.125 131.046875 C 327.21875 150.882812 331.613281 171.855469 331.195312 193.371094 C 330.789062 213.808594 326.109375 233.667969 317.257812 252.402344 C 325.917969 266.171875 332.5 281.625 336.839844 298.332031 L 336.871094 298.449219 L 336.808594 298.546875 C 324.441406 315.9375 309.433594 330.945312 292.203125 343.148438 L 292.109375 343.226562 L 291.992188 343.191406 C 285.054688 340.992188 278.257812 338.371094 271.777344 335.378906 C 246.640625 349.832031 217.78125 357.417969 188.152344 357.417969 Z M 188.152344 357.417969 "/><path style=" stroke:none;fill-rule:nonzero;fill:#2ed9ad;fill-opacity:1;" d="M 307.394531 283.359375 C 325.027344 260.132812 336.058594 232.042969 338.453125 202.5625 C 339.09375 202.59375 339.726562 202.628906 340.367188 202.671875 C 337.941406 232.535156 326.769531 260.996094 308.898438 284.523438 C 308.398438 284.136719 307.894531 283.742188 307.394531 283.359375 Z M 307.394531 283.359375 "/><path style=" stroke:none;fill-rule:nonzero;fill:#2ed9ad;fill-opacity:1;" d="M 309.457031 284.949219 C 327.414062 261.308594 338.636719 232.703125 341.074219 202.703125 C 341.574219 202.734375 342.078125 202.753906 342.578125 202.789062 C 340.109375 233.109375 328.78125 261.992188 310.632812 285.878906 C 310.234375 285.570312 309.839844 285.269531 309.445312 284.960938 Z M 309.457031 284.949219 "/><path style=" stroke:none;fill-rule:nonzero;fill:#2ed9ad;fill-opacity:1;" d="M 311.53125 286.554688 C 329.808594 262.484375 341.222656 233.390625 343.710938 202.839844 C 344.035156 202.863281 344.355469 202.875 344.664062 202.894531 C 342.164062 233.636719 330.671875 262.921875 312.277344 287.140625 C 312.03125 286.949219 311.777344 286.757812 311.53125 286.554688 Z M 311.53125 286.554688 "/><path style=" stroke:none;fill-rule:nonzero;fill:#2ed9ad;fill-opacity:1;" d="M 313.59375 288.15625 C 332.191406 263.667969 343.808594 234.0625 346.332031 202.992188 C 346.511719 202.992188 346.695312 203.011719 346.886719 203.023438 C 344.34375 234.210938 332.691406 263.925781 314.03125 288.5 C 313.882812 288.390625 313.742188 288.273438 313.59375 288.167969 Z M 313.59375 288.15625 "/><path style=" stroke:none;fill-rule:nonzero;fill:#2ed9ad;fill-opacity:1;" d="M 315.65625 289.761719 C 334.574219 264.855469 346.386719 234.734375 348.960938 203.128906 C 349.089844 203.128906 349.21875 203.140625 349.335938 203.152344 C 346.757812 234.832031 334.90625 265.027344 315.953125 289.996094 C 315.859375 289.921875 315.75 289.847656 315.65625 289.761719 Z M 315.65625 289.761719 "/><path style=" stroke:none;fill-rule:nonzero;fill:#2ed9ad;fill-opacity:1;" d="M 317.71875 291.351562 C 336.945312 266.03125 348.972656 235.410156 351.578125 203.269531 C 351.675781 203.269531 351.761719 203.269531 351.859375 203.28125 C 349.238281 235.472656 337.203125 266.148438 317.933594 291.523438 C 317.855469 291.472656 317.78125 291.417969 317.71875 291.351562 Z M 317.71875 291.351562 "/><path style=" stroke:none;fill-rule:nonzero;fill:#2ed9ad;fill-opacity:1;" d="M 319.78125 292.957031 C 339.332031 267.207031 351.546875 236.082031 354.207031 203.40625 C 354.292969 203.40625 354.378906 203.40625 354.476562 203.417969 C 351.816406 236.148438 339.578125 267.324219 319.996094 293.117188 C 319.929688 293.0625 319.855469 293.011719 319.792969 292.957031 Z M 319.78125 292.957031 "/><path style=" stroke:none;fill-rule:nonzero;fill:#2ed9ad;fill-opacity:1;" d="M 321.855469 294.558594 C 341.726562 268.394531 354.132812 236.757812 356.839844 203.558594 C 356.859375 203.558594 356.882812 203.558594 356.902344 203.558594 C 354.199219 236.777344 341.777344 268.425781 321.898438 294.601562 C 321.875 294.589844 321.867188 294.582031 321.84375 294.558594 Z M 321.855469 294.558594 "/><path style=" stroke:none;fill-rule:nonzero;fill:#2ed9ad;fill-opacity:1;" d="M 335.847656 199.710938 C 336.296875 192.589844 336.230469 185.386719 335.621094 178.160156 C 347.484375 176.78125 359.339844 175.402344 371.203125 174.035156 C 371.960938 183.066406 372.046875 192.054688 371.480469 200.960938 C 359.605469 200.542969 347.722656 200.125 335.847656 199.710938 Z M 335.847656 199.710938 "/><path style=" stroke:none;fill-rule:nonzero;fill:#2ed9ad;fill-opacity:1;" d="M 343.605469 173.09375 L 341.734375 172.046875 C 344.140625 167.761719 346.363281 163.25 348.339844 158.632812 L 348.949219 157.210938 L 350.0625 158.28125 C 353.675781 161.734375 357.179688 165.421875 360.484375 169.257812 L 358.871094 170.65625 C 355.953125 167.269531 352.863281 164 349.699219 160.898438 C 347.847656 165.089844 345.808594 169.195312 343.617188 173.105469 Z M 343.605469 173.09375 "/><path style=" stroke:none;fill-rule:nonzero;fill:#2ed9ad;fill-opacity:1;" d="M 342.011719 162.320312 L 340.078125 161.421875 C 342.183594 156.914062 344.078125 152.199219 345.699219 147.410156 L 346.203125 145.933594 L 347.398438 146.941406 C 351.257812 150.167969 355.042969 153.652344 358.613281 157.285156 L 357.09375 158.78125 C 353.929688 155.566406 350.605469 152.476562 347.207031 149.570312 C 345.679688 153.917969 343.925781 158.207031 342.011719 162.320312 Z M 342.011719 162.320312 "/><path style=" stroke:none;fill-rule:nonzero;fill:#2ed9ad;fill-opacity:1;" d="M 339.652344 151.546875 L 337.652344 150.789062 C 339.414062 146.105469 340.957031 141.210938 342.226562 136.21875 L 342.621094 134.691406 L 343.894531 135.621094 C 348 138.625 352.039062 141.882812 355.886719 145.304688 L 354.464844 146.90625 C 351.054688 143.882812 347.507812 140.988281 343.894531 138.28125 C 342.6875 142.8125 341.253906 147.261719 339.652344 151.535156 Z M 339.652344 151.546875 "/><path style=" stroke:none;fill-rule:nonzero;fill:#2ed9ad;fill-opacity:1;" d="M 336.488281 140.816406 L 334.433594 140.226562 C 335.847656 135.332031 337.011719 130.265625 337.898438 125.144531 L 338.164062 123.5625 L 339.523438 124.429688 C 343.863281 127.1875 348.148438 130.210938 352.273438 133.417969 L 350.960938 135.109375 C 347.316406 132.273438 343.550781 129.59375 339.726562 127.101562 C 338.871094 131.75 337.78125 136.367188 336.488281 140.824219 Z M 336.488281 140.816406 "/><path style=" stroke:none;fill-rule:nonzero;fill:#2ed9ad;fill-opacity:1;" d="M 332.488281 130.160156 L 330.394531 129.730469 C 331.433594 124.675781 332.203125 119.449219 332.683594 114.179688 L 332.832031 112.554688 L 334.265625 113.347656 C 338.839844 115.867188 343.371094 118.636719 347.742188 121.609375 L 346.546875 123.382812 C 342.6875 120.761719 338.699219 118.292969 334.660156 116.019531 C 334.167969 120.804688 333.441406 125.5625 332.488281 130.179688 Z M 332.488281 130.160156 "/><path style=" stroke:none;fill-rule:nonzero;fill:#2ed9ad;fill-opacity:1;" d="M 278.265625 310.507812 L 277.957031 310.113281 C 311.59375 284.011719 332.863281 244.761719 336.304688 202.433594 L 336.304688 202.359375 C 336.304688 202.359375 336.359375 202.296875 336.359375 202.296875 C 338.070312 200.007812 339.714844 197.644531 341.265625 195.273438 C 342.132812 168.992188 336.347656 143.59375 324.089844 119.769531 L 324.539062 119.535156 C 336.851562 143.457031 342.65625 168.96875 341.777344 195.359375 L 341.777344 195.433594 C 341.777344 195.433594 341.734375 195.5 341.734375 195.5 C 340.1875 197.882812 338.527344 200.242188 336.820312 202.542969 C 333.34375 244.984375 312.011719 284.332031 278.277344 310.507812 Z M 278.265625 310.507812 "/><path style=" stroke:none;fill-rule:nonzero;fill:#2ed9ad;fill-opacity:1;" d="M 275.21875 312.503906 C 274.324219 311.203125 274.878906 309.214844 276.417969 308.015625 C 277.96875 306.820312 279.976562 306.820312 280.949219 308.058594 C 281.921875 309.300781 281.429688 311.363281 279.804688 312.625 C 278.179688 313.882812 276.109375 313.808594 275.210938 312.515625 Z M 275.21875 312.503906 "/><path style=" stroke:none;fill-rule:nonzero;fill:#2ed9ad;fill-opacity:1;" d="M 244.855469 338.671875 L 244.769531 338.425781 L 238.484375 321.058594 L 238.707031 320.960938 C 257.136719 313.605469 273.511719 302.511719 287.375 287.984375 L 287.554688 287.804688 L 300.722656 300.8125 L 300.550781 300.996094 C 284.753906 317.539062 266.101562 330.183594 245.109375 338.566406 L 244.863281 338.660156 Z M 239.113281 321.34375 L 245.152344 338.007812 C 265.910156 329.683594 284.359375 317.175781 300.007812 300.832031 L 287.554688 288.53125 C 273.734375 302.949219 257.433594 313.992188 239.113281 321.34375 Z M 239.113281 321.34375 "/><path style=" stroke:none;fill-rule:nonzero;fill:#2ed9ad;fill-opacity:1;" d="M 307.757812 146 L 307.660156 145.753906 C 305.222656 139.382812 302.230469 133.109375 298.765625 127.082031 L 298.648438 126.878906 L 317.183594 115.035156 L 317.3125 115.257812 C 321.375 122.335938 324.890625 129.71875 327.753906 137.191406 L 327.839844 137.417969 L 327.617188 137.511719 L 307.746094 146 Z M 299.324219 127.046875 C 302.699219 132.949219 305.628906 139.105469 308.035156 145.335938 L 327.199219 137.148438 C 324.386719 129.847656 320.96875 122.65625 317.011719 115.738281 L 299.332031 127.046875 Z M 299.324219 127.046875 "/><path style=" stroke:none;fill-rule:nonzero;fill:#2ed9ad;fill-opacity:1;" d="M 319.449219 134.636719 C 317.996094 135.320312 316.167969 134.347656 315.3125 132.488281 C 314.457031 130.617188 314.855469 128.480469 316.273438 127.710938 C 317.6875 126.929688 319.609375 127.882812 320.507812 129.847656 C 321.40625 131.816406 320.902344 133.964844 319.449219 134.648438 Z M 319.449219 134.636719 "/><path style=" stroke:none;fill-rule:nonzero;fill:#2ed9ad;fill-opacity:1;" d="M 327.648438 159.59375 L 327.007812 159.101562 C 325.339844 157.820312 323.648438 156.570312 321.972656 155.40625 L 322.710938 154.359375 C 324.183594 155.382812 325.679688 156.472656 327.15625 157.597656 C 327.882812 155.984375 328.589844 154.335938 329.261719 152.667969 L 330.449219 153.148438 C 329.667969 155.085938 328.84375 157.007812 327.988281 158.867188 L 327.660156 159.605469 Z M 327.648438 159.59375 "/><path style=" stroke:none;fill-rule:nonzero;fill:#2ed9ad;fill-opacity:1;" d="M 328.972656 166.242188 L 328.363281 165.730469 C 326.78125 164.394531 325.15625 163.078125 323.523438 161.828125 L 324.300781 160.8125 C 325.734375 161.914062 327.167969 163.058594 328.578125 164.234375 C 329.390625 162.664062 330.171875 161.058594 330.90625 159.457031 L 332.074219 160 C 331.207031 161.859375 330.289062 163.730469 329.347656 165.546875 L 328.972656 166.253906 Z M 328.972656 166.242188 "/><path style=" stroke:none;fill-rule:nonzero;fill:#2ed9ad;fill-opacity:1;" d="M 329.976562 172.902344 L 329.390625 172.355469 C 327.882812 170.957031 326.324219 169.589844 324.761719 168.261719 L 325.585938 167.28125 C 326.964844 168.445312 328.34375 169.640625 329.679688 170.871094 C 330.566406 169.355469 331.421875 167.792969 332.242188 166.242188 L 333.378906 166.84375 C 332.425781 168.648438 331.421875 170.453125 330.382812 172.207031 L 329.976562 172.890625 Z M 329.976562 172.902344 "/><path style=" stroke:none;fill-rule:nonzero;fill:#2ed9ad;fill-opacity:1;" d="M 330.652344 179.539062 L 330.09375 178.972656 C 328.640625 177.5 327.15625 176.066406 325.671875 174.699219 L 326.535156 173.746094 C 327.851562 174.953125 329.15625 176.207031 330.449219 177.5 C 331.398438 176.035156 332.328125 174.527344 333.226562 173.03125 L 334.328125 173.683594 C 333.292969 175.4375 332.203125 177.179688 331.089844 178.867188 L 330.652344 179.53125 Z M 330.652344 179.539062 "/><path style=" stroke:none;fill-rule:nonzero;fill:#2ed9ad;fill-opacity:1;" d="M 331.015625 186.175781 L 330.480469 185.589844 C 329.121094 184.082031 327.710938 182.585938 326.269531 181.132812 L 327.175781 180.234375 C 328.4375 181.507812 329.6875 182.820312 330.898438 184.148438 C 331.921875 182.726562 332.929688 181.273438 333.878906 179.839844 L 334.949219 180.542969 C 333.847656 182.210938 332.671875 183.890625 331.464844 185.535156 L 331.003906 186.175781 Z M 331.015625 186.175781 "/><path style=" stroke:none;fill-rule:nonzero;fill:#2ed9ad;fill-opacity:1;" d="M 331.066406 192.773438 L 330.566406 192.164062 C 329.261719 190.582031 327.914062 189.019531 326.570312 187.546875 L 327.519531 186.679688 C 328.707031 187.996094 329.890625 189.351562 331.046875 190.742188 C 332.117188 189.40625 333.183594 188.015625 334.222656 186.605469 L 335.257812 187.363281 C 334.050781 189 332.800781 190.613281 331.550781 192.152344 L 331.058594 192.761719 Z M 331.066406 192.773438 "/><path style=" stroke:none;fill-rule:nonzero;fill:#2ed9ad;fill-opacity:1;" d="M 330.8125 199.347656 L 330.339844 198.714844 C 329.132812 197.101562 327.863281 195.488281 326.578125 193.925781 L 327.574219 193.105469 C 328.707031 194.484375 329.828125 195.882812 330.90625 197.316406 C 332.039062 196.03125 333.164062 194.707031 334.265625 193.351562 L 335.257812 194.160156 C 333.976562 195.734375 332.660156 197.28125 331.335938 198.757812 Z M 330.8125 199.347656 "/><path style=" stroke:none;fill-rule:nonzero;fill:#2ed9ad;fill-opacity:1;" d="M 330.265625 205.867188 L 329.828125 205.226562 C 328.695312 203.558594 327.5 201.890625 326.289062 200.277344 L 327.316406 199.507812 C 328.386719 200.929688 329.433594 202.382812 330.449219 203.855469 C 331.65625 202.617188 332.84375 201.34375 333.976562 200.074219 L 334.925781 200.929688 C 333.601562 202.414062 332.210938 203.886719 330.8125 205.308594 Z M 330.265625 205.867188 "/><path style=" stroke:none;fill-rule:nonzero;fill:#2ed9ad;fill-opacity:1;" d="M 329.410156 212.332031 L 329.003906 211.667969 C 327.945312 209.949219 326.835938 208.238281 325.703125 206.582031 L 326.761719 205.855469 C 327.765625 207.320312 328.738281 208.816406 329.6875 210.332031 C 330.929688 209.167969 332.179688 207.960938 333.386719 206.730469 L 334.296875 207.628906 C 332.886719 209.0625 331.441406 210.460938 329.988281 211.796875 Z M 329.410156 212.332031 "/><path style=" stroke:none;fill-rule:nonzero;fill:#2ed9ad;fill-opacity:1;" d="M 328.277344 218.746094 L 327.90625 218.0625 C 326.921875 216.296875 325.894531 214.546875 324.835938 212.835938 L 325.925781 212.160156 C 326.855469 213.667969 327.777344 215.207031 328.652344 216.757812 C 329.957031 215.644531 331.238281 214.503906 332.5 213.347656 L 333.367188 214.289062 C 331.902344 215.636719 330.394531 216.960938 328.886719 218.242188 L 328.289062 218.746094 Z M 328.277344 218.746094 "/><path style=" stroke:none;fill-rule:nonzero;fill:#2ed9ad;fill-opacity:1;" d="M 326.855469 225.085938 L 326.515625 224.390625 C 325.617188 222.582031 324.664062 220.777344 323.683594 219.035156 L 324.804688 218.402344 C 325.671875 219.941406 326.503906 221.523438 327.316406 223.117188 C 328.652344 222.082031 330 221 331.304688 219.898438 L 332.125 220.882812 C 330.597656 222.167969 329.039062 223.417969 327.476562 224.613281 Z M 326.855469 225.085938 "/><path style=" stroke:none;fill-rule:nonzero;fill:#2ed9ad;fill-opacity:1;" d="M 325.15625 231.324219 L 324.847656 230.621094 C 324.035156 228.773438 323.160156 226.921875 322.261719 225.136719 L 323.40625 224.558594 C 324.195312 226.140625 324.964844 227.757812 325.691406 229.378906 C 327.09375 228.398438 328.480469 227.382812 329.816406 226.355469 L 330.597656 227.371094 C 329.046875 228.558594 327.433594 229.734375 325.796875 230.878906 L 325.15625 231.316406 Z M 325.15625 231.324219 "/><path style=" stroke:none;fill-rule:nonzero;fill:#2ed9ad;fill-opacity:1;" d="M 323.179688 237.492188 L 322.902344 236.765625 C 322.175781 234.894531 321.382812 233.015625 320.570312 231.175781 L 321.746094 230.652344 C 322.464844 232.277344 323.160156 233.921875 323.820312 235.582031 C 325.230469 234.683594 326.652344 233.730469 328.066406 232.757812 L 328.800781 233.816406 C 327.167969 234.949219 325.5 236.050781 323.851562 237.085938 L 323.191406 237.503906 Z M 323.179688 237.492188 "/><path style=" stroke:none;fill-rule:nonzero;fill:#2ed9ad;fill-opacity:1;" d="M 320.945312 243.554688 L 320.699219 242.816406 C 320.058594 240.902344 319.355469 238.988281 318.625 237.121094 L 319.824219 236.648438 C 320.464844 238.296875 321.097656 239.972656 321.671875 241.660156 C 323.148438 240.816406 324.613281 239.929688 326.023438 239.042969 L 326.707031 240.132812 C 325.0625 241.171875 323.351562 242.195312 321.628906 243.167969 L 320.957031 243.554688 Z M 320.945312 243.554688 "/><path style=" stroke:none;fill-rule:nonzero;fill:#2ed9ad;fill-opacity:1;" d="M 318.445312 249.507812 L 318.230469 248.757812 C 317.664062 246.8125 317.054688 244.867188 316.414062 242.964844 L 317.621094 242.550781 C 318.1875 244.214844 318.734375 245.925781 319.246094 247.648438 C 320.742188 246.878906 322.230469 246.066406 323.703125 245.230469 L 324.335938 246.34375 C 322.625 247.316406 320.871094 248.246094 319.140625 249.132812 L 318.445312 249.484375 Z M 318.445312 249.507812 "/><path style=" stroke:none;fill-rule:nonzero;fill:#2ed9ad;fill-opacity:1;" d="M 176.246094 335.089844 C 154.523438 333.050781 134.164062 326.367188 115.738281 315.242188 C 98.238281 304.671875 83.382812 290.679688 71.582031 273.652344 C 55.3125 274.273438 38.640625 272.242188 22.007812 267.644531 L 21.890625 267.613281 L 21.835938 267.507812 C 12.953125 248.097656 7.460938 227.597656 5.515625 206.582031 L 5.515625 206.453125 C 5.515625 206.453125 5.601562 206.367188 5.601562 206.367188 C 10.976562 201.453125 16.652344 196.875 22.46875 192.773438 C 22.53125 162.832031 30.902344 133.109375 46.667969 106.816406 L 47.09375 107.070312 C 31.339844 133.324219 23.003906 163.003906 22.960938 192.902344 L 22.960938 193.027344 L 22.851562 193.105469 C 17.046875 197.199219 11.382812 201.75 6.019531 206.644531 C 7.964844 227.53125 13.425781 247.894531 22.234375 267.1875 C 38.820312 271.761719 55.453125 273.761719 71.679688 273.140625 L 71.816406 273.140625 C 71.816406 273.140625 71.890625 273.246094 71.890625 273.246094 C 96.113281 308.25 134.152344 330.613281 176.265625 334.578125 L 176.222656 335.082031 Z M 176.246094 335.089844 "/><path style=" stroke:none;fill-rule:nonzero;fill:#2ed9ad;fill-opacity:1;" d="M 49.734375 249.636719 C 61.03125 276.527344 79.84375 300.117188 104.171875 316.929688 C 103.820312 317.464844 103.476562 318 103.125 318.535156 C 78.476562 301.496094 59.40625 277.597656 47.972656 250.351562 C 48.558594 250.117188 49.148438 249.871094 49.734375 249.636719 Z M 49.734375 249.636719 "/><path style=" stroke:none;fill-rule:nonzero;fill:#2ed9ad;fill-opacity:1;" d="M 47.320312 250.628906 C 58.820312 278.003906 77.972656 302.019531 102.738281 319.144531 C 102.460938 319.570312 102.195312 319.988281 101.917969 320.414062 C 76.894531 303.121094 57.546875 278.859375 45.929688 251.207031 C 46.390625 251.015625 46.859375 250.832031 47.320312 250.640625 Z M 47.320312 250.628906 "/><path style=" stroke:none;fill-rule:nonzero;fill:#2ed9ad;fill-opacity:1;" d="M 44.890625 251.613281 C 56.597656 279.476562 76.09375 303.914062 101.296875 321.34375 C 101.125 321.613281 100.941406 321.878906 100.773438 322.148438 C 75.398438 304.605469 55.785156 280.011719 44.003906 251.976562 C 44.292969 251.859375 44.59375 251.742188 44.882812 251.613281 Z M 44.890625 251.613281 "/><path style=" stroke:none;fill-rule:nonzero;fill:#2ed9ad;fill-opacity:1;" d="M 42.476562 252.605469 C 54.382812 280.953125 74.222656 305.824219 99.863281 323.546875 C 99.769531 323.695312 99.660156 323.855469 99.566406 324.007812 C 73.828125 306.210938 53.925781 281.261719 41.972656 252.808594 C 42.144531 252.746094 42.316406 252.671875 42.476562 252.605469 Z M 42.476562 252.605469 "/><path style=" stroke:none;fill-rule:nonzero;fill:#2ed9ad;fill-opacity:1;" d="M 40.0625 253.589844 C 52.171875 282.429688 72.339844 307.71875 98.429688 325.75 C 98.367188 325.855469 98.292969 325.960938 98.226562 326.070312 C 72.074219 307.996094 51.851562 282.640625 39.71875 253.738281 C 39.835938 253.699219 39.953125 253.644531 40.070312 253.601562 Z M 40.0625 253.589844 "/><path style=" stroke:none;fill-rule:nonzero;fill:#2ed9ad;fill-opacity:1;" d="M 37.636719 254.574219 C 49.949219 283.890625 70.460938 309.609375 96.988281 327.949219 C 96.933594 328.027344 96.890625 328.101562 96.839844 328.1875 C 70.265625 309.8125 49.714844 284.054688 37.378906 254.679688 C 37.464844 254.648438 37.550781 254.617188 37.636719 254.574219 Z M 37.636719 254.574219 "/><path style=" stroke:none;fill-rule:nonzero;fill:#2ed9ad;fill-opacity:1;" d="M 35.21875 255.566406 C 47.734375 285.367188 68.589844 311.511719 95.554688 330.152344 C 95.503906 330.226562 95.460938 330.300781 95.40625 330.378906 C 68.398438 311.703125 47.511719 285.515625 34.972656 255.664062 C 35.058594 255.632812 35.132812 255.601562 35.21875 255.566406 Z M 35.21875 255.566406 "/><path style=" stroke:none;fill-rule:nonzero;fill:#2ed9ad;fill-opacity:1;" d="M 32.804688 256.550781 C 45.523438 286.84375 66.71875 313.414062 94.125 332.355469 C 94.113281 332.375 94.101562 332.386719 94.09375 332.40625 C 66.675781 313.457031 45.480469 286.875 32.75 256.574219 C 32.773438 256.574219 32.792969 256.5625 32.804688 256.550781 Z M 32.804688 256.550781 "/><path style=" stroke:none;fill-rule:nonzero;fill:#2ed9ad;fill-opacity:1;" d="M 107.945312 316.097656 C 113.886719 320.050781 120.152344 323.589844 126.714844 326.679688 C 121.976562 337.632812 117.234375 348.601562 112.496094 359.558594 C 104.300781 355.699219 96.464844 351.273438 89.046875 346.335938 C 95.34375 336.253906 101.648438 326.175781 107.945312 316.097656 Z M 107.945312 316.097656 "/><path style=" stroke:none;fill-rule:nonzero;fill:#2ed9ad;fill-opacity:1;" d="M 122 352.664062 L 121.605469 350.558594 C 125.988281 349.722656 130.367188 348.699219 134.644531 347.488281 C 131.941406 343.800781 129.417969 339.984375 127.121094 336.117188 L 128.957031 335.027344 C 131.480469 339.269531 134.28125 343.449219 137.285156 347.457031 L 138.214844 348.6875 L 136.730469 349.125 C 131.917969 350.523438 126.96875 351.722656 122.011719 352.664062 Z M 122 352.664062 "/><path style=" stroke:none;fill-rule:nonzero;fill:#2ed9ad;fill-opacity:1;" d="M 133.308594 357.035156 L 132.773438 354.960938 C 137.136719 353.828125 141.472656 352.503906 145.6875 351.007812 C 142.683594 347.5 139.851562 343.84375 137.242188 340.136719 L 138.996094 338.90625 C 141.847656 342.980469 144.980469 346.976562 148.316406 350.78125 L 149.339844 351.957031 L 147.875 352.492188 C 143.140625 354.222656 138.234375 355.75 133.308594 357.035156 Z M 133.308594 357.035156 "/><path style=" stroke:none;fill-rule:nonzero;fill:#2ed9ad;fill-opacity:1;" d="M 145.023438 360.65625 L 144.351562 358.628906 C 148.65625 357.195312 152.941406 355.570312 157.101562 353.785156 C 153.789062 350.480469 150.644531 347.019531 147.75 343.480469 L 149.40625 342.125 C 152.589844 345.992188 156.0625 349.777344 159.730469 353.367188 L 160.863281 354.46875 L 159.421875 355.109375 C 154.75 357.171875 149.90625 359.03125 145.035156 360.648438 Z M 145.023438 360.65625 "/><path style=" stroke:none;fill-rule:nonzero;fill:#2ed9ad;fill-opacity:1;" d="M 157.15625 363.46875 L 156.351562 361.492188 C 160.605469 359.761719 164.828125 357.835938 168.902344 355.761719 C 165.289062 352.683594 161.847656 349.433594 158.628906 346.101562 L 160.167969 344.613281 C 163.683594 348.28125 167.5 351.828125 171.5 355.152344 L 172.726562 356.179688 L 171.304688 356.917969 C 166.730469 359.300781 161.964844 361.503906 157.15625 363.457031 Z M 157.15625 363.46875 "/><g clip-rule="nonzero" clip-path="url(#8abae2f8cd)"><path style=" stroke:none;fill-rule:nonzero;fill:#2ed9ad;fill-opacity:1;" d="M 169.648438 365.457031 L 168.71875 363.53125 C 172.921875 361.492188 177.058594 359.277344 181.03125 356.925781 C 177.121094 354.105469 173.367188 351.101562 169.851562 347.980469 L 171.273438 346.378906 C 175.132812 349.808594 179.28125 353.089844 183.597656 356.136719 L 184.933594 357.078125 L 183.535156 357.921875 C 179.066406 360.625 174.394531 363.160156 169.648438 365.457031 Z M 169.648438 365.457031 "/></g><path style=" stroke:none;fill-rule:nonzero;fill:#2ed9ad;fill-opacity:1;" d="M 183.019531 346.378906 C 156.148438 345.085938 131.160156 337.347656 108.746094 323.398438 L 108.683594 323.367188 L 108.648438 323.300781 C 107.355469 320.746094 106.128906 318.128906 105.003906 315.519531 C 69.988281 291.289062 46.582031 253.140625 40.777344 210.847656 L 41.28125 210.773438 C 47.0625 252.949219 70.417969 291 105.359375 315.144531 L 105.421875 315.1875 L 105.453125 315.253906 C 106.566406 317.851562 107.785156 320.457031 109.078125 323.011719 C 131.40625 336.898438 156.300781 344.59375 183.0625 345.886719 L 183.042969 346.386719 Z M 183.019531 346.378906 "/><path style=" stroke:none;fill-rule:nonzero;fill:#2ed9ad;fill-opacity:1;" d="M 40.574219 207.191406 C 42.144531 207.0625 43.597656 208.539062 43.867188 210.484375 C 44.132812 212.417969 43.128906 214.160156 41.558594 214.382812 C 39.996094 214.609375 38.457031 213.144531 38.179688 211.113281 C 37.902344 209.082031 39.003906 207.320312 40.574219 207.191406 Z M 40.574219 207.191406 "/><path style=" stroke:none;fill-rule:nonzero;fill:#2ed9ad;fill-opacity:1;" d="M 37.945312 235.109375 L 37.871094 234.875 C 31.4375 212.929688 29.820312 190.453125 33.058594 168.070312 L 33.09375 167.816406 L 51.53125 171.097656 L 51.5 171.332031 C 48.65625 190.976562 50.078125 210.695312 55.71875 229.957031 L 55.792969 230.203125 L 37.945312 235.097656 Z M 33.519531 168.402344 C 30.355469 190.550781 31.960938 212.78125 38.285156 234.5 L 55.175781 229.871094 C 49.59375 210.695312 48.175781 191.0625 50.972656 171.511719 L 33.53125 168.402344 Z M 33.519531 168.402344 "/><path style=" stroke:none;fill-rule:nonzero;fill:#2ed9ad;fill-opacity:1;" d="M 190.609375 342.273438 L 190.351562 342.273438 C 182.1875 342.253906 174.042969 341.609375 166.132812 340.347656 L 165.898438 340.316406 L 168.515625 318.628906 L 168.773438 318.671875 C 175.496094 319.742188 182.433594 320.296875 189.378906 320.308594 L 189.617188 320.308594 L 189.617188 320.542969 C 189.945312 327.695312 190.277344 334.855469 190.597656 342.007812 L 190.597656 342.261719 Z M 166.441406 339.890625 C 174.160156 341.109375 182.113281 341.738281 190.085938 341.769531 C 189.765625 334.78125 189.457031 327.789062 189.132812 320.800781 C 182.324219 320.769531 175.527344 320.234375 168.945312 319.195312 Z M 166.441406 339.890625 "/><path style=" stroke:none;fill-rule:nonzero;fill:#2ed9ad;fill-opacity:1;" d="M 172.492188 334.4375 C 172.632812 332.835938 174.375 331.746094 176.425781 331.9375 C 178.46875 332.128906 180.125 333.539062 180.09375 335.15625 C 180.058594 336.769531 178.273438 337.957031 176.125 337.753906 C 173.976562 337.550781 172.363281 336.042969 172.503906 334.4375 Z M 172.492188 334.4375 "/><path style=" stroke:none;fill-rule:nonzero;fill:#2ed9ad;fill-opacity:1;" d="M 150.976562 334.695312 C 149.683594 333.050781 148.433594 331.371094 147.246094 329.703125 L 146.777344 329.042969 L 147.523438 328.730469 C 149.4375 327.941406 151.371094 327.097656 153.242188 326.21875 L 153.789062 327.382812 C 152.132812 328.152344 150.441406 328.902344 148.753906 329.609375 C 149.78125 331.039062 150.871094 332.484375 151.96875 333.894531 L 150.964844 334.683594 Z M 150.976562 334.695312 "/><path style=" stroke:none;fill-rule:nonzero;fill:#2ed9ad;fill-opacity:1;" d="M 144.230469 332.695312 C 143.046875 331.019531 141.890625 329.285156 140.789062 327.554688 L 140.363281 326.882812 L 141.109375 326.613281 C 143.035156 325.921875 144.992188 325.171875 146.902344 324.371094 L 147.394531 325.554688 C 145.707031 326.25 143.996094 326.925781 142.296875 327.542969 C 143.257812 329.039062 144.253906 330.515625 145.269531 331.960938 L 144.222656 332.695312 Z M 144.230469 332.695312 "/><path style=" stroke:none;fill-rule:nonzero;fill:#2ed9ad;fill-opacity:1;" d="M 137.648438 330.386719 C 136.558594 328.667969 135.5 326.894531 134.496094 325.109375 L 134.097656 324.414062 L 134.859375 324.179688 C 136.824219 323.570312 138.800781 322.90625 140.714844 322.210938 L 141.152344 323.417969 C 139.464844 324.027344 137.734375 324.617188 136 325.171875 C 136.878906 326.699219 137.796875 328.21875 138.726562 329.703125 L 137.636719 330.386719 Z M 137.648438 330.386719 "/><path style=" stroke:none;fill-rule:nonzero;fill:#2ed9ad;fill-opacity:1;" d="M 131.222656 327.789062 C 130.230469 326.015625 129.269531 324.199219 128.359375 322.394531 L 128.007812 321.6875 L 128.777344 321.484375 C 130.808594 320.949219 132.796875 320.382812 134.6875 319.785156 L 135.070312 321.015625 C 133.394531 321.539062 131.652344 322.050781 129.867188 322.519531 C 130.65625 324.082031 131.492188 325.640625 132.347656 327.160156 Z M 131.222656 327.789062 "/><path style=" stroke:none;fill-rule:nonzero;fill:#2ed9ad;fill-opacity:1;" d="M 124.980469 324.914062 C 124.074219 323.085938 123.195312 321.226562 122.394531 319.398438 L 122.074219 318.683594 L 122.84375 318.511719 C 124.863281 318.085938 126.863281 317.605469 128.808594 317.089844 L 129.140625 318.332031 C 127.429688 318.78125 125.667969 319.207031 123.890625 319.601562 C 124.597656 321.175781 125.34375 322.765625 126.125 324.339844 L 124.980469 324.90625 Z M 124.980469 324.914062 "/><path style=" stroke:none;fill-rule:nonzero;fill:#2ed9ad;fill-opacity:1;" d="M 118.921875 321.773438 C 118.109375 319.914062 117.339844 318.03125 116.625 316.171875 L 116.34375 315.433594 L 117.113281 315.304688 C 119.144531 314.964844 121.167969 314.578125 123.113281 314.164062 L 123.378906 315.414062 C 121.65625 315.789062 119.882812 316.128906 118.097656 316.4375 C 118.730469 318.042969 119.390625 319.667969 120.097656 321.261719 Z M 118.921875 321.773438 "/><path style=" stroke:none;fill-rule:nonzero;fill:#2ed9ad;fill-opacity:1;" d="M 113.042969 318.363281 C 112.328125 316.492188 111.652344 314.578125 111.023438 312.675781 L 110.777344 311.929688 L 111.558594 311.832031 C 113.578125 311.585938 115.609375 311.296875 117.585938 310.957031 L 117.800781 312.21875 C 116.058594 312.515625 114.273438 312.773438 112.488281 312.996094 C 113.042969 314.632812 113.628906 316.277344 114.238281 317.894531 L 113.042969 318.351562 Z M 113.042969 318.363281 "/><path style=" stroke:none;fill-rule:nonzero;fill:#2ed9ad;fill-opacity:1;" d="M 107.347656 314.695312 C 106.726562 312.792969 106.136719 310.859375 105.605469 308.9375 L 105.390625 308.175781 L 106.171875 308.125 C 108.167969 307.972656 110.199219 307.78125 112.21875 307.523438 L 112.378906 308.796875 C 110.605469 309.011719 108.820312 309.191406 107.046875 309.34375 C 107.515625 311 108.019531 312.65625 108.554688 314.289062 L 107.335938 314.695312 Z M 107.347656 314.695312 "/><path style=" stroke:none;fill-rule:nonzero;fill:#2ed9ad;fill-opacity:1;" d="M 101.851562 310.785156 C 101.328125 308.871094 100.835938 306.914062 100.398438 304.96875 L 100.226562 304.210938 L 101.007812 304.191406 C 103.007812 304.136719 105.046875 304.019531 107.066406 303.871094 L 107.164062 305.152344 C 105.390625 305.292969 103.59375 305.386719 101.820312 305.453125 C 102.214844 307.128906 102.632812 308.808594 103.089844 310.441406 Z M 101.851562 310.785156 "/><path style=" stroke:none;fill-rule:nonzero;fill:#2ed9ad;fill-opacity:1;" d="M 96.5625 306.660156 C 96.121094 304.714844 95.726562 302.738281 95.386719 300.800781 L 95.246094 300.03125 L 96.027344 300.03125 C 98.058594 300.074219 100.097656 300.0625 102.085938 300 L 102.128906 301.28125 C 100.375 301.335938 98.570312 301.359375 96.785156 301.335938 C 97.09375 303.003906 97.4375 304.703125 97.8125 306.371094 Z M 96.5625 306.660156 "/><path style=" stroke:none;fill-rule:nonzero;fill:#2ed9ad;fill-opacity:1;" d="M 91.472656 302.289062 C 91.132812 300.332031 90.820312 298.355469 90.566406 296.398438 L 90.46875 295.628906 L 91.25 295.671875 C 93.257812 295.800781 95.300781 295.875 97.308594 295.90625 L 97.289062 297.1875 C 95.511719 297.167969 93.730469 297.105469 91.953125 297.007812 C 92.1875 298.683594 92.445312 300.386719 92.746094 302.074219 L 91.484375 302.296875 Z M 91.472656 302.289062 "/><path style=" stroke:none;fill-rule:nonzero;fill:#2ed9ad;fill-opacity:1;" d="M 86.597656 297.710938 C 86.34375 295.757812 86.140625 293.769531 85.96875 291.800781 L 85.90625 291.023438 L 86.675781 291.105469 C 88.671875 291.320312 90.703125 291.492188 92.714844 291.609375 L 92.636719 292.890625 C 90.875 292.785156 89.078125 292.644531 87.316406 292.464844 C 87.464844 294.152344 87.65625 295.863281 87.871094 297.542969 Z M 86.597656 297.710938 "/><path style=" stroke:none;fill-rule:nonzero;fill:#2ed9ad;fill-opacity:1;" d="M 81.9375 292.933594 C 81.777344 290.957031 81.652344 288.96875 81.574219 287.011719 L 81.542969 286.234375 L 82.3125 286.351562 C 84.300781 286.660156 86.320312 286.917969 88.320312 287.132812 L 88.191406 288.414062 C 86.429688 288.230469 84.652344 288.007812 82.890625 287.742188 C 82.964844 289.417969 83.070312 291.128906 83.210938 292.828125 L 81.929688 292.933594 Z M 81.9375 292.933594 "/><path style=" stroke:none;fill-rule:nonzero;fill:#2ed9ad;fill-opacity:1;" d="M 77.515625 287.964844 C 77.4375 286 77.40625 284.011719 77.429688 282.054688 L 77.429688 281.273438 C 77.429688 281.273438 78.199219 281.421875 78.199219 281.421875 C 80.195312 281.828125 82.207031 282.171875 84.171875 282.472656 L 83.980469 283.742188 C 82.25 283.488281 80.484375 283.175781 78.710938 282.835938 C 78.710938 284.523438 78.742188 286.234375 78.796875 287.910156 L 77.515625 287.953125 Z M 77.515625 287.964844 "/><path style=" stroke:none;fill-rule:nonzero;fill:#2ed9ad;fill-opacity:1;" d="M 74.585938 282.8125 L 73.304688 282.8125 C 73.324219 280.824219 73.378906 278.847656 73.484375 276.902344 L 73.527344 276.132812 L 74.273438 276.3125 C 76.273438 276.804688 78.261719 277.253906 80.195312 277.628906 L 79.949219 278.890625 C 78.242188 278.558594 76.488281 278.164062 74.722656 277.746094 C 74.648438 279.414062 74.597656 281.125 74.585938 282.8125 Z M 74.585938 282.8125 "/><g clip-rule="nonzero" clip-path="url(#5fcf3d514d)"><path style=" stroke:none;fill-rule:nonzero;fill:#2ed9ad;fill-opacity:1;" d="M 29.203125 194.867188 C 29.203125 195.738281 29.117188 196.601562 28.945312 197.457031 C 28.777344 198.3125 28.523438 199.140625 28.191406 199.949219 C 27.859375 200.753906 27.449219 201.519531 26.964844 202.242188 C 26.480469 202.96875 25.929688 203.636719 25.3125 204.253906 C 24.695312 204.871094 24.027344 205.421875 23.300781 205.90625 C 22.578125 206.390625 21.8125 206.796875 21.007812 207.132812 C 20.203125 207.464844 19.371094 207.71875 18.515625 207.886719 C 17.660156 208.058594 16.796875 208.144531 15.925781 208.144531 C 15.054688 208.144531 14.191406 208.058594 13.335938 207.886719 C 12.480469 207.71875 11.652344 207.464844 10.847656 207.132812 C 10.039062 206.796875 9.277344 206.390625 8.550781 205.90625 C 7.828125 205.421875 7.15625 204.871094 6.539062 204.253906 C 5.921875 203.636719 5.371094 202.96875 4.886719 202.242188 C 4.402344 201.519531 3.996094 200.753906 3.660156 199.949219 C 3.328125 199.140625 3.078125 198.3125 2.90625 197.457031 C 2.734375 196.601562 2.652344 195.738281 2.652344 194.867188 C 2.652344 193.996094 2.734375 193.132812 2.90625 192.277344 C 3.078125 191.421875 3.328125 190.59375 3.660156 189.789062 C 3.996094 188.980469 4.402344 188.21875 4.886719 187.492188 C 5.371094 186.765625 5.921875 186.097656 6.539062 185.480469 C 7.15625 184.863281 7.828125 184.3125 8.550781 183.828125 C 9.277344 183.34375 10.039062 182.9375 10.847656 182.601562 C 11.652344 182.269531 12.480469 182.015625 13.335938 181.847656 C 14.191406 181.675781 15.054688 181.59375 15.925781 181.59375 C 16.796875 181.59375 17.660156 181.675781 18.515625 181.847656 C 19.371094 182.015625 20.203125 182.269531 21.007812 182.601562 C 21.8125 182.9375 22.578125 183.34375 23.300781 183.828125 C 24.027344 184.3125 24.695312 184.863281 25.3125 185.480469 C 25.929688 186.097656 26.480469 186.765625 26.964844 187.492188 C 27.449219 188.21875 27.859375 188.980469 28.191406 189.789062 C 28.523438 190.59375 28.777344 191.421875 28.945312 192.277344 C 29.117188 193.132812 29.203125 193.996094 29.203125 194.867188 Z M 29.203125 194.867188 "/></g><path style=" stroke:none;fill-rule:nonzero;fill:#2ed9ad;fill-opacity:1;" d="M 288.058594 41.785156 C 288.058594 42.65625 287.972656 43.519531 287.800781 44.375 C 287.632812 45.230469 287.378906 46.0625 287.046875 46.867188 C 286.714844 47.671875 286.304688 48.4375 285.820312 49.160156 C 285.335938 49.886719 284.785156 50.554688 284.167969 51.171875 C 283.554688 51.789062 282.882812 52.339844 282.15625 52.824219 C 281.433594 53.308594 280.667969 53.71875 279.863281 54.050781 C 279.058594 54.382812 278.226562 54.636719 277.371094 54.804688 C 276.515625 54.976562 275.652344 55.0625 274.78125 55.0625 C 273.910156 55.0625 273.046875 54.976562 272.191406 54.804688 C 271.335938 54.636719 270.507812 54.382812 269.703125 54.050781 C 268.898438 53.71875 268.132812 53.308594 267.40625 52.824219 C 266.683594 52.339844 266.011719 51.789062 265.394531 51.171875 C 264.777344 50.554688 264.230469 49.886719 263.746094 49.160156 C 263.261719 48.4375 262.851562 47.671875 262.515625 46.867188 C 262.183594 46.0625 261.933594 45.230469 261.761719 44.375 C 261.59375 43.519531 261.507812 42.65625 261.507812 41.785156 C 261.507812 40.914062 261.59375 40.050781 261.761719 39.195312 C 261.933594 38.339844 262.183594 37.511719 262.515625 36.707031 C 262.851562 35.898438 263.261719 35.136719 263.746094 34.410156 C 264.226562 33.6875 264.777344 33.015625 265.394531 32.398438 C 266.011719 31.78125 266.683594 31.230469 267.40625 30.746094 C 268.132812 30.261719 268.898438 29.855469 269.703125 29.519531 C 270.507812 29.1875 271.335938 28.9375 272.191406 28.765625 C 273.046875 28.59375 273.910156 28.511719 274.78125 28.511719 C 275.652344 28.511719 276.515625 28.59375 277.371094 28.765625 C 278.226562 28.9375 279.058594 29.1875 279.863281 29.519531 C 280.667969 29.855469 281.433594 30.261719 282.15625 30.746094 C 282.882812 31.230469 283.554688 31.78125 284.167969 32.398438 C 284.785156 33.015625 285.335938 33.6875 285.820312 34.410156 C 286.304688 35.136719 286.714844 35.898438 287.046875 36.707031 C 287.378906 37.511719 287.632812 38.339844 287.800781 39.195312 C 287.972656 40.050781 288.058594 40.914062 288.058594 41.785156 Z M 288.058594 41.785156 "/><path style=" stroke:none;fill-rule:nonzero;fill:#2ed9ad;fill-opacity:1;" d="M 287.480469 343.320312 C 287.480469 344.191406 287.394531 345.054688 287.226562 345.910156 C 287.054688 346.765625 286.804688 347.597656 286.46875 348.402344 C 286.136719 349.207031 285.726562 349.972656 285.242188 350.695312 C 284.757812 351.421875 284.207031 352.089844 283.59375 352.707031 C 282.976562 353.324219 282.304688 353.875 281.582031 354.359375 C 280.855469 354.84375 280.089844 355.253906 279.285156 355.585938 C 278.480469 355.917969 277.648438 356.171875 276.792969 356.339844 C 275.941406 356.511719 275.078125 356.597656 274.203125 356.597656 C 273.332031 356.597656 272.46875 356.511719 271.613281 356.339844 C 270.761719 356.171875 269.929688 355.917969 269.125 355.585938 C 268.320312 355.253906 267.554688 354.84375 266.828125 354.359375 C 266.105469 353.875 265.433594 353.324219 264.816406 352.707031 C 264.203125 352.089844 263.652344 351.421875 263.167969 350.695312 C 262.683594 349.972656 262.273438 349.207031 261.941406 348.402344 C 261.605469 347.597656 261.355469 346.765625 261.183594 345.910156 C 261.015625 345.054688 260.929688 344.191406 260.929688 343.320312 C 260.929688 342.449219 261.015625 341.585938 261.183594 340.730469 C 261.355469 339.875 261.605469 339.046875 261.941406 338.242188 C 262.273438 337.433594 262.683594 336.671875 263.167969 335.945312 C 263.652344 335.222656 264.203125 334.550781 264.816406 333.933594 C 265.433594 333.316406 266.105469 332.765625 266.828125 332.28125 C 267.554688 331.796875 268.320312 331.390625 269.125 331.054688 C 269.929688 330.722656 270.761719 330.472656 271.613281 330.300781 C 272.46875 330.128906 273.332031 330.046875 274.203125 330.046875 C 275.078125 330.046875 275.941406 330.128906 276.792969 330.300781 C 277.648438 330.472656 278.480469 330.722656 279.285156 331.054688 C 280.089844 331.390625 280.855469 331.796875 281.582031 332.28125 C 282.304688 332.765625 282.976562 333.316406 283.59375 333.933594 C 284.207031 334.550781 284.757812 335.222656 285.242188 335.945312 C 285.726562 336.671875 286.136719 337.433594 286.46875 338.242188 C 286.804688 339.046875 287.054688 339.875 287.226562 340.730469 C 287.394531 341.585938 287.480469 342.449219 287.480469 343.320312 Z M 287.480469 343.320312 "/><path style=" stroke:none;fill-rule:nonzero;fill:#2ed9ad;fill-opacity:1;" d="M 257.980469 105.617188 C 221.714844 71.777344 166.722656 66.421875 124.253906 92.597656 L 123.796875 91.851562 C 144.1875 79.28125 168.761719 73.59375 192.992188 75.808594 C 217.546875 78.0625 240.835938 88.421875 258.578125 104.976562 Z M 257.980469 105.617188 "/><path style=" stroke:none;fill-rule:nonzero;fill:#2ed9ad;fill-opacity:1;" d="M 280.363281 130.597656 C 267.953125 109.089844 250.21875 93.730469 230.199219 84.519531 C 230.746094 83.34375 231.289062 82.15625 231.847656 80.980469 C 252.550781 90.515625 270.890625 106.410156 283.738281 128.652344 C 282.617188 129.304688 281.496094 129.957031 280.363281 130.597656 Z M 280.363281 130.597656 "/><path style=" stroke:none;fill-rule:nonzero;fill:#2ed9ad;fill-opacity:1;" d="M 218.558594 83.867188 C 189.785156 73.96875 157.496094 76.332031 130.402344 90.972656 C 130.65625 91.457031 130.914062 91.925781 131.179688 92.40625 C 157.871094 77.988281 189.679688 75.65625 218.027344 85.40625 C 218.207031 84.894531 218.378906 84.378906 218.558594 83.867188 Z M 218.558594 83.867188 "/><path style=" stroke:none;fill-rule:nonzero;fill:#2ed9ad;fill-opacity:1;" d="M 92.222656 134.882812 L 91.460938 134.445312 C 97.746094 123.574219 105.65625 114.074219 115 106.226562 C 114.828125 102.039062 114.902344 97.75 115.203125 93.488281 L 115.203125 93.285156 C 115.203125 93.285156 115.382812 93.164062 115.382812 93.164062 C 132.175781 81.121094 152.109375 73.863281 173.039062 72.164062 C 173.464844 70.195312 173.9375 68.195312 174.425781 66.230469 L 174.351562 66.058594 L 174.566406 65.847656 C 174.566406 65.847656 174.695312 65.792969 174.867188 65.761719 L 174.867188 65.71875 C 174.867188 65.71875 175.453125 65.683594 175.453125 65.683594 C 180.582031 65.140625 206.898438 64.542969 228.8125 74.683594 C 254.515625 83.996094 275.058594 106.859375 275.605469 108.601562 L 275.667969 108.8125 L 275.542969 109.082031 L 274.824219 108.566406 L 275.175781 108.824219 L 274.761719 108.867188 C 274.171875 107.144531 253.574219 84.59375 228.46875 75.507812 C 205.339844 64.796875 178.457031 66.347656 175.25 66.574219 C 174.746094 68.601562 174.265625 70.65625 173.828125 72.6875 L 173.753906 73.007812 L 173.433594 73.027344 C 152.621094 74.664062 132.785156 81.835938 116.066406 93.773438 C 115.769531 98.019531 115.714844 102.273438 115.886719 106.429688 L 115.886719 106.644531 C 115.886719 106.644531 115.726562 106.78125 115.726562 106.78125 C 106.394531 114.597656 98.484375 124.054688 92.222656 134.914062 Z M 92.222656 134.882812 "/><path style=" stroke:none;fill-rule:nonzero;fill:#2ed9ad;fill-opacity:1;" d="M 133.769531 296.269531 C 112.691406 284.898438 95.460938 266.460938 85.273438 244.367188 C 74.949219 221.972656 72.277344 196.632812 77.738281 172.988281 L 78.59375 173.179688 C 67.425781 221.515625 90.277344 271.804688 134.183594 295.5 Z M 133.769531 296.269531 "/><path style=" stroke:none;fill-rule:nonzero;fill:#2ed9ad;fill-opacity:1;" d="M 89.035156 141.296875 C 76.625 162.800781 72.191406 185.835938 74.210938 207.777344 C 72.917969 207.898438 71.625 208.015625 70.320312 208.121094 C 68.226562 185.417969 72.8125 161.59375 85.660156 139.351562 C 86.78125 140.003906 87.902344 140.65625 89.035156 141.296875 Z M 89.035156 141.296875 "/><path style=" stroke:none;fill-rule:nonzero;fill:#2ed9ad;fill-opacity:1;" d="M 79.460938 218.191406 C 85.273438 248.054688 103.464844 274.839844 129.683594 290.980469 C 129.960938 290.519531 130.25 290.058594 130.53125 289.589844 C 104.695312 273.683594 86.769531 247.304688 81.042969 217.878906 C 80.507812 217.976562 79.972656 218.082031 79.449219 218.179688 Z M 79.460938 218.191406 "/><path style=" stroke:none;fill-rule:nonzero;fill:#2ed9ad;fill-opacity:1;" d="M 139.285156 302.980469 L 139.089844 302.898438 C 120.269531 294.367188 104.011719 280.738281 92.082031 263.464844 C 90.160156 264.085938 88.203125 264.675781 86.246094 265.242188 L 86.140625 265.390625 L 85.839844 265.316406 C 85.839844 265.316406 85.734375 265.230469 85.625 265.101562 L 85.582031 265.125 L 85.261719 264.621094 C 82.21875 260.453125 68.546875 237.953125 66.386719 213.914062 C 61.589844 186.980469 71.121094 157.777344 72.351562 156.429688 L 72.5 156.269531 L 72.789062 156.25 L 72.746094 156.6875 L 72.992188 157.03125 C 71.796875 158.398438 62.5625 187.503906 67.242188 213.796875 C 69.53125 239.148438 84.3125 261.691406 86.117188 264.355469 C 88.128906 263.777344 90.148438 263.15625 92.113281 262.527344 L 92.425781 262.429688 L 92.605469 262.695312 C 104.429688 279.90625 120.558594 293.492188 139.25 302.007812 C 143.066406 300.148438 146.785156 298.066406 150.304688 295.832031 L 150.484375 295.714844 L 150.6875 295.789062 C 162.125 299.96875 174.277344 302.085938 186.804688 302.085938 L 186.804688 302.960938 C 174.246094 302.960938 162.070312 300.855469 150.589844 296.6875 C 147.042969 298.929688 143.292969 301.015625 139.453125 302.886719 L 139.273438 302.972656 Z M 139.285156 302.980469 "/><path style=" stroke:none;fill-rule:nonzero;fill:#2ed9ad;fill-opacity:1;" d="M 227.058594 295.585938 L 226.800781 294.753906 C 274.246094 280.269531 306.378906 235.3125 304.933594 185.449219 L 305.8125 185.429688 C 306.507812 209.371094 299.152344 233.507812 285.109375 253.375 C 270.882812 273.515625 250.261719 288.511719 227.058594 295.597656 Z M 227.058594 295.585938 "/><path style=" stroke:none;fill-rule:nonzero;fill:#2ed9ad;fill-opacity:1;" d="M 193.964844 301.644531 C 218.796875 301.644531 240.964844 293.972656 258.953125 281.242188 C 259.699219 282.3125 260.449219 283.367188 261.195312 284.4375 C 242.589844 297.59375 219.652344 305.535156 193.964844 305.535156 C 193.964844 304.234375 193.964844 302.941406 193.964844 301.636719 Z M 193.964844 301.644531 "/><path style=" stroke:none;fill-rule:nonzero;fill:#2ed9ad;fill-opacity:1;" d="M 265.34375 271.484375 C 288.304688 251.515625 302.402344 222.367188 303.265625 191.585938 C 302.722656 191.574219 302.1875 191.554688 301.644531 191.542969 C 300.789062 221.867188 286.902344 250.578125 264.285156 270.253906 C 264.640625 270.660156 264.992188 271.078125 265.34375 271.484375 Z M 265.34375 271.484375 "/><path style=" stroke:none;fill-rule:nonzero;fill:#2ed9ad;fill-opacity:1;" d="M 215.652344 308.539062 C 215.558594 308.539062 215.472656 308.539062 215.429688 308.519531 L 215.214844 308.476562 L 215.042969 308.230469 L 215.84375 307.867188 L 215.449219 308.046875 L 215.621094 307.664062 C 215.621094 307.664062 215.726562 307.675781 215.8125 307.675781 C 218.914062 307.675781 247.75 301.015625 267.664062 284.257812 C 288.441406 269.625 300.605469 245.542969 302.015625 242.632812 C 300.550781 241.222656 299.011719 239.792969 297.429688 238.347656 L 297.183594 238.125 L 297.324219 237.824219 C 306.3125 218.980469 310.023438 198.214844 308.046875 177.777344 C 304.519531 175.402344 300.863281 173.222656 297.175781 171.289062 L 296.980469 171.191406 L 296.949219 170.980469 C 294.84375 158.984375 290.613281 147.410156 284.347656 136.5625 L 285.105469 136.125 C 291.382812 146.992188 295.644531 158.601562 297.785156 170.613281 C 301.492188 172.558594 305.167969 174.773438 308.71875 177.167969 L 308.890625 177.285156 L 308.910156 177.488281 C 310.941406 198.050781 307.265625 218.9375 298.277344 237.921875 C 299.816406 239.320312 301.300781 240.722656 302.722656 242.089844 L 302.914062 242.109375 L 302.988281 242.410156 C 302.988281 242.410156 302.96875 242.539062 302.914062 242.710938 L 302.957031 242.730469 L 302.691406 243.265625 C 300.605469 247.980469 287.960938 271.066406 268.21875 284.972656 C 247.910156 302.074219 219 308.5625 215.683594 308.5625 Z M 215.652344 308.539062 "/><path style=" stroke:none;fill-rule:nonzero;fill:#2ed9ad;fill-opacity:1;" d="M 187.242188 285.675781 C 133.03125 285.675781 88.917969 241.566406 88.917969 187.351562 C 88.917969 133.140625 133.03125 89.027344 187.242188 89.027344 C 241.457031 89.027344 285.566406 133.140625 285.566406 187.351562 C 285.566406 241.566406 241.457031 285.675781 187.242188 285.675781 Z M 187.242188 89.90625 C 133.511719 89.90625 89.785156 133.621094 89.785156 187.363281 C 89.785156 241.105469 133.5 284.824219 187.242188 284.824219 C 240.984375 284.824219 284.703125 241.105469 284.703125 187.363281 C 284.703125 133.621094 240.984375 89.90625 187.242188 89.90625 Z M 187.242188 89.90625 "/><path style=" stroke:none;fill-rule:nonzero;fill:#2ed9ad;fill-opacity:1;" d="M 187.242188 280.078125 C 136.121094 280.078125 94.519531 238.488281 94.519531 187.351562 C 94.519531 136.21875 136.109375 94.628906 187.242188 94.628906 C 238.378906 94.628906 279.964844 136.21875 279.964844 187.351562 C 279.964844 238.488281 238.378906 280.078125 187.242188 280.078125 Z M 187.242188 95.453125 C 136.570312 95.453125 95.34375 136.679688 95.34375 187.351562 C 95.34375 238.027344 136.570312 279.253906 187.242188 279.253906 C 237.917969 279.253906 279.144531 238.027344 279.144531 187.351562 C 279.144531 136.679688 237.917969 95.453125 187.242188 95.453125 Z M 187.242188 95.453125 "/><path style=" stroke:none;fill-rule:nonzero;fill:#2ed9ad;fill-opacity:1;" d="M 187.242188 259.0625 C 147.707031 259.0625 115.542969 226.902344 115.542969 187.363281 C 115.542969 147.828125 147.707031 115.664062 187.242188 115.664062 C 226.78125 115.664062 258.941406 147.828125 258.941406 187.363281 C 258.941406 226.902344 226.78125 259.0625 187.242188 259.0625 Z M 187.242188 116.285156 C 148.058594 116.285156 116.175781 148.167969 116.175781 187.351562 C 116.175781 226.539062 148.058594 258.421875 187.242188 258.421875 C 226.425781 258.421875 258.3125 226.539062 258.3125 187.351562 C 258.3125 148.167969 226.425781 116.285156 187.242188 116.285156 Z M 187.242188 116.285156 "/></g></svg>