<?xml version="1.0" encoding="UTF-8" standalone="no"?>
<!-- Created with Inkscape (http://www.inkscape.org/) -->

<svg
   version="1.1"
   id="svg2"
   width="132.33333"
   height="165.33333"
   viewBox="0 0 132.33333 165.33333"
   sodipodi:docname="escudo-con-ranura-llave-celeste.svg"
   inkscape:version="1.2.1 (9c6d41e410, 2022-07-14)"
   xmlns:inkscape="http://www.inkscape.org/namespaces/inkscape"
   xmlns:sodipodi="http://sodipodi.sourceforge.net/DTD/sodipodi-0.dtd"
   xmlns:xlink="http://www.w3.org/1999/xlink"
   xmlns="http://www.w3.org/2000/svg"
   xmlns:svg="http://www.w3.org/2000/svg">
  <defs
     id="defs6">
    <linearGradient
       id="linearGradient2918"
       inkscape:swatch="solid">
      <stop
         style="stop-color:#000000;stop-opacity:1;"
         offset="0"
         id="stop2916" />
    </linearGradient>
    <linearGradient
       inkscape:collect="always"
       xlink:href="#linearGradient2918"
       id="linearGradient2920"
       x1="0.3311222"
       y1="82.860746"
       x2="127.82971"
       y2="82.860746"
       gradientUnits="userSpaceOnUse" />
  </defs>
  <sodipodi:namedview
     id="namedview4"
     pagecolor="#ffffff"
     bordercolor="#000000"
     borderopacity="0.25"
     inkscape:showpageshadow="2"
     inkscape:pageopacity="0.0"
     inkscape:pagecheckerboard="0"
     inkscape:deskcolor="#d1d1d1"
     showgrid="false"
     inkscape:zoom="3.5797282"
     inkscape:cx="41.623272"
     inkscape:cy="100.00759"
     inkscape:window-width="1920"
     inkscape:window-height="1017"
     inkscape:window-x="-8"
     inkscape:window-y="-8"
     inkscape:window-maximized="1"
     inkscape:current-layer="g8" />
  <g
     inkscape:groupmode="layer"
     inkscape:label="Image"
     id="g8">
    <path
       style="fill:#0a0a0a;fill-opacity:1;stroke-width:0.327;stroke-dasharray:none;stroke:url(#linearGradient2920)"
       d="M 58.158413,163.52128 C 40.048964,157.24649 24.764051,143.91556 13.829282,124.85908 7.3009884,113.48196 3.5381888,102.63033 1.4506739,89.160137 0.74863029,84.630029 0.72546945,83.683198 0.61187939,54.869905 L 0.49506381,25.238423 32.270108,12.889051 64.045152,0.53967628 95.855677,12.903758 127.66621,25.26784 v 26.472156 c 0,15.74322 -0.13888,28.286114 -0.34265,30.947845 -1.28565,16.792906 -6.28194,31.671119 -15.52728,46.238009 -9.6156,15.15026 -22.031782,26.25601 -36.263489,32.43615 -4.272674,1.85541 -10.254486,3.83676 -11.568197,3.83172 -0.544719,-0.002 -3.1575,-0.75469 -5.806181,-1.67244 z m 10.234191,-14.16369 c 21.214897,-8.67646 38.585616,-30.68955 43.985336,-55.740473 1.81166,-8.404868 1.88102,-9.595944 2.0362,-34.961462 0.138,-22.55823 0.11985,-23.529571 -0.44544,-23.840647 -1.09338,-0.601656 -49.433981,-19.362871 -49.895366,-19.364621 -0.251368,-9.65e-4 -11.6989,4.3791 -25.438965,9.733451 l -24.981928,9.735184 0.12553,23.959265 c 0.11912,22.736069 0.161663,24.19387 0.833302,28.554736 1.380802,8.965366 3.534128,16.081067 7.269608,24.022537 8.434014,17.93036 22.303492,31.69451 38.400782,38.10916 3.808189,1.51754 3.899667,1.5152 8.110941,-0.20713 z M 53.503157,107.2786 c 0,-0.37557 1.011314,-6.66766 2.247365,-13.982377 1.236051,-7.314722 2.247365,-13.507116 2.247365,-13.760874 0,-0.253763 -0.616038,-0.83558 -1.368972,-1.292932 -2.06418,-1.253832 -4.635788,-4.273714 -5.790026,-6.799317 -0.985865,-2.157192 -1.027832,-2.418854 -1.027832,-6.408614 0,-3.896957 0.05764,-4.281327 0.912866,-6.087596 2.874586,-6.07121 9.094574,-9.558995 15.372387,-8.619882 1.364006,0.204043 3.314399,0.778217 4.334204,1.275942 2.590538,1.264334 5.602165,4.4576 6.916324,7.333477 0.990385,2.167335 1.037863,2.453902 1.037863,6.264443 0,3.792925 -0.05096,4.104698 -1.015976,6.215969 -1.212238,2.652141 -3.150697,4.936086 -5.576105,6.569929 l -1.776298,1.196575 2.328671,13.80673 c 1.280767,7.593707 2.332929,14.068797 2.338137,14.389087 0.0089,0.54304 -0.705467,0.58234 -10.585251,0.58234 -10.470434,0 -10.594722,-0.008 -10.594722,-0.6829 z"
       id="path170" />
    <path
       style="fill:#2ed9ad;fill-opacity:1;stroke-width:0.323293"
       d="M 62.4369,163.51874 C 44.327447,157.38003 29.042538,144.33821 18.107763,125.69503 11.579469,114.56465 7.8166759,103.94836 5.7291593,90.770313 5.0271144,86.338453 5.0039505,85.412157 4.8903655,57.223756 L 4.7735442,28.234915 36.54859,16.153373 68.323636,4.0718289 100.13417,16.167761 131.9447,28.263695 v 25.898034 c 0,15.401783 -0.13888,27.67265 -0.34266,30.276658 -1.28565,16.428713 -6.28194,30.984243 -15.52728,45.235203 -9.61559,14.82169 -22.03178,25.68659 -36.263488,31.73268 -4.272669,1.81518 -10.254487,3.75356 -11.568194,3.74863 -0.544723,-0.002 -3.157497,-0.73832 -5.806178,-1.63616 z m 10.234184,-13.85651 c 21.214901,-8.48831 38.585626,-30.02397 43.985336,-54.531597 1.81166,-8.222587 1.88103,-9.38783 2.0362,-34.203229 0.13801,-22.068993 0.11986,-23.019269 -0.44544,-23.323597 C 117.15381,37.015198 68.813199,18.660871 68.351818,18.65916 68.100453,18.658216 56.652914,22.943287 42.912849,28.181515 l -24.981921,9.52405 0.125528,23.439641 c 0.119123,22.242978 0.161666,23.669162 0.833304,27.935451 1.3808,8.770928 3.534129,15.732303 7.269607,23.501523 8.434015,17.54151 22.303489,31.00714 38.400783,37.28268 3.808186,1.48463 3.899667,1.48234 8.110934,-0.20263 z m -14.889447,-41.1664 c 0,-0.36743 1.011314,-6.52306 2.247372,-13.679132 1.236047,-7.156083 2.247362,-13.214176 2.247362,-13.462431 0,-0.248264 -0.616035,-0.817457 -1.368973,-1.264891 C 58.843218,78.86273 56.27161,75.90835 55.117372,73.437518 54.131505,71.32711 54.08954,71.07112 54.08954,67.167891 c 0,-3.81244 0.0576,-4.188474 0.91287,-5.955568 2.874579,-5.939542 9.094568,-9.351683 15.372384,-8.432937 1.364003,0.199619 3.314395,0.761339 4.334204,1.248268 2.590535,1.236915 5.602162,4.360926 6.916322,7.174432 0.990385,2.120331 1.037868,2.400682 1.037868,6.128581 0,3.710665 -0.05095,4.015674 -1.015976,6.081155 -1.212238,2.594622 -3.150697,4.829035 -5.576108,6.427443 l -1.776302,1.170625 2.328672,13.507299 c 1.280767,7.429011 2.332929,13.763681 2.33814,14.077011 0.0087,0.53127 -0.705464,0.56972 -10.585255,0.56972 -10.470427,0 -10.594722,-0.008 -10.594722,-0.66809 z"
       id="path170-8" />
  </g>
</svg>
