<?xml version="1.0" encoding="UTF-8" standalone="no"?>
<!-- Created with Inkscape (http://www.inkscape.org/) -->

<svg
   version="1.1"
   id="svg2"
   width="132.33333"
   height="165.33333"
   viewBox="0 0 132.33333 165.33333"
   sodipodi:docname="escudo-con-ranura-llave-celeste-negro.svg"
   xmlns:inkscape="http://www.inkscape.org/namespaces/inkscape"
   xmlns:sodipodi="http://sodipodi.sourceforge.net/DTD/sodipodi-0.dtd"
   xmlns="http://www.w3.org/2000/svg"
   xmlns:svg="http://www.w3.org/2000/svg">
  <defs
     id="defs6" />
  <sodipodi:namedview
     id="namedview4"
     pagecolor="#ffffff"
     bordercolor="#000000"
     borderopacity="0.25"
     inkscape:showpageshadow="2"
     inkscape:pageopacity="0.0"
     inkscape:pagecheckerboard="0"
     inkscape:deskcolor="#d1d1d1"
     showgrid="false" />
  <g
     inkscape:groupmode="layer"
     inkscape:label="Image"
     id="g8">
    <path
       style="fill:#cbb32b;fill-opacity:1;stroke-width:0.333333"
       d="M 59.830814,163.52402 C 41.028628,157.23856 25.159024,143.88497 13.80597,124.79609 7.0279522,113.39962 3.121215,102.52954 0.95384686,89.036444 0.22494806,84.498634 0.20090126,83.5502 0.08296606,54.687914 L -0.03831804,25.006053 32.952209,12.635684 65.942737,0.26531425 98.970106,12.650417 131.99748,25.03552 v 26.517164 c 0,15.769987 -0.14419,28.334206 -0.35576,31.000463 -1.33483,16.82146 -6.52224,31.724963 -16.12124,46.316623 -9.98342,15.17602 -22.87456,26.30065 -37.65067,32.49129 -4.436116,1.85857 -10.646749,3.84329 -12.010713,3.83824 -0.565556,-0.002 -3.278283,-0.75597 -6.028283,-1.67528 z m 10.625677,-14.18777 c 22.026426,-8.69122 40.061629,-30.74173 45.667899,-55.835243 1.88096,-8.41916 1.95298,-9.612257 2.11409,-35.020906 0.14328,-22.596583 0.12444,-23.569576 -0.46248,-23.88118 -1.1352,-0.60268 -51.324969,-19.395793 -51.804003,-19.397545 -0.260983,-9.67e-4 -12.146416,4.386545 -26.412076,9.75 l -25.937557,9.751735 0.130332,24 c 0.123677,22.774729 0.167847,24.235009 0.865178,28.603286 1.433622,8.980606 3.669319,16.108403 7.547691,24.063373 8.756639,17.96085 23.156663,31.7484 39.869719,38.17396 3.953863,1.52012 4.04884,1.51778 8.421207,-0.20748 z m -15.45901,-42.15053 c 0,-0.37622 1.05,-6.679 2.333333,-14.006153 1.283334,-7.32716 2.333333,-13.530083 2.333333,-13.784273 0,-0.254194 -0.639603,-0.837 -1.421339,-1.29513 -2.14314,-1.255964 -4.81312,-4.28098 -6.01151,-6.810877 -1.023577,-2.16086 -1.06715,-2.422966 -1.06715,-6.41951 0,-3.903583 0.05984,-4.288606 0.947786,-6.097946 2.984547,-6.081533 9.442467,-9.575247 15.960423,-8.634537 1.416184,0.20439 3.441184,0.77954 4.5,1.27811 2.689633,1.266484 5.816463,4.46518 7.180893,7.345947 1.02827,2.17102 1.077564,2.458073 1.077564,6.275093 0,3.799373 -0.05291,4.111677 -1.05484,6.226537 -1.25861,2.65665 -3.27122,4.944479 -5.789407,6.581099 l -1.844246,1.19861 2.417749,13.83021 c 1.32976,7.60661 2.42217,14.09271 2.427577,14.41354 0.0092,0.54397 -0.732453,0.58333 -10.990166,0.58333 -10.870957,0 -11,-0.008 -11,-0.68405 z"
       id="path170" />
  </g>
</svg>
