<?xml version="1.0" encoding="UTF-8" standalone="no"?>
<!-- Created with Inkscape (http://www.inkscape.org/) -->

<svg
   version="1.1"
   id="svg2"
   width="132.33333"
   height="165.33333"
   viewBox="0 0 132.33333 165.33333"
   sodipodi:docname="escudo-con-ranura-llave-celeste-negro.svg"
   xmlns:inkscape="http://www.inkscape.org/namespaces/inkscape"
   xmlns:sodipodi="http://sodipodi.sourceforge.net/DTD/sodipodi-0.dtd"
   xmlns="http://www.w3.org/2000/svg"
   xmlns:svg="http://www.w3.org/2000/svg">
  <defs
     id="defs6" />
  <sodipodi:namedview
     id="namedview4"
     pagecolor="#ffffff"
     bordercolor="#000000"
     borderopacity="0.25"
     inkscape:showpageshadow="2"
     inkscape:pageopacity="0.0"
     inkscape:pagecheckerboard="0"
     inkscape:deskcolor="#d1d1d1"
     showgrid="false" />
  <g
     inkscape:groupmode="layer"
     inkscape:label="Image"
     id="g8">
    <path
       style="fill:#2ed9ad;fill-opacity:1;stroke-width:0.333333"
       d="M 61.15432,163.9135 C 42.352134,157.62804 26.48253,144.27445 15.129476,125.18557 8.3514578,113.7891 4.4447198,102.91902 2.2773518,89.425922 1.5484538,84.888112 1.5244068,83.939682 1.4064718,55.077396 L 1.2851878,25.395535 34.275715,13.025166 67.266238,0.65479491 100.29361,13.039899 133.32098,25.425002 v 26.517164 c 0,15.769987 -0.14419,28.334206 -0.35576,31.000466 -1.33483,16.82146 -6.52224,31.724958 -16.12124,46.316618 -9.98342,15.17602 -22.874552,26.30065 -37.650662,32.49129 -4.43612,1.85857 -10.64675,3.84329 -12.01072,3.83824 -0.56555,-0.002 -3.27828,-0.75597 -6.028278,-1.67528 z m 10.625678,-14.18777 c 22.02642,-8.69122 40.061622,-30.74173 45.667892,-55.835238 1.88096,-8.41916 1.95298,-9.61226 2.11409,-35.020909 0.14328,-22.596583 0.12444,-23.569576 -0.46248,-23.88118 -1.1352,-0.60268 -51.324962,-19.395793 -51.804002,-19.397545 -0.26098,-9.67e-4 -12.146411,4.386545 -26.412071,9.75 l -25.937557,9.751735 0.130332,24 c 0.123677,22.774729 0.167847,24.235009 0.865178,28.603289 1.433622,8.9806 3.669319,16.108398 7.547691,24.063368 8.756639,17.96085 23.156663,31.7484 39.869717,38.17396 3.95386,1.52012 4.04884,1.51778 8.42121,-0.20748 z M 56.320987,107.5752 c 0,-0.37622 1.05,-6.679 2.333333,-14.006148 1.283334,-7.32716 2.333333,-13.530086 2.333333,-13.784276 0,-0.254194 -0.639603,-0.837 -1.421339,-1.29513 -2.14314,-1.255964 -4.81312,-4.28098 -6.01151,-6.810877 -1.023577,-2.16086 -1.06715,-2.422966 -1.06715,-6.41951 0,-3.903583 0.05984,-4.288606 0.947786,-6.097946 2.984547,-6.081533 9.442468,-9.575247 15.960418,-8.634537 1.41619,0.20439 3.44119,0.77954 4.5,1.27811 2.68964,1.266484 5.81647,4.46518 7.1809,7.345947 1.02827,2.17102 1.07756,2.458073 1.07756,6.275093 0,3.799373 -0.0529,4.111677 -1.05484,6.226537 -1.25861,2.65665 -3.27122,4.944479 -5.78941,6.581099 l -1.84424,1.19861 2.41775,13.83021 c 1.32976,7.606608 2.42217,14.092708 2.42757,14.413538 0.009,0.54397 -0.73245,0.58333 -10.99016,0.58333 -10.870958,0 -11.000001,-0.008 -11.000001,-0.68405 z"
       id="path170" />
  </g>
</svg>
