<?xml version="1.0" encoding="UTF-8" standalone="no"?>
<!-- Created with Inkscape (http://www.inkscape.org/) -->

<svg
   version="1.1"
   id="svg2"
   width="132.33333"
   height="165.33333"
   viewBox="0 0 132.33333 165.33333"
   sodipodi:docname="escudo-con-ranura-llave-negro.svg"
   xmlns:inkscape="http://www.inkscape.org/namespaces/inkscape"
   xmlns:sodipodi="http://sodipodi.sourceforge.net/DTD/sodipodi-0.dtd"
   xmlns="http://www.w3.org/2000/svg"
   xmlns:svg="http://www.w3.org/2000/svg">
  <defs
     id="defs6" />
  <sodipodi:namedview
     id="namedview4"
     pagecolor="#ffffff"
     bordercolor="#000000"
     borderopacity="0.25"
     inkscape:showpageshadow="2"
     inkscape:pageopacity="0.0"
     inkscape:pagecheckerboard="0"
     inkscape:deskcolor="#d1d1d1"
     showgrid="false" />
  <g
     inkscape:groupmode="layer"
     inkscape:label="Image"
     id="g8">
    <path
       style="fill:#cbb32b;fill-opacity:1;stroke-width:0.333333"
       d="M 60.166666,163.93025 C 41.36448,157.64479 25.494876,144.2912 14.141822,125.20232 7.3638035,113.80585 3.4570655,102.93577 1.2896975,89.442666 0.56079951,84.904856 0.53675251,83.956426 0.41881751,55.09414 L 0.29753351,25.412279 33.288061,13.04191 66.278584,0.67153893 99.305956,13.056643 132.33333,25.441746 V 51.95891 c 0,15.769987 -0.14419,28.334206 -0.35576,31.000466 -1.33483,16.82146 -6.52224,31.724964 -16.12124,46.316624 -9.98342,15.17602 -22.874556,26.30065 -37.650666,32.49129 -4.43612,1.85857 -10.64675,3.84329 -12.01072,3.83824 -0.56555,-0.002 -3.27828,-0.75597 -6.028278,-1.67528 z m 10.625678,-14.18777 c 22.02642,-8.69122 40.061626,-30.74173 45.667896,-55.835244 1.88096,-8.41916 1.95298,-9.61226 2.11409,-35.020909 0.14328,-22.596583 0.12444,-23.569576 -0.46248,-23.88118 -1.1352,-0.60268 -51.324966,-19.395793 -51.804006,-19.397545 -0.26098,-9.67e-4 -12.146411,4.386545 -26.412071,9.75 l -25.937557,9.751735 0.130332,24 c 0.123677,22.774729 0.167847,24.235009 0.865178,28.603289 1.433622,8.9806 3.669319,16.108404 7.547691,24.063374 8.756639,17.96085 23.156663,31.7484 39.869717,38.17396 3.95386,1.52012 4.04884,1.51778 8.42121,-0.20748 z M 55.333333,107.59195 c 0,-0.37622 1.05,-6.679 2.333333,-14.006154 1.283334,-7.32716 2.333333,-13.530086 2.333333,-13.784276 0,-0.254194 -0.639603,-0.837 -1.421339,-1.29513 C 56.43552,77.250426 53.76554,74.22541 52.56715,71.695513 51.543573,69.534653 51.5,69.272547 51.5,65.276003 c 0,-3.903583 0.05984,-4.288606 0.947786,-6.097946 2.984547,-6.081533 9.442468,-9.575247 15.960418,-8.634537 1.41619,0.20439 3.44119,0.77954 4.5,1.27811 2.68964,1.266484 5.81647,4.46518 7.1809,7.345947 1.02827,2.17102 1.07756,2.458073 1.07756,6.275093 0,3.799373 -0.0529,4.111677 -1.05484,6.226537 -1.25861,2.65665 -3.27122,4.944479 -5.78941,6.581099 l -1.84424,1.19861 2.41775,13.83021 c 1.32976,7.606614 2.42217,14.092714 2.42757,14.413544 0.009,0.54397 -0.73245,0.58333 -10.99016,0.58333 -10.870958,0 -11.000001,-0.008 -11.000001,-0.68405 z"
       id="path170" />
  </g>
</svg>
