<?xml version="1.0" encoding="UTF-8" standalone="no"?>
<!-- Created with Inkscape (http://www.inkscape.org/) -->

<svg
   version="1.1"
   id="svg2"
   width="130.66667"
   height="179.33333"
   viewBox="0 0 130.66667 179.33333"
   sodipodi:docname="flecha-circular-celeste.svg"
   inkscape:export-filename="flecha-circular-celeste.png"
   inkscape:export-xdpi="96"
   inkscape:export-ydpi="96"
   inkscape:version="1.2.1 (9c6d41e410, 2022-07-14)"
   xmlns:inkscape="http://www.inkscape.org/namespaces/inkscape"
   xmlns:sodipodi="http://sodipodi.sourceforge.net/DTD/sodipodi-0.dtd"
   xmlns="http://www.w3.org/2000/svg"
   xmlns:svg="http://www.w3.org/2000/svg">
  <defs
     id="defs6" />
  <sodipodi:namedview
     id="namedview4"
     pagecolor="#ffffff"
     bordercolor="#000000"
     borderopacity="0.25"
     inkscape:showpageshadow="2"
     inkscape:pageopacity="0.0"
     inkscape:pagecheckerboard="0"
     inkscape:deskcolor="#d1d1d1"
     showgrid="false"
     inkscape:zoom="3.3002698"
     inkscape:cx="40.602741"
     inkscape:cy="94.840731"
     inkscape:window-width="1920"
     inkscape:window-height="1017"
     inkscape:window-x="-8"
     inkscape:window-y="-8"
     inkscape:window-maximized="1"
     inkscape:current-layer="g8" />
  <g
     inkscape:groupmode="layer"
     inkscape:label="Image"
     id="g8">
    <path
       style="fill:#0a0a0a;fill-opacity:1;stroke-width:0.330338"
       d="m 48.108807,163.54164 -15.216554,-15.50443 15.299168,-15.5859 15.299167,-15.5859 4.498594,4.5829 4.498585,4.58289 -7.279983,7.42193 c -4.003996,4.08205 -7.279985,7.5569 -7.279985,7.72187 v 0.29996 l 5.823265,-0.21487 5.823264,-0.21489 2.931604,-0.51297 c 8.385955,-1.46736 15.385796,-4.59229 22.029547,-9.83463 l 2.830158,-2.23317 3.272853,-3.47336 3.27286,-3.47338 2.03781,-3.03909 c 1.12079,-1.6715 2.69601,-4.36913 3.50048,-5.99473 l 1.46268,-2.95562 1.16058,-3.53478 1.16058,-3.53478 0.65731,-3.916912 0.65731,-3.916936 v -5.101726 -5.101723 l -0.63615,-3.790859 -0.63616,-3.790855 -0.84663,-2.730319 c -0.46566,-1.501676 -1.13158,-3.374115 -1.47984,-4.160974 l -0.63319,-1.430653 4.812,-4.917927 c 2.6466,-2.704859 4.90222,-4.917926 5.0125,-4.917926 0.36382,0 3.81041,7.776029 4.84001,10.919787 1.16996,3.572316 2.16525,8.30924 2.64451,12.586236 l 0.33628,3.000769 0.003,4.567431 0.003,4.567431 -0.50048,3.934751 c -1.80094,14.159265 -7.36247,25.805685 -17.42121,36.481865 l -3.11284,3.30391 -2.98324,2.45879 c -7.271554,5.99319 -14.964173,10.02013 -23.348351,12.22242 l -3.706836,0.97367 -3.772298,0.50378 -3.772159,0.50377 h -5.710724 -5.710724 v 0.24734 c 0,0.13604 3.275301,3.58651 7.278452,7.66771 l 7.278453,7.42035 -4.41016,4.50209 c -2.426252,2.47614 -4.487106,4.50209 -4.580334,4.50209 -0.09327,0 -7.016955,-6.977 -15.386062,-15.50443 z M 5.9116395,117.21141 4.2444339,113.72505 3.1217632,110.29297 C 1.7221603,106.01429 0.79111815,101.37252 0.29330586,96.191496 L -0.09112869,92.190467 0.10872496,87.189185 0.30857861,82.187903 0.8172728,79.020425 c 0.2797816,-1.742113 0.9417296,-4.830162 1.4709966,-6.862329 l 0.9623043,-3.694847 1.4864736,-3.61448 C 8.9179855,54.682488 15.743574,45.639687 24.770852,38.307218 33.67381,31.075722 43.742979,26.675684 54.827484,25.173025 l 3.591243,-0.486844 5.645666,-0.0065 5.645667,-0.0065 v -0.247327 c 0,-0.136041 -3.275999,-3.587209 -7.279983,-7.669265 L 55.150092,9.3346359 59.648677,4.7517399 64.147262,0.16884385 79.446872,15.755191 94.74649,31.341539 79.448403,46.926326 64.150326,62.511114 59.729916,58.017132 c -2.43122,-2.471687 -4.4204,-4.64488 -4.4204,-4.82931 0,-0.184435 3.275714,-3.674912 7.279366,-7.756619 l 7.279365,-7.421289 -3.106482,0.0031 c -9.570455,0.0089 -17.399836,1.621745 -24.449329,5.036901 l -2.687613,1.302021 -3.53081,2.395667 -3.530808,2.395521 -4.092185,4.185942 -4.092189,4.185946 -2.076649,3.00077 -2.076649,3.000768 -1.755191,3.667606 c -1.997509,4.173954 -3.113762,7.487556 -4.148529,12.314941 l -0.719317,3.355743 0.0078,7.001795 0.0078,7.001801 0.710549,3.167474 c 0.390801,1.74211 1.257261,4.93742 1.925466,7.10071 l 1.214917,3.93323 -4.721918,4.81901 c -2.597054,2.65046 -4.8223688,4.81901 -4.9451429,4.81901 -0.122774,0 -0.9734681,-1.56887 -1.8904312,-3.48635 z"
       id="path174" />
    <path
       style="fill:#2ed9ad;fill-opacity:1;stroke-width:0.330338"
       d="m 51.972768,164.13488 -15.216544,-15.50442 15.299157,-15.58591 15.299167,-15.58588 4.498596,4.58289 4.498585,4.58289 -7.279985,7.42192 c -4.003994,4.08205 -7.279983,7.55689 -7.279983,7.72188 v 0.29996 l 5.823264,-0.21488 5.823265,-0.21488 2.931603,-0.51298 c 8.385955,-1.46737 15.385796,-4.5923 22.029548,-9.83463 l 2.830159,-2.23317 3.27286,-3.47335 3.27286,-3.47337 2.03781,-3.0391 c 1.12079,-1.6715 2.69601,-4.36913 3.50049,-5.99473 l 1.46266,-2.95562 1.16059,-3.53478 1.16058,-3.53477 0.65732,-3.916919 0.65731,-3.916941 v -5.101726 -5.101723 l -0.63616,-3.790859 -0.63616,-3.790855 -0.84664,-2.730319 c -0.46565,-1.501676 -1.13157,-3.374116 -1.47982,-4.160974 l -0.63321,-1.430653 4.81201,-4.917927 c 2.64659,-2.704859 4.90223,-4.917927 5.0125,-4.917927 0.36382,0 3.81041,7.77603 4.84001,10.919788 1.16996,3.572316 2.16524,8.309239 2.64452,12.586236 l 0.33626,3.000769 0.003,4.56743 0.003,4.567432 -0.50046,3.934756 c -1.80095,14.159262 -7.36249,25.805682 -17.42121,36.481852 l -3.11285,3.30391 -2.98324,2.45878 c -7.27156,5.9932 -14.964181,10.02014 -23.348359,12.22242 l -3.706837,0.97369 -3.772297,0.50377 -3.772159,0.50376 H 67.503254 61.79253 v 0.24735 c 0,0.13605 3.275301,3.58651 7.278451,7.66771 l 7.278452,7.42036 -4.410159,4.50208 c -2.426252,2.47614 -4.487107,4.50208 -4.580324,4.50208 -0.09327,0 -7.016964,-6.977 -15.386071,-15.50442 z M 9.7756048,117.80467 8.1083992,114.31831 6.9857285,110.88622 C 5.5861256,106.60754 4.6550835,101.96577 4.1572712,96.784744 L 3.7728366,92.783715 3.9726903,87.782433 4.1725439,82.781151 4.6812381,79.613673 C 4.9610197,77.87156 5.6229677,74.783511 6.1522347,72.751344 L 7.114539,69.056497 8.6010126,65.442017 C 12.781952,55.275735 19.607536,46.232935 28.63482,38.900466 37.537781,31.66897 47.60694,27.268932 58.691456,25.766272 l 3.591232,-0.486843 5.645667,-0.0065 5.645667,-0.0065 v -0.247345 c 0,-0.13604 -3.275999,-3.587208 -7.279985,-7.669265 L 59.014054,9.9278664 63.512638,5.3449711 68.011223,0.76207443 83.310832,16.348422 98.610451,31.93477 83.312364,47.519557 68.014286,63.104344 63.593877,58.610363 c -2.431221,-2.471687 -4.420399,-4.644881 -4.420399,-4.829311 0,-0.184435 3.275713,-3.674912 7.279374,-7.756618 l 7.279356,-7.421289 -3.106471,0.0029 c -9.570456,0.0089 -17.399847,1.621747 -24.449341,5.036902 l -2.687602,1.302021 -3.530819,2.395667 -3.53081,2.39552 -4.092175,4.185943 -4.092195,4.185946 -2.076643,3.000769 -2.076654,3.000769 -1.755193,3.667606 c -1.997506,4.173954 -3.113757,7.487556 -4.148524,12.314941 l -0.719317,3.355742 0.0078,7.001795 0.0078,7.001802 0.710548,3.167472 c 0.390799,1.7421 1.257256,4.93743 1.925467,7.10071 l 1.214918,3.93323 -4.721917,4.81901 c -2.597056,2.65045 -4.822373,4.81901 -4.945146,4.81901 -0.122775,0 -0.973469,-1.56886 -1.8904325,-3.48635 z"
       id="path174-5" />
  </g>
</svg>
