<?xml version="1.0" encoding="UTF-8" standalone="no"?>
<!-- Created with Inkscape (http://www.inkscape.org/) -->

<svg
   version="1.1"
   id="svg2"
   width="130.66667"
   height="179.33333"
   viewBox="0 0 130.66667 179.33333"
   sodipodi:docname="Recurso 1.png"
   inkscape:export-filename="flecha-circular.svg"
   inkscape:export-xdpi="96"
   inkscape:export-ydpi="96"
   xmlns:inkscape="http://www.inkscape.org/namespaces/inkscape"
   xmlns:sodipodi="http://sodipodi.sourceforge.net/DTD/sodipodi-0.dtd"
   xmlns="http://www.w3.org/2000/svg"
   xmlns:svg="http://www.w3.org/2000/svg">
  <defs
     id="defs6" />
  <sodipodi:namedview
     id="namedview4"
     pagecolor="#ffffff"
     bordercolor="#000000"
     borderopacity="0.25"
     inkscape:showpageshadow="2"
     inkscape:pageopacity="0.0"
     inkscape:pagecheckerboard="0"
     inkscape:deskcolor="#d1d1d1"
     showgrid="false" />
  <g
     inkscape:groupmode="layer"
     inkscape:label="Image"
     id="g8">
    <path
       style="fill:#f4f4f4;stroke-width:0.333333"
       d="m 48.999555,164.99935 -15.49776,-15.50045 15.5819,-15.58191 15.5819,-15.5819 4.58173,4.58172 4.58172,4.58172 -7.41452,7.42002 c -4.07799,4.08101 -7.41452,7.55496 -7.41452,7.7199 v 0.29988 l 5.93088,-0.21482 5.93088,-0.21483 2.98578,-0.51284 c 8.54093,-1.46699 15.67013,-4.59112 22.43666,-9.83211 l 2.88246,-2.2326 3.333335,-3.47247 3.33334,-3.47248 2.07547,-3.03832 c 1.14151,-1.67107 2.74584,-4.36801 3.56518,-5.99319 l 1.4897,-2.95487 1.18203,-3.53387 1.18203,-3.53387 0.66946,-3.91591 0.66946,-3.915933 v -5.100418 -5.100416 l -0.64791,-3.789887 -0.64792,-3.789883 -0.86228,-2.72962 c -0.47426,-1.50129 -1.15249,-3.37325 -1.50718,-4.159907 l -0.6449,-1.430286 4.90093,-4.916667 c 2.69551,-2.704166 4.99282,-4.916666 5.10514,-4.916666 0.37054,0 3.88082,7.774036 4.92945,10.916989 1.19158,3.5714 2.20526,8.30711 2.69339,12.58301 l 0.34248,3 0.003,4.56626 0.003,4.566261 -0.50972,3.933743 c -1.83423,14.15563 -7.49854,25.79907 -17.74316,36.47251 l -3.17037,3.30307 -3.03837,2.45815 c -7.405935,5.99166 -15.240715,10.01757 -23.779835,12.21929 l -3.77534,0.97343 -3.84201,0.50364 -3.84187,0.50364 h -5.81626 -5.81626 v 0.24728 c 0,0.13601 3.33583,3.58559 7.41296,7.66574 l 7.41296,7.41846 -4.49166,4.50093 c -2.47109,2.47551 -4.57003,4.50093 -4.66498,4.50093 -0.095,0 -7.14663,-6.97521 -15.6704,-15.50045 z M 6.0225723,118.681 l -1.698016,-3.48547 -1.143418,-3.4312 C 1.7556703,107.48674 0.80742231,102.84616 0.30041031,97.66647 l -0.391539,-4.000004 0.203547,-5 0.203547,-5 0.518095,-3.166666 C 1.1190123,78.758133 1.7931933,75.670876 2.3322413,73.63923 l 0.980088,-3.6939 1.513944,-3.613554 C 9.0844763,56.1681 16.036203,47.127617 25.230308,39.797027 34.297795,32.567385 44.553045,28.168475 55.842395,26.666201 l 3.65761,-0.486719 5.75,-0.0065 5.75,-0.0065 v -0.247281 c 0,-0.136005 -3.33654,-3.586289 -7.41452,-7.667299 l -7.41452,-7.420031 4.58172,-4.5817214 4.58172,-4.5817214 15.58235,15.5823528 15.58236,15.582353 -15.5808,15.580793 -15.58079,15.580793 -4.5021,-4.49283 c -2.47615,-2.471053 -4.50209,-4.64369 -4.50209,-4.828073 0,-0.184387 3.33625,-3.67397 7.41389,-7.75463 l 7.41389,-7.419387 -3.16389,0.003 c -9.74732,0.0088 -17.72139,1.62133 -24.90116,5.03561 l -2.73728,1.301687 -3.59606,2.395053 -3.59606,2.394907 -4.167809,4.18487 -4.167813,4.184873 -2.115027,3 -2.115026,3 -1.787627,3.666666 c -2.034424,4.172884 -3.171305,7.485637 -4.225195,12.311784 l -0.73261,3.354883 0.008,7 0.008,7.000007 0.72368,3.16666 c 0.398024,1.74166 1.280496,4.93616 1.961049,7.09889 l 1.23737,3.93222 -4.80918,4.81778 c -2.645049,2.64977 -4.9114881,4.81777 -5.0365311,4.81777 -0.125043,0 -0.991458,-1.56846 -1.925367,-3.48546 z"
       id="path174" />
  </g>
</svg>
