<svg xmlns="http://www.w3.org/2000/svg" xmlns:xlink="http://www.w3.org/1999/xlink" width="500" zoomAndPan="magnify" viewBox="0 0 375 374.999991" height="500" preserveAspectRatio="xMidYMid meet" version="1.2"><g id="871bf073bc"><path style=" stroke:none;fill-rule:nonzero;fill:#cbb32b;fill-opacity:1;" d="M 372.273438 366.671875 C 372.191406 366.644531 372.117188 366.625 372.035156 366.605469 C 371.945312 366.582031 371.863281 366.5625 371.773438 366.542969 C 371.738281 366.535156 371.710938 366.527344 371.675781 366.515625 L 371.675781 176.28125 C 371.746094 176.273438 371.8125 176.265625 371.882812 176.246094 C 372.0625 176.210938 372.234375 176.148438 372.40625 176.082031 C 372.46875 176.054688 372.535156 176.046875 372.585938 176.019531 C 372.640625 176.003906 372.6875 175.976562 372.742188 175.949219 C 372.757812 175.9375 372.769531 175.9375 372.785156 175.929688 C 372.839844 175.902344 372.886719 175.859375 372.941406 175.832031 C 372.984375 175.804688 373.039062 175.777344 373.085938 175.75 C 373.140625 175.714844 373.203125 175.6875 373.257812 175.648438 C 373.265625 175.640625 373.285156 175.640625 373.292969 175.632812 C 373.328125 175.613281 373.347656 175.578125 373.382812 175.558594 C 373.472656 175.488281 373.5625 175.414062 373.644531 175.332031 C 373.71875 175.269531 373.789062 175.214844 373.851562 175.152344 C 373.898438 175.109375 373.933594 175.0625 373.980469 175.015625 C 374.050781 174.945312 374.105469 174.855469 374.167969 174.78125 C 374.230469 174.703125 374.296875 174.628906 374.351562 174.546875 C 374.386719 174.492188 374.414062 174.449219 374.441406 174.394531 C 374.484375 174.3125 374.519531 174.230469 374.566406 174.148438 C 374.621094 174.050781 374.675781 173.953125 374.710938 173.851562 C 374.730469 173.808594 374.746094 173.761719 374.757812 173.714844 C 374.792969 173.625 374.808594 173.527344 374.835938 173.4375 C 374.863281 173.328125 374.902344 173.21875 374.929688 173.101562 C 374.9375 173.066406 374.9375 173.03125 374.945312 172.992188 C 374.964844 172.875 374.972656 172.75 374.980469 172.632812 C 374.992188 172.542969 375.007812 172.460938 375.007812 172.371094 C 375.007812 172.351562 375 172.335938 375 172.316406 C 375 172.289062 374.992188 172.261719 374.992188 172.234375 C 374.992188 172.125 374.972656 172.019531 374.964844 171.910156 C 374.953125 171.800781 374.945312 171.683594 374.917969 171.574219 C 374.910156 171.53125 374.902344 171.492188 374.890625 171.457031 C 374.875 171.367188 374.835938 171.277344 374.808594 171.1875 C 374.773438 171.078125 374.746094 170.96875 374.703125 170.871094 C 374.675781 170.808594 374.648438 170.753906 374.621094 170.691406 C 374.601562 170.652344 374.601562 170.617188 374.585938 170.589844 C 374.566406 170.546875 374.539062 170.519531 374.511719 170.472656 C 374.457031 170.382812 374.402344 170.292969 374.351562 170.203125 C 374.324219 170.167969 374.3125 170.121094 374.285156 170.085938 C 374.277344 170.066406 374.257812 170.058594 374.242188 170.039062 C 374.207031 169.984375 374.160156 169.929688 374.113281 169.875 C 374.042969 169.785156 373.96875 169.714844 373.890625 169.632812 C 373.871094 169.613281 373.851562 169.585938 373.824219 169.570312 C 373.796875 169.542969 373.769531 169.507812 373.734375 169.46875 C 373.699219 169.433594 373.664062 169.40625 373.625 169.378906 C 373.546875 169.308594 373.457031 169.246094 373.363281 169.179688 C 373.292969 169.128906 373.21875 169.0625 373.140625 169.019531 C 373.121094 169 373.09375 168.992188 373.074219 168.984375 C 372.976562 168.917969 372.867188 168.863281 372.757812 168.8125 C 372.667969 168.765625 372.578125 168.71875 372.488281 168.683594 C 372.46875 168.675781 372.453125 168.667969 372.433594 168.65625 C 372.324219 168.621094 372.21875 168.585938 372.109375 168.558594 C 372.019531 168.53125 371.929688 168.503906 371.828125 168.484375 C 371.785156 168.476562 371.738281 168.457031 371.683594 168.449219 L 371.683594 -3.960938 C 371.71875 -3.96875 371.746094 -3.980469 371.785156 -3.988281 C 371.875 -4.003906 371.964844 -4.03125 372.054688 -4.058594 C 372.191406 -4.097656 372.316406 -4.132812 372.445312 -4.175781 C 372.542969 -4.214844 372.632812 -4.269531 372.734375 -4.3125 C 372.839844 -4.367188 372.949219 -4.414062 373.046875 -4.476562 C 373.15625 -4.539062 373.257812 -4.621094 373.363281 -4.691406 C 373.445312 -4.746094 373.527344 -4.800781 373.601562 -4.863281 C 373.707031 -4.953125 373.796875 -5.054688 373.898438 -5.152344 C 373.960938 -5.214844 374.023438 -5.28125 374.085938 -5.351562 C 374.167969 -5.453125 374.242188 -5.558594 374.3125 -5.667969 C 374.375 -5.757812 374.441406 -5.839844 374.496094 -5.9375 C 374.546875 -6.039062 374.59375 -6.136719 374.640625 -6.238281 C 374.691406 -6.355469 374.746094 -6.472656 374.792969 -6.589844 C 374.800781 -6.617188 374.820312 -6.644531 374.828125 -6.679688 C 374.847656 -6.742188 374.847656 -6.804688 374.863281 -6.859375 C 374.910156 -7.023438 374.945312 -7.1875 374.964844 -7.359375 C 374.972656 -7.449219 374.980469 -7.539062 374.992188 -7.628906 C 375 -7.71875 375.019531 -7.800781 375.019531 -7.890625 C 375.019531 -7.960938 375 -8.027344 375 -8.089844 C 374.992188 -8.207031 374.980469 -8.332031 374.964844 -8.449219 C 374.945312 -8.59375 374.917969 -8.730469 374.882812 -8.867188 C 374.855469 -8.984375 374.820312 -9.09375 374.773438 -9.210938 C 374.730469 -9.335938 374.683594 -9.460938 374.621094 -9.589844 C 374.566406 -9.707031 374.503906 -9.816406 374.441406 -9.921875 C 374.375 -10.03125 374.3125 -10.132812 374.242188 -10.230469 C 374.160156 -10.347656 374.070312 -10.449219 373.980469 -10.554688 C 373.90625 -10.636719 373.824219 -10.726562 373.746094 -10.800781 C 373.644531 -10.898438 373.535156 -10.980469 373.417969 -11.0625 C 373.320312 -11.132812 373.21875 -11.207031 373.121094 -11.269531 C 373.011719 -11.332031 372.894531 -11.394531 372.777344 -11.449219 C 372.652344 -11.511719 372.523438 -11.566406 372.398438 -11.613281 C 372.34375 -11.628906 372.300781 -11.667969 372.234375 -11.683594 C 372.171875 -11.703125 372.109375 -11.710938 372.046875 -11.722656 C 371.902344 -11.757812 371.757812 -11.785156 371.613281 -11.8125 C 371.496094 -11.828125 371.378906 -11.839844 371.25 -11.847656 C 371.167969 -11.855469 371.097656 -11.875 371.015625 -11.875 C 370.945312 -11.875 370.878906 -11.855469 370.816406 -11.855469 C 370.691406 -11.847656 370.574219 -11.839844 370.457031 -11.820312 C 370.3125 -11.800781 370.175781 -11.773438 370.039062 -11.738281 C 369.921875 -11.710938 369.8125 -11.675781 369.695312 -11.628906 C 369.570312 -11.585938 369.445312 -11.539062 369.316406 -11.476562 C 369.199219 -11.421875 369.089844 -11.359375 368.984375 -11.296875 C 368.875 -11.234375 368.777344 -11.171875 368.675781 -11.097656 C 368.558594 -11.015625 368.460938 -10.925781 368.351562 -10.828125 C 368.269531 -10.753906 368.179688 -10.671875 368.105469 -10.59375 C 368.007812 -10.492188 367.925781 -10.382812 367.835938 -10.265625 C 367.765625 -10.167969 367.691406 -10.066406 367.628906 -9.96875 C 367.554688 -9.859375 367.5 -9.742188 367.4375 -9.625 C 367.375 -9.5 367.320312 -9.382812 367.277344 -9.246094 C 367.257812 -9.191406 367.222656 -9.136719 367.203125 -9.082031 C 367.175781 -9.011719 367.175781 -8.9375 367.160156 -8.867188 C 367.132812 -8.75 367.105469 -8.632812 367.085938 -8.515625 C 367.066406 -8.378906 367.050781 -8.242188 367.039062 -8.105469 C 367.03125 -8.027344 367.015625 -7.945312 367.015625 -7.863281 C 367.015625 -7.816406 367.023438 -7.78125 367.023438 -7.746094 C 367.023438 -7.648438 367.039062 -7.546875 367.050781 -7.4375 C 367.066406 -7.304688 367.078125 -7.167969 367.105469 -7.042969 C 367.121094 -6.949219 367.160156 -6.851562 367.183594 -6.761719 C 367.222656 -6.636719 367.257812 -6.5 367.304688 -6.382812 C 367.339844 -6.28125 367.394531 -6.191406 367.4375 -6.09375 C 367.492188 -5.984375 367.539062 -5.875 367.601562 -5.777344 C 367.664062 -5.667969 367.746094 -5.570312 367.816406 -5.46875 C 367.882812 -5.386719 367.933594 -5.308594 368 -5.234375 C 368.089844 -5.136719 368.1875 -5.042969 368.289062 -4.953125 C 368.359375 -4.890625 368.421875 -4.820312 368.496094 -4.753906 C 368.59375 -4.675781 368.695312 -4.609375 368.800781 -4.546875 C 368.894531 -4.484375 368.992188 -4.421875 369.089844 -4.367188 C 369.117188 -4.347656 369.136719 -4.332031 369.164062 -4.320312 L 336.449219 97.964844 C 334.554688 97.703125 332.703125 98.8125 332.085938 100.703125 C 331.941406 101.152344 331.90625 101.605469 331.914062 102.054688 L 209.511719 127.558594 C 209.5 127.550781 209.5 127.542969 209.492188 127.523438 C 209.472656 127.46875 209.445312 127.425781 209.421875 127.371094 C 209.375 127.261719 209.3125 127.164062 209.257812 127.0625 C 209.222656 127 209.195312 126.945312 209.15625 126.882812 C 209.121094 126.835938 209.09375 126.785156 209.058594 126.738281 C 208.996094 126.65625 208.933594 126.574219 208.859375 126.496094 C 208.804688 126.429688 208.75 126.367188 208.699219 126.304688 C 208.652344 126.257812 208.625 126.214844 208.578125 126.167969 C 208.515625 126.113281 208.453125 126.0625 208.390625 126.007812 C 208.316406 125.941406 208.246094 125.878906 208.164062 125.824219 C 208.109375 125.78125 208.054688 125.734375 207.992188 125.691406 C 207.992188 125.691406 207.984375 125.691406 207.984375 125.679688 C 207.984375 125.679688 207.972656 125.671875 207.972656 125.671875 C 207.929688 125.644531 207.882812 125.628906 207.839844 125.601562 C 207.722656 125.527344 207.59375 125.464844 207.46875 125.410156 C 207.378906 125.363281 207.277344 125.320312 207.1875 125.285156 C 207.027344 125.21875 206.863281 125.183594 206.699219 125.140625 C 206.628906 125.121094 206.566406 125.101562 206.492188 125.085938 C 206.277344 125.046875 206.058594 125.03125 205.832031 125.03125 C 205.804688 125.03125 205.789062 125.023438 205.761719 125.023438 C 205.515625 125.023438 205.265625 125.046875 205.019531 125.101562 C 205.019531 125.101562 205.011719 125.101562 205.011719 125.101562 C 205.011719 125.101562 205.003906 125.101562 205.003906 125.101562 C 205.003906 125.101562 204.992188 125.101562 204.992188 125.101562 C 204.792969 125.148438 204.597656 125.210938 204.398438 125.292969 C 204.359375 125.3125 204.316406 125.3125 204.28125 125.328125 C 204.117188 125.390625 203.972656 125.480469 203.828125 125.574219 C 203.765625 125.609375 203.703125 125.636719 203.648438 125.671875 C 203.636719 125.679688 203.621094 125.691406 203.601562 125.699219 C 203.59375 125.707031 203.582031 125.707031 203.574219 125.71875 C 203.464844 125.789062 203.375 125.890625 203.269531 125.96875 C 203.222656 126.007812 203.167969 126.042969 203.125 126.085938 C 203.078125 126.125 203.03125 126.160156 202.988281 126.195312 C 202.980469 126.207031 202.96875 126.214844 202.960938 126.222656 C 202.871094 126.324219 202.789062 126.429688 202.707031 126.539062 C 202.636719 126.628906 202.554688 126.710938 202.480469 126.808594 C 202.480469 126.808594 202.480469 126.820312 202.472656 126.820312 C 202.472656 126.820312 202.464844 126.828125 202.464844 126.828125 C 202.328125 127.046875 202.21875 127.261719 202.121094 127.488281 C 202.121094 127.496094 202.109375 127.496094 202.109375 127.507812 C 202.085938 127.585938 202.066406 127.667969 202.039062 127.742188 C 201.992188 127.886719 201.941406 128.03125 201.902344 128.175781 C 201.894531 128.203125 201.886719 128.230469 201.886719 128.265625 C 201.867188 128.347656 201.875 128.425781 201.859375 128.5 C 201.859375 128.507812 201.859375 128.519531 201.859375 128.519531 C 201.839844 128.644531 201.820312 128.769531 201.820312 128.898438 C 201.820312 128.941406 201.8125 128.988281 201.8125 129.03125 C 201.8125 129.105469 201.832031 129.175781 201.839844 129.25 C 201.847656 129.386719 201.859375 129.53125 201.886719 129.664062 C 201.894531 129.710938 201.894531 129.753906 201.902344 129.800781 C 201.902344 129.820312 201.914062 129.835938 201.921875 129.855469 C 201.929688 129.890625 201.949219 129.925781 201.957031 129.964844 C 201.992188 130.097656 202.03125 130.234375 202.085938 130.371094 C 202.109375 130.433594 202.121094 130.496094 202.148438 130.558594 C 202.164062 130.597656 202.183594 130.621094 202.203125 130.660156 C 202.265625 130.792969 202.328125 130.910156 202.410156 131.039062 C 202.453125 131.109375 202.480469 131.183594 202.535156 131.246094 C 202.546875 131.265625 202.5625 131.28125 202.582031 131.300781 C 202.671875 131.425781 202.769531 131.535156 202.871094 131.652344 C 202.925781 131.714844 202.980469 131.789062 203.042969 131.84375 C 203.050781 131.851562 203.058594 131.859375 203.070312 131.871094 C 203.085938 131.886719 203.105469 131.914062 203.125 131.933594 L 158.058594 201.578125 L 89.644531 120.722656 C 90.871094 119.257812 90.910156 117.070312 89.632812 115.570312 C 88.214844 113.890625 85.6875 113.683594 83.996094 115.101562 C 82.308594 116.519531 82.109375 119.050781 83.527344 120.738281 C 84.800781 122.25 86.960938 122.574219 88.605469 121.597656 L 157.128906 202.582031 L 67.734375 264.953125 C 67.691406 264.910156 67.628906 264.863281 67.582031 264.816406 C 67.484375 264.726562 67.382812 264.636719 67.273438 264.566406 C 67.183594 264.492188 67.085938 264.4375 66.976562 264.375 C 66.867188 264.3125 66.769531 264.25 66.660156 264.195312 C 66.535156 264.132812 66.398438 264.085938 66.261719 264.03125 C 66.171875 263.996094 66.089844 263.960938 65.992188 263.933594 C 65.511719 263.796875 65.007812 263.742188 64.511719 263.789062 C 64.484375 263.789062 64.464844 263.796875 64.4375 263.796875 C 64.210938 263.824219 63.996094 263.871094 63.769531 263.933594 C 63.742188 263.941406 63.722656 263.941406 63.695312 263.949219 C 63.644531 263.96875 63.589844 263.996094 63.535156 264.023438 C 63.382812 264.078125 63.226562 264.140625 63.082031 264.210938 C 62.972656 264.265625 62.875 264.320312 62.777344 264.382812 C 62.710938 264.421875 62.648438 264.449219 62.59375 264.492188 C 62.550781 264.519531 62.511719 264.566406 62.46875 264.601562 C 62.351562 264.691406 62.234375 264.789062 62.125 264.890625 C 62.035156 264.972656 61.953125 265.0625 61.871094 265.152344 C 61.78125 265.25 61.710938 265.359375 61.628906 265.460938 C 61.554688 265.566406 61.476562 265.675781 61.410156 265.785156 C 61.347656 265.894531 61.304688 266 61.25 266.109375 C 61.195312 266.238281 61.140625 266.363281 61.09375 266.488281 C 61.058594 266.597656 61.03125 266.714844 61.003906 266.824219 C 60.96875 266.960938 60.941406 267.09375 60.921875 267.238281 C 60.90625 267.347656 60.90625 267.464844 60.898438 267.582031 C 60.886719 267.726562 60.886719 267.871094 60.898438 268.023438 C 60.90625 268.132812 60.914062 268.242188 60.933594 268.359375 C 60.949219 268.503906 60.976562 268.648438 61.023438 268.792969 C 61.042969 268.847656 61.042969 268.902344 61.058594 268.964844 C 61.085938 269.035156 61.121094 269.101562 61.148438 269.171875 C 61.1875 269.28125 61.230469 269.378906 61.277344 269.488281 C 61.339844 269.632812 61.421875 269.769531 61.5 269.894531 C 61.539062 269.949219 61.554688 270.011719 61.601562 270.066406 C 61.621094 270.09375 61.636719 270.113281 61.65625 270.128906 C 61.78125 270.300781 61.917969 270.457031 62.0625 270.601562 C 62.089844 270.628906 62.117188 270.664062 62.144531 270.679688 C 62.511719 271.023438 62.9375 271.296875 63.398438 271.476562 C 63.472656 271.503906 63.550781 271.519531 63.632812 271.546875 C 63.777344 271.59375 63.933594 271.648438 64.085938 271.675781 C 64.203125 271.703125 64.320312 271.710938 64.4375 271.71875 C 64.554688 271.730469 64.671875 271.746094 64.800781 271.746094 C 64.933594 271.746094 65.070312 271.738281 65.207031 271.730469 C 65.269531 271.71875 65.332031 271.730469 65.40625 271.71875 L 82.585938 327.082031 C 81.46875 327.652344 80.628906 328.734375 80.4375 330.089844 C 80.375 330.605469 80.410156 331.113281 80.527344 331.582031 L -3.988281 368.269531 C -5.042969 366.660156 -7.078125 366.019531 -8.921875 366.789062 C -10.960938 367.699219 -11.855469 369.984375 -11 372.046875 C -10.085938 374.085938 -7.800781 374.980469 -5.742188 374.125 C -3.914062 373.3125 -3.003906 371.386719 -3.453125 369.507812 L 81.070312 332.820312 C 81.675781 333.75 82.652344 334.425781 83.851562 334.597656 C 85.820312 334.851562 87.636719 333.675781 88.214844 331.851562 L 367.039062 370.582031 C 367.039062 370.628906 367.050781 370.671875 367.058594 370.71875 C 367.066406 370.824219 367.078125 370.945312 367.09375 371.050781 C 367.105469 371.125 367.113281 371.207031 367.132812 371.277344 C 367.140625 371.3125 367.148438 371.339844 367.160156 371.378906 C 367.160156 371.386719 367.160156 371.386719 367.160156 371.394531 C 367.175781 371.457031 367.175781 371.523438 367.195312 371.574219 C 367.210938 371.628906 367.238281 371.683594 367.257812 371.738281 C 367.277344 371.800781 367.292969 371.863281 367.320312 371.929688 C 367.347656 371.992188 367.375 372.035156 367.402344 372.101562 C 367.457031 372.21875 367.511719 372.335938 367.574219 372.441406 C 367.59375 372.46875 367.601562 372.507812 367.621094 372.535156 C 367.664062 372.605469 367.71875 372.667969 367.765625 372.730469 C 367.835938 372.839844 367.910156 372.949219 368 373.046875 C 368.007812 373.058594 368.015625 373.074219 368.027344 373.085938 C 368.105469 373.183594 368.207031 373.265625 368.296875 373.347656 C 368.367188 373.410156 368.421875 373.480469 368.496094 373.535156 C 368.511719 373.554688 368.523438 373.5625 368.539062 373.582031 C 368.539062 373.582031 368.550781 373.582031 368.550781 373.589844 C 368.75 373.746094 368.957031 373.878906 369.183594 373.988281 C 369.253906 374.023438 369.335938 374.050781 369.40625 374.085938 C 369.535156 374.140625 369.660156 374.203125 369.796875 374.25 C 369.816406 374.25 369.824219 374.257812 369.839844 374.257812 C 369.851562 374.257812 369.859375 374.257812 369.867188 374.269531 C 369.976562 374.304688 370.085938 374.324219 370.195312 374.339844 C 370.285156 374.359375 370.375 374.394531 370.464844 374.402344 C 370.484375 374.402344 370.5 374.402344 370.519531 374.402344 C 370.554688 374.402344 370.589844 374.414062 370.617188 374.414062 C 370.761719 374.429688 370.90625 374.421875 371.050781 374.421875 C 371.132812 374.421875 371.207031 374.429688 371.285156 374.421875 C 371.324219 374.421875 371.367188 374.414062 371.40625 374.414062 C 371.539062 374.394531 371.667969 374.367188 371.800781 374.339844 C 371.820312 374.339844 371.839844 374.332031 371.847656 374.332031 C 371.917969 374.3125 371.992188 374.3125 372.054688 374.296875 C 372.082031 374.285156 372.101562 374.285156 372.128906 374.285156 C 372.144531 374.277344 372.164062 374.269531 372.191406 374.257812 C 372.273438 374.230469 372.351562 374.1875 372.445312 374.160156 C 372.496094 374.140625 372.542969 374.125 372.597656 374.097656 C 372.660156 374.070312 372.734375 374.050781 372.796875 374.015625 C 372.957031 373.933594 373.113281 373.835938 373.257812 373.734375 C 373.320312 373.691406 373.390625 373.652344 373.457031 373.601562 C 373.5 373.5625 373.546875 373.535156 373.582031 373.5 C 373.589844 373.492188 373.589844 373.480469 373.601562 373.480469 C 373.671875 373.429688 373.726562 373.355469 373.789062 373.292969 C 373.871094 373.210938 373.953125 373.140625 374.023438 373.058594 C 374.050781 373.023438 374.085938 372.984375 374.113281 372.949219 C 374.125 372.941406 374.132812 372.929688 374.140625 372.914062 C 374.1875 372.859375 374.214844 372.785156 374.257812 372.730469 C 374.332031 372.625 374.414062 372.523438 374.476562 372.40625 C 374.496094 372.371094 374.511719 372.335938 374.53125 372.296875 C 374.574219 372.207031 374.621094 372.109375 374.65625 372.007812 C 374.703125 371.902344 374.746094 371.800781 374.785156 371.695312 C 374.792969 371.65625 374.800781 371.621094 374.820312 371.585938 C 374.855469 371.46875 374.882812 371.339844 374.902344 371.214844 C 374.917969 371.132812 374.945312 371.0625 374.953125 370.980469 C 374.953125 370.960938 374.953125 370.945312 374.953125 370.925781 C 374.953125 370.890625 374.964844 370.851562 374.964844 370.828125 C 374.980469 370.679688 374.972656 370.535156 374.972656 370.390625 C 374.972656 370.3125 374.980469 370.238281 374.972656 370.15625 C 374.972656 370.121094 374.964844 370.078125 374.964844 370.039062 C 374.945312 369.90625 374.917969 369.769531 374.890625 369.644531 C 374.890625 369.625 374.882812 369.605469 374.882812 369.597656 C 374.863281 369.523438 374.863281 369.460938 374.847656 369.390625 C 374.835938 369.363281 374.835938 369.34375 374.835938 369.316406 C 374.828125 369.289062 374.820312 369.273438 374.808594 369.253906 C 374.792969 369.199219 374.765625 369.15625 374.746094 369.101562 C 374.675781 368.910156 374.601562 368.722656 374.503906 368.539062 C 374.484375 368.503906 374.457031 368.46875 374.441406 368.433594 C 374.332031 368.25 374.214844 368.078125 374.085938 367.917969 C 374.050781 367.871094 374.007812 367.828125 373.960938 367.78125 C 373.871094 367.683594 373.789062 367.582031 373.691406 367.492188 C 373.644531 367.457031 373.601562 367.421875 373.554688 367.382812 C 373.527344 367.355469 373.5 367.328125 373.472656 367.304688 C 373.429688 367.265625 373.382812 367.25 373.335938 367.210938 C 373.265625 367.167969 373.203125 367.113281 373.128906 367.066406 C 373.066406 367.03125 373.011719 366.996094 372.949219 366.960938 C 372.867188 366.914062 372.785156 366.878906 372.707031 366.84375 C 372.632812 366.804688 372.550781 366.769531 372.480469 366.742188 C 372.40625 366.726562 372.34375 366.699219 372.273438 366.671875 Z M 326.710938 204.839844 C 326.65625 204.640625 326.566406 204.449219 326.484375 204.269531 L 368.160156 175.171875 C 368.160156 175.171875 368.171875 175.179688 368.171875 175.179688 C 368.195312 175.207031 368.234375 175.234375 368.269531 175.261719 C 368.277344 175.269531 368.289062 175.269531 368.289062 175.28125 C 368.367188 175.359375 368.460938 175.433594 368.550781 175.503906 C 368.613281 175.550781 368.667969 175.605469 368.722656 175.648438 C 368.777344 175.6875 368.839844 175.722656 368.894531 175.757812 C 368.984375 175.8125 369.074219 175.867188 369.164062 175.910156 C 369.226562 175.9375 369.28125 175.976562 369.34375 176.003906 C 369.425781 176.039062 369.515625 176.074219 369.597656 176.101562 C 369.679688 176.128906 369.761719 176.15625 369.839844 176.183594 C 369.90625 176.199219 369.96875 176.21875 370.039062 176.238281 C 370.128906 176.253906 370.222656 176.28125 370.3125 176.300781 L 370.3125 365.738281 L 324.625 209.574219 C 326.351562 208.722656 327.253906 206.738281 326.710938 204.839844 Z M 367.015625 172.035156 C 367.003906 172.097656 367.015625 172.152344 367.003906 172.214844 C 367.003906 172.261719 366.996094 172.308594 366.996094 172.359375 C 366.996094 172.425781 367.015625 172.480469 367.015625 172.53125 C 367.015625 172.550781 367.015625 172.558594 367.015625 172.578125 C 367.015625 172.625 367.015625 172.675781 367.015625 172.722656 C 367.023438 172.8125 367.039062 172.902344 367.058594 172.992188 C 367.078125 173.09375 367.085938 173.183594 367.113281 173.28125 C 367.121094 173.328125 367.132812 173.375 367.140625 173.417969 C 367.167969 173.519531 367.210938 173.617188 367.25 173.714844 C 367.285156 173.808594 367.3125 173.898438 367.347656 173.988281 C 367.355469 174.015625 367.367188 174.042969 367.375 174.058594 L 325.699219 203.167969 C 324.695312 202.164062 323.199219 201.714844 321.753906 202.128906 C 321.039062 202.335938 320.441406 202.734375 319.964844 203.242188 L 209.609375 130.695312 L 367.011719 172.007812 C 367.015625 172.019531 367.015625 172.027344 367.015625 172.035156 Z M 208.570312 131.851562 C 208.617188 131.804688 208.660156 131.769531 208.707031 131.726562 L 319.222656 204.378906 C 318.859375 205.210938 318.761719 206.160156 319.03125 207.089844 C 319.582031 208.984375 321.425781 210.152344 323.324219 209.933594 L 369.144531 366.5625 L 208.570312 131.851562 C 208.5625 131.851562 208.5625 131.851562 208.570312 131.851562 Z M 370.3125 -3.554688 L 370.3125 168.421875 C 370.285156 168.421875 370.265625 168.441406 370.238281 168.441406 C 370.148438 168.457031 370.066406 168.484375 369.976562 168.503906 C 369.933594 168.511719 369.886719 168.523438 369.839844 168.53125 L 338.238281 105.101562 C 338.898438 104.621094 339.414062 103.945312 339.683594 103.105469 C 340.273438 101.214844 339.421875 99.230469 337.722656 98.34375 Z M 332.1875 103.359375 C 332.609375 104.433594 333.476562 105.316406 334.671875 105.707031 C 335.476562 105.960938 336.289062 105.941406 337.039062 105.722656 L 368.640625 169.144531 C 368.605469 169.171875 368.578125 169.199219 368.550781 169.226562 C 368.46875 169.289062 368.394531 169.351562 368.324219 169.417969 C 368.261719 169.480469 368.1875 169.535156 368.125 169.597656 C 368.097656 169.632812 368.070312 169.667969 368.035156 169.695312 C 367.972656 169.769531 367.90625 169.839844 367.855469 169.921875 C 367.800781 169.996094 367.738281 170.066406 367.683594 170.140625 C 367.664062 170.164062 367.644531 170.203125 367.628906 170.230469 C 367.566406 170.320312 367.519531 170.417969 367.464844 170.519531 C 367.429688 170.582031 367.394531 170.644531 367.367188 170.707031 L 209.773438 129.339844 C 209.78125 129.25 209.78125 129.160156 209.78125 129.070312 C 209.78125 129.042969 209.78125 129.015625 209.78125 128.988281 C 209.78125 128.960938 209.789062 128.933594 209.789062 128.898438 C 209.789062 128.878906 209.789062 128.859375 209.789062 128.84375 Z M 204.214844 132.664062 C 204.234375 132.671875 204.242188 132.671875 204.261719 132.683594 C 204.324219 132.710938 204.386719 132.71875 204.449219 132.746094 C 204.613281 132.808594 204.785156 132.863281 204.949219 132.898438 C 205.054688 132.925781 205.164062 132.925781 205.265625 132.945312 C 205.398438 132.960938 205.535156 132.980469 205.671875 132.980469 C 205.777344 132.980469 205.886719 132.972656 206.003906 132.972656 C 206.058594 132.972656 206.105469 132.972656 206.160156 132.960938 C 206.195312 132.960938 206.222656 132.960938 206.257812 132.960938 C 206.320312 132.953125 206.382812 132.9375 206.4375 132.925781 C 206.492188 132.917969 206.539062 132.917969 206.59375 132.910156 C 206.644531 132.898438 206.699219 132.871094 206.753906 132.863281 C 206.871094 132.835938 206.980469 132.800781 207.089844 132.765625 C 207.207031 132.726562 207.324219 132.683594 207.433594 132.628906 C 207.433594 132.628906 207.433594 132.628906 207.441406 132.628906 L 367.925781 367.195312 L 158.992188 202.5625 Z M 84.917969 326.675781 C 84.558594 326.628906 84.203125 326.648438 83.851562 326.695312 L 66.667969 271.324219 C 66.777344 271.269531 66.878906 271.195312 66.984375 271.125 C 67.039062 271.085938 67.09375 271.070312 67.148438 271.035156 C 67.167969 271.023438 67.175781 271.007812 67.191406 270.988281 C 67.3125 270.898438 67.417969 270.808594 67.527344 270.707031 C 67.601562 270.644531 67.671875 270.582031 67.734375 270.519531 C 67.816406 270.429688 67.898438 270.328125 67.96875 270.238281 C 68.042969 270.148438 68.113281 270.066406 68.179688 269.976562 C 68.230469 269.886719 68.277344 269.796875 68.332031 269.707031 C 68.394531 269.597656 68.457031 269.488281 68.511719 269.371094 C 68.546875 269.28125 68.574219 269.191406 68.613281 269.101562 C 68.65625 268.972656 68.703125 268.847656 68.738281 268.722656 C 68.757812 268.628906 68.765625 268.539062 68.785156 268.449219 C 68.808594 268.3125 68.835938 268.179688 68.847656 268.035156 C 68.855469 267.953125 68.847656 267.863281 68.847656 267.78125 C 68.847656 267.628906 68.847656 267.484375 68.835938 267.339844 C 68.828125 267.25 68.808594 267.167969 68.792969 267.078125 C 68.765625 266.933594 68.746094 266.789062 68.703125 266.652344 C 68.691406 266.625 68.691406 266.605469 68.683594 266.578125 C 68.664062 266.515625 68.628906 266.453125 68.601562 266.390625 C 68.566406 266.28125 68.53125 266.171875 68.484375 266.066406 L 158.078125 203.558594 L 367.492188 368.550781 C 367.492188 368.550781 367.492188 368.558594 367.484375 368.558594 C 367.457031 368.613281 367.429688 368.675781 367.402344 368.730469 C 367.367188 368.8125 367.328125 368.894531 367.292969 368.984375 C 367.265625 369.066406 367.222656 369.136719 367.195312 369.21875 C 367.195312 369.226562 367.183594 369.234375 367.183594 369.234375 L 88.359375 330.507812 C 88.289062 328.589844 86.886719 326.957031 84.917969 326.675781 Z M 84.917969 326.675781 "/></g></svg>