<?xml version="1.0" encoding="UTF-8" standalone="no"?>
<!-- Created with Inkscape (http://www.inkscape.org/) -->

<svg
   version="1.1"
   id="svg2"
   width="108.33333"
   height="153"
   viewBox="0 0 108.33333 153"
   sodipodi:docname="huella-pie.svg"
   xmlns:inkscape="http://www.inkscape.org/namespaces/inkscape"
   xmlns:sodipodi="http://sodipodi.sourceforge.net/DTD/sodipodi-0.dtd"
   xmlns="http://www.w3.org/2000/svg"
   xmlns:svg="http://www.w3.org/2000/svg">
  <defs
     id="defs6" />
  <sodipodi:namedview
     id="namedview4"
     pagecolor="#ffffff"
     bordercolor="#000000"
     borderopacity="0.25"
     inkscape:showpageshadow="2"
     inkscape:pageopacity="0.0"
     inkscape:pagecheckerboard="0"
     inkscape:deskcolor="#d1d1d1"
     showgrid="false" />
  <g
     inkscape:groupmode="layer"
     inkscape:label="Image"
     id="g8">
    <path
       style="fill:#cbb32b;fill-opacity:1;stroke:none;stroke-width:0.333333"
       d="M 69.080872,0.40648491 C 64.604539,1.4945282 64.747539,5.9099286 64.747539,9.5620949 c 0,5.6438661 -0.743,15.1079661 8,13.2032001 4.666,-1.0166 4.666666,-5.7383 4.666666,-9.536534 0,-5.6774321 0.307334,-14.9224961 -8.333333,-12.82227609 m 26.333333,-0.02186 c -6.985,1.31776999 -8,7.95083699 -8,13.84413609 0,8.0533 1.559667,18.0246 12.333333,16.2248 7.503012,-1.2534 8.000012,-8.150566 8.000012,-14.2248 0,-2.880966 0.44933,-6.199666 -0.309,-8.9999991 -1.41668,-5.2291573 -6.95801,-7.79993699 -12.024345,-6.84413699 M 46.74754,4.0718616 c -8.374,1.922267 -7.143667,21.1925334 3.333333,18.6458334 7.478,-1.817734 6.333,-20.8647464 -3.333333,-18.6458334 M 23.747541,11.738528 c -8.3847,1.935 -6.922566,21.138633 3.333333,18.645833 7.882999,-1.916066 6.481666,-20.9108661 -3.333333,-18.645833 m 28.999998,18.965033 c -5.700999,0.748534 -11.032999,1.534567 -16.333332,3.961534 -4.117999,1.885333 -8.081466,4.397666 -11.333332,7.568666 -4.357867,4.249334 -8.321934,8.748 -10.896868,14.328334 -6.814433,14.768333 -4.103133,33.15 -4.103133,48.999995 0,8.32433 -1.1701,17.599 1.1425,25.66666 4.126633,14.396 19.037734,23.017 33.524166,21.238 3.728,-0.458 7.383999,-1.60866 10.666666,-3.43466 9.488333,-5.27834 15.182666,-15.05334 15.653666,-25.80334 0.324667,-7.419 -1.359333,-15.68866 1.783667,-22.66666 3.642333,-8.086332 10.025333,-10.027329 16.562666,-14.966662 4.202666,-3.175 7.377,-7.254333 9.563666,-12.033333 7.176679,-15.684334 -1.075,-33.951 -16.563666,-40.5239 -8.411666,-3.569734 -20.690999,-3.513134 -29.666666,-2.334634 m -47.999998,1.3683 c -8.16532,1.884234 -5.18493598,14.142567 3,12.360234 7.902,-1.721 4.9567,-14.196434 -3,-12.360234 m 49.666665,11.2519 c 7.053333,-0.832 17.087666,-1.188333 23.666666,1.718334 9.753,4.309 13.641,16.030666 8.182333,25.186666 -3.080333,5.167 -8.174,6.759 -12.849,10.013 -5.117999,3.562334 -9.302333,8.657334 -11.896999,14.320337 -1.578667,3.444999 -2.680667,7.219652 -3.046333,10.999992 -1.114667,11.51833 3.169999,26.00333 -9.723334,32.54233 -1.723333,0.874 -3.740666,1.52667 -5.666666,1.733 -2.273,0.24367 -4.776,0.16967 -7,-0.354 -16.017032,-3.77167 -13.333332,-21.45267 -13.333332,-33.92133 0,-18.599995 -4.073833,-40.518662 11.333332,-54.275329 2.375667,-2.121333 5.125,-3.783 8,-5.130666 3.960333,-1.856667 8.061333,-2.328 12.333333,-2.832334 z"
       id="path170" />
  </g>
</svg>
