<?xml version="1.0" encoding="UTF-8" standalone="no"?>
<!-- Created with Inkscape (http://www.inkscape.org/) -->

<svg
   version="1.1"
   id="svg2"
   width="108.33333"
   height="153"
   viewBox="0 0 108.33333 153"
   sodipodi:docname="huella-pie-celeste.svg"
   inkscape:version="1.2.1 (9c6d41e410, 2022-07-14)"
   xmlns:inkscape="http://www.inkscape.org/namespaces/inkscape"
   xmlns:sodipodi="http://sodipodi.sourceforge.net/DTD/sodipodi-0.dtd"
   xmlns="http://www.w3.org/2000/svg"
   xmlns:svg="http://www.w3.org/2000/svg">
  <defs
     id="defs6" />
  <sodipodi:namedview
     id="namedview4"
     pagecolor="#ffffff"
     bordercolor="#000000"
     borderopacity="0.25"
     inkscape:showpageshadow="2"
     inkscape:pageopacity="0.0"
     inkscape:pagecheckerboard="0"
     inkscape:deskcolor="#d1d1d1"
     showgrid="false"
     inkscape:zoom="3.86829"
     inkscape:cx="56.614163"
     inkscape:cy="88.928183"
     inkscape:window-width="1920"
     inkscape:window-height="1017"
     inkscape:window-x="-8"
     inkscape:window-y="-8"
     inkscape:window-maximized="1"
     inkscape:current-layer="g8" />
  <g
     inkscape:groupmode="layer"
     inkscape:label="Image"
     id="g8">
    <path
       style="fill:#0a0a0a;fill-opacity:1;stroke:none;stroke-width:0.320815"
       d="m 71.1974,5.0514459 c -4.261968,1.0585513 -4.125816,5.3542701 -4.125816,8.9074441 0,5.490887 -0.707419,14.698457 7.616892,12.845321 4.442553,-0.989044 4.443187,-5.58276 4.443187,-9.278042 0,-5.523542 0.292616,-14.5180155 -7.934263,-12.4747231 m 25.07227,-0.021268 c -6.650499,1.2820512 -7.616892,7.7353271 -7.616892,13.4688871 0,7.83501 1.484977,17.536034 11.742712,15.785018 7.14371,-1.219426 7.61691,-7.929642 7.61691,-13.83923 0,-2.802876 0.42781,-6.03162 -0.2942,-8.756051 C 106.36936,6.6013834 101.09339,4.1002859 96.26967,5.0301785 M 49.933577,8.6174708 C 41.960596,10.487634 43.132009,29.235571 53.107282,26.757901 60.227172,24.989437 59.137005,6.4587026 49.933577,8.6174708 M 28.035013,16.07633 c -7.983169,1.88255 -6.591055,20.565659 3.173704,18.140429 7.505495,-1.86413 6.17127,-20.344068 -3.173704,-18.140429 m 27.611233,18.450977 c -5.427988,0.728244 -10.504646,1.492971 -15.551154,3.854154 -3.920795,1.834231 -7.694457,4.278466 -10.790596,7.363514 -4.149176,4.134154 -7.92341,8.51088 -10.375035,13.939956 -6.488099,14.368031 -3.90664,32.251454 -3.90664,47.671819 0,8.09869 -1.114064,17.12198 1.087788,24.97096 3.929015,14.00578 18.126046,22.3931 31.918745,20.66232 3.549472,-0.44558 7.03039,-1.56504 10.155855,-3.34156 9.033952,-5.13526 14.455592,-14.6453 14.904037,-25.10392 0.309119,-7.2179 -1.294237,-15.26342 1.698249,-22.05228 3.467908,-7.867133 9.545236,-9.755519 15.769506,-14.560968 4.001407,-3.08894 7.023727,-7.057701 9.105677,-11.707163 C 106.49568,60.964937 98.639158,43.193397 83.892221,36.798659 75.883376,33.325685 64.192082,33.380751 55.646246,34.527307 M 9.9448951,35.858517 C 2.1705998,37.691679 5.0082578,49.617744 12.801229,47.883721 20.324813,46.209371 17.52056,34.072089 9.9448951,35.858517 M 57.233098,46.805429 c 6.71556,-0.809448 16.269364,-1.156123 22.533306,1.671758 9.285944,4.192202 12.987753,15.596147 7.790493,24.503969 -2.93282,5.026945 -7.782559,6.575793 -12.23368,9.741593 -4.872906,3.465774 -8.856859,8.422672 -11.32727,13.932177 -1.503067,3.351624 -2.552294,7.023944 -2.900449,10.701824 -1.061287,11.20613 3.018192,25.29849 -9.257699,31.66025 -1.640805,0.85032 -3.561531,1.48529 -5.395298,1.68604 -2.164149,0.23705 -4.547285,0.16507 -6.664781,-0.34442 -15.25,-3.66943 -12.694818,-20.87117 -12.694818,-33.00187 0,-18.095825 -3.878744,-39.420376 10.790596,-52.804161 2.2619,-2.063833 4.879571,-3.68046 7.616891,-4.991598 3.77068,-1.806341 7.675289,-2.264898 11.742709,-2.755562 z"
       id="path170" />
    <path
       style="fill:#2ed9ad;fill-opacity:1;stroke:none;stroke-width:0.323345"
       d="m 66.939474,1.8580181 c -4.337003,1.0567082 -4.198455,5.3449465 -4.198455,8.8919319 0,5.481327 -0.719871,14.672864 7.750981,12.822956 4.520759,-0.987323 4.521408,-5.57304 4.521408,-9.261886 0,-5.5139267 0.297763,-14.49273666 -8.073934,-12.4530019 m 25.513639,-0.021231 c -6.767574,1.2798188 -7.75098,7.7218561 -7.75098,13.4454329 0,7.821368 1.511121,17.505498 11.949424,15.757532 7.269463,-1.217303 7.750993,-7.915833 7.750993,-13.815132 0,-2.797995 0.43535,-6.021119 -0.29938,-8.7408043 C 102.73059,3.4052564 97.36174,0.90851408 92.453113,1.8367875 M 45.301318,5.4178333 C 37.187979,7.2847397 38.380015,26.000032 48.530896,23.526676 55.776125,21.761292 54.666766,3.2628243 45.301318,5.4178333 M 23.017251,12.863705 c -8.123705,1.879272 -6.707083,20.529848 3.229575,18.108841 7.637621,-1.860885 6.279908,-20.308645 -3.229575,-18.108841 M 51.11455,31.282552 c -5.523539,0.726976 -10.689568,1.490372 -15.824915,3.847444 -3.989815,1.831036 -7.829909,4.271014 -10.980553,7.350692 -4.222218,4.126954 -8.062893,8.49606 -10.557676,13.915683 -6.6023153,14.343011 -3.975411,32.195294 -3.975411,47.588799 0,8.08459 -1.1336779,17.09216 1.106937,24.92747 3.99818,13.9814 18.445135,22.35412 32.480641,20.62636 3.611954,-0.44481 7.154152,-1.56234 10.33464,-3.33575 9.192982,-5.12632 14.710071,-14.6198 15.166411,-25.06021 0.314554,-7.20533 -1.317028,-15.23683 1.728138,-22.013856 3.528954,-7.853449 9.713267,-9.738547 16.047116,-14.535628 4.071841,-3.083561 7.147372,-7.045411 9.265967,-11.686778 C 102.85914,57.674147 94.864307,39.933553 79.85777,33.549949 71.707935,30.083023 59.81083,30.137992 51.11455,31.282552 M 4.6086751,32.611446 C -3.3024794,34.441414 -0.41486677,46.346712 7.5152925,44.61571 15.171321,42.944274 12.317702,30.828128 4.6086751,32.611446 M 52.72934,43.539296 c 6.833778,-0.808039 16.555774,-1.154109 22.929986,1.668847 9.449414,4.184901 13.216381,15.568988 7.927634,24.4613 -2.984447,5.018192 -7.919563,6.564343 -12.449042,9.724629 -4.95869,3.45974 -9.012771,8.408006 -11.526676,13.907917 -1.52953,3.345784 -2.597227,7.011721 -2.951506,10.683181 -1.079973,11.18661 3.071327,25.25445 -9.420676,31.60512 -1.669688,0.84884 -3.624227,1.48271 -5.490275,1.68309 -2.202247,0.23666 -4.627335,0.16479 -6.782108,-0.3438 -15.518461,-3.66305 -12.918298,-20.83484 -12.918298,-32.94441 0,-18.064306 -3.947025,-39.351725 10.980553,-52.712206 2.301719,-2.060239 4.965472,-3.674051 7.75098,-4.982904 3.837058,-1.803197 7.810405,-2.260955 11.949428,-2.750764 z"
       id="path170-8" />
  </g>
</svg>
