<?xml version="1.0" encoding="UTF-8" standalone="no"?>
<!-- Created with Inkscape (http://www.inkscape.org/) -->

<svg
   version="1.1"
   id="svg2"
   width="167"
   height="91"
   viewBox="0 0 167 91"
   sodipodi:docname="nodos-en-subida.svg"
   xmlns:inkscape="http://www.inkscape.org/namespaces/inkscape"
   xmlns:sodipodi="http://sodipodi.sourceforge.net/DTD/sodipodi-0.dtd"
   xmlns="http://www.w3.org/2000/svg"
   xmlns:svg="http://www.w3.org/2000/svg">
  <defs
     id="defs6" />
  <sodipodi:namedview
     id="namedview4"
     pagecolor="#ffffff"
     bordercolor="#000000"
     borderopacity="0.25"
     inkscape:showpageshadow="2"
     inkscape:pageopacity="0.0"
     inkscape:pagecheckerboard="0"
     inkscape:deskcolor="#d1d1d1"
     showgrid="false" />
  <g
     inkscape:groupmode="layer"
     inkscape:label="Image"
     id="g8">
    <path
       style="fill:#cbb32b;fill-opacity:1;stroke-width:0.333333"
       d="M 11.118104,90.772708 C 7.0857606,89.876148 3.8124026,87.234008 1.8733996,83.310702 0.66167663,80.858946 0.61810463,80.648696 0.61810463,77.253496 c 0,-3.26755 0.07594,-3.677607 1.06953697,-5.77523 2.665906,-5.6281 8.5487794,-8.809204 14.7281914,-7.964117 l 1.98804,0.271883 18.216124,-18.218383 18.216124,-18.218382 0.05766,-4.139862 c 0.05356,-3.845472 0.127387,-4.282085 1.0382,-6.139863 1.322884,-2.698267 3.957694,-5.26902 6.761517,-6.597129 2.116706,-1.0026377 2.487289,-1.0694397 5.924606,-1.0679747 3.28149,0.0014 3.868103,0.0958 5.584213,0.8986287 2.681377,1.2544 5.342514,3.87904 6.71542,6.623324 1.303077,2.604696 1.7009,5.167127 1.27361,8.203463 l -0.28994,2.060311 10.191681,10.136177 c 9.794302,9.740957 10.230682,10.126804 11.191692,9.895794 1.42087,-0.341554 4.45417,-0.352747 5.87847,-0.0217 l 1.21182,0.281663 14.42567,-14.428532 14.42567,-14.428532 0.0292,-3.961962 c 0.0286,-3.883407 0.0541,-4.012315 1.28447,-6.5016217 5.20965,-10.5399307 19.91303,-10.3494977 25.13407,0.325527 0.86178,1.7620047 0.93704,2.2237787 0.93704,5.7492207 0,3.525442 -0.0753,3.987216 -0.93704,5.74922 -2.76043,5.644025 -8.66205,8.832174 -14.7825,7.985747 l -2.05982,-0.284861 -14.39887,14.401731 -14.39888,14.40173 -0.0413,4.123216 c -0.0385,3.84022 -0.10841,4.260487 -1.01897,6.123217 -1.26731,2.59257 -4.27451,5.60415 -6.70885,6.718627 -3.52722,1.614813 -8.67483,1.57979 -12.07168,-0.08214 -2.572032,-1.258377 -5.210752,-3.97787 -6.499182,-6.69814 -1.02257,-2.15893 -1.07597,-2.466187 -1.07597,-6.1904 v -3.918713 l -9.875361,-9.871247 -9.875363,-9.871247 -4.34147,-0.07768 -4.341473,-0.07768 -18.085614,18.0879 -18.085614,18.087897 -0.03481,4.113077 c -0.03211,3.793856 -0.107503,4.26177 -0.971391,6.028963 -1.982512,4.055482 -5.893042,7.130002 -10.033453,7.888462 -2.419483,0.44322 -3.49027,0.42472 -5.855475,-0.10117 z"
       id="path170" />
  </g>
</svg>
