<?xml version="1.0" encoding="UTF-8" standalone="no"?>
<!-- Created with Inkscape (http://www.inkscape.org/) -->

<svg
   version="1.1"
   id="svg2"
   width="143"
   height="159"
   viewBox="0 0 143 159"
   sodipodi:docname="nodos-triangulo-celeste.svg"
   xmlns:inkscape="http://www.inkscape.org/namespaces/inkscape"
   xmlns:sodipodi="http://sodipodi.sourceforge.net/DTD/sodipodi-0.dtd"
   xmlns="http://www.w3.org/2000/svg"
   xmlns:svg="http://www.w3.org/2000/svg">
  <defs
     id="defs6" />
  <sodipodi:namedview
     id="namedview4"
     pagecolor="#ffffff"
     bordercolor="#000000"
     borderopacity="0.25"
     inkscape:showpageshadow="2"
     inkscape:pageopacity="0.0"
     inkscape:pagecheckerboard="0"
     inkscape:deskcolor="#d1d1d1"
     showgrid="false" />
  <g
     inkscape:groupmode="layer"
     inkscape:label="Image"
     id="g8">
    <path
       style="fill:#2ed9ad;fill-opacity:1;stroke-width:0.333333"
       d="m 113.7339,158.37254 c -11.36979,-2.9787 -18.720096,-14.95106 -16.291636,-26.5362 l 0.42838,-2.04359 L 68.68532,112.82238 39.5,95.852002 l -1.949093,1.60988 c -2.333344,1.92726 -6.352617,4.008998 -9.129634,4.728598 -2.901885,0.75195 -8.334698,0.68816 -11.555936,-0.1357 C 9.1280234,100.07591 2.5788604,93.346821 0.63634144,85.379928 c -0.575653,-2.360933 -0.575653,-8.639067 0,-11 C 2.5788604,66.413035 9.1280234,59.683948 16.865337,57.705075 c 3.138027,-0.80257 8.666466,-0.876907 11.717444,-0.15755 2.583081,0.609033 6.719092,2.66122 9.004762,4.467936 0.949397,0.750457 1.811584,1.364467 1.91597,1.364467 0.170107,0 55.988501,-32.094885 57.703051,-33.178539 0.6756,-0.427004 0.68655,-0.523694 0.25,-2.206659 -0.61167,-2.358054 -0.57722,-6.772799 0.0758,-9.715667 1.78712,-8.053516 8.373656,-14.8716749 16.332956,-16.9073198 3.17358,-0.8116666 8.66463,-0.8765702 11.80133,-0.1394904 7.6849,1.8058479 14.5168,8.4942521 16.502,16.1554172 3.10558,11.98483 -3.40024,24.264945 -14.89349,28.112325 -2.72511,0.912233 -7.07444,1.28691 -10.33571,0.890376 -4.65434,-0.565913 -8.39757,-2.11412 -11.8411,-4.897506 l -1.40163,-1.13293 -29.18675,16.426663 -29.18674,16.426663 0.25504,1.5 c 0.33334,1.960517 0.32777,8.132554 -0.0089,9.833334 l -0.263877,1.333333 29.22779,16.709152 29.227787,16.70915 1.70279,-1.30368 c 4.14812,-3.17587 8.76298,-4.71039 14.20279,-4.72268 4.52349,-0.0102 6.79247,0.48592 10.60708,2.31934 6.2423,3.00024 11.03391,9.2981 12.26614,16.12205 0.59703,3.30626 0.45154,7.4838 -0.37122,10.65893 -1.9852,7.66116 -8.8171,14.34957 -16.502,16.15542 -3.0812,0.72403 -8.86405,0.64889 -11.93277,-0.15507 z m 10.29297,-13.36928 c 6.0999,-2.62411 7.5553,-11.06927 2.72593,-15.81757 -1.92046,-1.88822 -3.80827,-2.62408 -6.7528,-2.6322 -3.25307,-0.009 -5.78008,1.14613 -7.63152,3.48839 -1.58219,2.00161 -2.15154,3.9927 -1.97431,6.90443 0.16232,2.66681 0.85509,4.25645 2.66997,6.12657 2.80079,2.88602 7.01593,3.62824 10.96273,1.93038 z M 27.496037,88.563135 c 3.40547,-1.666144 5.278921,-4.74775 5.278921,-8.683207 0,-3.977147 -1.869285,-7.012083 -5.38109,-8.736637 -2.512492,-1.23382 -6.062759,-1.283186 -8.480864,-0.117926 -5.819858,2.80453 -7.373593,10.50828 -3.082057,15.2815 3.066588,3.410786 7.537733,4.275596 11.66509,2.25627 z M 124.0204,32.4697 c 1.82698,-0.819604 3.75482,-2.676138 4.69901,-4.525201 1.00459,-1.967352 1.19809,-5.304014 0.43996,-7.586534 -2.17614,-6.55176 -11.10415,-8.677696 -15.97733,-3.80452 -4.12995,4.129953 -3.78821,11.296243 0.70202,14.721107 2.78568,2.124741 6.9656,2.617583 10.13634,1.195148 z"
       id="path170" />
  </g>
</svg>
