<?xml version="1.0" encoding="UTF-8" standalone="no"?>
<!-- Created with Inkscape (http://www.inkscape.org/) -->

<svg
   version="1.1"
   id="svg2"
   width="167"
   height="91"
   viewBox="0 0 167 91"
   sodipodi:docname="nodos-en-subida-celeste.svg"
   inkscape:version="1.2.1 (9c6d41e410, 2022-07-14)"
   xmlns:inkscape="http://www.inkscape.org/namespaces/inkscape"
   xmlns:sodipodi="http://sodipodi.sourceforge.net/DTD/sodipodi-0.dtd"
   xmlns="http://www.w3.org/2000/svg"
   xmlns:svg="http://www.w3.org/2000/svg">
  <defs
     id="defs6" />
  <sodipodi:namedview
     id="namedview4"
     pagecolor="#ffffff"
     bordercolor="#000000"
     borderopacity="0.25"
     inkscape:showpageshadow="2"
     inkscape:pageopacity="0.0"
     inkscape:pagecheckerboard="0"
     inkscape:deskcolor="#d1d1d1"
     showgrid="false"
     inkscape:zoom="5.1233485"
     inkscape:cx="77.098015"
     inkscape:cy="52.699909"
     inkscape:window-width="1920"
     inkscape:window-height="1017"
     inkscape:window-x="-8"
     inkscape:window-y="-8"
     inkscape:window-maximized="1"
     inkscape:current-layer="g8" />
  <g
     inkscape:groupmode="layer"
     inkscape:label="Image"
     id="g8">
    <path
       style="fill:#0a0a0a;fill-opacity:1;stroke-width:0.321339"
       d="M 13.050465,88.7432 C 9.1082098,87.890957 5.9079828,85.379415 4.0122996,81.650039 2.8276484,79.319473 2.7850498,79.119616 2.7850498,75.89224 c 0,-3.106035 0.074243,-3.495823 1.0456423,-5.489761 2.6063458,-5.349904 8.3577879,-8.373767 14.3991429,-7.570452 l 1.943625,0.258444 17.809152,-17.317851 17.80915,-17.317851 0.05637,-3.935229 c 0.05236,-3.655391 0.124541,-4.070422 1.015005,-5.83637 1.293329,-2.564892 3.869274,-5.008573 6.610456,-6.271034 2.069416,-0.953077 2.431719,-1.016577 5.792242,-1.015185 3.208177,0.0013 3.781684,0.09106 5.459454,0.85421 2.621471,1.192395 5.223155,3.687299 6.565388,6.295934 1.273965,2.475946 1.6629,4.911716 1.245156,7.797967 l -0.283462,1.95847 9.963984,9.635147 c 9.575485,9.259463 10.002115,9.626238 10.941655,9.406647 1.38912,-0.324671 4.35465,-0.335311 5.74712,-0.02063 l 1.18475,0.267741 14.10338,-13.715332 14.10338,-13.715332 0.0285,-3.766123 c 0.028,-3.691451 0.0529,-3.813987 1.25577,-6.180247 5.09326,-10.01894387 19.46815,-9.83792407 24.57254,0.309437 0.84253,1.674908 0.91611,2.113856 0.91611,5.465036 0,3.35118 -0.0736,3.790129 -0.91611,5.465037 -2.69876,5.365042 -8.46853,8.395601 -14.45224,7.591013 l -2.0138,-0.27078 -14.07718,13.689855 -14.07719,13.689855 -0.0404,3.919406 c -0.0376,3.650399 -0.10599,4.049892 -0.99621,5.820547 -1.23899,2.46442 -4.17901,5.327138 -6.55896,6.386527 -3.44842,1.534993 -8.48102,1.501701 -11.80197,-0.07808 C 97.620928,71.00708 95.041165,68.422011 93.781513,65.836204 92.781796,63.78399 92.729585,63.49192 92.729585,59.951794 V 56.226783 L 83.074854,46.84347 73.42012,37.460157 69.175644,37.386317 64.931166,37.312477 47.249609,54.506295 29.568052,71.70011 l -0.03403,3.909768 c -0.03139,3.606326 -0.105101,4.051111 -0.949689,5.730952 -1.93822,3.855021 -5.761383,6.777568 -9.809293,7.498538 -2.365428,0.421307 -3.412292,0.403722 -5.724655,-0.09617 z"
       id="path170" />
    <path
       style="fill:#2ed9ad;fill-opacity:1;stroke-width:0.318019"
       d="M 12.320086,84.644251 C 8.3967965,83.805496 5.2119649,81.333702 3.3254018,77.663347 2.1464506,75.369665 2.104056,75.172971 2.104056,71.996672 c 0,-3.056878 0.073886,-3.440499 1.0406125,-5.402879 2.5938061,-5.265236 8.3175795,-8.241243 14.3298705,-7.450642 l 1.934273,0.254355 17.723474,-17.043776 17.723473,-17.043775 0.0561,-3.87295 c 0.05212,-3.59754 0.123942,-4.006002 1.010122,-5.744003 1.287106,-2.5243 3.850659,-4.929307 6.578653,-6.1717884 2.05946,-0.937993 2.420021,-1.0004875 5.764377,-0.9991183 3.192743,0.00132 3.763488,0.089627 5.433186,0.8406923 2.608864,1.1735224 5.198033,3.6289434 6.533803,6.1962934 1.267839,2.436761 1.6549,4.833983 1.239165,7.674554 l -0.282098,1.927476 9.916048,9.482658 c 9.529415,9.112923 9.953995,9.473892 10.889005,9.257777 1.38245,-0.319534 4.3337,-0.330004 5.71948,-0.02029 l 1.17905,0.263503 14.03553,-13.498271 14.03552,-13.49827 0.0284,-3.706519 c 0.0278,-3.6330304 0.0526,-3.7536274 1.24972,-6.0824382 5.06876,-9.8603828 19.37449,-9.6822277 24.45434,0.3045387 0.83846,1.6484001 0.91169,2.0804031 0.91169,5.3785465 0,3.298144 -0.0733,3.730146 -0.91169,5.378547 -2.68578,5.280133 -8.42779,8.262731 -14.38271,7.470876 l -2.00413,-0.266495 -14.00945,13.473197 -14.00946,13.473197 -0.0402,3.857377 c -0.0374,3.592626 -0.10548,3.985798 -0.99141,5.728431 -1.23304,2.425417 -4.1589,5.242829 -6.5274,6.285452 -3.43183,1.5107 -8.44021,1.477934 -11.745189,-0.07684 -2.502475,-1.177245 -5.069822,-3.721402 -6.323416,-6.266287 -0.994904,-2.019737 -1.04687,-2.307183 -1.04687,-5.791282 V 52.642455 L 82.007643,43.407644 72.399359,34.172832 68.175302,34.100162 63.951245,34.027482 46.354753,50.949188 28.75826,67.870891 28.7244,71.718782 c -0.03124,3.549252 -0.104596,3.986998 -0.945121,5.640253 -1.928895,3.794012 -5.733666,6.670306 -9.762101,7.379866 -2.354048,0.41464 -3.395876,0.397333 -5.697114,-0.09464 z"
       id="path170-1" />
  </g>
</svg>
