<?xml version="1.0" encoding="UTF-8" standalone="no"?>
<!-- Created with Inkscape (http://www.inkscape.org/) -->

<svg
   version="1.1"
   id="svg243"
   width="175.66667"
   height="127.66667"
   viewBox="0 0 175.66667 127.66667"
   sodipodi:docname="nube-celeste.svg"
   xmlns:inkscape="http://www.inkscape.org/namespaces/inkscape"
   xmlns:sodipodi="http://sodipodi.sourceforge.net/DTD/sodipodi-0.dtd"
   xmlns="http://www.w3.org/2000/svg"
   xmlns:svg="http://www.w3.org/2000/svg">
  <defs
     id="defs247" />
  <sodipodi:namedview
     id="namedview245"
     pagecolor="#ffffff"
     bordercolor="#000000"
     borderopacity="0.25"
     inkscape:showpageshadow="2"
     inkscape:pageopacity="0.0"
     inkscape:pagecheckerboard="0"
     inkscape:deskcolor="#d1d1d1"
     showgrid="false" />
  <g
     inkscape:groupmode="layer"
     inkscape:label="Image"
     id="g249">
    <path
       style="fill:#cbb32b;fill-opacity:1;stroke:none;stroke-width:0.333333"
       d="m 68.305059,127.79093 v -13.33334 c -15.163333,0 -33.842334,3.427 -45.636834,-8.36333 -12.7290337,-12.724337 -11.236367,-34.024338 3.3035,-44.718005 6.198834,-4.559 13.165667,-5.585333 20.666667,-5.585333 0,-31.473568 36.743001,-54.0540186 63.666668,-35.187234 2.82934,1.982633 5.50734,4.2312 7.757,6.8539 11.59267,13.515 10.90967,28.221 10.90967,45.000001 7.59167,0 16.217,-1.308 23,2.821333 13.65433,8.312667 13.65433,28.044668 0,36.357338 -6.07567,3.699 -13.201,2.82133 -20,2.82133 H 94.638393 V 66.790922 l 15.333337,15 h 0.33333 l 6.33334,-6.333333 c 0.74066,-0.742333 2.26433,-1.832333 2.26433,-3 0,-2.439667 -5.93,-6.665667 -7.59767,-8.333334 l -23,-23 h -0.333334 l -23,23 c -1.667667,1.667667 -7.597667,5.893667 -7.597667,8.333334 0,1.167667 1.523667,2.257667 2.264333,3 l 6.333334,6.333333 h 0.333333 l 15.333334,-15 v 35.666668 c 0,5.11534 -1.142333,11.839 0.688667,16.66667 4.647666,12.25533 21.64767,8.66667 31.978,8.66667 18.58034,0 39.64634,3.626 53.237,-12 18.51534,-21.289007 3.337,-56.663675 -25.237,-56.666675 0,-11.684333 -1.85966,-22.909 -8.14166,-33.000001 C 119.20673,2.0994334 86.859393,-6.9774468 61.971726,7.2667535 53.384392,12.181587 45.811392,19.386621 41.074725,28.124254 c -1.742,3.213367 -3.209,6.518001 -4.321666,10.000001 -0.474,1.483666 -0.662,4.011 -1.924667,5.048666 -2.291333,1.883 -7.072633,2.112667 -9.856667,3.387667 -7.517467,3.442 -13.9299,9.111334 -18.1823671,16.230334 -14.1729672,23.726334 -2.5894,55.876338 24.5157011,63.524008 11.556333,3.26066 25.093333,1.476 37,1.476 z"
       id="path253" />
  </g>
</svg>
