<?xml version="1.0" encoding="UTF-8" standalone="no"?>
<!-- Created with Inkscape (http://www.inkscape.org/) -->

<svg
   version="1.1"
   id="svg243"
   width="175.66667"
   height="127.66667"
   viewBox="0 0 175.66667 127.66667"
   sodipodi:docname="nube-celeste.svg"
   inkscape:version="1.2.1 (9c6d41e410, 2022-07-14)"
   xmlns:inkscape="http://www.inkscape.org/namespaces/inkscape"
   xmlns:sodipodi="http://sodipodi.sourceforge.net/DTD/sodipodi-0.dtd"
   xmlns="http://www.w3.org/2000/svg"
   xmlns:svg="http://www.w3.org/2000/svg">
  <defs
     id="defs247" />
  <sodipodi:namedview
     id="namedview245"
     pagecolor="#ffffff"
     bordercolor="#000000"
     borderopacity="0.25"
     inkscape:showpageshadow="2"
     inkscape:pageopacity="0.0"
     inkscape:pagecheckerboard="0"
     inkscape:deskcolor="#d1d1d1"
     showgrid="false"
     inkscape:zoom="4.6358879"
     inkscape:cx="89.950406"
     inkscape:cy="76.360777"
     inkscape:window-width="1920"
     inkscape:window-height="1017"
     inkscape:window-x="-8"
     inkscape:window-y="-8"
     inkscape:window-maximized="1"
     inkscape:current-layer="g249" />
  <g
     inkscape:groupmode="layer"
     inkscape:label="Image"
     id="g249">
    <path
       style="fill:#0a0a0a;fill-opacity:1;stroke:none;stroke-width:0.324311"
       d="m 71.001319,126.72561 v -12.97326 c -14.752021,0 -32.924346,3.33445 -44.398915,-8.13747 C 14.21865,93.234171 15.670828,72.509395 29.816295,62.10452 c 6.030688,-4.435881 12.808542,-5.434496 20.106075,-5.434496 0,-30.623597 35.746331,-52.5942433 61.93969,-34.236973 2.75259,1.929091 5.35795,4.116933 7.54658,6.668805 11.27822,13.150016 10.61374,27.458867 10.61374,43.784737 7.38575,0 15.77711,-1.272677 22.37612,2.74514 13.28395,8.088176 13.28395,27.287297 0,35.375477 -5.91087,3.59911 -12.84292,2.74514 -19.45749,2.74514 H 96.62035 V 67.372959 l 14.91742,14.594912 h 0.32429 l 6.16154,-6.162296 c 0.72057,-0.722286 2.20291,-1.782849 2.20291,-2.918982 0,-2.373782 -5.76915,-6.485655 -7.39158,-8.108285 L 90.458812,42.399443 H 90.134519 L 67.758404,64.778308 c -1.622431,1.62263 -7.391577,5.734503 -7.391577,8.108285 0,1.136133 1.482337,2.196696 2.202912,2.918982 l 6.16154,6.162296 H 69.05557 L 83.972981,67.372959 v 34.703461 c 0,4.9772 -1.111347,11.51928 0.669986,16.21657 4.521597,11.92437 21.060473,8.43262 31.110583,8.43262 18.07634,0 38.57092,3.52808 51.79293,-11.67593 18.0131,-20.71408 3.24648,-55.133424 -24.55244,-55.136343 0,-11.368787 -1.80921,-22.290323 -7.92081,-32.108807 C 120.52226,4.4285203 89.052359,-4.4032308 64.83978,9.456292 c -8.354398,4.782105 -15.721978,11.79256 -20.330161,20.294226 -1.694747,3.126587 -3.121954,6.341977 -4.204439,9.729942 -0.461142,1.443599 -0.644043,3.90268 -1.872459,4.912323 -2.22918,1.832148 -6.880785,2.055612 -9.589301,3.29618 -7.313552,3.349046 -13.552045,8.865274 -17.689163,15.792019 -13.7885195,23.085584 -2.5191615,54.367348 23.850703,61.808488 11.242862,3.1726 24.412665,1.43614 35.996359,1.43614 z"
       id="path253" />
    <path
       style="fill:#2ed9ad;fill-opacity:1;stroke:none;stroke-width:0.320671"
       d="m 66.183052,122.28349 v -12.7482 c -14.677239,0 -32.757442,3.27661 -44.173841,-7.99632 -12.3209769,-12.165941 -10.87616,-32.531202 3.197598,-42.755583 6.000116,-4.35893 12.743611,-5.340223 20.00415,-5.340223 0,-30.092366 35.565116,-51.6818838 61.625681,-33.643058 2.73864,1.895627 5.33078,4.045516 7.50833,6.553118 11.22104,12.921902 10.55994,26.982535 10.55994,43.025197 7.34829,0 15.69712,-1.250599 22.26267,2.697521 13.21661,7.947869 13.21661,26.813941 0,34.761818 -5.8809,3.53668 -12.77781,2.69753 -19.35884,2.69753 H 91.672206 V 63.960434 l 14.841784,14.341732 h 0.32265 l 6.13031,-6.055398 c 0.71692,-0.709755 2.19174,-1.751922 2.19174,-2.868347 0,-2.332603 -5.7399,-6.373145 -7.35411,-7.967628 L 85.541905,39.420137 H 85.219251 L 62.95657,61.410793 c -1.614199,1.594483 -7.3541,5.635025 -7.3541,7.967628 0,1.116425 1.474826,2.158592 2.191742,2.868347 l 6.1303,6.055398 h 0.322654 L 79.088951,63.960434 v 34.101452 c 0,4.890874 -1.10571,11.319464 0.666593,15.935264 4.498669,11.71751 20.953696,8.28634 30.952866,8.28634 17.9847,0 38.37538,3.46688 51.53036,-11.47339 17.92179,-20.354749 3.23003,-54.177017 -24.42797,-54.179884 0,-11.171572 -1.80004,-21.90365 -7.88065,-31.551812 C 115.45295,2.1079008 84.14258,-6.570644 60.052741,7.0484557 51.7407,11.747604 44.41047,18.636448 39.825647,26.990636 c -1.686156,3.072347 -3.106128,6.231961 -4.183124,9.561155 -0.458805,1.418555 -0.640779,3.83498 -1.862968,4.827108 -2.217879,1.800365 -6.845903,2.019952 -9.540689,3.239 -7.276477,3.29095 -13.483346,8.711487 -17.5994899,15.518074 -13.7186197,22.685114 -2.5063909,53.424237 23.7297949,60.736297 11.185868,3.11757 24.288907,1.41122 35.813881,1.41122 z"
       id="path253-8" />
  </g>
</svg>
