<svg xmlns="http://www.w3.org/2000/svg" xmlns:xlink="http://www.w3.org/1999/xlink" width="500" zoomAndPan="magnify" viewBox="0 0 375 374.999991" height="500" preserveAspectRatio="xMidYMid meet" version="1.2"><defs><clipPath id="46010e4dba"><path d="M 8.167969 9.4375 L 366.667969 9.4375 L 366.667969 365.6875 L 8.167969 365.6875 Z M 8.167969 9.4375 "/></clipPath></defs><g id="090386ad49"><g clip-rule="nonzero" clip-path="url(#46010e4dba)"><path style=" stroke:none;fill-rule:evenodd;fill:#2ed9ad;fill-opacity:1;" d="M 338.746094 9.460938 L 352.683594 17.511719 L 366.613281 25.554688 L 366.613281 57.738281 L 352.683594 65.78125 L 338.746094 73.824219 L 325.949219 66.4375 L 319.40625 74.964844 L 336.128906 84.628906 L 336.128906 125.855469 L 319.445312 135.492188 L 327.730469 143.539062 L 338.308594 137.429688 L 350.066406 144.214844 L 361.820312 151.003906 L 361.820312 178.15625 L 350.066406 184.941406 L 338.308594 191.738281 L 326.550781 184.941406 L 314.792969 178.15625 L 314.792969 151.003906 L 325.378906 144.894531 L 317.097656 136.84375 L 300.414062 146.472656 L 283.6875 136.820312 L 261.898438 176.136719 L 292.132812 193.59375 L 292.132812 266.019531 L 260.765625 284.125 L 229.410156 302.230469 L 198.050781 284.125 L 166.683594 266.019531 L 166.683594 231.433594 L 121.382812 234.308594 L 121.382812 255.425781 L 102.21875 266.488281 L 83.058594 277.554688 L 65.035156 267.144531 L 48.480469 313.242188 L 60.40625 320.128906 L 60.40625 350.300781 L 47.332031 357.851562 L 34.273438 365.386719 L 21.203125 357.851562 L 8.136719 350.300781 L 8.136719 320.128906 L 21.203125 312.578125 L 34.273438 305.035156 L 46.191406 311.925781 L 62.742188 265.828125 L 44.726562 255.425781 L 44.726562 211.160156 L 63.890625 200.097656 L 83.058594 189.027344 L 102.21875 200.097656 L 121.382812 211.160156 L 121.382812 231.695312 L 166.683594 228.820312 L 166.683594 193.59375 L 198.050781 175.480469 L 229.410156 157.382812 L 259.640625 174.835938 L 281.429688 135.515625 L 264.703125 125.855469 L 264.703125 107.640625 L 247.921875 110.792969 L 247.921875 125.492188 L 234.523438 133.222656 L 221.132812 140.957031 L 207.734375 133.222656 L 194.34375 125.492188 L 194.34375 94.558594 L 207.734375 86.816406 L 221.132812 79.085938 L 234.523438 86.816406 L 247.921875 94.558594 L 247.921875 108.140625 L 264.703125 105 L 264.703125 84.628906 L 282.5625 74.320312 L 300.414062 64 L 317.136719 73.65625 L 323.667969 65.125 L 310.878906 57.738281 L 310.878906 25.554688 L 324.808594 17.511719 Z M 338.746094 9.460938 "/></g></g></svg>