<svg xmlns="http://www.w3.org/2000/svg" xmlns:xlink="http://www.w3.org/1999/xlink" width="500" zoomAndPan="magnify" viewBox="0 0 375 374.999991" height="500" preserveAspectRatio="xMidYMid meet" version="1.2"><g id="ea431e07f6"><path style=" stroke:none;fill-rule:evenodd;fill:#cbb32b;fill-opacity:1;" d="M 82.609375 203.023438 C 84.03125 203.023438 85.453125 203.0625 86.875 203.144531 C 88.292969 203.222656 89.710938 203.339844 91.125 203.496094 C 92.539062 203.652344 93.949219 203.84375 95.351562 204.078125 C 96.753906 204.308594 98.152344 204.582031 99.539062 204.890625 C 100.929688 205.199219 102.308594 205.542969 103.679688 205.929688 C 105.046875 206.3125 106.40625 206.734375 107.753906 207.191406 C 109.101562 207.648438 110.433594 208.144531 111.753906 208.671875 C 113.074219 209.203125 114.378906 209.769531 115.667969 210.371094 C 116.957031 210.972656 118.226562 211.609375 119.480469 212.28125 C 120.738281 212.953125 121.972656 213.65625 123.1875 214.394531 C 124.402344 215.132812 125.597656 215.902344 126.773438 216.707031 C 127.949219 217.507812 129.097656 218.34375 130.226562 219.210938 C 131.355469 220.074219 132.460938 220.972656 133.539062 221.898438 C 134.621094 222.824219 135.671875 223.777344 136.703125 224.761719 C 137.730469 225.746094 138.730469 226.757812 139.703125 227.796875 C 140.675781 228.832031 141.617188 229.898438 142.535156 230.984375 C 143.449219 232.074219 144.332031 233.1875 145.1875 234.328125 C 146.042969 235.464844 146.863281 236.625 147.65625 237.808594 C 148.445312 238.988281 149.203125 240.191406 149.929688 241.417969 C 150.65625 242.640625 151.347656 243.882812 152.003906 245.144531 C 152.660156 246.40625 153.285156 247.683594 153.871094 248.980469 C 154.460938 250.273438 155.011719 251.585938 155.527344 252.910156 C 156.046875 254.234375 156.527344 255.574219 156.96875 256.925781 C 157.414062 258.277344 157.820312 259.640625 158.191406 261.015625 C 158.558594 262.386719 158.890625 263.769531 159.183594 265.164062 C 159.480469 266.554688 159.734375 267.953125 159.953125 269.359375 C 160.171875 270.765625 160.351562 272.175781 160.492188 273.589844 C 160.632812 275.007812 160.734375 276.425781 160.800781 277.847656 C 160.863281 279.265625 160.886719 280.6875 160.875 282.113281 C 160.859375 283.535156 160.808594 284.957031 160.71875 286.375 C 160.625 287.792969 160.496094 289.210938 160.328125 290.625 C 160.160156 292.035156 159.953125 293.441406 159.710938 294.84375 L 192.886719 301.179688 L 192.886719 287.101562 L 212.601562 275.714844 L 214.925781 274.359375 L 205.460938 203.605469 L 200.867188 206.261719 L 181.160156 194.875 L 161.445312 183.492188 L 161.445312 137.964844 L 181.175781 126.558594 L 200.882812 115.175781 L 220.601562 126.558594 L 226.488281 129.957031 L 272.058594 97.601562 C 271.433594 96.679688 270.835938 95.738281 270.269531 94.773438 C 269.703125 93.8125 269.167969 92.832031 268.667969 91.835938 C 268.164062 90.839844 267.695312 89.828125 267.257812 88.800781 C 266.820312 87.773438 266.417969 86.734375 266.050781 85.679688 C 265.679688 84.625 265.34375 83.5625 265.046875 82.484375 C 264.746094 81.410156 264.480469 80.328125 264.25 79.234375 C 264.023438 78.140625 263.828125 77.042969 263.671875 75.9375 C 263.511719 74.832031 263.390625 73.722656 263.304688 72.609375 C 263.21875 71.496094 263.167969 70.382812 263.15625 69.265625 C 263.140625 68.152344 263.164062 67.035156 263.222656 65.921875 C 263.285156 64.804688 263.378906 63.695312 263.511719 62.585938 C 263.640625 61.476562 263.808594 60.375 264.011719 59.277344 C 264.214844 58.179688 264.453125 57.089844 264.726562 56.007812 C 265 54.925781 265.308594 53.851562 265.652344 52.789062 C 265.996094 51.726562 266.375 50.679688 266.789062 49.640625 C 267.199219 48.601562 267.644531 47.578125 268.121094 46.570312 C 268.601562 45.5625 269.113281 44.570312 269.65625 43.59375 C 270.199219 42.621094 270.773438 41.664062 271.375 40.726562 C 271.980469 39.785156 272.617188 38.871094 273.28125 37.972656 C 273.945312 37.074219 274.640625 36.203125 275.359375 35.347656 C 276.082031 34.496094 276.832031 33.671875 277.605469 32.867188 C 278.382812 32.0625 279.183594 31.289062 280.007812 30.535156 C 280.835938 29.785156 281.683594 29.0625 282.554688 28.367188 C 283.429688 27.671875 284.324219 27.003906 285.242188 26.367188 C 286.15625 25.726562 287.09375 25.121094 288.046875 24.542969 C 289.003906 23.96875 289.976562 23.421875 290.96875 22.910156 C 291.960938 22.394531 292.964844 21.914062 293.988281 21.464844 C 295.011719 21.019531 296.046875 20.605469 297.097656 20.222656 C 298.144531 19.84375 299.207031 19.496094 300.277344 19.183594 C 301.351562 18.871094 302.433594 18.597656 303.523438 18.355469 C 304.613281 18.113281 305.707031 17.90625 306.8125 17.738281 C 307.914062 17.566406 309.023438 17.433594 310.132812 17.335938 C 311.246094 17.234375 312.359375 17.175781 313.476562 17.148438 C 314.59375 17.121094 315.707031 17.132812 316.824219 17.179688 C 317.9375 17.226562 319.050781 17.308594 320.160156 17.429688 C 321.269531 17.546875 322.375 17.703125 323.476562 17.894531 C 324.574219 18.085938 325.667969 18.3125 326.753906 18.574219 C 327.839844 18.835938 328.914062 19.132812 329.980469 19.464844 C 331.046875 19.796875 332.101562 20.160156 333.140625 20.5625 C 334.183594 20.960938 335.210938 21.394531 336.226562 21.863281 C 337.238281 22.332031 338.238281 22.828125 339.21875 23.363281 C 340.199219 23.894531 341.164062 24.457031 342.109375 25.050781 C 343.050781 25.648438 343.976562 26.273438 344.878906 26.925781 C 345.785156 27.582031 346.667969 28.265625 347.527344 28.976562 C 348.386719 29.6875 349.222656 30.429688 350.035156 31.195312 C 350.84375 31.960938 351.632812 32.753906 352.390625 33.570312 C 353.152344 34.386719 353.882812 35.230469 354.589844 36.09375 C 355.296875 36.960938 355.972656 37.847656 356.621094 38.757812 C 357.265625 39.664062 357.882812 40.59375 358.472656 41.542969 C 359.058594 42.492188 359.617188 43.460938 360.140625 44.445312 C 360.664062 45.429688 361.15625 46.433594 361.617188 47.449219 C 362.074219 48.46875 362.5 49.5 362.894531 50.542969 C 363.285156 51.589844 363.644531 52.644531 363.96875 53.714844 C 364.289062 54.78125 364.578125 55.859375 364.832031 56.949219 C 365.085938 58.035156 365.304688 59.128906 365.488281 60.230469 C 365.667969 61.332031 365.816406 62.4375 365.925781 63.546875 C 366.035156 64.660156 366.109375 65.773438 366.148438 66.886719 C 366.1875 68.003906 366.1875 69.121094 366.15625 70.234375 C 366.121094 71.351562 366.050781 72.464844 365.941406 73.574219 C 365.835938 74.6875 365.691406 75.792969 365.515625 76.894531 C 365.335938 77.996094 365.121094 79.09375 364.871094 80.179688 C 364.621094 81.269531 364.335938 82.347656 364.015625 83.417969 C 363.695312 84.484375 363.34375 85.542969 362.953125 86.589844 C 362.566406 87.636719 362.140625 88.667969 361.6875 89.6875 C 361.230469 90.707031 360.742188 91.710938 360.21875 92.699219 C 359.699219 93.683594 359.148438 94.652344 358.5625 95.605469 C 357.976562 96.554688 357.363281 97.488281 356.71875 98.398438 C 356.074219 99.308594 355.402344 100.199219 354.699219 101.066406 C 353.996094 101.933594 353.265625 102.777344 352.507812 103.597656 C 351.75 104.417969 350.96875 105.214844 350.160156 105.984375 C 349.351562 106.75 348.515625 107.492188 347.660156 108.207031 C 346.800781 108.921875 345.921875 109.609375 345.019531 110.269531 C 344.117188 110.925781 343.195312 111.554688 342.253906 112.152344 C 341.3125 112.75 340.347656 113.316406 339.371094 113.851562 C 338.390625 114.386719 337.394531 114.890625 336.382812 115.359375 C 335.371094 115.832031 334.34375 116.269531 333.300781 116.671875 C 332.261719 117.074219 331.210938 117.445312 330.144531 117.78125 C 329.078125 118.117188 328.003906 118.417969 326.921875 118.683594 C 325.835938 118.949219 324.746094 119.179688 323.644531 119.371094 C 322.546875 119.566406 321.441406 119.726562 320.332031 119.847656 C 319.222656 119.972656 318.109375 120.058594 316.996094 120.109375 C 315.878906 120.160156 314.765625 120.171875 313.648438 120.152344 C 312.53125 120.128906 311.417969 120.070312 310.304688 119.976562 C 309.195312 119.882812 308.085938 119.75 306.980469 119.585938 C 305.878906 119.417969 304.78125 119.214844 303.691406 118.976562 C 302.597656 118.742188 301.515625 118.46875 300.445312 118.160156 C 299.371094 117.851562 298.308594 117.507812 297.257812 117.132812 C 296.207031 116.753906 295.171875 116.34375 294.148438 115.898438 C 293.125 115.453125 292.113281 114.976562 291.121094 114.464844 C 290.128906 113.957031 289.152344 113.414062 288.195312 112.839844 C 287.238281 112.265625 286.300781 111.664062 285.382812 111.027344 C 284.464844 110.394531 283.566406 109.730469 282.691406 109.039062 C 281.816406 108.34375 280.964844 107.625 280.136719 106.875 C 279.308594 106.128906 278.503906 105.351562 277.726562 104.550781 C 276.949219 103.75 276.195312 102.925781 275.472656 102.078125 C 274.75 101.226562 274.050781 100.355469 273.382812 99.460938 L 228.695312 131.203125 L 240.308594 137.964844 L 240.308594 183.492188 L 220.601562 194.875 L 207.613281 202.371094 L 217.078125 273.128906 L 232.308594 264.339844 L 252.019531 275.714844 L 255.039062 277.457031 L 293.757812 230.539062 L 280.757812 223.035156 L 280.757812 177.507812 L 300.472656 166.128906 L 320.191406 154.746094 L 339.898438 166.128906 L 359.566406 177.507812 L 359.566406 223.035156 L 339.851562 234.417969 L 320.167969 245.816406 L 300.449219 234.433594 L 295.734375 231.707031 L 257.011719 278.628906 L 271.726562 287.148438 L 271.726562 332.667969 L 252.019531 344.050781 L 232.308594 355.433594 L 192.878906 332.667969 L 192.878906 303.496094 L 159.277344 297.089844 C 159.027344 298.289062 158.753906 299.484375 158.449219 300.671875 C 158.144531 301.859375 157.816406 303.039062 157.457031 304.210938 C 157.097656 305.382812 156.710938 306.546875 156.296875 307.703125 C 155.882812 308.855469 155.445312 310 154.976562 311.132812 C 154.511719 312.265625 154.015625 313.386719 153.496094 314.496094 C 152.976562 315.609375 152.429688 316.703125 151.859375 317.789062 C 151.289062 318.875 150.691406 319.945312 150.070312 321 C 149.449219 322.058594 148.800781 323.097656 148.132812 324.125 C 147.460938 325.152344 146.765625 326.160156 146.046875 327.152344 C 145.332031 328.148438 144.589844 329.125 143.824219 330.082031 C 143.0625 331.039062 142.273438 331.980469 141.46875 332.902344 C 140.660156 333.824219 139.828125 334.726562 138.980469 335.609375 C 138.128906 336.492188 137.257812 337.355469 136.367188 338.195312 C 135.476562 339.039062 134.566406 339.859375 133.636719 340.65625 C 132.707031 341.457031 131.757812 342.234375 130.792969 342.988281 C 129.828125 343.742188 128.84375 344.476562 127.84375 345.183594 C 126.84375 345.890625 125.824219 346.574219 124.792969 347.238281 C 123.761719 347.898438 122.714844 348.535156 121.652344 349.144531 C 120.589844 349.757812 119.511719 350.34375 118.421875 350.902344 C 117.332031 351.464844 116.230469 352 115.113281 352.507812 C 114 353.015625 112.871094 353.5 111.734375 353.957031 C 110.597656 354.410156 109.449219 354.839844 108.292969 355.242188 C 107.132812 355.644531 105.964844 356.019531 104.792969 356.367188 C 103.617188 356.714844 102.433594 357.035156 101.242188 357.328125 C 100.050781 357.617188 98.855469 357.882812 97.652344 358.117188 C 96.449219 358.351562 95.242188 358.558594 94.027344 358.738281 C 92.816406 358.917969 91.597656 359.066406 90.378906 359.191406 C 89.160156 359.3125 87.9375 359.40625 86.714844 359.46875 C 85.488281 359.535156 84.265625 359.570312 83.039062 359.574219 C 81.8125 359.582031 80.585938 359.558594 79.363281 359.507812 C 78.136719 359.457031 76.914062 359.378906 75.695312 359.269531 C 74.472656 359.164062 73.253906 359.027344 72.039062 358.859375 C 70.824219 358.695312 69.617188 358.5 68.410156 358.277344 C 67.203125 358.054688 66.003906 357.804688 64.8125 357.527344 C 63.617188 357.25 62.429688 356.941406 61.25 356.605469 C 60.074219 356.273438 58.902344 355.910156 57.738281 355.519531 C 56.578125 355.132812 55.425781 354.714844 54.28125 354.273438 C 53.140625 353.828125 52.007812 353.359375 50.886719 352.859375 C 49.765625 352.363281 48.65625 351.839844 47.5625 351.292969 C 46.464844 350.742188 45.382812 350.167969 44.3125 349.570312 C 43.246094 348.96875 42.191406 348.347656 41.148438 347.695312 C 40.109375 347.046875 39.085938 346.375 38.078125 345.675781 C 37.070312 344.980469 36.078125 344.257812 35.105469 343.515625 C 34.128906 342.769531 33.175781 342.003906 32.234375 341.214844 C 31.296875 340.425781 30.378906 339.617188 29.476562 338.785156 C 28.578125 337.953125 27.699219 337.101562 26.835938 336.226562 C 25.976562 335.351562 25.136719 334.460938 24.320312 333.546875 C 23.5 332.632812 22.707031 331.703125 21.929688 330.753906 C 21.15625 329.800781 20.40625 328.835938 19.675781 327.847656 C 18.945312 326.863281 18.242188 325.859375 17.558594 324.84375 C 16.878906 323.824219 16.21875 322.789062 15.585938 321.742188 C 14.953125 320.691406 14.34375 319.625 13.761719 318.546875 C 13.179688 317.46875 12.621094 316.378906 12.089844 315.273438 C 11.558594 314.171875 11.050781 313.054688 10.570312 311.925781 C 10.089844 310.796875 9.640625 309.660156 9.210938 308.511719 C 8.785156 307.359375 8.386719 306.203125 8.015625 305.035156 C 7.644531 303.867188 7.300781 302.691406 6.984375 301.503906 C 6.667969 300.320312 6.378906 299.128906 6.117188 297.933594 C 5.859375 296.734375 5.625 295.53125 5.421875 294.320312 C 5.21875 293.113281 5.042969 291.902344 4.894531 290.683594 C 4.75 289.464844 4.628906 288.246094 4.539062 287.023438 C 4.449219 285.800781 4.390625 284.578125 4.359375 283.351562 C 4.324219 282.125 4.324219 280.902344 4.347656 279.675781 C 4.375 278.449219 4.425781 277.226562 4.511719 276.003906 C 4.59375 274.78125 4.703125 273.558594 4.84375 272.34375 C 4.984375 271.125 5.15625 269.910156 5.351562 268.699219 C 5.550781 267.492188 5.773438 266.285156 6.027344 265.085938 C 6.28125 263.886719 6.5625 262.695312 6.875 261.507812 C 7.183594 260.324219 7.523438 259.144531 7.886719 257.976562 C 8.253906 256.804688 8.644531 255.644531 9.066406 254.492188 C 9.484375 253.339844 9.929688 252.199219 10.40625 251.066406 C 10.878906 249.9375 11.378906 248.820312 11.902344 247.710938 C 12.429688 246.605469 12.980469 245.511719 13.558594 244.429688 C 14.136719 243.347656 14.738281 242.28125 15.367188 241.226562 C 15.992188 240.175781 16.644531 239.136719 17.320312 238.113281 C 18 237.089844 18.699219 236.085938 19.421875 235.097656 C 20.144531 234.105469 20.890625 233.132812 21.660156 232.179688 C 22.429688 231.226562 23.222656 230.289062 24.035156 229.371094 C 24.847656 228.457031 25.683594 227.558594 26.539062 226.679688 C 27.394531 225.800781 28.269531 224.945312 29.164062 224.105469 C 30.058594 223.269531 30.972656 222.453125 31.910156 221.660156 C 32.84375 220.867188 33.792969 220.09375 34.765625 219.347656 C 35.734375 218.597656 36.722656 217.871094 37.726562 217.167969 C 38.730469 216.464844 39.75 215.785156 40.789062 215.132812 C 41.824219 214.476562 42.875 213.847656 43.941406 213.242188 C 45.007812 212.636719 46.085938 212.054688 47.179688 211.5 C 48.273438 210.945312 49.378906 210.417969 50.496094 209.914062 C 51.613281 209.410156 52.742188 208.933594 53.882812 208.484375 C 55.023438 208.035156 56.171875 207.613281 57.332031 207.214844 C 58.492188 206.820312 59.664062 206.453125 60.839844 206.109375 C 62.015625 205.769531 63.203125 205.457031 64.394531 205.171875 C 65.585938 204.886719 66.785156 204.628906 67.988281 204.398438 C 69.191406 204.171875 70.402344 203.972656 71.617188 203.796875 C 72.828125 203.625 74.046875 203.484375 75.265625 203.367188 C 76.488281 203.253906 77.710938 203.167969 78.933594 203.109375 C 80.160156 203.050781 81.382812 203.023438 82.609375 203.023438 "/></g></svg>