<svg xmlns="http://www.w3.org/2000/svg" xmlns:xlink="http://www.w3.org/1999/xlink" width="500" zoomAndPan="magnify" viewBox="0 0 375 374.999991" height="500" preserveAspectRatio="xMidYMid meet" version="1.2"><defs><clipPath id="b7f91c7bff"><path d="M 14.292969 6.050781 L 360.792969 6.050781 L 360.792969 369 L 14.292969 369 Z M 14.292969 6.050781 "/></clipPath></defs><g id="55543814ae"><g clip-rule="nonzero" clip-path="url(#b7f91c7bff)"><path style=" stroke:none;fill-rule:evenodd;fill:#2ed9ad;fill-opacity:1;" d="M 132.949219 112.710938 L 162.492188 129.769531 L 192.035156 146.832031 L 192.035156 178.34375 L 240.433594 162.144531 L 240.433594 135.195312 L 262.84375 122.253906 L 285.261719 109.3125 L 307.667969 122.253906 L 330.078125 135.195312 L 330.078125 186.957031 L 308.8125 199.234375 L 317.472656 220.398438 L 331.101562 212.535156 L 345.875 221.0625 L 360.644531 229.59375 L 360.644531 263.707031 L 345.875 272.238281 L 331.101562 280.769531 L 316.328125 272.238281 L 301.558594 263.707031 L 301.558594 229.59375 L 315.183594 221.726562 L 306.523438 200.5625 L 285.261719 212.839844 L 262.84375 199.890625 L 240.433594 186.957031 L 240.433594 164.921875 L 192.035156 181.121094 L 192.035156 215.058594 L 164.492188 230.960938 L 169.421875 268.027344 L 194.074219 253.789062 L 219 268.179688 L 243.929688 282.570312 L 243.929688 340.125 L 219 354.523438 L 194.074219 368.90625 L 169.144531 354.523438 L 144.226562 340.125 L 144.226562 282.570312 L 166.957031 269.445312 L 162.035156 232.378906 L 132.949219 249.171875 L 104.550781 232.777344 L 77.796875 273.078125 L 96.78125 284.042969 L 96.78125 330.503906 L 76.660156 342.125 L 56.539062 353.742188 L 36.421875 342.125 L 16.292969 330.503906 L 16.292969 284.042969 L 36.421875 272.421875 L 56.539062 260.800781 L 75.515625 271.765625 L 102.261719 231.457031 L 73.851562 215.058594 L 73.851562 146.832031 L 99.175781 132.203125 L 74.25 89.03125 L 55.015625 100.140625 L 34.632812 88.375 L 14.261719 76.609375 L 14.261719 29.554688 L 34.632812 17.789062 L 55.015625 6.023438 L 75.386719 17.789062 L 95.765625 29.554688 L 95.765625 76.609375 L 76.523438 87.71875 L 101.453125 130.890625 L 103.40625 129.769531 Z M 132.949219 112.710938 "/></g></g></svg>