<?xml version="1.0" encoding="UTF-8" standalone="no"?>
<!-- Created with Inkscape (http://www.inkscape.org/) -->

<svg
   version="1.1"
   id="svg62"
   width="175.33333"
   height="173.66667"
   viewBox="0 0 175.33333 173.66667"
   sodipodi:docname="sustentable-celeste.svg"
   xmlns:inkscape="http://www.inkscape.org/namespaces/inkscape"
   xmlns:sodipodi="http://sodipodi.sourceforge.net/DTD/sodipodi-0.dtd"
   xmlns="http://www.w3.org/2000/svg"
   xmlns:svg="http://www.w3.org/2000/svg">
  <defs
     id="defs66" />
  <sodipodi:namedview
     id="namedview64"
     pagecolor="#ffffff"
     bordercolor="#000000"
     borderopacity="0.25"
     inkscape:showpageshadow="2"
     inkscape:pageopacity="0.0"
     inkscape:pagecheckerboard="0"
     inkscape:deskcolor="#d1d1d1"
     showgrid="false" />
  <g
     inkscape:groupmode="layer"
     inkscape:label="Image"
     id="g68">
    <path
       style="fill:#2ed9ad;fill-opacity:1;stroke-width:0.333333"
       d="M 79.666665,135.35299 V 97.580145 L 73.083332,97.197692 C 65.914472,96.781228 61.159326,96.037948 55.527122,94.453475 46.583179,91.937331 36.952913,86.976405 29.236641,80.910221 25.639403,78.082235 18.456081,70.720801 15.735254,67.074064 8.2983975,57.106407 3.5864083,45.925524 1.2878911,32.792514 0.63281358,29.049605 0.54436708,27.155594 0.41822798,14.169371 L 0.27780798,-0.28710515 13.222237,-0.10750373 C 20.341673,-0.00872295 27.366666,0.24162811 28.833333,0.44883194 37.324239,1.6483878 45.045276,4.0385747 52.619686,7.8123318 66.864822,14.909608 77.674335,25.051079 85.315442,38.48745 c 3.310876,5.821954 6.763606,14.582691 8.039063,20.397794 0.232347,1.059333 0.52873,1.884334 0.658627,1.833334 0.129893,-0.051 1.186466,-1.292731 2.347936,-2.759397 10.263162,-12.95998 25.143802,-22.569864 41.284182,-26.661239 7.08991,-1.7972 8.61833,-1.933048 23.46577,-2.085669 l 13.94436,-0.143338 -0.14163,14.445122 C 174.8,55.114604 174.66135,58.582771 174.20968,61.125848 169.74558,86.260038 154.76982,106.90367 133,117.93214 c -10.47495,5.30655 -19.78235,7.71462 -31.5,8.14988 l -5.666668,0.21049 -0.08558,23.41667 -0.08559,23.41667 h -7.997747 -7.99775 z m 26.297965,-26.10007 c 9.94092,-1.30024 19.987,-5.17207 27.93872,-10.767798 4.58717,-3.228051 10.56214,-9.433691 14.01279,-14.553771 6.37147,-9.453993 10.52112,-22.919113 10.82901,-35.138837 l 0.0882,-3.5 -3.16667,0.10791 c -10.83739,0.36931 -22.42377,3.832097 -31.32029,9.360607 -4.30078,2.672606 -7.84218,5.58096 -11.68715,9.598023 -8.91645,9.315514 -13.791975,19.426114 -15.970265,33.118248 -0.489697,3.078078 -1.08778,11.939568 -0.833593,12.350858 0.248953,0.40281 4.466358,0.16283 10.109268,-0.57524 z M 79.663932,78.375848 c -0.0095,-8.39893 -2.704083,-19.534507 -6.75893,-27.931851 -5.8521,-12.11935 -14.861376,-21.36018 -26.57167,-27.254607 -8.633683,-4.345801 -19.401802,-7.063543 -27.986861,-7.063543 -1.69536,0 -2.01301,0.09208 -2.012329,0.583333 0.0028,2.016948 0.762744,10.067804 1.187781,12.583334 3.00278,17.7716 12.27406,32.74366 26.013286,42.00849 8.583063,5.78785 20.564383,9.208604 33.048123,9.435477 l 3.083333,0.05603 -0.0027,-2.416667 z"
       id="path206" />
  </g>
</svg>
