<?xml version="1.0" encoding="utf-8"?>
<!-- Generator: Adobe Illustrator 28.0.0, SVG Export Plug-In . SVG Version: 6.00 Build 0)  -->
<svg version="1.1" id="Capa_1" xmlns="http://www.w3.org/2000/svg" xmlns:xlink="http://www.w3.org/1999/xlink" x="0px" y="0px"
	 viewBox="0 0 1080 1080" style="enable-background:new 0 0 1080 1080;" xml:space="preserve">
<style type="text/css">
	.st0{fill:#FFFFFF;}
</style>
<g>
	<g>
		<g>
			<g>
				<g>
					<path class="st0" d="M913.5,492.6c-24,0-43.5-19.5-43.5-43.5c0-24,19.5-43.5,43.5-43.5c24,0,43.5,19.5,43.5,43.5
						C957,473.1,937.5,492.6,913.5,492.6z M913.5,428.2c-11.6,0-21,9.4-21,21s9.4,21,21,21c11.6,0,21-9.4,21-21
						S925,428.2,913.5,428.2z"/>
				</g>
			</g>
			<g>
				<polygon class="st0" points="930.4,423.6 898.2,423.6 898.1,341.7 528,119.7 181,340.1 180.9,468.7 148.6,468.7 148.5,316.7 
					527.6,85.9 930.3,317 				"/>
			</g>
		</g>
		<g>
			<g>
				<g>
					<path class="st0" d="M166.5,633.7c-24,0-43.5-19.5-43.5-43.5c0-24,19.5-43.5,43.5-43.5c24,0,43.5,19.5,43.5,43.5
						C210,614.1,190.5,633.7,166.5,633.7z M166.5,569.2c-11.6,0-21,9.4-21,21c0,11.6,9.4,21,21,21c11.6,0,21-9.4,21-21
						C187.5,578.6,178.1,569.2,166.5,569.2z"/>
				</g>
			</g>
			<g>
				<polygon class="st0" points="527.7,994.1 148.6,779.6 148.6,619.3 180.9,619.1 181,762.5 527.7,956.2 898.1,755.4 898.1,564.8 
					930.4,564.7 930.2,780 				"/>
			</g>
		</g>
	</g>
	<path class="st0" d="M641.1,446.9c-99.3-109.5-72.4-192.5-92.1-192.5c-6.4,0-199.6,204.6-199.6,411.7
		c0,118.5,137,159.5,202.9,159.5C751.4,825.6,787.6,608.5,641.1,446.9z M458.3,724.6c-50.8-49-31.6-153.5-25.9-154.3
		c5.7-0.8,34.9,75.2,87.3,80.2c35.9,3.4,73.7,31.1,73.9,64.4C593.9,747.5,535.3,798.9,458.3,724.6z"/>
</g>
</svg>
