<?xml version="1.0" encoding="UTF-8" standalone="no"?>
<!-- Generator: Adobe Illustrator 28.0.0, SVG Export Plug-In . SVG Version: 6.00 Build 0)  -->

<svg
   version="1.1"
   id="Capa_1"
   x="0px"
   y="0px"
   viewBox="0 0 1166400 1166400"
   xml:space="preserve"
   sodipodi:docname="isotipo-blanco.svg"
   width="1166400"
   height="1166400"
   xmlns:inkscape="http://www.inkscape.org/namespaces/inkscape"
   xmlns:sodipodi="http://sodipodi.sourceforge.net/DTD/sodipodi-0.dtd"
   xmlns="http://www.w3.org/2000/svg"
   xmlns:svg="http://www.w3.org/2000/svg"><defs
   id="defs37" /><sodipodi:namedview
   id="namedview35"
   pagecolor="#ffffff"
   bordercolor="#000000"
   borderopacity="0.25"
   inkscape:showpageshadow="2"
   inkscape:pageopacity="0.0"
   inkscape:pagecheckerboard="0"
   inkscape:deskcolor="#d1d1d1"
   showgrid="false" />
<style
   type="text/css"
   id="style2">
	.st0{fill:#FFFFFF;}
</style>
<g
   id="g32"
   style="fill:#333333">
	<g
   id="g28"
   style="fill:#333333">
		<g
   id="g14"
   style="fill:#333333">
			<g
   id="g8"
   style="fill:#333333">
				<g
   id="g6"
   style="fill:#333333">
					<path
   class="st0"
   d="m 913.5,492.6 c -24,0 -43.5,-19.5 -43.5,-43.5 0,-24 19.5,-43.5 43.5,-43.5 24,0 43.5,19.5 43.5,43.5 0,24 -19.5,43.5 -43.5,43.5 z m 0,-64.4 c -11.6,0 -21,9.4 -21,21 0,11.6 9.4,21 21,21 11.6,0 21,-9.4 21,-21 0,-11.6 -9.5,-21 -21,-21 z"
   id="path4"
   style="fill:#333333" />
				</g>
			</g>
			<g
   id="g12"
   style="fill:#333333">
				<polygon
   class="st0"
   points="181,340.1 180.9,468.7 148.6,468.7 148.5,316.7 527.6,85.9 930.3,317 930.4,423.6 898.2,423.6 898.1,341.7 528,119.7 "
   id="polygon10"
   style="fill:#333333" />
			</g>
		</g>
		<g
   id="g26"
   style="fill:#333333">
			<g
   id="g20"
   style="fill:#333333">
				<g
   id="g18"
   style="fill:#333333">
					<path
   class="st0"
   d="m 166.5,633.7 c -24,0 -43.5,-19.5 -43.5,-43.5 0,-24 19.5,-43.5 43.5,-43.5 24,0 43.5,19.5 43.5,43.5 0,23.9 -19.5,43.5 -43.5,43.5 z m 0,-64.5 c -11.6,0 -21,9.4 -21,21 0,11.6 9.4,21 21,21 11.6,0 21,-9.4 21,-21 0,-11.6 -9.4,-21 -21,-21 z"
   id="path16"
   style="fill:#333333" />
				</g>
			</g>
			<g
   id="g24"
   style="fill:#333333">
				<polygon
   class="st0"
   points="181,762.5 527.7,956.2 898.1,755.4 898.1,564.8 930.4,564.7 930.2,780 527.7,994.1 148.6,779.6 148.6,619.3 180.9,619.1 "
   id="polygon22"
   style="fill:#333333" />
			</g>
		</g>
	</g>
	<path
   class="st0"
   d="M 641.1,446.9 C 541.8,337.4 568.7,254.4 549,254.4 c -6.4,0 -199.6,204.6 -199.6,411.7 0,118.5 137,159.5 202.9,159.5 199.1,0 235.3,-217.1 88.8,-378.7 z M 458.3,724.6 c -50.8,-49 -31.6,-153.5 -25.9,-154.3 5.7,-0.8 34.9,75.2 87.3,80.2 35.9,3.4 73.7,31.1 73.9,64.4 0.3,32.6 -58.3,84 -135.3,9.7 z"
   id="path30"
   style="fill:#333333" />
</g>
</svg>
