<?xml version="1.0" encoding="utf-8"?>
<!-- Generator: Adobe Illustrator 28.0.0, SVG Export Plug-In . SVG Version: 6.00 Build 0)  -->
<svg version="1.1" id="Capa_1" xmlns="http://www.w3.org/2000/svg" xmlns:xlink="http://www.w3.org/1999/xlink" x="0px" y="0px"
	 viewBox="0 0 1080 1080" style="enable-background:new 0 0 1080 1080;" xml:space="preserve">
<style type="text/css">
	.st0{fill:#737A82;}
	.st1{fill:#CBB32B;}
</style>
<g>
	<g>
		<g>
			<g>
				<g>
					<path class="st0" d="M883.2,496.5c-22.1,0-40-17.9-40-40c0-22.1,17.9-40,40-40s40,17.9,40,40
						C923.2,478.5,905.3,496.5,883.2,496.5z M883.2,437.2c-10.6,0-19.3,8.6-19.3,19.3c0,10.6,8.6,19.3,19.3,19.3s19.3-8.6,19.3-19.3
						C902.5,445.9,893.9,437.2,883.2,437.2z"/>
				</g>
			</g>
			<g>
				<polygon class="st0" points="898.8,433 869.2,433 869.1,357.7 529,153.7 210.1,356.3 210,474.4 180.3,474.5 180.3,334.8 
					528.6,122.7 898.7,335.1 				"/>
			</g>
		</g>
		<g>
			<g>
				<g>
					<path class="st0" d="M196.8,626.1c-22.1,0-40-17.9-40-40s17.9-40,40-40c22.1,0,40,17.9,40,40S218.8,626.1,196.8,626.1z
						 M196.8,566.8c-10.6,0-19.3,8.6-19.3,19.3c0,10.6,8.6,19.3,19.3,19.3c10.6,0,19.3-8.6,19.3-19.3
						C216,575.5,207.4,566.8,196.8,566.8z"/>
				</g>
			</g>
			<g>
				<polygon class="st0" points="528.7,957.3 180.3,760.2 180.3,612.9 210,612.7 210.1,744.4 528.7,922.5 869.1,737.9 869.1,562.8 
					898.8,562.7 898.6,760.6 				"/>
			</g>
		</g>
	</g>
	<path class="st1" d="M632.9,454.4c-91.2-100.7-66.6-176.9-84.6-176.9c-5.9,0-183.4,188-183.4,378.4
		c0,108.9,125.9,146.6,186.5,146.6C734.3,802.5,767.6,603,632.9,454.4z M465,709.7c-46.7-45.1-29-141-23.8-141.8
		c5.2-0.7,32.1,69.1,80.2,73.7c33,3.1,67.8,28.6,68,59.2C589.5,730.7,535.7,777.9,465,709.7z"/>
</g>
</svg>
