<?xml version="1.0" encoding="UTF-8" standalone="no"?>
<!-- Created with Inkscape (http://www.inkscape.org/) -->

<svg
   version="1.1"
   id="svg2"
   width="1326.6667"
   height="1332"
   viewBox="0 0 1326.6667 1332"
   sodipodi:docname="bloque-añadido-amarillo.svg"
   inkscape:version="1.2.1 (9c6d41e410, 2022-07-14)"
   xmlns:inkscape="http://www.inkscape.org/namespaces/inkscape"
   xmlns:sodipodi="http://sodipodi.sourceforge.net/DTD/sodipodi-0.dtd"
   xmlns="http://www.w3.org/2000/svg"
   xmlns:svg="http://www.w3.org/2000/svg">
  <defs
     id="defs6" />
  <sodipodi:namedview
     id="namedview4"
     pagecolor="#ffffff"
     bordercolor="#000000"
     borderopacity="0.25"
     inkscape:showpageshadow="2"
     inkscape:pageopacity="0.0"
     inkscape:pagecheckerboard="0"
     inkscape:deskcolor="#d1d1d1"
     showgrid="false"
     inkscape:zoom="0.62837838"
     inkscape:cx="663.6129"
     inkscape:cy="666.7957"
     inkscape:window-width="1920"
     inkscape:window-height="1017"
     inkscape:window-x="-8"
     inkscape:window-y="-8"
     inkscape:window-maximized="1"
     inkscape:current-layer="g8" />
  <g
     inkscape:groupmode="layer"
     inkscape:label="Image"
     id="g8">
    <g
       id="g863"
       transform="translate(-5.000387,-4.7741928)"
       style="fill:#2ed9ad;fill-opacity:1">
      <path
         style="fill:#2ed9ad;fill-opacity:1;stroke-width:1.33333"
         d="m 681.72666,1223.0528 c 0,-34.1 0.17266,-48.05 0.3837,-31 0.21104,17.05 0.21104,44.95 0,62 -0.21104,17.05 -0.3837,3.1 -0.3837,-31 z m -32.5098,56.5556 c 0.064,-1.5533 0.37992,-1.8692 0.80554,-0.8056 0.38516,0.9625 0.3378,2.1125 -0.1052,2.5556 -0.44305,0.443 -0.75818,-0.3445 -0.70029,-1.75 z m 0.10525,-7.2223 c 0,-1.8333 0.30264,-2.5833 0.67252,-1.6666 0.36988,0.9166 0.36988,2.4166 0,3.3333 -0.36988,0.9167 -0.67252,0.1667 -0.67252,-1.6667 z M 240.77825,1086.1698 c 0.91666,-0.3699 2.41666,-0.3699 3.33333,0 0.91667,0.3698 0.16667,0.6725 -1.66667,0.6725 -1.83333,0 -2.58333,-0.3027 -1.66666,-0.6725 z m 848.08335,-0.028 c 0.9625,-0.3851 2.1125,-0.3378 2.5556,0.1052 0.443,0.4431 -0.3445,0.7582 -1.75,0.7003 -1.5533,-0.064 -1.8692,-0.3799 -0.8056,-0.8055 z M 550.19492,796.80869 c 0.96249,-0.38516 2.11251,-0.3378 2.55556,0.1052 0.44305,0.44306 -0.34445,0.75819 -1.75,0.7003 -1.55327,-0.064 -1.8692,-0.37992 -0.80556,-0.80555 z m 229.33334,0 c 0.96249,-0.38516 2.11251,-0.3378 2.55556,0.1052 0.44305,0.44306 -0.34445,0.75819 -1.75,0.7003 -1.55327,-0.064 -1.8692,-0.37992 -0.80556,-0.80555 z M 524.53064,652.77697 c -0.72357,-1.90026 -0.57043,-2.05341 0.7464,-0.7464 0.91123,0.90446 1.32089,1.98032 0.91037,2.39084 -0.41052,0.41052 -1.15606,-0.32948 -1.65677,-1.64444 z M 240.77825,630.16976 c 0.91666,-0.36988 2.41666,-0.36988 3.33333,0 0.91667,0.36988 0.16667,0.67252 -1.66667,0.67252 -1.83333,0 -2.58333,-0.30264 -1.66666,-0.67252 z m 538.75001,-93.36111 c 0.96249,-0.38516 2.11251,-0.3378 2.55556,0.1052 0.44305,0.44306 -0.34445,0.75819 -1.75,0.7003 -1.55327,-0.064 -1.8692,-0.37992 -0.80556,-0.80555 z M 681.72715,254.38613 c -2.8e-4,-34.46666 0.17207,-48.75798 0.38299,-31.75848 0.21092,16.99951 0.21113,45.19951 4.9e-4,62.66667 -0.21065,17.46716 -0.38321,3.55848 -0.38348,-30.90819 z"
         id="path877" />
      <path
         style="fill:#2ed9ad;fill-opacity:1;stroke-width:1.33333"
         d="m 790.44434,1160.1187 c -0.36635,-34.247 -0.20995,-61.8109 0.34755,-61.253 0.55748,0.5579 0.85722,28.5782 0.66608,62.2674 l -0.34754,61.253 z m -250.05205,-1.0659 c 0,-33.3667 0.17311,-47.0167 0.38468,-30.3333 0.21158,16.6833 0.21158,43.9833 0,60.6666 -0.21157,16.6834 -0.38468,3.0334 -0.38468,-30.3333 z m 67.88473,-348.66667 c 0.003,-8.06666 0.22261,-11.19476 0.48801,-6.95132 0.2654,4.24344 0.26293,10.84344 -0.005,14.66667 -0.26842,3.82323 -0.48556,0.35132 -0.48255,-7.71535 z m 114.66666,0 c 0.003,-8.06666 0.22262,-11.19476 0.48802,-6.95132 0.2654,4.24344 0.26293,10.84344 -0.005,14.66667 -0.26841,3.82323 -0.48556,0.35132 -0.48254,-7.71535 z M 607.98878,667.0528 c 0,-1.83333 0.30264,-2.58333 0.67252,-1.66667 0.36988,0.91667 0.36988,2.41667 0,3.33334 -0.36988,0.91666 -0.67252,0.16666 -0.67252,-1.66667 z m 114.66666,0 c 0,-1.83333 0.30264,-2.58333 0.67252,-1.66667 0.36988,0.91667 0.36988,2.41667 0,3.33334 -0.36988,0.91666 -0.67252,0.16666 -0.67252,-1.66667 z M 608.27702,523.71947 c 0.003,-8.06667 0.22261,-11.19476 0.48801,-6.95132 0.2654,4.24344 0.26293,10.84344 -0.005,14.66666 -0.26842,3.82323 -0.48556,0.35132 -0.48255,-7.71534 z m 114.66118,0.66666 c 0,-7.7 0.22038,-10.85 0.48971,-7 0.26933,3.85 0.26933,10.15 0,14 -0.26933,3.85 -0.48971,0.7 -0.48971,-7 z m -290.07662,-6.24414 c 0.9625,-0.38516 2.11251,-0.3378 2.55556,0.1052 0.44306,0.44305 -0.34445,0.75818 -1.75,0.70029 -1.55326,-0.064 -1.8692,-0.37992 -0.80556,-0.80555 z m 464.00002,0 c 0.96249,-0.38516 2.1125,-0.3378 2.55556,0.1052 0.44305,0.44305 -0.34446,0.75818 -1.75,0.70029 -1.55327,-0.064 -1.8692,-0.37992 -0.80556,-0.80555 z M 791.06049,191.71947 c -2.8e-4,-34.46667 0.17206,-48.75799 0.38298,-31.75848 0.21092,16.9995 0.21114,45.1995 5e-4,62.66666 -0.21066,17.46716 -0.38322,3.55848 -0.38348,-30.90818 z M 540.39332,191.0528 c 0,-34.1 0.17267,-48.05 0.38371,-31 0.21104,17.05 0.21104,44.95 0,62 -0.21104,17.05 -0.38371,3.1 -0.38371,-31 z"
         id="path875" />
      <path
         style="fill:#2ed9ad;fill-opacity:1;stroke-width:1.33333"
         d="m 399.07248,909.0528 c 1.6e-4,-46.2 0.1675,-64.90664 0.37189,-41.57031 0.20437,23.33634 0.20425,61.13634 -2.9e-4,84 -0.20454,22.86367 -0.37176,3.77031 -0.3716,-42.42969 z m 533.33334,0 c 1.6e-4,-46.2 0.16751,-64.90664 0.3719,-41.57031 0.20437,23.33634 0.20425,61.13634 -3e-4,84 -0.20453,22.86367 -0.37176,3.77031 -0.3716,-42.42969 z M 583.52825,746.14199 c 0.9625,-0.38516 2.11251,-0.3378 2.55556,0.1052 0.44306,0.44305 -0.34445,0.75818 -1.75,0.70029 -1.55326,-0.064 -1.8692,-0.37992 -0.80556,-0.80555 z m 162.66668,0 c 0.96249,-0.38516 2.1125,-0.3378 2.55556,0.1052 0.44305,0.44305 -0.34446,0.75818 -1.75,0.70029 -1.55327,-0.064 -1.8692,-0.37992 -0.80556,-0.80555 z m -81.33334,-53.33334 c 0.96249,-0.38516 2.11251,-0.3378 2.55556,0.1052 0.44305,0.44306 -0.34445,0.75819 -1.75,0.7003 -1.55327,-0.064 -1.8692,-0.37992 -0.80556,-0.80555 z m -18.58675,-8.08918 c -1.65849,-2.11475 -1.61133,-2.16191 0.50342,-0.50342 2.221,1.74183 2.9273,2.83675 1.82992,2.83675 -0.27687,0 -1.32687,-1.05 -2.33334,-2.33333 z m -1.16325,-34.17008 c 0,-0.27687 1.05,-1.32687 2.33333,-2.33334 2.11475,-1.65849 2.16191,-1.61133 0.50342,0.50342 -1.74183,2.221 -2.83675,2.9273 -2.83675,1.82992 z m -61.58334,-63.07407 c 0.9625,-0.38516 2.11251,-0.3378 2.55556,0.1052 0.44306,0.44305 -0.34445,0.75819 -1.75,0.70029 -1.55326,-0.064 -1.8692,-0.37992 -0.80556,-0.80554 z M 399.07248,425.0528 c 1.6e-4,-46.2 0.1675,-64.90664 0.37189,-41.57031 0.20437,23.33634 0.20425,61.13634 -2.9e-4,84 -0.20454,22.86367 -0.37176,3.77031 -0.3716,-42.42969 z m 533.33334,0 c 1.6e-4,-46.2 0.16751,-64.90664 0.3719,-41.57031 0.20437,23.33634 0.20425,61.13634 -3e-4,84 -0.20453,22.86367 -0.37176,3.77031 -0.3716,-42.42969 z"
         id="path873" />
      <path
         style="fill:#2ed9ad;fill-opacity:1;stroke-width:1.33333"
         d="m 85.739138,909.0528 c 1.57e-4,-46.2 0.167508,-64.90664 0.371889,-41.57031 0.204382,23.33634 0.204252,61.13634 -2.86e-4,84 -0.20454,22.86367 -0.371762,3.77031 -0.371603,-42.42969 z m 1159.999762,0.66667 c 0,-45.83334 0.1674,-64.58334 0.372,-41.66667 0.2046,22.91667 0.2046,60.41667 0,83.33333 -0.2046,22.91667 -0.372,4.16667 -0.372,-41.66666 z M 652.84918,807.39084 c 7.55568,-0.23809 19.55568,-0.23712 26.66666,0.003 7.111,0.23926 0.92908,0.43408 -13.73758,0.43289 -14.66667,-10e-4 -20.48475,-0.19695 -12.92908,-0.43504 z M 556.08759,667.0528 c 0,-2.56667 0.2744,-3.61667 0.60977,-2.33333 0.33536,1.28333 0.33536,3.38333 0,4.66666 -0.33537,1.28334 -0.60977,0.23334 -0.60977,-2.33333 z m 218.66667,0 c 0,-2.56667 0.2744,-3.61667 0.60977,-2.33333 0.33536,1.28333 0.33536,3.38333 0,4.66666 -0.33537,1.28334 -0.60977,0.23334 -0.60977,-2.33333 z M 652.84918,526.05751 c 7.55568,-0.2381 19.55568,-0.23712 26.66666,0.003 7.111,0.23927 0.92908,0.43408 -13.73758,0.4329 -14.66667,-0.001 -20.48475,-0.19695 -12.92908,-0.43504 z M 85.73885,424.38613 c 0,-45.83333 0.167412,-64.58333 0.372025,-41.66666 0.204614,22.91666 0.204614,60.41666 0,83.33333 -0.204613,22.91667 -0.372025,4.16667 -0.372025,-41.66667 z m 1159.99915,-2 c 2e-4,-44.73333 0.168,-62.84017 0.373,-40.23741 0.205,22.60275 0.2049,59.20275 -3e-4,81.33333 -0.2051,22.13058 -0.3729,3.63742 -0.3727,-41.09592 z"
         id="path871" />
      <path
         style="fill:#2ed9ad;fill-opacity:1;stroke-width:1.33333"
         d="m 226.99327,667.0528 c 0,-12.83333 0.19998,-18.08333 0.4444,-11.66667 0.24442,6.41667 0.24442,16.91667 0,23.33334 -0.24442,6.41666 -0.4444,1.16666 -0.4444,-11.66667 z m 30.66667,0 c 0,-12.83333 0.19997,-18.08333 0.4444,-11.66667 0.24441,6.41667 0.24441,16.91667 0,23.33334 -0.24443,6.41666 -0.4444,1.16666 -0.4444,-11.66667 z m 816.00006,0 c 0,-12.83333 0.1999,-18.08333 0.4444,-11.66667 0.2444,6.41667 0.2444,16.91667 0,23.33334 -0.2445,6.41666 -0.4444,1.16666 -0.4444,-11.66667 z m 30.6666,0 c 0,-12.83333 0.2,-18.08333 0.4444,-11.66667 0.2444,6.41667 0.2444,16.91667 0,23.33334 -0.2444,6.41666 -0.4444,1.16666 -0.4444,-11.66667 z m -299.10974,7.22223 c 0.064,-1.55327 0.37992,-1.8692 0.80555,-0.80556 0.38516,0.96249 0.3378,2.1125 -0.1052,2.55556 -0.44306,0.44305 -0.75819,-0.34446 -0.7003,-1.75 z m 0,-14.66667 c 0.064,-1.55327 0.37992,-1.8692 0.80555,-0.80556 0.38516,0.96249 0.3378,2.11251 -0.1052,2.55556 -0.44306,0.44305 -0.75819,-0.34445 -0.7003,-1.75 z m -181.4386,-31.72564 c 0,-0.27687 1.05,-1.32687 2.33333,-2.33333 2.11475,-1.6585 2.16191,-1.61134 0.50341,0.50341 -1.74182,2.221 -2.83674,2.92731 -2.83674,1.82992 z m 81.16325,-1.82992 c -1.65849,-2.11475 -1.61133,-2.16191 0.50341,-0.50341 1.28334,1.00646 2.33334,2.05646 2.33334,2.33333 0,1.09739 -1.09492,0.39108 -2.83675,-1.82992 z"
         id="path869" />
      <path
         style="fill:#2ed9ad;fill-opacity:1;stroke-width:1.33333"
         d="m 816.94151,1059.3861 c -1.65849,-2.1147 -1.61133,-2.1619 0.50342,-0.5034 1.28333,1.0065 2.33333,2.0565 2.33333,2.3334 0,1.0973 -1.09492,0.391 -2.83675,-1.83 z m -559.57,-19.6666 c 0.0272,-2.2 0.326,-2.9386 0.66406,-1.6413 0.33805,1.2973 0.31582,3.0973 -0.0495,4 -0.36524,0.9027 -0.64183,-0.1587 -0.61465,-2.3587 z m 816.35519,-58.00003 c 0,-34.1 0.1726,-48.05 0.3837,-31 0.211,17.05 0.211,44.95 0,62.00003 -0.2111,17.05 -0.3837,3.1 -0.3837,-31.00003 z m 30.6671,-0.66667 c -3e-4,-34.46667 0.1721,-48.75799 0.383,-31.75848 0.2109,16.99951 0.2111,45.19951 5e-4,62.66668 -0.2106,17.4671 -0.3832,3.5585 -0.3835,-30.9082 z m -877.33382,-0.66667 c 0,-34.1 0.17267,-48.05 0.38371,-31 0.21104,17.05 0.21104,44.95 0,61.99997 -0.21104,17.05 -0.38371,3.1 -0.38371,-30.99997 z m 30.66403,-3.33333 c 3e-4,-32.26667 0.17422,-45.27588 0.38648,-28.90937 0.21226,16.36652 0.21201,42.76652 -5.5e-4,58.66667 -0.21257,15.9002 -0.38624,2.5094 -0.38593,-29.7573 z M 525.21685,662.27503 c 0.064,-1.55327 0.37992,-1.8692 0.80555,-0.80556 0.38516,0.96249 0.3378,2.1125 -0.1052,2.55556 -0.44305,0.44305 -0.75819,-0.34446 -0.70029,-1.75 z M 226.44435,496.11877 c -0.36636,-34.98037 -0.2101,-63.14437 0.34724,-62.58665 0.55735,0.55772 0.8571,29.17804 0.66611,63.60069 l -0.34724,62.58666 z m 31.28279,0.93403 c -2.8e-4,-34.46667 0.17207,-48.75799 0.38299,-31.75848 0.21092,16.99951 0.21113,45.19951 4.9e-4,62.66667 -0.21065,17.46716 -0.38321,3.55848 -0.38348,-30.90819 z m 816.00006,0 c -3e-4,-34.46667 0.172,-48.75799 0.3829,-31.75848 0.211,16.99951 0.2112,45.19951 5e-4,62.66667 -0.2106,17.46716 -0.3832,3.55848 -0.3834,-30.90819 z m 30.6671,-0.66667 c 0,-34.83333 0.1723,-49.08333 0.3828,-31.66666 0.2105,17.41666 0.2105,45.91666 0,63.33333 -0.2105,17.41667 -0.3828,3.16667 -0.3828,-31.66667 z"
         id="path867" />
      <path
         style="fill:#2ed9ad;fill-opacity:1;stroke-width:1.33333"
         d="m 662.13824,1327.519 c -1.26868,-0.3583 -35.16868,-19.4266 -75.33333,-42.3739 -63.44679,-36.2491 -73.33248,-42.3151 -75.35792,-46.2407 -2.14615,-4.1595 -2.33143,-11.1192 -2.33334,-87.6501 -0.001,-72.0985 0.27048,-83.7062 2.05144,-87.4593 1.77744,-3.7456 11.96815,-10.0016 75.80388,-46.5348 61.08383,-34.95832 74.61694,-42.2074 78.79577,-42.2074 4.17526,0 17.4999,7.12211 77.26392,41.2981 39.7202,22.714 73.68804,42.862 75.48408,44.7735 l 3.26552,3.4754 0.347,84.8931 c 0.32228,78.8463 0.17981,85.2138 -2,89.3934 -2.02937,3.8911 -12.27137,10.1747 -75.68033,46.4305 -40.33334,23.0617 -74.83334,42.1381 -76.66667,42.392 -1.83334,0.2539 -4.37134,0.1685 -5.64002,-0.1898 z m -12.0136,-104.7962 -0.34638,-62.9966 -54.00001,-30.9602 c -29.7,-17.0281 -54.45588,-30.9797 -55.01305,-31.0034 -0.55719,-0.024 -0.85719,28.1997 -0.66667,62.7186 l 0.34639,62.7618 54,31.1271 c 29.7,17.12 54.45588,31.1772 55.01306,31.2383 0.55718,0.061 0.85718,-28.2374 0.66666,-62.8856 z m 86.46942,31.7814 54.51753,-31.2153 0.34639,-62.7847 c 0.19052,-34.5316 -0.0364,-62.7847 -0.50419,-62.7847 -0.46782,0 -25.3497,13.95 -55.29308,31 l -54.44249,31 -0.0533,63 c -0.0293,34.65 0.16379,63 0.42915,63 0.26535,0 25.01535,-14.0469 55,-31.2153 z M 724.80694,1099.787 c 28.06577,-16.0167 50.86577,-29.2839 50.66667,-29.4827 -0.60528,-0.6041 -108.30158,-62.1095 -109.18514,-62.3556 -1.24311,-0.3462 -110.51963,62.2058 -109.84691,62.8785 0.32095,0.321 25.053,14.5689 54.96012,31.6622 l 54.37658,31.0786 4,-2.3298 c 2.2,-1.2814 26.9629,-15.4345 55.02868,-31.4512 z m -560.82551,-56.4816 c -50.4195,-28.9243 -74.37418,-43.37811 -75.619421,-45.62727 -2.741932,-4.95249 -2.782258,-171.76249 -0.0428,-177.02488 1.412169,-2.7127 19.904481,-13.93472 75.000011,-45.51354 66.23852,-37.96562 73.69079,-41.91287 79.12569,-41.91064 5.43536,0.003 12.88687,3.95948 79.18184,42.05101 48.51838,27.87752 73.77867,43.12547 74.95275,45.24397 2.69194,4.8573 2.68675,171.73956 -0.005,176.94579 -2.74533,5.30886 -147.85866,88.26666 -154.30114,88.21026 -3.41997,-0.03 -22.13917,-10.1616 -78.29143,-42.3747 z m 63.79682,-62.08935 c 0,-49.84642 -0.34408,-62.12229 -1.77447,-63.30941 -1.74381,-1.44724 -40.58715,-23.88832 -85.8922,-49.62277 l -23,-13.0646 v 62.99929 62.99928 l 53.66666,30.81646 c 29.51667,16.949 54.41667,30.8619 55.33334,30.9174 1.31083,0.079 1.66667,-13.1012 1.66667,-61.73565 z m 86.01036,30.90195 53.98964,-30.93473 v -63.17398 -63.17398 l -4.33333,2.63529 c -2.38334,1.44941 -25.63334,14.78616 -51.66667,29.63723 -26.03334,14.85106 -48.99276,28.16169 -51.02096,29.57917 l -3.68763,2.57723 0.0685,61.89429 c 0.0433,39.14168 0.545,61.89428 1.36464,61.89428 0.71287,0 25.59146,-13.9206 55.28575,-30.9348 z M 297.40577,860.0528 c 29.8909,-17.05 54.34709,-31.3 54.34709,-31.66667 0,-0.36666 -24.59429,-14.6955 -54.65397,-31.84188 l -54.65398,-31.17521 -54.65397,31.17521 c -30.05968,17.14638 -54.65354,31.47522 -54.65301,31.84188 9.7e-4,0.67342 108.09377,62.65491 109.28053,62.66255 0.35212,0.003 25.0964,-13.94588 54.98731,-30.99588 z m 713.25723,183.2825 c -50.81671,-29.1403 -74.35382,-43.34278 -75.61939,-45.6293 -2.67917,-4.84049 -2.72707,-172.38095 -0.0507,-177.21175 1.19614,-2.15897 25.97544,-17.11361 74.95279,-45.23498 66.1732,-37.9948 73.7393,-42.01095 79.1659,-42.0221 5.4451,-0.0107 12.7651,3.87131 79.1506,41.98118 49.3894,28.35297 73.736,43.05042 74.9527,45.24732 2.7135,4.89908 2.7454,171.74572 0.034,176.98668 -2.7394,5.29495 -147.8778,88.28315 -154.3052,88.22975 -3.4267,-0.029 -22.0803,-10.1194 -78.2806,-42.3468 z m 63.7819,-61.46813 c 0,-56.37552 -0.1834,-61.39354 -2.3333,-63.83056 -1.2833,-1.45473 -24.8333,-15.42622 -52.3333,-31.04777 -27.50004,-15.62155 -51.35004,-29.26679 -53.00004,-30.32277 l -3,-1.91996 v 63.20158 63.20159 l 53.66664,30.86542 c 29.5167,16.976 54.4167,30.9043 55.3334,30.9518 1.3103,0.068 1.6666,-12.9937 1.6666,-61.09933 z m 85.9964,30.30813 54.0036,-30.87741 V 918.0666 854.83531 l -4.3333,2.62998 c -2.3833,1.4465 -25.0333,14.4542 -50.3333,28.906 -25.3,14.4518 -48.25,27.72576 -51,29.49768 l -5,3.22167 v 61.98108 c 0,40.32008 0.4647,61.98108 1.3297,61.98108 0.7314,0 25.6314,-13.8949 55.3333,-30.8775 z m -16.3688,-152.1225 c 29.8909,-17.05 54.347,-31.3 54.347,-31.66667 0,-0.36666 -24.5881,-14.69202 -54.6403,-31.83412 l -54.6404,-31.16746 -54.6617,31.16746 c -30.064,17.1421 -54.66393,31.46746 -54.66662,31.83412 -0.005,0.67224 108.08402,62.65488 109.27462,62.66255 0.3522,0.003 25.0964,-13.94588 54.9874,-30.99588 z m -673.59276,196.7336 c -7.18841,-3.0049 -46.5934,-26.4671 -49.03482,-29.1959 -4.5567,-5.093 -4.15624,-13.8682 0.89062,-19.5167 3.40066,-3.806 4.702,-4.3463 10.33334,-4.2903 5.65549,0.056 9.21229,1.6523 29.10937,13.0625 12.46667,7.1491 23.69751,14.2131 24.95743,15.6977 5.39981,6.363 3.724,17.1504 -3.3882,21.8105 -3.59991,2.3587 -10.10302,3.5879 -12.86774,2.4322 z m 379.96519,-1.348 c -2.59623,-1.3272 -5.84051,-4.5779 -7.31246,-7.3269 -2.45818,-4.5909 -2.50545,-5.3462 -0.66666,-10.6526 1.90394,-5.4944 2.89068,-6.2429 25.97912,-19.7081 21.43423,-12.5004 24.68877,-13.9986 30.44271,-14.0141 5.60265,-0.015 6.95,0.5505 10.33333,4.3371 5.04647,5.648 5.44656,14.4197 0.89063,19.5261 -3.63839,4.078 -46.24723,28.5883 -51.35891,29.5437 -2.12283,0.3967 -5.58702,-0.3143 -8.30776,-1.7052 z M 660.44492,943.81711 c -2.2,-0.95332 -5.2,-3.07827 -6.66666,-4.72212 -2.48255,-2.78246 -2.66667,-4.87399 -2.66667,-30.29155 v -27.30272 l 4.35437,-3.89063 c 6.13203,-5.47897 14.49002,-5.48009 20.62459,-0.003 l 4.35437,3.88784 0.3559,25.77882 c 0.38156,27.63859 -0.0769,30.12866 -6.3559,34.51932 -4.78213,3.34398 -9.40968,4.01292 -14,2.02382 z M 422.97825,810.51947 c -3.69384,-3.69384 -4.53333,-5.55435 -4.53333,-10.04691 0,-3.03247 0.93698,-6.94361 2.0822,-8.69143 1.98457,-3.02884 38.70748,-25.0755 48.77404,-29.28158 12.73392,-5.32058 25.0558,7.79621 18.91759,20.13798 -2.09278,4.20784 -5.85996,6.86478 -26.4405,18.64806 -27.96303,16.01008 -31.24317,16.7907 -38.8,9.23388 z m 446.80001,-9.22618 c -21.07319,-12.04248 -24.31087,-14.34322 -26.54912,-18.86626 -2.31384,-4.67576 -2.37537,-5.64266 -0.66667,-10.47528 2.40043,-6.789 7.49807,-10.60536 14.11063,-10.56395 7.08623,0.0444 51.53612,25.38576 54.46612,31.05176 3.4521,6.67563 2.56243,12.95652 -2.56096,18.07991 -7.54004,7.54004 -10.82948,6.75785 -38.8,-9.22618 z M 232.48093,698.68881 227.77825,693.98613 V 667.0528 640.11947 l 4.70268,-4.70268 c 4.36006,-4.36007 5.15832,-4.65132 10.95674,-3.99775 4.81054,0.54221 7.11038,1.66329 9.96399,4.85704 l 3.70992,4.15212 v 26.6246 26.6246 l -3.70992,4.15212 c -2.85361,3.19375 -5.15345,4.31483 -9.96399,4.85704 -5.79842,0.65357 -6.59668,0.36232 -10.95674,-3.99775 z m 850.48147,3.05723 c -1.5487,-0.62575 -4.0987,-2.76863 -5.6666,-4.76196 -2.696,-3.4274 -2.8509,-5.06996 -2.8509,-30.24443 v -26.62018 l 4.5334,-4.53334 c 3.7164,-3.7164 5.5424,-4.53333 10.1333,-4.53333 4.5909,0 6.4169,0.81693 10.1333,4.53333 l 4.5334,4.53334 v 26.93333 26.93333 l -4.5334,4.53334 c -4.7055,4.70552 -10.0171,5.75808 -16.2825,3.22657 z M 237.31775,600.86133 C 227.73215,596.68153 92.879974,518.0412 90.111575,515.01665 l -3.666666,-4.00592 v -85.37852 c 0,-71.57814 0.309365,-85.97676 1.913949,-89.07968 1.476599,-2.85542 18.604372,-13.2371 74.955172,-45.43269 47.59618,-27.19369 74.75304,-41.96112 77.95508,-42.3906 4.5003,-0.60361 11.16282,2.91327 79.15835,41.78463 56.7128,32.42129 74.68995,43.30516 76.13098,46.09178 1.5688,3.03372 1.88648,18.02568 1.88648,89.02656 v 85.37852 l -3.66667,3.98678 c -2.01667,2.19273 -35.76667,22.35142 -75,44.79709 -68.64983,39.27504 -77.01523,43.44115 -82.4605,41.06673 z m -9.5395,-104.23509 v -62.42655 l -51.00001,-29.17337 c -28.05,-16.04536 -52.95,-30.31267 -55.33333,-31.70515 l -4.33333,-2.53177 v 63.18265 63.18267 l 53.66666,30.82608 c 29.51667,16.95436 54.41667,30.88143 55.33334,30.94905 1.31135,0.0968 1.66667,-13.18568 1.66667,-62.30361 z m 87,30.71443 53,-30.24507 V 433.94249 370.7894 l -4.33333,2.53643 c -2.38334,1.39502 -26.83334,15.38018 -54.33334,31.07812 -27.5,15.69793 -50.44081,29.16581 -50.97959,29.92861 -0.53877,0.7628 -0.98877,29.20109 -1,63.19623 -0.0192,58.3157 0.11147,61.75978 2.31292,60.93313 1.28334,-0.48191 26.18334,-14.48647 55.33334,-31.12125 z M 297.22922,376.0528 c 29.95887,-17.05 54.48831,-31.31408 54.50986,-31.69795 0.068,-1.21121 -107.10009,-61.96872 -109.30449,-61.96872 -2.24001,0 -109.35444,60.71535 -109.27752,61.94144 0.04,0.63706 107.85544,62.57592 109.11132,62.68331 0.26958,0.0231 25.00195,-13.90808 54.96083,-30.95808 z m 783.88238,223.25029 c -11.0136,-6.06973 -134.51039,-76.86946 -139.5837,-80.02225 -3.07104,-1.90848 -6.22104,-4.86876 -7,-6.57841 -0.95201,-2.08943 -1.4163,-30.86494 -1.4163,-87.77858 0,-70.49518 0.31665,-85.28249 1.89146,-88.32784 2.67035,-5.16388 147.79724,-88.20988 154.15104,-88.20988 6.3697,0 151.3789,83.01355 154.0575,88.19346 2.7095,5.23957 2.7522,172.09881 0.045,176.98205 -2.364,4.26468 -146.2785,86.86939 -152.8119,87.71168 -3.0561,0.39399 -6.2772,-0.28597 -9.3333,-1.97023 z m -6.6667,-102.04364 c 0,-57.1836 -0.174,-61.94577 -2.3333,-63.83645 -1.2833,-1.12372 -25.7333,-15.38591 -54.3333,-31.69377 -28.60004,-16.30786 -52.45004,-29.91686 -53.00004,-30.24223 -0.55,-0.32537 -1,27.81416 -1,62.53227 v 63.12385 l 54.26914,30.95484 c 29.848,17.02516 54.748,30.95484 55.3333,30.95484 0.5853,0 1.0642,-27.80701 1.0642,-61.79335 z m 87,30.13202 53,-30.22155 V 433.97965 370.7894 l -4.3333,2.52548 c -2.3833,1.38901 -27.2833,15.65408 -55.3333,31.70013 l -51,29.17464 v 62.57423 c 0,59.0342 0.132,62.52543 2.3333,61.71168 1.2833,-0.4744 26.1833,-14.46225 55.3333,-31.08409 z M 1143.8786,376.0528 c 29.9732,-17.05 54.5123,-31.31825 54.5315,-31.70724 0.061,-1.22831 -107.0787,-61.95943 -109.3062,-61.95943 -2.2291,0 -109.35906,60.74456 -109.28014,61.96379 0.0397,0.61417 107.87034,62.55188 109.08974,62.66096 0.2577,0.0231 24.992,-13.90808 54.9651,-30.95808 z M 469.63748,571.78027 c -10.51211,-4.49383 -47.09434,-26.37896 -49.0287,-29.33116 -6.07512,-9.27182 0.0561,-21.80518 11.21272,-22.9208 5.57207,-0.55719 7.50663,0.2941 29.95675,13.18233 21.09076,12.10785 24.309,14.40477 26.54912,18.94859 2.31366,4.69294 2.37524,5.66238 0.66667,10.49462 -3.07632,8.70056 -11.60293,12.94103 -19.35656,9.62642 z m 382.21594,0.0981 c -8.88828,-2.95267 -12.95668,-14.54512 -7.84341,-22.34895 1.22608,-1.87122 12.57088,-9.22544 26.06285,-16.89512 27.79348,-15.79953 31.00047,-16.55313 38.5054,-9.0482 3.49939,3.49939 4.53334,5.6432 4.53334,9.39955 0,9.29344 -2.40082,11.59236 -26.41939,25.29813 -25.49588,14.54876 -28.47134,15.70983 -34.83879,13.59458 z m -196.38746,-115.38289 -4.35437,-3.89063 v -27.30272 c 0,-25.41695 0.18419,-27.50929 2.66667,-30.2934 6.52601,-7.31893 16.82882,-7.54636 23.43234,-0.51724 3.20642,3.41308 3.23432,3.67864 3.23432,30.77807 v 27.33529 l -4.35437,3.89063 c -3.43425,3.0685 -5.61332,3.89062 -10.31229,3.89062 -4.69898,0 -6.87804,-0.82212 -10.3123,-3.89062 z M 586.82847,316.79709 c -63.6394,-36.45736 -73.89431,-42.75849 -75.66667,-46.49345 -1.77668,-3.74409 -2.04993,-15.41155 -2.04815,-87.45235 10e-4,-76.51582 0.18762,-83.494555 2.33334,-87.689633 2.03154,-3.971837 10.98792,-9.51395 69.6646,-43.107766 77.74471,-44.5107215 81.88669,-46.6789583 87.04807,-45.5678101 2.0431,0.4398416 36.5431,19.5447961 76.66667,42.4554541 63.73444,36.392532 73.24848,42.232037 75.29893,46.216836 2.17935,4.235286 2.32221,10.631019 2,89.536019 l -0.347,84.97492 -4,3.85446 c -2.2,2.11996 -36.18531,22.23124 -75.52291,44.69175 -60.30657,34.43311 -72.32956,40.83079 -76.66667,40.79591 -4.27222,-0.0344 -17.617,-7.18698 -78.76021,-42.21434 z m 63.61645,-62.08654 v -63.00892 l -53.54533,-30.65775 c -29.44994,-16.86176 -54.34994,-30.85174 -55.33334,-31.08885 -1.47581,-0.35583 -1.788,10.48268 -1.788,62.07622 v 62.50731 l 55,31.56119 c 30.25001,17.35865 55.15001,31.57436 55.33334,31.59045 0.18333,0.0161 0.33333,-28.32475 0.33333,-62.97965 z m 90.33334,29.00517 51,-29.23004 v -62.48087 c 0,-51.2638 -0.31783,-62.40348 -1.77035,-62.04978 -0.97369,0.23711 -25.87369,14.20697 -55.33333,31.04414 l -53.56299,30.61306 v 63.18532 63.18532 l 4.33333,-2.51855 c 2.38334,-1.3852 27.28334,-15.67207 55.33334,-31.7486 z M 719.83818,134.27499 c 28.93371,-16.56114 53.42955,-30.57573 54.43519,-31.14354 1.21985,-0.68876 -16.2717,-11.376729 -52.55185,-32.111074 -29.90914,-17.093279 -55.08129,-31.078688 -55.9381,-31.078688 -2.65323,0 -108.66259,61.037122 -108.25001,62.327222 0.4651,1.45433 106.19191,62.11722 108.26151,62.11722 0.79008,0 25.10955,-13.55001 54.04326,-30.11114 z M 426.96241,329.81427 c -8.326,-3.56583 -11.43056,-16.68104 -5.51749,-23.30858 1.65,-1.84937 13.2,-9.21153 25.66666,-16.36037 19.29106,-11.0622 23.51758,-12.98573 28.38041,-12.91624 10.90132,0.15579 17.64976,11.07092 12.95782,20.95841 -1.90045,4.00491 -5.82553,6.79935 -25.68624,18.28719 -23.416,13.54431 -29.78345,15.91684 -35.80116,13.33959 z m 465.48252,0.0202 c -1.46667,-0.65216 -12.56667,-6.87914 -24.66667,-13.83776 -18.51264,-10.64646 -22.39167,-13.42408 -24.47084,-17.52262 -3.21693,-6.34132 -2.09435,-12.40887 3.24167,-17.5211 7.21262,-6.91014 11.70148,-5.82088 37.89584,9.19584 12.46667,7.1469 24.01667,14.50747 25.66667,16.35684 4.45952,4.99835 4.15225,13.88222 -0.66667,19.27507 -3.94167,4.41111 -11.91851,6.31323 -17,4.05373 z"
         id="path865"
         sodipodi:nodetypes="ssscssssscsssssscscscsssccssscssscssssscsscssscsscsccssscccscsccccssscssscssscsscssssscssscsssssscccsssscccssscsssssscsscsssscssssssssssssscsscsscssccssssssssssssssscccssscccsssssscssscccsssscssssssscsssscsscccsssscccsssssssssssscssssssssccssssscsssscccsscsssscsssssssssssssssssssscsssscssssscsssssscssssscssscsssscssscccssssssssssssssssssssssss" />
    </g>
    <path
       d="m 582.06915,788.52036 c -50.81673,-29.1403 -74.35384,-43.34277 -75.61941,-45.62929 -2.67917,-4.84049 -2.72707,-172.38095 -0.0507,-177.21175 1.19614,-2.15897 25.97544,-17.11361 74.95281,-45.23498 66.1732,-37.9948 73.7393,-42.01095 79.1659,-42.0221 5.4451,-0.0107 12.7651,3.87131 79.1506,41.98118 49.3894,28.35297 73.736,43.05042 74.9527,45.24732 2.7135,4.89908 2.7454,171.74572 0.034,176.98668 -2.7394,5.29495 -147.8778,88.28314 -154.3052,88.22974 -3.4267,-0.029 -22.0803,-10.1194 -78.2806,-42.3468 z m 63.7819,-61.46812 c 0,-56.37552 -0.1834,-61.39354 -2.3333,-63.83056 -1.2833,-1.45473 -24.8333,-15.42622 -52.3333,-31.04777 -27.50006,-15.62155 -51.35006,-29.26679 -53.00006,-30.32277 l -3,-1.91996 v 63.20158 63.20159 l 53.66666,30.86541 c 29.5167,16.976 54.4167,30.9043 55.3334,30.9518 1.3103,0.068 1.6666,-12.9937 1.6666,-61.09932 z m 85.9964,30.30812 54.0036,-30.8774 v -63.23129 -63.23129 l -4.3333,2.62998 c -2.3833,1.4465 -25.0333,14.4542 -50.3333,28.906 -25.3,14.4518 -48.25,27.72576 -51,29.49768 l -5,3.22167 v 61.98108 c 0,40.32007 0.4647,61.98107 1.3297,61.98107 0.7314,0 25.6314,-13.8949 55.3333,-30.8775 z m -16.3688,-152.12249 c 29.8909,-17.05 54.347,-31.3 54.347,-31.66667 0,-0.36666 -24.5881,-14.69202 -54.6403,-31.83412 l -54.6404,-31.16746 -54.6617,31.16746 c -30.06402,17.1421 -54.66395,31.46746 -54.66664,31.83412 -0.005,0.67224 108.08404,62.65488 109.27464,62.66255 0.3522,0.003 25.0964,-13.94588 54.9874,-30.99588 z"
       style="fill:#2ed9ad;fill-opacity:1;stroke-width:1.33333"
       id="path6608" />
  </g>
</svg>
