<?xml version="1.0" encoding="UTF-8" standalone="no"?>
<!-- Uploaded to: SVG Repo, www.svgrepo.com, Generator: SVG Repo Mixer Tools -->

<svg
   width="800"
   height="800"
   viewBox="0 0 20 20"
   version="1.1"
   id="svg5"
   sodipodi:docname="cube-geometry-shape-figure-form-graphic-svgrepo-com.svg"
   xmlns:inkscape="http://www.inkscape.org/namespaces/inkscape"
   xmlns:sodipodi="http://sodipodi.sourceforge.net/DTD/sodipodi-0.dtd"
   xmlns="http://www.w3.org/2000/svg"
   xmlns:svg="http://www.w3.org/2000/svg">
  <defs
     id="defs9" />
  <sodipodi:namedview
     id="namedview7"
     pagecolor="#ffffff"
     bordercolor="#000000"
     borderopacity="0.25"
     inkscape:showpageshadow="2"
     inkscape:pageopacity="0.0"
     inkscape:pagecheckerboard="0"
     inkscape:deskcolor="#d1d1d1"
     showgrid="false" />
  <g
     id="layer1">
    <path
       d="M 10.005859,0.5 A 0.50083746,0.50083746 0 0 0 9.7539062,0.5644531 l -8,4.5 A 0.50083746,0.50083746 0 0 0 1.5,5.5 v 9 a 0.50083746,0.50083746 0 0 0 0.2539062,0.435547 l 8,4.5 a 0.50083746,0.50083746 0 0 0 0.4921878,0 l 8,-4.5 A 0.50083746,0.50083746 0 0 0 18.5,14.5 v -9 A 0.50083746,0.50083746 0 0 0 18.246094,5.0644531 l -8,-4.49999998 A 0.50083746,0.50083746 0 0 0 10.005859,0.5 Z M 10,1.5742188 16.978516,5.5 10,9.4257812 3.0214844,5.5 Z m -7.5,4.78125 7,3.9375002 v 7.851562 l -7,-3.9375 z m 15,0 v 7.8515622 l -7,3.9375 v -7.851562 z"
       style="fill:#cbb32b;fill-opacity:1;stroke:none;stroke-width:0px"
       id="path2" />
  </g>
</svg>
