<?xml version="1.0" encoding="UTF-8" standalone="no"?>
<!-- Created with Inkscape (http://www.inkscape.org/) -->

<svg
   version="1.1"
   id="svg2"
   width="200"
   height="200"
   viewBox="0 0 200 200"
   sodipodi:docname="etapas01.png"
   xmlns:inkscape="http://www.inkscape.org/namespaces/inkscape"
   xmlns:sodipodi="http://sodipodi.sourceforge.net/DTD/sodipodi-0.dtd"
   xmlns="http://www.w3.org/2000/svg"
   xmlns:svg="http://www.w3.org/2000/svg">
  <defs
     id="defs6" />
  <sodipodi:namedview
     id="namedview4"
     pagecolor="#ffffff"
     bordercolor="#000000"
     borderopacity="0.25"
     inkscape:showpageshadow="2"
     inkscape:pageopacity="0.0"
     inkscape:pagecheckerboard="0"
     inkscape:deskcolor="#d1d1d1"
     showgrid="false" />
  <g
     inkscape:groupmode="layer"
     inkscape:label="Image"
     id="g8">
    <g
       id="g311"
       transform="translate(-0.8808345,1.0477359)">
      <path
         style="fill:#b5f1f5;stroke-width:1.33333"
         d="M 32.888889,167.11111 C 32.4,166.62223 32,144.42223 32,117.77778 c 0,-48.444447 0,-48.444447 73.33333,-48.444447 73.33334,0 73.33334,0 73.33334,6.249455 0,6.249455 0,6.249455 -4.32055,2.333333 C 171.96983,75.762255 169.81983,73.55 169.56835,73 c -0.25148,-0.55 -7.60724,-1 -16.34612,-1 -15.8889,0 -15.8889,0 -15.8889,6 0,6 0,6 -6,6 -3.80857,0 -6.07022,0.608729 -6.19225,1.666667 -0.10575,0.916666 -0.25575,6.466666 -0.33334,12.333333 -0.12869,9.73075 -0.37505,10.66667 -2.80774,10.66667 -2.17824,0 -2.7411,-1.02435 -3.07305,-5.59268 -0.44709,-6.152943 -1.82514,-7.633797 -18.08579,-19.435053 -8.764753,-6.361062 -8.764753,-6.361062 -35.802957,-6 C 38,78 38,78 37.639037,105.85655 c -0.360962,27.85654 -0.360962,27.85654 6,36.45756 C 58.038631,161.7846 53.552701,160 88.095809,160 c 30.486231,0 30.486231,0 30.861881,-15.66667 0.35133,-14.65256 0.54826,-15.66666 3.04231,-15.66666 2.42947,0 2.68265,0.94878 2.84635,10.66666 0.0988,5.86667 0.24882,11.41667 0.33333,12.33334 0.0996,1.08008 2.4023,1.66666 6.54271,1.66666 5.81094,0 6.92188,0.54291 12.27761,6 5.88856,6 5.88856,6 19.53225,6 7.65755,0 14.00526,0.585 14.46775,1.33334 0.93052,1.50561 -143.607255,1.9483 -145.111111,0.44444 z M 131.7167,134.33333 C 131.33333,122 131.33333,122 125,121.59361 c -5.17875,-0.3323 -6.33333,-0.86589 -6.33333,-2.92694 0,-2.06106 1.15458,-2.59465 6.33333,-2.92695 6.33333,-0.40639 6.33333,-0.40639 6.71786,-12.82763 0.33703,-10.886601 0.66649,-12.367821 2.66667,-11.988907 1.61039,0.305073 2.40395,1.998929 2.69596,5.754573 0.33766,4.342444 1.6793,6.610904 7.28779,12.322244 6.87396,7 6.87396,7 20.58617,7 13.71222,0 13.71222,0 13.71222,7.33333 0,4.03334 -0.4823,7.33334 -1.07178,7.33334 -0.58948,0 -3.125,-2.11839 -5.63449,-4.70752 -4.56271,-4.70752 -4.56271,-4.70752 -19.26155,-4.33334 C 138,122 138,122 137.61663,134.33333 c -0.34663,11.15139 -0.62934,12.33334 -2.94996,12.33334 -2.32064,0 -2.60334,-1.18195 -2.94997,-12.33334 z m 21.24411,-2.88471 c -1.81452,-1.37659 -1.95489,-1.96017 -0.59684,-2.4813 1.80818,-0.69386 10.3027,2.30316 10.3027,3.63498 0,1.47306 -7.40342,0.59306 -9.70586,-1.15368 z M 55.441908,90.534143 c -5.224757,-5.20081 -5.224757,-5.20081 10.474795,-5.20081 15.432744,0 15.785382,0.06798 20.749964,4 2.777726,2.2 5.714069,4 6.525205,4 0.811137,0 1.474795,0.6 1.474795,1.333334 0,0.826101 -6.467207,1.282917 -17,1.200809 -17,-0.13252 -17,-0.13252 -22.224759,-5.333333 z m 97.224762,-9.20081 c -2.36158,-2.609505 -2.32884,-2.666666 1.52668,-2.666666 3.77502,0 7.13998,2.010812 7.13998,4.266666 0,2.1543 -6.32598,0.986427 -8.66666,-1.6 z m -119.829803,-25 c 0.368066,-2.75 0.941774,-6.35 1.274908,-8 0.605697,-3 0.605697,-3 72.024735,-3 48.61466,0 71.27221,0.440491 70.9592,1.379535 -0.30947,0.928403 -23.45502,1.357083 -70.77778,1.31088 C 36,47.955095 36,47.955095 36,52.470811 c 0,4.32704 0.236764,4.541466 5.666667,5.132037 3.116666,0.338976 34.916026,0.567008 70.665243,0.506736 51.16772,-0.08627 64.99888,0.245061 65,1.557083 0.001,1.31294 -15.40327,1.666666 -72.58142,1.666666 -72.582835,0 -72.582835,0 -71.913623,-5 z m 12.496466,-3 c 0,-2.2 0.6,-4 1.333334,-4 0.733333,0 1.333333,1.8 1.333333,4 0,2.2 -0.6,4 -1.333333,4 -0.733334,0 -1.333334,-1.8 -1.333334,-4 z m 12,0 c 0,-2.666666 0.666667,-4 2,-4 1.333334,0 2,1.333334 2,4 0,2.666667 -0.666666,4 -2,4 -1.333333,0 -2,-1.333333 -2,-4 z m 13.333334,0 c 0,-2.2 0.6,-4 1.333333,-4 0.733333,0 1.333333,1.8 1.333333,4 0,2.2 -0.6,4 -1.333333,4 -0.733333,0 -1.333333,-1.8 -1.333333,-4 z m 100.000003,0 c 0,-2.2 0.6,-4 1.33333,-4 0.73333,0 1.33333,1.8 1.33333,4 0,2.2 -0.6,4 -1.33333,4 -0.73333,0 -1.33333,-1.8 -1.33333,-4 z M 133,36.336805 c 9.71667,-0.227813 25.61667,-0.227813 35.33333,0 9.71667,0.227812 1.76667,0.414206 -17.66666,0.414206 -19.43334,0 -27.38334,-0.186394 -17.66667,-0.414206 z"
         id="path325" />
      <path
         style="fill:#45f9fd;stroke-width:1.33333"
         d="M 16.848485,183.15152 C 13.333333,179.63636 13.333333,179.63636 13.333333,100 c 0,-79.636364 0,-79.636364 3.515152,-83.151515 1.933334,-1.933333 4.24034,-3.515152 5.126683,-3.515152 1.892712,0 6.024832,4.27398 6.024832,6.231671 0,0.745267 1.097244,2.348021 2.438321,3.561679 2.10208,1.902357 6.210076,2.20665 29.790039,2.20665 27.351719,0 27.351719,0 29.864884,-4.666666 2.692353,-4.999398 5.122837,-5.966038 6.430771,-2.557618 1.159832,3.022475 1.001522,17.888152 -0.190682,17.905511 -0.55,0.008 -15.787496,0.158009 -33.861101,0.333333 C 32.285759,36.640721 29.382781,36.873401 26.805565,39.206651 24.027415,41.721815 24,42.376496 24,106.20665 c 0,62.68224 0.07354,64.53356 2.666667,67.12668 C 29.1939,175.86056 31.111111,176 63.333333,176 c 31.692407,0 34,0.16085 34,2.36999 0,1.3035 -0.934022,3.7035 -2.075605,5.33333 -2.058705,2.93921 -2.372059,2.96335 -38.484848,2.96335 -36.409244,0 -36.409244,0 -39.924395,-3.51515 z M 177.87268,166.46065 c -0.61941,-1.00224 -0.36225,-1.17524 0.73704,-0.49584 2.98191,1.84291 4.01556,-2.26538 4.03653,-16.0433 0.0148,-9.75403 -0.51348,-14.1177 -1.93718,-16 -2.71806,-3.5936 -2.74979,-17.36476 -0.0424,-18.40368 1.60865,-0.6173 2,-3.6136 2,-15.31272 0,-11.302517 -0.44588,-14.915307 -2,-16.20511 -1.27755,-1.060271 -2,-4.009055 -2,-8.16326 0,-6.337119 0.10228,-6.503407 4,-6.503407 4,0 4,0 4,47.733337 0,35.34814 -0.41515,48.14848 -1.6,49.33333 -2.03262,2.03261 -5.95482,2.06568 -7.19399,0.0607 z"
         id="path323" />
      <path
         style="fill:#9aa3a6;stroke-width:1.33333"
         d="m 10.722809,189.53979 c -5.3894757,-5.1269 -5.3894757,-5.1269 -5.3894757,-88.79429 0,-75.059007 0.2243704,-84.047216 2.1807218,-87.359056 4.6779429,-7.9191261 5.5400919,-8.0531107 51.8192779,-8.0531107 37.176484,0 42.710927,0.2691946 46.046737,2.2397051 6.21174,3.6693636 8.20509,8.9974006 7.64224,20.4269616 -0.49245,10 -0.49245,10 -0.75738,-0.955556 -0.25672,-10.616036 -0.41093,-11.101555 -4.97604,-15.666666 -4.71111,-4.7111113 -4.71111,-4.7111113 -47.955557,-4.7111113 -43.244444,0 -43.244444,0 -47.955555,4.7111113 C 6.6666667,16.088889 6.6666667,16.088889 6.6666667,100 c 0,83.91111 0,83.91111 4.7111113,88.62223 4.711111,4.7111 4.711111,4.7111 47.955555,4.7111 43.244447,0 43.244447,0 47.867847,-4.62341 3.00849,-3.00848 4.77048,-6.15211 5.04445,-9 0.42104,-4.37659 0.42104,-4.37659 37.6914,-4.73149 36.09818,-0.34374 37.36668,-0.44539 40.33333,-3.23242 3.06297,-2.87752 3.06297,-2.87752 3.06297,-65.88166 0,-63.004137 0,-63.004137 -3.51314,-65.767577 -1.93223,-1.519892 -2.7784,-2.76344 -1.88039,-2.76344 0.89801,0 2.75897,1.35 4.13545,3 2.36903,2.839778 2.50507,6.367903 2.54706,66.060607 0.0444,63.06061 0.0444,63.06061 -3.22838,66.33333 C 188.12121,176 188.12121,176 150.72727,176 c -37.39394,0 -37.39394,0 -37.39394,3.46095 0,4.63934 -3.53429,10.35566 -8.05311,13.025 -3.21069,1.8966 -9.259865,2.18072 -46.4298,2.18072 -42.738135,0 -42.738135,0 -48.127611,-5.12688 z M 31.555556,168.44444 C 31.066667,167.95556 30.666667,145.15556 30.666667,117.77778 30.666667,68 30.666667,68 105,68.321811 c 74.33333,0.321812 74.33333,0.321812 0.65025,0.677964 -73.683082,0.356152 -73.683082,0.356152 -73.333333,49.344855 0.34975,48.9887 0.34975,48.9887 73.016413,49.67262 72.66667,0.68391 72.66667,0.68391 -0.1111,1 -40.027782,0.17384 -73.177782,-0.0839 -73.66667,-0.57281 z m 112.505454,-9.04893 c -5.13902,-5.2363 -6.62898,-5.99482 -12.61094,-6.42003 -6.7834,-0.4822 -6.7834,-0.4822 0.30344,-0.72884 6.82512,-0.23753 7.34093,-4.3e-4 13.96688,6.42003 3.78401,3.66666 6.26985,6.66666 5.52409,6.66666 -0.74576,0 -3.97832,-2.67202 -7.18347,-5.93782 z m -90.256221,-3.93795 c -2.092634,-2.49835 -6.667222,-8.41289 -10.165752,-13.14345 -6.360962,-8.60102 -6.360962,-8.60102 -6,-36.45756 C 38,78 38,78 65.038203,77.638937 c 27.038204,-0.361062 27.038204,-0.361062 35.836137,6 4.83887,3.498584 10.97168,8.360518 13.62847,10.804296 4.10095,3.772156 3.62226,3.584858 -3.16948,-1.240117 -4.4,-3.125843 -8.3,-6.070485 -8.66666,-6.543649 C 102.3,86.186301 100.05,84.664989 97.666667,83.278773 c -2.383334,-1.386216 -4.333334,-2.991029 -4.333334,-3.56625 0,-0.57522 -12.3,-1.045856 -27.333333,-1.045856 -27.333333,0 -27.333333,0 -27.333333,27.318093 0,22.36582 0.362997,27.74384 2.002394,29.66667 1.101318,1.29172 5.185816,6.84857 9.076666,12.34857 7.074269,10 7.074269,10 37.998192,10 17.008161,0 30.923661,0.45 30.923331,1 -3.2e-4,0.55 -13.73843,1 -30.529127,1 -30.528544,0 -30.528544,0 -34.333334,-4.54244 z m 63.807601,-12.19089 c -0.27078,-13.00254 0.64862,-16.6 4.24245,-16.6 0.72683,0 0.32144,0.75 -0.90087,1.66666 -1.75854,1.31882 -2.31005,4.44949 -2.64245,15 -0.42008,13.33334 -0.42008,13.33334 -0.69913,-0.0667 z m 13.99941,3.90069 c -0.51982,-0.51983 -0.94513,-6.21227 -0.94513,-12.64987 0,-11.70471 0,-11.70471 -6.33334,-12.24724 C 118,121.72773 118,121.72773 124.66667,121.86386 131.33333,122 131.33333,122 131.7167,134.33333 c 0.34663,11.15139 0.62933,12.33334 2.94997,12.33334 2.32062,0 2.60333,-1.18195 2.94996,-12.33334 C 138,122 138,122 152.6896,121.6259 c 14.6896,-0.3741 14.6896,-0.3741 19.93727,5 2.88621,2.95576 4.80756,5.3741 4.26966,5.3741 -0.5379,0 -2.82182,-2.1 -5.07538,-4.66667 -4.09739,-4.66666 -4.09739,-4.66666 -18.57591,-4.66666 -14.47851,0 -14.47851,0 -14.86187,12.33333 -0.34976,11.25177 -0.62204,12.36749 -3.1049,12.72291 -1.49684,0.21426 -3.14685,-0.0357 -3.66667,-0.55555 z m 19.92819,-14.93901 c -2.82274,-3.11909 -2.78919,-4.23345 0.12666,-4.20793 1.69415,0.0148 1.8698,0.31462 0.64123,1.09441 -1.96196,1.24527 2.1938,3.75648 7.69211,4.64813 2.42161,0.39271 2.02228,0.59021 -1.46002,0.72213 -3.12844,0.11854 -5.5598,-0.66534 -7,-2.25674 z m 4.21001,-3.80584 c 0.96249,-0.38516 2.11249,-0.33779 2.55556,0.10527 0.44305,0.44306 -0.34445,0.75819 -1.75,0.70029 -1.55327,-0.064 -1.8692,-0.37992 -0.80556,-0.80555 z m -31.46576,-13.35742 c 6.28424,-0.54052 6.28424,-0.54052 6.66667,-12.80281 C 131.32793,90.173384 131.38047,90 134.66667,90 c 3.00096,0 3.37422,0.598263 3.74348,6 0.34744,5.08245 1.35926,6.96852 6.61654,12.33333 6.2064,6.33334 6.2064,6.33334 20.25652,6.61453 14.05012,0.2812 14.05012,0.2812 0.14198,0.71598 -13.90814,0.43478 -13.90814,0.43478 -20.93423,-6.50402 -5.87543,-5.80245 -7.09144,-7.82845 -7.42519,-12.371145 -0.28412,-3.867304 -1.05657,-5.557008 -2.68124,-5.865079 -2.00021,-0.379283 -2.32964,1.101701 -2.66667,11.988494 -0.38453,12.42124 -0.38453,12.42124 -7.05119,12.55738 C 118,115.60561 118,115.60561 124.28424,115.06509 Z m -5.35091,-5.99842 c -0.88,-0.88 -1.52901,-3.13 -1.44224,-5 0.14692,-3.16654 0.21808,-3.12534 1.03634,0.6 0.65797,2.99552 1.60618,3.9752 3.77596,3.90125 1.59354,-0.0543 2.59178,0.39569 2.21829,1 -0.98513,1.59399 -3.74023,1.34687 -5.58835,-0.50125 z M 55,91.918501 c -3.116667,-2.941485 -5.666667,-5.926482 -5.666667,-6.633328 0,-0.77255 6.780859,-1.17018 17,-0.996877 17,0.288296 17,0.288296 0.49424,0.709089 -16.50576,0.420794 -16.50576,0.420794 -10.985621,5.671975 5.520139,5.251183 5.520139,5.251183 22.50576,5.667803 C 95.333333,96.753781 95.333333,96.753781 78,97.010219 60.666667,97.266657 60.666667,97.266657 55,91.918501 Z m 69.21053,-2.585168 c 0,-1.833333 0.30263,-2.583333 0.67251,-1.666666 0.36988,0.916666 0.36988,2.416666 0,3.333333 -0.36988,0.916667 -0.67251,0.166667 -0.67251,-1.666667 z M 131,84.396415 c 6.33333,-0.542524 6.33333,-0.542524 6.33333,-6.46947 0,-3.25982 0.47759,-5.926945 1.0613,-5.926945 0.5837,0 0.7337,2.85 0.33333,6.333333 C 138,84.666667 138,84.666667 131.33333,84.802803 124.66667,84.938939 124.66667,84.938939 131,84.396415 Z m 20.61804,-1.889492 c -3.10255,-3.391991 -1.83912,-5.216706 3.46065,-4.998068 4.25464,0.175521 4.25464,0.175521 -0.23182,1 -4.48646,0.824478 -4.48646,0.824478 -1.71339,3.32218 1.76945,1.593745 3.99637,2.263853 6.15313,1.851562 1.85903,-0.355377 3.38006,-0.129346 3.38006,0.502299 0,2.236124 -8.67338,0.918885 -11.04863,-1.677973 z m 19.04863,-5.904224 c -6.1267,-6.024934 -3.93915,-5.97761 2.42233,0.0524 2.70105,2.560306 4.311,4.628473 3.57767,4.595929 -0.73334,-0.03255 -3.43334,-2.124295 -6,-4.648332 z M 147,72.353281 c 3.48333,-0.274665 9.18333,-0.274665 12.66667,0 3.48333,0.274664 0.63333,0.499391 -6.33334,0.499391 -6.96666,0 -9.81666,-0.224727 -6.33333,-0.499391 z M 30.666667,54.046912 c 0,-7.157492 0.437506,-8.853901 2.579012,-10 2.942637,-1.574852 138.627091,-1.837364 147.420991,-0.28522 5.33333,0.941347 5.33333,0.941347 5.72758,9.923161 0.39426,8.981814 0.39426,8.981814 -77.66666,8.981814 -78.060923,0 -78.060923,0 -78.060923,-8.619755 z m 146.665243,5.619755 c -0.001,-1.312022 -13.83228,-1.643348 -65,-1.557083 C 76.582693,58.169856 44.783333,57.941824 41.666667,57.602848 36.236764,57.012277 36,56.797851 36,52.470811 c 0,-4.515716 0,-4.515716 70.31793,-4.447063 47.32276,0.0462 70.46831,-0.382477 70.77778,-1.31088 0.31301,-0.939044 -22.34454,-1.379535 -70.9592,-1.379535 -71.419038,0 -71.419038,0 -72.024735,3 -0.333134,1.65 -0.906842,5.25 -1.274908,8 -0.669212,5 -0.669212,5 71.913623,5 57.17815,0 72.58254,-0.353726 72.58142,-1.666666 z M 48,53.333333 c 0,-2.2 -0.6,-4 -1.333333,-4 -0.733334,0 -1.333334,1.8 -1.333334,4 0,2.2 0.6,4 1.333334,4 0.733333,0 1.333333,-1.8 1.333333,-4 z m 13.333333,0 c 0,-2.666666 -0.666666,-4 -2,-4 -1.333333,0 -2,1.333334 -2,4 0,2.666667 0.666667,4 2,4 1.333334,0 2,-1.333333 2,-4 z m 12,0 c 0,-2.2 -0.6,-4 -1.333333,-4 -0.733333,0 -1.333333,1.8 -1.333333,4 0,2.2 0.6,4 1.333333,4 0.733333,0 1.333333,-1.8 1.333333,-4 z m 99.999997,0 c 0,-2.2 -0.6,-4 -1.33333,-4 -0.73333,0 -1.33333,1.8 -1.33333,4 0,2.2 0.6,4 1.33333,4 0.73333,0 1.33333,-1.8 1.33333,-4 z M 43.168203,53.949528 c 0.455962,-1.18822 -0.08243,-2.38404 -1.280304,-2.843711 -2.489815,-0.95543 -5.214299,1.414688 -3.9597,3.444674 1.308373,2.116992 4.330009,1.770448 5.240004,-0.600963 z m 12.580918,-0.96484 c 0.308132,-1.6 -0.40989,-2.318021 -2.318022,-2.318021 -1.908132,0 -2.764432,0.8563 -2.764432,2.764432 0,3.416857 4.413105,3.029238 5.082454,-0.446411 z M 68,53.333333 c 0,-1.777777 -0.888889,-2.666666 -2.666667,-2.666666 -2.569586,0 -3.613196,2.609025 -1.777777,4.444444 C 65.390975,56.946529 68,55.90292 68,53.333333 Z m 113.33333,-0.809318 c 0,-2.621854 -0.51824,-3.277116 -2.10905,-2.666667 -1.15997,0.445125 -2.35997,0.809319 -2.66667,0.809319 -0.30668,0 -0.55761,1.2 -0.55761,2.666666 C 176,55.111111 176.88889,56 178.66667,56 c 1.98473,0 2.66666,-0.888889 2.66666,-3.475985 z M 35.537075,16.225131 C 34.321817,14.882287 33.728824,13.382287 34.219313,12.891798 34.709803,12.401309 46.111111,12 59.555556,12 78.723647,12 84,12.374141 84,13.733333 c 0,4.303578 -3.156443,4.933334 -24.726683,4.933334 -19.17171,0 -21.768405,-0.267099 -23.736242,-2.441536 z"
         id="path321" />
      <path
         style="fill:#2cd0d6;stroke-width:1.33333"
         d="M 15.954528,184.15965 C 12,180.20513 12,180.20513 12,100 c 0,-80.205128 0,-80.205128 3.897436,-84.102564 5.420536,-5.420536 8.518755,-5.000955 13.064145,1.769231 3.804507,5.666666 3.804507,5.666666 30.494226,6.026777 26.689717,0.360111 26.689717,0.360111 29.623506,-4.859863 3.540827,-6.30005 6.268143,-7.567837 10.423324,-4.845258 5.459963,3.577502 7.346543,7.82826 6.904583,15.55707 C 106,36.666667 106,36.666667 100,36.943471 c -3.3,0.152242 -5.25,-0.04776 -4.333333,-0.444444 1.060501,-0.458931 1.666666,-3.550772 1.666666,-8.501088 0,-12.928515 -2.734566,-15.697521 -7.240089,-7.331272 -2.513165,4.666666 -2.513165,4.666666 -30.096555,4.666666 -25.029016,0 -27.787737,-0.225801 -29.790038,-2.438321 C 28.992992,21.553936 28,19.846928 28,19.101663 c 0,-1.701534 -4.410968,-5.76833 -6.256503,-5.76833 -0.758924,0 -2.961678,1.581819 -4.895012,3.515152 -3.515152,3.515151 -3.515152,3.515151 -3.515152,83.151515 0,79.63636 0,79.63636 3.515152,83.15152 3.515151,3.51515 3.515151,3.51515 39.924395,3.51515 36.112789,0 36.426143,-0.0241 38.484848,-2.96335 1.141583,-1.62983 2.075605,-4.02983 2.075605,-5.33333 0,-2.20914 -2.307593,-2.36999 -34,-2.36999 C 31.111111,176 29.1939,175.86056 26.666667,173.33333 24.073545,170.74021 24,168.88889 24,106.20665 c 0,-63.817231 0.02796,-64.485345 2.803859,-66.999999 2.588633,-2.345014 5.27525,-2.546296 35,-2.622212 C 94,36.502212 94,36.502212 62.470088,37.251105 c -28.519221,0.677386 -31.797603,0.99143 -34.333333,3.288879 -2.77431,2.513607 -2.803422,3.200288 -2.803422,66.126686 0,59.68366 0.148231,63.72084 2.414904,65.77216 2.097306,1.89804 7.387232,2.23208 40.222771,2.53998 27.419732,0.25711 37.950662,0.78336 38.327582,1.9153 0.28584,0.85844 -1.26442,3.55844 -3.44502,6 -3.964718,4.43922 -3.964718,4.43922 -43.454615,4.82965 -39.489898,0.39043 -39.489898,0.39043 -43.444427,-3.56411 z M 180,168.35733 c 6.80883,-1.25182 6.66667,-0.16214 6.66667,-51.10278 0,-47.752261 0,-47.752261 -4.33334,-48.344098 C 178,68.318613 178,68.318613 182.66667,68.49264 c 4.66666,0.174027 4.66666,0.174027 5.01681,48.68381 0.25044,34.69443 -0.0808,49.02912 -1.16325,50.33334 -0.83238,1.00294 -3.38995,1.74184 -5.68348,1.64197 -3.64726,-0.15881 -3.75216,-0.25841 -0.83675,-0.79443 z m -0.26667,-3.29066 c 2.50527,-2.50527 2.16626,-28.2702 -0.4,-30.4 -1.1,-0.91292 -1.98004,-2.33639 -1.95564,-3.16326 0.0244,-0.82688 1.2244,-0.0869 2.66667,1.6443 2.21529,2.65916 2.62231,5.17733 2.62231,16.22429 0,13.67012 -0.64466,17.29467 -3.07599,17.29467 -0.97499,0 -0.92777,-0.52958 0.14265,-1.6 z m -33.4,-15.35096 C 143.91201,147.0256 142.97691,136 145.17008,136 c 2.67273,0 4.29319,4.16825 3.9072,10.05043 -0.39816,6.06778 -0.4814,6.17898 -2.74395,3.66528 z M 50,136.64025 c -2.2,-3.28228 -4.45,-5.96909 -5,-5.97068 -0.55,-0.002 -1,-8.7029 -1,-19.33624 C 44,100.7 44.478232,92 45.062736,92 c 0.584505,0 3.284505,2.275297 6,5.056217 C 56,102.11243 56,102.11243 56,122.38955 c 0,11.15241 -0.45,20.26393 -1,20.24781 -0.55,-0.0161 -2.8,-2.71483 -5,-5.99711 z m 112.66667,-3.61809 c 0,-0.76716 -1.05,-2.24206 -2.33334,-3.27754 -2.12741,-1.71655 -2.03916,-1.80514 1,-1.00389 1.83334,0.48334 4.12978,1.63228 5.10322,2.5532 1.45661,1.37804 1.27961,1.80261 -1,2.39875 -1.52344,0.39839 -2.76988,0.0967 -2.76988,-0.67052 z m 17.3,-17.89994 c 0.8046,-0.39903 1.36666,-6.48369 1.36666,-14.79501 0,-11.500229 -0.43254,-14.631035 -2.33333,-16.888889 -2.33333,-2.771654 -2.33333,-2.771654 0.70805,-0.194218 2.87366,2.435298 3.02072,3.385192 2.66667,17.224697 -0.27019,10.56119 -0.84896,14.74265 -2.07472,14.98923 -0.935,0.18808 -1.085,0.037 -0.33333,-0.33581 z m -33.63334,-14.74108 c -2.18413,-2.425437 -3.50228,-15.047807 -1.57142,-15.047807 2.85904,0 4.67686,4.554368 4.30862,10.794759 -0.39101,6.626368 -0.47812,6.761708 -2.7372,4.253048 z M 94.623672,95.435743 C 94.600019,94.646084 91.750025,92.053628 88.290339,89.674728 82,85.349456 82,85.349456 86.333333,85.341395 c 2.383334,-0.0044 4.334407,0.441938 4.335718,0.991938 0.0013,0.55 2.701312,2.705095 6,4.789099 3.298689,2.084004 5.997619,3.965905 5.997619,4.182001 0,1.21169 -8.00673,1.342407 -8.042998,0.131307 z M 161,81.222223 c -2.22223,-2.433863 -2.22223,-2.553538 0,-2.513152 2.4218,0.04401 7,2.94654 7,4.43792 0,1.818261 -4.78335,0.503001 -7,-1.924768 z"
         id="path319" />
      <path
         style="fill:#0561d0;stroke-width:1.33333"
         d="m 102,184 c 1.32731,-1.46667 2.7133,-2.66667 3.07997,-2.66667 0.36666,0 -0.41932,1.2 -1.74664,2.66667 -1.32731,1.46667 -2.7133,2.66667 -3.07996,2.66667 -0.36667,0 0.41932,-1.2 1.74663,-2.66667 z m 54,-34 c 0,-11.2848 -0.48491,-10.92921 12.48057,-9.15211 6.1861,0.84791 6.1861,0.84791 6.1861,9.15211 0,8.3042 0,8.3042 -6.1861,9.15211 C 155.51509,160.92921 156,161.2848 156,150 Z M 62.666667,128.14521 c 0,-25.47854 0,-25.47854 16.471078,-25.47854 9.059094,0 20.172292,0.38685 24.695995,0.85967 8.22492,0.85968 8.22492,0.85968 7.86226,24.94868 -0.36267,24.08901 -0.36267,24.08901 -24.696,24.61887 -24.333333,0.52987 -24.333333,0.52987 -24.333333,-24.94868 z m 82.800693,22.1916 c -1.83871,-2.99306 -1.8352,-2.99466 1.01044,-0.46349 2.85553,2.53999 2.85553,2.53999 2.85553,-4.06667 0,-6.08245 -1.62032,-9.80665 -4.26666,-9.80665 -0.58667,0 -1.16754,2.55 -1.2908,5.66667 -0.22415,5.66666 -0.22415,5.66666 -0.75763,0.49096 -0.68576,-6.65286 1.30224,-8.82088 5.01087,-5.46462 2.21662,2.00602 2.68136,3.80032 2.36484,9.13035 -0.44071,7.42103 -2.16818,9.00363 -4.92659,4.51345 z M 50.137065,138.37597 c -3.566192,-5.6446 -3.568594,-5.66397 -0.212025,-1.7093 1.867276,2.2 3.398028,4.45 3.401671,5 0.0036,0.55 0.590994,1 1.305228,1 0.766121,0 1.471621,-8.20147 1.720552,-20.00151 0.421948,-20.0015 0.421948,-20.0015 0.368061,0.22377 -0.0358,13.43499 -0.54448,20.3883 -1.515151,20.71082 -0.803694,0.26705 -3.084446,-2.08366 -5.068336,-5.22378 z m 115.600405,-4.64204 c 1.90852,-0.49488 2.08101,-1.01274 0.83674,-2.512 -0.86206,-1.03873 -2.54393,-1.93596 -3.73746,-1.99386 -1.49706,-0.0726 -1.62926,-0.32181 -0.42627,-0.8035 1.78351,-0.71412 6.92285,3.08343 6.92285,5.11542 0,0.61966 -1.35,1.05708 -3,0.97201 -2.36585,-0.122 -2.49181,-0.28644 -0.59586,-0.77807 z M 42.960349,111.07869 c -0.197304,-12.711825 0.191554,-19.221203 1.184911,-19.835133 0.824948,-0.509845 3.919457,1.655964 7,4.899216 5.521407,5.813037 5.521407,5.813037 0.131856,0.835132 C 48.312864,94.240057 45.479337,92 44.980392,92 c -0.498945,0 -1.091491,8.55 -1.316768,19 -0.409592,19 -0.409592,19 -0.703275,0.0787 z M 156,100 c 0,-9.455173 0,-9.455173 9,-9.06092 9,0.394253 9,0.394253 9,9.06092 0,8.66667 0,8.66667 -9,9.06092 -9,0.39425 -9,0.39425 -9,-9.06092 z m -10.15513,0.96856 C 143.33333,98 143.33333,98 146.33333,100.53998 c 3,2.53999 3,2.53999 3,-4.510269 0,-5.557454 -0.60782,-7.577424 -2.87068,-9.539984 C 144.88377,85.120377 144.19079,84 144.92267,84 c 3.24505,0 5.744,5.087079 5.744,11.692965 0,7.950145 -1.3289,9.404115 -4.8218,5.275595 z M 99.022607,96.376147 c 2.225173,-0.336336 3.333973,-1.132519 2.793983,-2.006236 -0.53912,-0.872327 -0.27426,-1.064786 0.66581,-0.483791 2.48142,1.533596 0.36248,3.465899 -3.561089,3.247437 -3.587978,-0.199776 -3.587978,-0.199776 0.101296,-0.75741 z M 143.02981,92 c 0,-3.3 0.26003,-4.65 0.57783,-3 0.31781,1.65 0.31781,4.35 0,6 -0.3178,1.65 -0.57783,0.3 -0.57783,-3 z M 94.666667,89.796975 C 89.817033,86.257857 90.140928,86.152883 96.333333,89.256803 98.35,90.267651 100,91.598397 100,92.21402 c 0,1.484864 0.0354,1.500925 -5.333333,-2.417045 z M 84.333333,84.414232 c 1.283334,-0.335369 3.383334,-0.335369 4.666667,0 1.283333,0.335371 0.233333,0.609764 -2.333333,0.609764 -2.566667,0 -3.616667,-0.274393 -2.333334,-0.609764 z m 80.333337,0.01107 c 1.46666,-0.403574 3.16234,-1.41436 3.76817,-2.246194 0.72781,-0.999313 0.91855,-0.833896 0.56223,0.487576 -0.2966,1.1 -1.99228,2.110787 -3.76818,2.246194 -2.54598,0.194124 -2.66489,0.091 -0.56222,-0.487576 z M 164.6,80.129435 c -0.69667,-0.662154 -2.46667,-1.492552 -3.93333,-1.845332 -2.5295,-0.608423 -2.52075,-0.649374 0.17008,-0.796087 1.5602,-0.08507 3.58366,0.745332 4.49658,1.845332 1.81,2.180908 1.30288,2.73142 -0.73333,0.796087 z M 47.666667,37.670665 c 8.983333,-0.230674 23.683333,-0.230674 32.666666,0 8.983334,0.230676 1.633334,0.41941 -16.333333,0.41941 -17.966667,0 -25.316667,-0.188734 -16.333333,-0.41941 z M 102.78132,16.824288 c -3.218679,-4.157621 -3.218679,-4.157621 0.59596,-0.531359 2.09805,1.994444 3.54646,3.865375 3.21868,4.157622 -0.32778,0.292248 -2.04437,-1.33957 -3.81464,-3.626263 z"
         id="path317" />
      <path
         style="fill:#1e5054;stroke-width:1.33333"
         d="m 11.377778,188.62223 c -2.5911113,-2.59112 -4.685962,-5.74112 -4.655224,-7 0.034009,-1.3929 1.0007241,-0.5154 2.4695213,2.24158 1.3274987,2.49176 4.4523497,5.61662 6.9441127,6.94411 2.756985,1.4688 3.634475,2.43552 2.241589,2.46952 -1.258888,0.0308 -4.408888,-2.06411 -6.999999,-4.65521 z m 91.152702,2.18569 c 2.49176,-1.32749 5.61661,-4.45235 6.94411,-6.94411 1.4688,-2.75698 2.43551,-3.63448 2.46952,-2.24158 0.0725,2.96972 -8.6855,11.72773 -11.65522,11.65521 -1.392886,-0.034 -0.515397,-1.00072 2.24159,-2.46952 z M 14.564103,185.43589 C 10.666667,181.53847 10.666667,181.53847 10.666667,100 c 0,-81.538461 0,-81.538461 3.983169,-85.521631 4.938193,-4.9381937 11.718727,-4.9688539 14.149787,-0.06399 0.839905,1.69458 2.859216,4.613122 4.48736,6.485652 1.628142,1.872528 2.154629,3.140121 1.169972,2.816872 -0.984659,-0.32325 -3.479947,-3.091794 -5.545084,-6.152319 C 24.401647,10.880457 20.720975,10.376514 15.582788,15.739625 12,19.479251 12,19.479251 12,100.15684 c 0,80.67759 0,80.67759 3.739625,84.26037 C 19.479251,188 19.479251,188 59.175523,188 c 39.696272,0 39.696272,0 43.593707,-3.89744 2.14359,-2.14359 3.89744,-5.14359 3.89744,-6.66667 0,-2.73864 -0.41976,-2.76922 -38.000003,-2.76922 C 32.444444,174.66667 30.541911,174.54191 28,172 c -2.591568,-2.59157 -2.666667,-4.44444 -2.666667,-65.79335 0,-61.876593 0.05394,-63.175502 2.724046,-65.591911 2.387568,-2.160719 2.61699,-2.186244 1.857349,-0.20665 -0.476684,1.242218 -1.402505,2.258578 -2.05738,2.258578 -0.68192,0 -1.190681,26.97312 -1.190681,63.126683 0,59.23962 0.148698,63.26125 2.414904,65.31214 2.09772,1.89842 7.39528,2.23203 40.333333,2.53999 C 107.33333,174 107.33333,174 107.75646,177.67944 c 0.30595,2.66041 -0.68113,4.78369 -3.5641,7.66667 -3.98723,3.98722 -3.98723,3.98722 -44.859027,3.98722 -40.871794,0 -40.871794,0 -44.76923,-3.89744 z M 186.19067,173.34456 c 1.57153,-0.6342 3.82153,-2.52967 5,-4.21216 1.17846,-1.68249 2.14266,-2.43017 2.14266,-1.66149 0,2.05404 -5.86202,7.20944 -8.08593,7.11124 -1.05273,-0.0465 -0.62827,-0.6034 0.94327,-1.23759 z M 30.933333,169.06667 c -1.198892,-1.1989 -1.522482,-14.15134 -1.290788,-51.66667 0.309212,-50.066667 0.309212,-50.066667 1,0.6 0.690788,50.66667 0.690788,50.66667 77.207585,51.011 56.16464,0.25275 77.00834,-0.0636 78.36483,-1.1894 1.52636,-1.26677 1.78453,-10.08781 1.4832,-50.6782 -0.20065,-27.029451 0.0852,-49.14422 0.63517,-49.143929 0.55,2.9e-4 1,22.380529 1,49.733859 0,36.90371 -0.41274,50.14608 -1.6,51.33334 -2.30997,2.30997 -154.490019,2.30997 -156.799997,0 z M 165.66667,164.36261 C 180,163.90979 180,163.90979 180,150.39321 c 0,-10.92817 -0.44683,-14.04733 -2.33333,-16.28822 -2.33334,-2.77166 -2.33334,-2.77166 0.70929,-0.1931 2.86396,2.42715 3.02055,3.40575 2.66667,16.66667 -0.37596,14.08811 -0.37596,14.08811 -15.04263,14.16249 -14.66667,0.0744 -14.66667,0.0744 -0.33333,-0.37844 z M 155.12375,150 c 0.005,-5.86667 0.23925,-8.10081 0.52092,-4.96476 0.28165,3.13605 0.27769,7.93605 -0.009,10.66667 -0.28649,2.73061 -0.51694,0.16476 -0.5121,-5.70191 z m 15.20958,9.03547 c 4.33334,-0.53776 4.33334,-0.53776 4.33334,-9.03547 0,-8.49771 0,-8.49771 -4.33334,-9.03547 C 166.06691,140.43507 166.0772,140.42347 171,140.21339 176,140 176,140 176,150 c 0,10 0,10 -5,9.78661 -4.9228,-0.21008 -4.93309,-0.22168 -0.66667,-0.75114 z M 55.762496,156.33333 c -1.091275,-1.28333 -3.390811,-4.43333 -5.110079,-7 -3.125944,-4.66666 -3.125944,-4.66666 0.444154,-1.43425 1.963552,1.77784 3.570096,4.02784 3.570096,5 0,0.97217 0.535806,1.76759 1.190681,1.76759 0.654875,0 1.536044,0.9 1.958153,2 1.008935,2.62924 0.379268,2.527 -2.053005,-0.33334 z m 17.976639,1.33766 c 7.92319,-0.23615 20.52319,-0.23526 27.999995,0.001 7.47681,0.23723 0.9942,0.43043 -14.405797,0.42933 -15.4,-10e-4 -21.517389,-0.19517 -13.594198,-0.4313 z m 69.208295,-1.1388 c -0.94558,-1.02604 -1.13099,-1.86552 -0.41202,-1.86552 1.38459,0 3.38896,2.53628 2.59811,3.28756 -0.25677,0.24392 -1.24051,-0.396 -2.18609,-1.42204 z M 61.938285,152.98664 C 61.57124,152.03013 61.434972,140.16684 61.635465,126.62377 62,102 62,102 80.666667,101.9451 99.333333,101.8902 99.333333,101.8902 81,102.31504 c -18.333333,0.42484 -18.333333,0.42484 -18.333333,25.86678 0,25.44194 0,25.44194 24.333333,24.91207 24.33333,-0.52986 24.33333,-0.52986 24.69644,-24.73376 0.36311,-24.20389 0.36311,-24.20389 -5.33333,-24.71574 -5.69644,-0.51184 -5.69644,-0.51184 0.66568,-0.74478 6.36212,-0.23294 6.36212,-0.23294 6,25.43372 C 112.66667,154 112.66667,154 87.636153,154.36287 c -19.612438,0.28432 -25.174969,-0.0136 -25.697868,-1.37623 z m 83.024705,-1.00188 c -1.26298,-1.47505 -2.28036,-3.42505 -2.26084,-4.33333 0.0195,-0.90828 1.06382,0.008 2.3207,2.03482 1.25688,2.02744 3.04091,3.39627 3.96452,3.04184 0.92362,-0.35441 1.6793,-0.0632 1.6793,0.64708 0,2.21887 -3.30268,1.41375 -5.70368,-1.39041 z m -19.62966,-11.87365 c 0,-8.26355 -0.50822,-12.09396 -1.66666,-12.5614 -0.99566,-0.40176 -0.72725,-0.7149 0.66666,-0.77778 2.06587,-0.0932 2.33334,1.3467 2.33334,12.5614 0,6.96667 -0.3,12.66667 -0.66667,12.66667 -0.36667,0 -0.66667,-5.35 -0.66667,-11.88889 z M 151.00291,146 c 0.0148,-2.93333 0.28785,-3.97633 0.60677,-2.31779 0.31892,1.65855 0.30681,4.05855 -0.0269,5.33334 -0.33372,1.27478 -0.59467,-0.0823 -0.57987,-3.01555 z m -21.10226,0.22188 c -0.37528,-0.97796 -0.50096,-6.82796 -0.27928,-13 0.40306,-11.22188 0.40306,-11.22188 1.05751,1.78111 0.65002,12.9149 0.531,14.6307 -0.77823,11.21889 z m -76.233983,-0.51292 c -2.588171,-0.9284 -1.963911,-2.47087 1,-2.47087 1.466666,0 2.666666,0.43603 2.666666,0.96894 0,1.44796 -1.782114,2.17794 -3.666666,1.50193 z m -10.866146,-7.43627 c -1.686557,-2.80841 -1.658144,-2.83682 0.637776,-0.63777 1.321635,1.26588 2.115974,2.58859 1.765198,2.93936 -0.350776,0.35077 -1.432114,-0.68493 -2.402974,-2.30159 z m 3.532812,-2.18086 c -3.836381,-5.42454 -4.884201,-8.20306 -1.956116,-5.18707 3.208788,3.30512 7.807234,10.42865 6.713575,10.40011 -0.599936,-0.0156 -2.740792,-2.36152 -4.757459,-5.21304 z m 101.643057,0.54638 c -0.95534,-1.15109 -2.54083,-1.78442 -3.52334,-1.4074 -0.98252,0.37702 -1.78638,0.10427 -1.78638,-0.60598 0,-2.00905 3.962,-1.51997 6.25397,0.772 1.13492,1.13492 1.77756,2.34941 1.42809,2.69889 -0.34946,0.34947 -1.41702,-0.30641 -2.37234,-1.45751 z M 151.9972,135 c -0.001,-0.55 3.89847,-0.7988 8.66667,-0.55289 8.99449,0.46386 10.38428,-0.48192 6.23114,-4.24046 -3.34446,-3.0267 -18.23078,-3.20681 -17.0795,-0.20665 0.4221,1.1 0.1423,2 -0.62179,2 -0.76409,0 -1.18923,-1.05 -0.94476,-2.33333 0.35609,-1.86934 2.08663,-2.41195 8.70241,-2.72868 6.95874,-0.33315 8.70346,0.0502 11.08971,2.43642 4.68417,4.68418 2.53561,6.62559 -7.33257,6.62559 -4.78968,0 -8.70976,-0.45 -8.71131,-1 z m 20.66947,-5.35375 c -0.73334,-0.53877 -2.52396,-2.47958 -3.97916,-4.31292 -2.20966,-2.78382 -1.9349,-2.68775 1.66666,0.58279 3.89367,3.53579 4.94832,4.78949 3.97916,4.73013 -0.18333,-0.0112 -0.93333,-0.46123 -1.66666,-1 z M 117.33333,128 c 0,-0.73333 0.63541,-1.33333 1.41203,-1.33333 0.77661,0 1.0412,0.6 0.58797,1.33333 -0.45322,0.73333 -1.08863,1.33333 -1.41202,1.33333 -0.32339,0 -0.58798,-0.6 -0.58798,-1.33333 z m 12.21339,-24.92131 c -0.11736,-6.740055 0.23661,-12.534653 0.78661,-12.876885 0.55,-0.342232 0.83442,3.372359 0.63205,8.254644 -0.64109,15.466201 -1.19824,17.281471 -1.41866,4.622241 z m 15.06983,4.58798 c -6.61655,-7 -6.61655,-7 0.38345,-0.38346 6.50452,6.14821 7.61147,7.38346 6.61655,7.38346 -0.21091,0 -3.36091,-3.15 -7,-7 z M 180.49328,100 c 0,-7.7 0.22037,-10.85 0.48971,-7 0.26933,3.85 0.26933,10.15 0,14 -0.26934,3.85 -0.48971,0.7 -0.48971,-7 z m -63.15995,9.25464 c 0,-0.77661 0.6,-1.0412 1.33334,-0.58797 C 119.4,109.11989 120,109.7553 120,110.07869 c 0,0.32339 -0.6,0.58798 -1.33333,0.58798 -0.73334,0 -1.33334,-0.63541 -1.33334,-1.41203 z m 7.70129,-7.58518 c 0.6466,-15.820257 1.1991,-17.379167 1.41866,-4.002793 0.11736,7.150003 -0.23661,13.001263 -0.78661,13.002793 -0.55,0.002 -0.83442,-4.04846 -0.63205,-9 z m 30.21081,7.24891 c -0.39382,-1.02625 -0.53514,-5.70271 -0.31406,-10.392139 C 155.33333,90 155.33333,90 165.33333,90 c 10,0 10,0 10,10 0,10 0,10 -9.68594,10.39213 -7.34372,0.29732 -9.8591,-0.0591 -10.40196,-1.47376 z M 174,100 c 0,-8.666667 0,-8.666667 -9,-9.06092 -9,-0.394253 -9,-0.394253 -9,9.06092 0,9.45517 0,9.45517 9,9.06092 9,-0.39425 9,-0.39425 9,-9.06092 z m -29.76239,1.9031 c -0.9693,-1.09751 -1.5693,-2.519157 -1.33333,-3.159212 0.23599,-0.640053 1.50707,0.280731 2.82463,2.046192 2.59512,3.47728 1.3907,4.37619 -1.4913,1.11302 z M 51.441463,96.283111 c -2.890251,-3.16887 -6.018296,-5.424572 -7,-5.047856 -0.976138,0.374578 -1.774796,0.09988 -1.774796,-0.610435 0,-2.833477 3.971977,-1.005784 9.220588,4.242827 3.043873,3.043873 5.364461,5.896573 5.156862,6.339343 -0.207597,0.44277 -2.728792,-1.772979 -5.602654,-4.923879 z M 115.4746,97.536079 C 112.94921,94 112.94921,94 116.06719,96.962963 c 1.7149,1.629629 2.85133,3.220867 2.5254,3.536077 -0.32592,0.31522 -1.72902,-1.018117 -3.11799,-2.962961 z m 35.52831,-2.202746 c 0.0148,-2.933333 0.28785,-3.976337 0.60677,-2.317788 0.31892,1.658551 0.30681,4.058551 -0.0269,5.333334 -0.3337,1.274784 -0.59464,-0.08221 -0.57984,-3.015546 z M 54.72822,92.907875 c -4.605113,-5.574542 -4.605113,-5.574542 0.722884,-0.574542 5.327996,5 5.327996,5 26.193091,5 11.475801,0 21.169765,-0.492973 21.542145,-1.095494 0.78573,-1.27134 -2.27179,-4.092551 -8.284913,-7.644592 -2.329119,-1.375843 -4.23476,-2.97217 -4.23476,-3.547391 C 90.666667,84.470636 81.410661,84 70.097765,84 c -17.236681,0 -20.670754,0.32824 -21.197616,2.026137 -0.439978,1.417904 -0.564344,1.31784 -0.414284,-0.333333 0.193246,-2.126353 2.216548,-2.395808 20.4786,-2.727251 20.26417,-0.367778 20.26417,-0.367778 28.304866,5.333334 12.560169,8.905566 11.403159,9.658089 -15.286406,9.942321 -22.649592,0.241209 -22.649592,0.241209 -27.254705,-5.333333 z m 50.05058,-3.096467 c -0.70223,-1.829963 -0.50712,-1.912452 1.19068,-0.503407 C 108.28314,91.228169 108.52393,92 106.80932,92 c -0.65488,0 -1.56861,-0.984867 -2.03052,-2.188592 z M 142.68708,85 c -0.0229,-2.614673 3.30612,-3.168385 4.77357,-0.793989 0.61942,1.002237 0.36226,1.175248 -0.73704,0.495846 -0.98357,-0.607878 -2.17428,-0.27642 -2.85226,0.79399 -0.92048,1.45325 -1.16812,1.349564 -1.18427,-0.495847 z M 95.411827,83.290929 c -1.423495,-1.076678 -2.023495,-1.938513 -1.333334,-1.915192 0.690163,0.02332 2.419518,0.923323 3.843014,2 1.423494,1.076679 2.023494,1.938514 1.333333,1.915192 -0.690163,-0.02332 -2.419517,-0.923322 -3.843013,-2 z m 54.921503,-0.574794 c -2.60008,-2.53304 -3.08784,-5.382802 -0.9213,-5.382802 0.77661,0 1.01652,0.639922 0.53314,1.422047 -0.48338,0.782125 0.23027,2.233069 1.58588,3.224319 1.35562,0.991249 2.1657,2.073921 1.80019,2.405937 -0.36552,0.332016 -1.71457,-0.41926 -2.99791,-1.669501 z m 18.23944,1.579949 c 0.57722,-1.020272 -0.28048,-2.741092 -2.13773,-4.288975 -1.70593,-1.421781 -2.62661,-2.60502 -2.04596,-2.629417 0.58067,-0.0244 2.34736,1.158952 3.92599,2.629664 2.3794,2.216753 2.56442,2.957772 1.08197,4.333333 -1.43019,1.327058 -1.59523,1.318126 -0.82427,-0.0446 z m 5.3724,-3.051459 c -1.36808,-2.213606 -0.14014,-2.520565 1.77407,-0.44348 0.94557,1.026038 1.13099,1.865522 0.41201,1.865522 -0.71896,0 -1.70269,-0.639919 -2.18608,-1.422042 z M 52.405801,79.004313 c 7.923191,-0.236133 20.523191,-0.235244 28,0.002 C 87.882611,79.243516 81.4,79.436716 66,79.435628 50.6,79.43454 44.482611,79.240448 52.405801,79.004313 Z M 68.427725,67.000712 c 20.401916,-0.207108 53.401915,-0.206943 73.333325,3.69e-4 19.93143,0.207311 3.23895,0.376763 -37.09438,0.37656 -40.333337,-2.02e-4 -56.640861,-0.16982 -36.238945,-0.376929 z M 30.222223,63.111111 c -1.111335,-1.111334 -1.17371,-15.484116 -0.07957,-18.335395 0.445126,-1.159977 1.795126,-2.090804 3,-2.068504 1.943264,0.03596 1.927154,0.194036 -0.142652,1.399587 -1.840597,1.07205 -2.33333,3.175204 -2.33333,9.959454 0,8.600414 0,8.600414 78.060919,8.600414 78.06092,0 78.06092,0 77.66666,-9 -0.39425,-9 -0.39425,-9 -5.06092,-9.874702 -4.66666,-0.8747 -4.66666,-0.8747 0.66667,-0.666666 5.33333,0.208034 5.33333,0.208034 6.08751,8.874701 0.41478,4.766667 0.5006,9.416667 0.19068,10.333333 C 187.83596,63.641349 170.86492,64 109.4129,64 66.346917,64 30.711111,63.6 30.222223,63.111111 Z m 7.722952,-8.533152 c -0.483378,-0.782123 -0.518788,-1.782123 -0.07869,-2.222223 0.4401,-0.440099 0.800182,-0.144175 0.800182,0.657609 0,0.801786 1.05,1.732184 2.333333,2.067554 2.10362,0.549733 2.111367,0.62499 0.07869,0.764433 -1.240054,0.08507 -2.650136,-0.485251 -3.133514,-1.267373 z m 14.30618,0.59684 c 1.238246,-0.369648 2.553796,-1.685198 2.923444,-2.923444 0.487413,-1.632732 0.597324,-1.522822 0.4,0.4 -0.159482,1.55406 -1.369384,2.763962 -2.923444,2.923444 -1.922822,0.197324 -2.032732,0.08741 -0.4,-0.4 z M 63.126769,53.942496 C 62.692523,52.810868 62.711353,51.510868 63.168615,51.053607 63.625877,50.596345 64,51.178228 64,52.346679 c 0,1.168452 1.05,2.39885 2.333333,2.73422 2.186786,0.571468 2.184158,0.619478 -0.04185,0.764433 -1.306348,0.08507 -2.730472,-0.771209 -3.164717,-1.902836 z m 114.663601,1.114579 c 1.64986,-0.425442 2.2384,-1.469702 1.7915,-3.178666 -0.36606,-1.399792 -0.12172,-2.545076 0.54296,-2.545076 0.66468,0 1.2085,1.5 1.2085,3.333334 0,2.613729 -0.64764,3.299942 -3,3.178665 -2.44357,-0.125987 -2.54428,-0.272185 -0.54296,-0.788257 z m 14.3149,-9.135568 c -0.0579,-0.776506 -0.95615,-2.576506 -1.9961,-4 -1.77408,-2.428359 -4.26458,-2.631826 -40.33333,-3.295108 -38.44251,-0.706934 -38.44251,-0.706934 -0.85019,-1 37.59231,-0.293066 37.59231,-0.293066 41.19054,2.801993 2.0644,1.77572 3.27769,3.907084 2.84628,5 -0.41358,1.047717 -0.79931,1.269619 -0.8572,0.493115 z m -90.78183,-8.20072 c 5.34323,-0.540782 5.34323,-0.540782 5.34323,-9.678926 0,-8.567294 -0.25627,-9.353778 -4.1023,-12.590002 -5.723417,-4.815935 -8.436265,-4.368494 -12.809574,2.112733 -2.065137,3.060525 -4.530392,5.819057 -5.478344,6.130072 -0.947951,0.311013 -0.197951,-1.080667 1.666667,-3.092623 1.864618,-2.011956 3.390214,-4.706294 3.390214,-5.98742 0,-5.3125965 9.512778,-5.3069721 14.828517,0.0088 3.75956,3.759555 3.93716,4.440578 3.5641,13.666667 C 107.33333,38 107.33333,38 101.65677,38.130784 c -5.676565,0.130787 -5.676565,0.130787 -0.33333,-0.409997 z M 6.722554,18.377777 C 6.6500428,15.408052 15.408052,6.6500428 18.377777,6.722554 19.770663,6.7565639 18.893173,7.7232781 16.136188,9.1920753 13.644425,10.519574 10.519574,13.644425 9.1920753,16.136188 7.7232781,18.893173 6.7565639,19.770663 6.722554,18.377777 Z M 34.933333,18.4 c -2.612464,-2.612464 -1.817193,-4.343191 0.875828,-1.90604 2.144626,1.94086 5.394738,2.191461 24.295528,1.873316 21.775983,-0.36654 21.823076,-0.373955 23.504516,-3.700609 1.371582,-2.713611 1.688471,-2.864884 1.704472,-0.813658 C 85.354597,19.098441 81.789945,19.913032 58.6,19.957596 43.16438,19.987257 36.052532,19.519199 34.933333,18.4 Z m 75.199997,-0.533333 c -0.47452,-1.236588 -0.56277,-2.548342 -0.1961,-2.915008 0.36667,-0.366667 1.05491,0.345086 1.52944,1.581674 0.47452,1.236588 0.56277,2.548342 0.1961,2.915008 -0.36667,0.366667 -1.05491,-0.345086 -1.52944,-1.581674 z m -6.8,-7.9704166 C 100.4,8.1441067 98.9,6.7036445 100,6.6952235 c 1.1,-0.00843 3.8,1.4601309 6,3.2634488 4.96415,4.0690647 4.22089,4.0516667 -2.66667,-0.062422 z"
         id="path315" />
      <path
         style="fill:#cbb32b;fill-opacity:1;stroke-width:1.33333"
         d="M 16.136188,190.80792 C 13.644425,189.48043 10.519574,186.35557 9.1920753,183.86381 6.9428805,179.64199 6.7746339,173.9542 6.722554,100.37857 6.6597227,11.613697 6.3852769,14.238399 16.256148,9.2026565 20.798469,6.8853371 24.512877,6.6666667 59.333333,6.6666667 c 35.58284,0 38.455338,0.1780989 43.378097,2.6895048 C 109.3385,12.73705 112,18.698883 112,30.162832 c 0,8.503835 0,8.503835 36.55761,8.503835 20.1067,0 37.52888,0.372709 38.71599,0.828241 5.78867,2.221321 6.05973,5.249617 6.05973,67.697862 0,59.32519 0,59.32519 -3.2161,63.06622 C 186.90113,174 186.90113,174 149.45056,174.39275 117.27769,174.73013 112,175.06644 112,176.77919 c 0,4.50189 -5.22458,12.00838 -9.91456,14.24488 -4.254035,2.02861 -9.495929,2.30248 -43.130676,2.25337 -34.326353,-0.0501 -38.756875,-0.30563 -42.818576,-2.46952 z m 88.056172,-5.46181 c 2.88297,-2.88298 3.87005,-5.00626 3.5641,-7.66667 C 107.33333,174 107.33333,174 69.414904,173.64548 c -32.938053,-0.30796 -38.235613,-0.64157 -40.333333,-2.53999 -2.265572,-2.05032 -2.414904,-6.05128 -2.414904,-64.70122 0,-58.479165 0.155786,-62.682989 2.41269,-65.105493 2.263504,-2.429585 4.757488,-2.611641 40.333334,-2.944248 C 107.33333,38 107.33333,38 107.72595,28.290056 c 0.37306,-9.226089 0.19546,-9.907112 -3.5641,-13.666667 -5.315739,-5.3157401 -14.828517,-5.3213645 -14.828517,-0.0088 0,1.281126 -1.47135,3.916932 -3.269668,5.857348 C 82.793997,24 82.793997,24 59.38818,24 36.239296,24 35.951323,23.964299 33.154543,20.74772 31.599241,18.958967 29.639528,16.108967 28.799623,14.414387 26.368563,9.5095151 19.588029,9.5401753 14.649836,14.478369 10.666667,18.461539 10.666667,18.461539 10.666667,100 c 0,81.53847 0,81.53847 3.897436,85.43589 3.897436,3.89744 3.897436,3.89744 44.76923,3.89744 40.871797,0 40.871797,0 44.859027,-3.98722 z m 83.54097,-16.27944 c 1.18703,-1.18703 1.6,-14.38679 1.6,-51.14053 0,-49.540527 0,-49.540527 -9,-50.390521 -11.48573,-1.084758 -146.079038,-1.138664 -148.890947,-0.05963 -1.870867,0.717919 -2.10905,6.409772 -2.10905,50.400001 0,36.79274 0.412915,50.0036 1.6,51.19068 2.309978,2.30997 154.490027,2.30997 156.799997,0 z M 146,157.97415 c -5.00051,-5.52476 -5.77017,-5.89504 -12.33333,-5.93332 -7,-0.0408 -7,-0.0408 -7,-12.7075 0,-12.66666 0,-12.66666 -4.66667,-12.66666 -4.66667,0 -4.66667,0 -4.6661,15.66666 C 117.33447,158 117.33447,158 87.938515,157.69985 64.301424,157.45851 58.1629,157.02004 56.604612,155.46176 c -1.065869,-1.06588 -1.943149,-2.43081 -1.949511,-3.03319 -0.0064,-0.60238 -2.10636,-3.30518 -4.666666,-6.00624 -2.560306,-2.70104 -4.655102,-5.40717 -4.655102,-6.01361 0,-0.60645 -1.5,-2.72032 -3.333333,-4.69748 -3.319224,-3.57964 -3.333333,-3.70516 -3.333333,-29.65305 C 38.666667,80 38.666667,80 66,80 c 15.033333,0 27.333333,0.498612 27.333333,1.108027 0,0.609414 1.65,1.951032 3.666667,2.98137 2.016667,1.03034 4.98802,3.231727 6.603,4.891974 C 105.21799,90.641617 106.96135,92 107.47715,92 c 0.51579,0 2.94444,1.530535 5.397,3.401188 3.87887,2.958563 4.45918,4.173191 4.45918,9.333332 0,5.89071 0.0326,5.93215 4.66667,5.93215 4.66667,0 4.66667,0 4.66667,-12.66667 0,-12.666667 0,-12.666667 6,-12.666667 6,0 6,0 6,-6 0,-6 0,-6 14.01749,-6 14.01751,0 14.01751,0 20.66667,6.684258 C 180,86.701847 180,86.701847 180,100.68426 c 0,13.98241 0,13.98241 -13.71221,13.98241 -13.71222,0 -13.71222,0 -20.66667,-7.04193 -6.20457,-6.28261 -6.95445,-7.657541 -6.95445,-12.751145 0,-5.637984 -0.054,-5.704004 -4.33334,-5.291406 C 130,90 130,90 129.61663,102.33333 c -0.38337,12.33334 -0.38337,12.33334 -6.33333,12.33334 -5.72219,0 -5.94997,0.15313 -5.94997,4 0,3.84686 0.22778,4 5.94997,4 5.94996,0 5.94996,0 6.33333,12.33333 0.38337,12.33333 0.38337,12.33333 4.7167,12.75115 4.33334,0.41781 4.33334,0.41781 4.33334,-12.33334 0,-12.75114 0,-12.75114 13.54032,-12.75114 13.5403,0 13.5403,0 20.66666,6.98973 C 180,136.64613 180,136.64613 180,150.32307 180,164 180,164 165.66667,163.93332 151.33333,163.86665 151.33333,163.86665 146,157.97415 Z M 176,150 c 0,-10 0,-10 -10.66667,-10 -10.66666,0 -10.66666,0 -10.66666,10 0,10 0,10 10.66666,10 C 176,160 176,160 176,150 Z M 113.02833,128.46357 C 113.39,102.92714 113.39,102.92714 99.695001,102.03367 92.162751,101.54225 80.6,101.33365 74,101.57009 62,102 62,102 61.635465,126.62377 c -0.200493,13.54307 -0.06423,25.40636 0.30282,26.36287 0.522899,1.36265 6.08543,1.66055 25.697868,1.37623 C 112.66667,154 112.66667,154 113.02833,128.46357 Z m 38.3279,22.09887 c 1.80094,-8.19964 -1.65503,-17.22911 -6.59432,-17.22911 -3.11535,0 -2.954,14.96656 0.20108,18.65143 3.25137,3.79732 5.34932,3.33059 6.39324,-1.42232 z m -94.022897,-27.8176 c 0,-22.43111 0,-22.43111 -5.490196,-27.921311 -8.90224,-8.90224 -9.17647,-8.442504 -9.17647,15.383951 0,20.62594 0.04295,20.93113 3.611444,25.66667 1.986293,2.63588 4.086293,4.99252 4.666666,5.23696 C 51.525149,141.35556 52,142.35556 52,143.33333 c 0,1.88339 2.653443,3.35791 4.333333,2.40806 0.55,-0.31099 1,-10.65944 1,-22.99655 z m 112.811597,11.35825 c 0.40036,-1.0433 -0.54638,-3.1712 -2.10385,-4.72868 -2.38625,-2.38625 -4.13097,-2.76957 -11.08971,-2.43642 -6.61578,0.31673 -8.34632,0.85934 -8.70241,2.72868 -0.27085,1.42186 0.37496,2.33333 1.65328,2.33333 1.15376,0 2.09776,0.9 2.09776,2 0,2.81343 17.06768,2.91039 18.14493,0.10307 z M 175.33333,100 c 0,-10 0,-10 -10,-10 -10,0 -10,0 -10.40196,8.526231 -0.58109,12.325689 -0.5832,12.323349 10.71602,11.865899 C 175.33333,110 175.33333,110 175.33333,100 Z m -23.91368,-0.657903 c 1.42494,-7.595497 -2.41349,-16.67543 -7.0493,-16.67543 -2.30642,0 -2.33843,16.724936 -0.0371,19.338893 3.07275,3.49004 6.14883,2.33386 7.08632,-2.663463 z M 104.97127,96 c 0.19402,-1.145505 -3.07618,-4.421068 -7.654129,-7.666667 -7.992885,-5.666666 -7.992885,-5.666666 -28.030193,-5.666666 -15.511585,0 -20.192068,0.403301 -20.722501,1.785586 -0.376858,0.982074 1.891973,4.50842 5.041846,7.836327 5.72704,6.050739 5.72704,6.050739 28.376632,5.88108 C 100.98684,98.027308 104.68704,97.67808 104.97127,96 Z m 65.09185,-12.10212 c 0.48793,-0.789499 -0.35157,-2.589499 -1.86556,-4 -2.13455,-1.988632 -4.71149,-2.564547 -11.47515,-2.564547 -9.25009,0 -10.62614,1.179302 -6.38908,5.475572 2.67192,2.709264 18.19874,3.566258 19.72979,1.088975 z M 188.27819,62.333333 C 188.58811,61.416667 188.50229,56.766667 188.08751,52 187.33333,43.333333 187.33333,43.333333 109.41873,42.989152 47.970136,42.717708 31.279055,42.999552 30.439144,44.322485 29.150433,46.352419 28.971389,61.860277 30.222223,63.111111 30.711111,63.6 66.346917,64 109.4129,64 c 61.45202,0 78.42306,-0.358651 78.86529,-1.666667 z M 38.666667,52.666667 c 0,-1.1 0.9,-2 2,-2 1.1,0 2,0.9 2,2 0,1.1 -0.9,2 -2,2 -1.1,0 -2,-0.9 -2,-2 z m 12.305556,0.416666 c 0.824098,-2.472297 3.694444,-2.882346 3.694444,-0.527777 0,1.161111 -0.95,2.111111 -2.111111,2.111111 -1.161112,0 -1.873612,-0.7125 -1.583333,-1.583334 z M 64,52.555556 c 0,-2.354569 2.870345,-1.94452 3.694444,0.527777 0.290279,0.870834 -0.422221,1.583334 -1.583333,1.583334 C 64.95,54.666667 64,53.716667 64,52.555556 Z m 112,0.111111 c 0,-1.1 0.9,-2 2,-2 1.1,0 2,0.9 2,2 0,1.1 -0.9,2 -2,2 -1.1,0 -2,-0.9 -2,-2 z M 83,18.143939 c 1.283333,-0.97419 2.333333,-2.755107 2.333333,-3.957596 0,-2.410275 1.36512,-2.307555 -30.666666,-2.307555 -10.266667,0 -19.266667,0.02727 -20,0.06061 -1.854594,0.0843 -1.671402,4.522538 0.266666,6.460606 C 37.304072,20.770739 79.838116,20.544151 83,18.143939 Z"
         id="path313" />
    </g>
  </g>
</svg>
