<?xml version="1.0" encoding="UTF-8" standalone="no"?>
<!-- Created with Inkscape (http://www.inkscape.org/) -->

<svg
   version="1.1"
   id="svg2"
   width="85.333336"
   height="85.333336"
   viewBox="0 0 85.333336 85.333336"
   sodipodi:docname="etapas04.png"
   xmlns:inkscape="http://www.inkscape.org/namespaces/inkscape"
   xmlns:sodipodi="http://sodipodi.sourceforge.net/DTD/sodipodi-0.dtd"
   xmlns="http://www.w3.org/2000/svg"
   xmlns:svg="http://www.w3.org/2000/svg">
  <defs
     id="defs6" />
  <sodipodi:namedview
     id="namedview4"
     pagecolor="#ffffff"
     bordercolor="#000000"
     borderopacity="0.25"
     inkscape:showpageshadow="2"
     inkscape:pageopacity="0.0"
     inkscape:pagecheckerboard="0"
     inkscape:deskcolor="#d1d1d1"
     showgrid="false" />
  <g
     inkscape:groupmode="layer"
     inkscape:label="Image"
     id="g8">
    <g
       id="g293"
       transform="translate(-0.23764378,0.08270108)">
      <path
         style="fill:#c9f0ed;stroke-width:1.33333"
         d="m 8.6060609,76.727276 c -1.8,-1.8 -3.2727274,-4.527274 -3.2727274,-6.060607 0,-3.597328 5.7360065,-9.333334 9.3333335,-9.333334 3.597328,0 9.333334,5.736006 9.333334,9.333334 0,3.597328 -5.736006,9.333334 -9.333334,9.333334 -1.533333,0 -4.260606,-1.472727 -6.0606061,-3.272727 z m 9.1631531,-5.819718 c 4.276335,-4.463532 3.125292,-6.879404 -1.297877,-2.724052 -2.363819,2.220692 -3.475738,2.529387 -4.888262,1.357096 -2.7712138,-2.299903 -3.9007296,-0.101586 -1.379334,2.684531 2.888909,3.192208 3.316105,3.117809 7.565473,-1.317575 z m 18.836847,5.819718 c -1.8,-1.8 -3.272727,-4.527274 -3.272727,-6.060607 0,-3.597328 5.736006,-9.333334 9.333334,-9.333334 3.597328,0 9.333334,5.736006 9.333334,9.333334 0,1.533333 -1.472727,4.260607 -3.272727,6.060607 -1.8,1.8 -4.527274,3.272727 -6.060607,3.272727 -1.533333,0 -4.260607,-1.472727 -6.060607,-3.272727 z m 9.163154,-5.819718 c 4.276335,-4.463532 3.125292,-6.879404 -1.297878,-2.724052 -2.363818,2.220692 -3.475737,2.529387 -4.888261,1.357096 -2.771214,-2.299903 -3.90073,-0.101586 -1.379333,2.684531 2.888908,3.192208 3.316104,3.117809 7.565472,-1.317575 z m 18.836847,5.819718 c -1.8,-1.8 -3.272727,-4.527274 -3.272727,-6.060607 0,-3.597328 5.736006,-9.333334 9.333334,-9.333334 1.533333,0 4.260607,1.472727 6.060607,3.272727 4.152815,4.152816 4.152815,7.968398 0,12.121214 -1.8,1.8 -4.527274,3.272727 -6.060607,3.272727 -1.533334,0 -4.260607,-1.472727 -6.060607,-3.272727 z m 9.163154,-5.819718 c 4.276334,-4.463532 3.125292,-6.879404 -1.297878,-2.724052 -2.363818,2.220692 -3.475737,2.529387 -4.888261,1.357096 -2.771214,-2.299903 -3.90073,-0.101586 -1.379334,2.684531 2.888908,3.192208 3.316105,3.117809 7.565473,-1.317575 z M 42.666668,48.68913 c 0,-5.833725 0.160395,-6.058818 6.666667,-9.355795 6.666667,-3.378257 6.666667,-3.378257 6.666667,3.176249 0,6.303064 -0.20617,6.661967 -5.374392,9.355795 -2.955915,1.540709 -5.955915,2.801289 -6.666667,2.801289 -0.710751,0 -1.292275,-2.689892 -1.292275,-5.977538 z M 8.6060609,48.72728 c -1.8,-1.8 -3.2727274,-4.527274 -3.2727274,-6.060607 0,-3.597328 5.7360065,-9.333334 9.3333335,-9.333334 3.597328,0 9.333334,5.736006 9.333334,9.333334 0,3.597328 -5.736006,9.333334 -9.333334,9.333334 -1.533333,0 -4.260606,-1.472727 -6.0606061,-3.272727 z m 9.1631531,-5.819718 c 4.276335,-4.463532 3.125292,-6.879404 -1.297877,-2.724052 -2.363819,2.220692 -3.475738,2.529387 -4.888262,1.357096 -2.7712138,-2.299902 -3.9007296,-0.101573 -1.379334,2.684531 2.888909,3.192208 3.316105,3.117809 7.565473,-1.317575 z m 46.836848,5.819718 c -1.8,-1.8 -3.272727,-4.527274 -3.272727,-6.060607 0,-3.597328 5.736006,-9.333334 9.333334,-9.333334 3.597328,0 9.333334,5.736006 9.333334,9.333334 0,1.533333 -1.472727,4.260607 -3.272727,6.060607 -1.8,1.8 -4.527274,3.272727 -6.060607,3.272727 -1.533334,0 -4.260607,-1.472727 -6.060607,-3.272727 z m 9.163154,-5.819718 c 4.276334,-4.463532 3.125292,-6.879404 -1.297878,-2.724052 -2.363818,2.220692 -3.475737,2.529387 -4.888261,1.357096 -2.771214,-2.299902 -3.90073,-0.101573 -1.379334,2.684531 2.888908,3.192208 3.316105,3.117809 7.565473,-1.317575 z M 8.6060609,20.727274 c -4.1528152,-4.152816 -4.1528152,-7.968398 0,-12.1212131 1.8000001,-1.8 4.5272731,-3.2727274 6.0606061,-3.2727274 3.597328,0 9.333334,5.7360065 9.333334,9.3333335 0,3.597328 -5.736006,9.333334 -9.333334,9.333334 -1.533333,0 -4.260606,-1.472727 -6.0606061,-3.272727 z m 9.1631531,-5.819718 c 4.276335,-4.463532 3.125292,-6.8794036 -1.297877,-2.724052 -2.363819,2.220692 -3.475738,2.529387 -4.888262,1.357096 -2.7712138,-2.299903 -3.9007296,-0.10158 -1.379334,2.684531 2.888909,3.192208 3.316105,3.11781 7.565473,-1.317575 z m 18.836847,5.819718 c -1.8,-1.8 -3.272727,-4.527273 -3.272727,-6.060607 0,-3.597327 5.736006,-9.3333335 9.333334,-9.3333335 3.597328,0 9.333334,5.7360065 9.333334,9.3333335 0,3.597328 -5.736006,9.333334 -9.333334,9.333334 -1.533333,0 -4.260607,-1.472727 -6.060607,-3.272727 z m 9.163154,-5.819718 c 4.276335,-4.463532 3.125292,-6.8794036 -1.297878,-2.724052 -2.363818,2.220692 -3.475737,2.529387 -4.888261,1.357096 -2.771214,-2.299903 -3.90073,-0.101586 -1.379333,2.684531 2.888908,3.192208 3.316104,3.11781 7.565472,-1.317575 z m 18.836847,5.819718 c -1.8,-1.8 -3.272727,-4.527273 -3.272727,-6.060607 0,-3.597327 5.736006,-9.3333335 9.333334,-9.3333335 3.597328,0 9.333334,5.7360065 9.333334,9.3333335 0,3.597328 -5.736006,9.333334 -9.333334,9.333334 -1.533334,0 -4.260607,-1.472727 -6.060607,-3.272727 z m 9.163154,-5.819718 c 4.276334,-4.463532 3.125292,-6.8794036 -1.297878,-2.724052 -2.363818,2.220692 -3.475737,2.529387 -4.888261,1.357096 -2.771214,-2.299903 -3.90073,-0.101586 -1.379334,2.684531 2.888908,3.192208 3.316105,3.11781 7.565473,-1.317575 z"
         id="path303" />
      <path
         style="fill:#6cc7c5;stroke-width:1.33333"
         d="m 13,81.783628 c 0.916667,-0.369883 2.416667,-0.369883 3.333334,0 0.916667,0.369884 0.166667,0.672515 -1.666667,0.672515 -1.833333,0 -2.583333,-0.302631 -1.666667,-0.672515 z m 28.000001,0 c 0.916667,-0.369883 2.416667,-0.369883 3.333334,0 0.916666,0.369884 0.166666,0.672515 -1.666667,0.672515 -1.833333,0 -2.583333,-0.302631 -1.666667,-0.672515 z m 28.000001,0 c 0.916667,-0.369883 2.416667,-0.369883 3.333334,0 0.916666,0.369884 0.166666,0.672515 -1.666667,0.672515 -1.833334,0 -2.583334,-0.302631 -1.666667,-0.672515 z M 2.877193,70.666669 c 0,-1.833334 0.3026316,-2.583334 0.6725147,-1.666667 0.3698831,0.916667 0.3698831,2.416667 0,3.333334 C 3.1798246,73.250002 2.877193,72.500002 2.877193,70.666669 Z m 22.666668,0 c 0,-1.833334 0.30263,-2.583334 0.672514,-1.666667 0.369883,0.916667 0.369883,2.416667 0,3.333334 -0.369884,0.916666 -0.672514,0.166666 -0.672514,-1.666667 z m 5.333333,0 c 0,-1.833334 0.302631,-2.583334 0.672515,-1.666667 0.369883,0.916667 0.369883,2.416667 0,3.333334 -0.369884,0.916666 -0.672515,0.166666 -0.672515,-1.666667 z m 22.666668,0 c 0,-1.833334 0.30263,-2.583334 0.672514,-1.666667 0.369883,0.916667 0.369883,2.416667 0,3.333334 -0.369884,0.916666 -0.672514,0.166666 -0.672514,-1.666667 z m 5.333333,0 c 0,-1.833334 0.302631,-2.583334 0.672515,-1.666667 0.369883,0.916667 0.369883,2.416667 0,3.333334 -0.369884,0.916666 -0.672515,0.166666 -0.672515,-1.666667 z m 22.666668,0 c 0,-1.833334 0.30263,-2.583334 0.672514,-1.666667 0.369883,0.916667 0.369883,2.416667 0,3.333334 -0.369884,0.916666 -0.672514,0.166666 -0.672514,-1.666667 z M 13,59.116961 c 0.916667,-0.369883 2.416667,-0.369883 3.333334,0 0.916667,0.369884 0.166667,0.672514 -1.666667,0.672514 -1.833333,0 -2.583333,-0.30263 -1.666667,-0.672514 z m 56.000002,0 c 0.916667,-0.369883 2.416667,-0.369883 3.333334,0 0.916666,0.369884 0.166666,0.672514 -1.666667,0.672514 -1.833334,0 -2.583334,-0.30263 -1.666667,-0.672514 z M 13,53.783627 c 0.916667,-0.369883 2.416667,-0.369883 3.333334,0 0.916667,0.369884 0.166667,0.672515 -1.666667,0.672515 -1.833333,0 -2.583333,-0.302631 -1.666667,-0.672515 z m 56.000002,0 c 0.916667,-0.369883 2.416667,-0.369883 3.333334,0 0.916666,0.369884 0.166666,0.672515 -1.666667,0.672515 -1.833334,0 -2.583334,-0.302631 -1.666667,-0.672515 z M 2.877193,42.666668 c 0,-1.833333 0.3026316,-2.583333 0.6725147,-1.666667 0.3698831,0.916667 0.3698831,2.416667 0,3.333334 C 3.1798246,45.250001 2.877193,44.500001 2.877193,42.666668 Z m 78.66667,0 c 0,-1.833333 0.30263,-2.583333 0.672514,-1.666667 0.369883,0.916667 0.369883,2.416667 0,3.333334 -0.369884,0.916666 -0.672514,0.166666 -0.672514,-1.666667 z M 13,31.11696 c 0.916667,-0.369883 2.416667,-0.369883 3.333334,0 0.916667,0.369884 0.166667,0.672514 -1.666667,0.672514 -1.833333,0 -2.583333,-0.30263 -1.666667,-0.672514 z m 56.000002,0 c 0.916667,-0.369883 2.416667,-0.369883 3.333334,0 0.916666,0.369884 0.166666,0.672514 -1.666667,0.672514 -1.833334,0 -2.583334,-0.30263 -1.666667,-0.672514 z M 13,25.783626 c 0.916667,-0.369883 2.416667,-0.369883 3.333334,0 0.916667,0.369884 0.166667,0.672515 -1.666667,0.672515 -1.833333,0 -2.583333,-0.302631 -1.666667,-0.672515 z m 56.000002,0 c 0.916667,-0.369883 2.416667,-0.369883 3.333334,0 0.916666,0.369884 0.166666,0.672515 -1.666667,0.672515 -1.833334,0 -2.583334,-0.302631 -1.666667,-0.672515 z M 2.877193,14.666667 c 0,-1.833333 0.3026316,-2.583333 0.6725147,-1.666667 0.3698831,0.916667 0.3698831,2.416667 0,3.333334 C 3.1798246,17.250001 2.877193,16.500001 2.877193,14.666667 Z m 22.666668,0 c 0,-1.833333 0.30263,-2.583333 0.672514,-1.666667 0.369883,0.916667 0.369883,2.416667 0,3.333334 -0.369884,0.916667 -0.672514,0.166667 -0.672514,-1.666667 z m 5.333333,0 c 0,-1.833333 0.302631,-2.583333 0.672515,-1.666667 0.369883,0.916667 0.369883,2.416667 0,3.333334 -0.369884,0.916667 -0.672515,0.166667 -0.672515,-1.666667 z m 22.666668,0 c 0,-1.833333 0.30263,-2.583333 0.672514,-1.666667 0.369883,0.916667 0.369883,2.416667 0,3.333334 -0.369884,0.916667 -0.672514,0.166667 -0.672514,-1.666667 z m 5.333333,0 c 0,-1.833333 0.302631,-2.583333 0.672515,-1.666667 0.369883,0.916667 0.369883,2.416667 0,3.333334 -0.369884,0.916667 -0.672515,0.166667 -0.672515,-1.666667 z m 22.666668,0 c 0,-1.833333 0.30263,-2.583333 0.672514,-1.666667 0.369883,0.916667 0.369883,2.416667 0,3.333334 -0.369884,0.916667 -0.672514,0.166667 -0.672514,-1.666667 z M 13,3.1169592 c 0.916667,-0.3698831 2.416667,-0.3698831 3.333334,0 0.916667,0.369883 0.166667,0.6725147 -1.666667,0.6725147 -1.833333,0 -2.583333,-0.3026317 -1.666667,-0.6725147 z m 28.000001,0 c 0.916667,-0.3698831 2.416667,-0.3698831 3.333334,0 0.916666,0.369883 0.166666,0.6725147 -1.666667,0.6725147 -1.833333,0 -2.583333,-0.3026317 -1.666667,-0.6725147 z m 28.000001,0 c 0.916667,-0.3698831 2.416667,-0.3698831 3.333334,0 0.916666,0.369883 0.166666,0.6725147 -1.666667,0.6725147 -1.833334,0 -2.583334,-0.3026317 -1.666667,-0.6725147 z"
         id="path301" />
      <path
         style="fill:#5fc3c1;stroke-width:1.33333"
         d="M 6.8990855,78.247401 C 0.18399967,71.09952 5.163892,60.000002 15.085935,60.000002 c 6.573726,0 10.247399,3.740659 10.247399,10.434248 0,9.873246 -11.800296,14.87467 -18.4342485,7.813151 z M 21.561679,77.793352 C 24.644353,75.003572 24.775486,67.066878 21.79335,63.771657 19.00357,60.688983 11.066877,60.55785 7.7716545,63.539986 4.6889809,66.329766 4.5578484,74.26646 7.5399837,77.561681 10.329765,80.644355 18.266458,80.775488 21.561679,77.793352 Z m 13.337407,0.454049 c -6.412137,-6.825408 -1.480921,-18.691843 7.767582,-18.691843 9.391792,0 14.400035,12.47229 7.580732,18.878692 -4.228816,3.972767 -11.523991,3.883957 -15.348314,-0.186849 z M 49.56168,77.793352 c 3.082674,-2.78978 3.213807,-10.726474 0.231671,-14.021695 -2.78978,-3.082674 -10.726474,-3.213807 -14.021695,-0.231671 -3.082674,2.78978 -3.213807,10.726474 -0.231671,14.021695 2.78978,3.082674 10.726474,3.213807 14.021695,0.231671 z m 13.337407,0.454049 C 59.110539,74.214676 58.993075,66.340262 62.666669,62.666669 66.482787,58.85055 74.659572,59.067975 78.43425,63.085937 82.407017,67.314753 82.318207,74.609928 78.247401,78.43425 74.018585,82.407017 66.72341,82.318207 62.899087,78.247401 Z m 14.662594,-0.454049 c 3.082674,-2.78978 3.213807,-10.726474 0.231671,-14.021695 -2.78978,-3.082674 -10.726474,-3.213807 -14.021695,-0.231671 -3.082674,2.78978 -3.213807,10.726474 -0.231671,14.021695 2.78978,3.082674 10.726474,3.213807 14.021695,0.231671 z M 35.666668,52.292412 c -6.058654,-3.252278 -6.333334,-3.650393 -6.333334,-9.179401 0,-3.178823 0.28395,-5.779677 0.630999,-5.779677 0.347048,0 3.347048,1.319561 6.666667,2.932355 5.9133,2.872903 6.035668,3.062128 6.035668,9.333334 0,3.520539 -0.15,6.331709 -0.333333,6.247047 -0.183334,-0.08467 -3.183334,-1.683808 -6.666667,-3.553658 z M 6.8990855,50.2474 C 2.9263189,46.018584 3.01513,38.723409 7.0859352,34.899086 13.911343,28.486949 25.777778,33.418165 25.777778,42.666668 c 0,9.391792 -12.472289,14.400035 -18.8786925,7.580732 z M 21.561679,49.793351 C 24.644353,47.003571 24.775486,39.066877 21.79335,35.771656 19.00357,32.688982 11.066877,32.557849 7.7716545,35.539985 4.6889809,38.329765 4.5578484,46.266459 7.5399837,49.56168 10.329765,52.644354 18.266458,52.775487 21.561679,49.793351 Z m 41.115186,0.217504 c -6.60925,-7.035224 -1.740346,-18.010854 7.989804,-18.010854 6.349925,0 10.666667,4.392359 10.666667,10.853516 0,9.661985 -11.984243,14.259599 -18.656471,7.157338 z m 14.884816,-0.217504 c 3.082674,-2.78978 3.213807,-10.726474 0.231671,-14.021695 -2.78978,-3.082674 -10.726474,-3.213807 -14.021695,-0.231671 -3.082674,2.78978 -3.213807,10.726474 -0.231671,14.021695 2.78978,3.082674 10.726474,3.213807 14.021695,0.231671 z M 40.000001,25.711693 C 27.838638,21.347137 30.118532,4.0000001 42.853517,4.0000001 c 6.154206,0 10.479818,4.4798595 10.479818,10.8535159 0,6.796754 -7.540236,12.937245 -13.333334,10.858177 z M 49.56168,21.79335 C 52.644354,19.00357 52.775487,11.066877 49.793351,7.7716545 47.003571,4.6889809 39.066877,4.5578484 35.771656,7.5399837 32.688982,10.329765 32.557849,18.266458 35.539985,21.561679 c 2.78978,3.082674 10.726474,3.213807 14.021695,0.231671 z M 6.8990855,22.247399 C 0.27754541,15.199092 5.1594691,4.0000001 14.853516,4.0000001 c 9.203061,0 14.300752,12.1790669 7.813151,18.6666669 -3.816118,3.816119 -11.992902,3.598694 -15.7675815,-0.419268 z M 21.561679,21.79335 C 24.644353,19.00357 24.775486,11.066877 21.79335,7.7716545 19.00357,4.6889809 11.066877,4.5578484 7.7716545,7.5399837 4.6889809,10.329765 4.5578484,18.266458 7.5399837,21.561679 10.329765,24.644353 18.266458,24.775486 21.561679,21.79335 Z m 41.10499,0.873317 C 58.85055,18.850549 59.067975,10.673765 63.085937,6.8990855 70.134244,0.27754541 81.333336,5.1594691 81.333336,14.853516 c 0,9.203061 -12.179067,14.300752 -18.666667,7.813151 z M 77.561681,21.79335 C 80.644355,19.00357 80.775488,11.066877 77.793352,7.7716545 75.003572,4.6889809 67.066878,4.5578484 63.771657,7.5399837 60.688983,10.329765 60.55785,18.266458 63.539986,21.561679 c 2.78978,3.082674 10.726474,3.213807 14.021695,0.231671 z"
         id="path299" />
      <path
         style="fill:#f8a129;stroke-width:1.33333"
         d="m 36.135472,38.99092 c -5.86453,-3.409012 -5.86453,-3.409012 0.290192,-6.53693 6.154721,-3.127917 6.154721,-3.127917 12.197863,-0.191932 3.323728,1.614791 6.043141,3.296866 6.043141,3.737943 0,0.715824 -11.635763,6.861826 -12.369001,6.533298 -0.163716,-0.07335 -2.936704,-1.667423 -6.162195,-3.542379 z"
         id="path297" />
      <path
         style="fill:#cbb32b;fill-opacity:1;stroke-width:1.33333"
         d="m 10.933334,73.066669 c -2.3105227,-2.310523 -1.9656289,-4.158942 0.592823,-3.177172 1.234275,0.473636 3.277789,-0.140413 4.674842,-1.40473 3.748734,-3.392557 4.709884,-0.959558 1.127396,2.853826 -3.55662,3.785848 -4.171214,3.951924 -6.395061,1.728076 z m 28.000001,0 c -2.310523,-2.310523 -1.965629,-4.158942 0.592824,-3.177172 1.234274,0.473636 3.277788,-0.140413 4.674841,-1.40473 3.748733,-3.392557 4.709884,-0.959558 1.127396,2.853826 -3.55662,3.785848 -4.171213,3.951924 -6.395061,1.728076 z m 28,0 c -2.310522,-2.310523 -1.965628,-4.158942 0.592824,-3.177172 1.234275,0.473636 3.277789,-0.140413 4.674842,-1.40473 3.748733,-3.392557 4.709884,-0.959558 1.127396,2.853826 -3.55662,3.785848 -4.171214,3.951924 -6.395062,1.728076 z M 22.666667,61.594891 c 0,-1.797684 8.668779,-9.594889 10.667407,-9.594889 1.053816,0 -0.40518,2.333874 -3.334073,5.333333 -5.037047,5.158404 -7.333334,6.492826 -7.333334,4.261556 z m 32.666668,-4.261556 c -3.257623,-3.336109 -4.455516,-5.333333 -3.19882,-5.333333 1.977541,0 10.532154,7.903189 10.532154,9.730143 0,2.094846 -2.398804,0.656606 -7.333334,-4.39681 z m -14,0 c 0,-0.733333 0.6,-1.333333 1.333333,-1.333333 0.733333,0 1.333333,0.6 1.333333,1.333333 0,0.733333 -0.6,1.333333 -1.333333,1.333333 -0.733333,0 -1.333333,-0.6 -1.333333,-1.333333 z M 10.933334,45.066668 c -2.3105227,-2.310523 -1.9656289,-4.158941 0.592823,-3.177172 1.234275,0.473636 3.277789,-0.140413 4.674842,-1.404729 3.748734,-3.392558 4.709884,-0.959559 1.127396,2.853825 -3.55662,3.785848 -4.171214,3.951924 -6.395061,1.728076 z m 56.000001,0 c -2.310522,-2.310523 -1.965628,-4.158941 0.592824,-3.177172 1.234275,0.473636 3.277789,-0.140413 4.674842,-1.404729 3.748733,-3.392558 4.709884,-0.959559 1.127396,2.853825 -3.55662,3.785848 -4.171214,3.951924 -6.395062,1.728076 z m -40.266667,-2.4 c 0,-0.733333 0.6,-1.333333 1.333333,-1.333333 0.733333,0 1.333333,0.6 1.333333,1.333333 0,0.733333 -0.6,1.333333 -1.333333,1.333333 -0.733333,0 -1.333333,-0.6 -1.333333,-1.333333 z m 29.333334,0 c 0,-0.733333 0.6,-1.333333 1.333333,-1.333333 0.733333,0 1.333333,0.6 1.333333,1.333333 0,0.733333 -0.6,1.333333 -1.333333,1.333333 -0.733333,0 -1.333333,-0.6 -1.333333,-1.333333 z M 27.30331,29.302588 c -2.82152,-2.889501 -4.698436,-5.685239 -4.170921,-6.212753 0.527513,-0.527513 3.403894,1.485663 6.391957,4.473727 2.988063,2.988063 4.864979,5.783802 4.170923,6.212751 -0.694056,0.428951 -3.570437,-1.584227 -6.391959,-4.473725 z m 24.253713,4.392681 c -0.987588,-1.597949 9.391934,-11.857424 10.686478,-10.56288 0.527513,0.527513 -1.485663,3.403894 -4.473727,6.391957 -2.988063,2.988063 -5.783802,4.864979 -6.212751,4.170923 z M 41.333335,28.000001 c 0,-0.733333 0.6,-1.333333 1.333333,-1.333333 0.733333,0 1.333333,0.6 1.333333,1.333333 0,0.733333 -0.6,1.333333 -1.333333,1.333333 -0.733333,0 -1.333333,-0.6 -1.333333,-1.333333 z M 10.933334,17.066667 c -2.3105227,-2.310523 -1.9656289,-4.158942 0.592823,-3.177172 1.234275,0.473636 3.277789,-0.140413 4.674842,-1.404729 3.748734,-3.3925577 4.709884,-0.959559 1.127396,2.853825 -3.55662,3.785848 -4.171214,3.951924 -6.395061,1.728076 z m 28.000001,0 c -2.310523,-2.310523 -1.965629,-4.158942 0.592824,-3.177172 1.234274,0.473636 3.277788,-0.140413 4.674841,-1.404729 3.748733,-3.3925577 4.709884,-0.959559 1.127396,2.853825 -3.55662,3.785848 -4.171213,3.951924 -6.395061,1.728076 z m 28,0 c -2.310522,-2.310523 -1.965628,-4.158942 0.592824,-3.177172 1.234275,0.473636 3.277789,-0.140413 4.674842,-1.404729 3.748733,-3.3925577 4.709884,-0.959559 1.127396,2.853825 -3.55662,3.785848 -4.171214,3.951924 -6.395062,1.728076 z"
         id="path295" />
    </g>
  </g>
</svg>
