<?xml version="1.0" encoding="UTF-8" standalone="no"?>
<!-- Created with Inkscape (http://www.inkscape.org/) -->

<svg
   version="1.1"
   id="svg2"
   width="85.333336"
   height="85.333336"
   viewBox="0 0 85.333336 85.333336"
   sodipodi:docname="etapas03.svg"
   xmlns:inkscape="http://www.inkscape.org/namespaces/inkscape"
   xmlns:sodipodi="http://sodipodi.sourceforge.net/DTD/sodipodi-0.dtd"
   xmlns="http://www.w3.org/2000/svg"
   xmlns:svg="http://www.w3.org/2000/svg">
  <defs
     id="defs6" />
  <sodipodi:namedview
     id="namedview4"
     pagecolor="#ffffff"
     bordercolor="#000000"
     borderopacity="0.25"
     inkscape:showpageshadow="2"
     inkscape:pageopacity="0.0"
     inkscape:pagecheckerboard="0"
     inkscape:deskcolor="#d1d1d1"
     showgrid="false" />
  <g
     inkscape:groupmode="layer"
     inkscape:label="Image"
     id="g8">
    <g
       id="g293"
       transform="translate(-0.04647347,0.11944366)">
      <path
         style="fill:#44f6fd;stroke-width:1.33333"
         d="m 5.1007569,80.844287 c -1.3961967,-1.396196 -0.2319794,-33.54998 1.1813663,-33.54998 0.6900543,0 3.3779023,1.657029 4.2196688,1.84309 1.47274,0.325528 1.05351,2.862605 3.576898,2.862605 L 24.273995,48.125848 25.293509,66.815613 24.681801,80.407809 12.888889,80.000003 C 9.7130097,79.890179 5.5896457,81.333176 5.1007569,80.844287 Z M 61.202711,80.33453 c -1.396198,-1.396196 0.787534,-33.142175 2.200879,-33.142175 0.690055,0 3.256687,1.619514 3.709913,2.352847 0.453225,0.733334 0.4418,2.4548 2.965189,2.4548 l 9.685548,-4.689765 1.42732,18.383911 -0.101952,15.019515 -12.200717,-0.71366 c -3.172356,-0.185561 -7.197292,0.823416 -7.68618,0.334527 z M 37.000001,45.904357 c -0.55,-0.558506 -1,-2.535466 -1,-4.393245 0,-2.427623 0.406816,-2.970961 1.44622,-1.931557 0.795422,0.795421 1.245422,2.772381 1,4.393245 -0.245421,1.620864 -0.89622,2.490065 -1.44622,1.931557 z M 36.800479,36.31382 c -0.453225,-0.733333 5.275482,-0.313819 6.375477,-0.313819 1.1,0 2.37082,0.6 2.824045,1.333333 0.453226,0.733334 -0.07596,1.333334 -1.175954,1.333334 -1.1,0 -7.570342,-1.619514 -8.023568,-2.352848 z M 5.8144168,38.177619 C 4.4182201,36.781423 5.6843889,5.2393471 7.0977346,5.2393471 c 0.6900543,0 4.7859584,-0.011709 3.3021064,1.9450418 -0.5209035,0.6869136 1.155461,2.1489447 3.678849,2.1489447 L 23.356432,5.4591798 18.666667,23.333334 24.783752,37.639188 12.888889,37.333334 C 9.7121614,37.25165 6.3033056,38.666508 5.8144168,38.177619 Z M 62.222225,36.444445 C 60.826027,35.048249 61.58244,4.4237357 62.995785,4.4237357 c 0.690055,0 2.441075,1.7214656 2.894301,2.4547989 0.453225,0.7333334 1.665217,2.454799 4.188606,2.454799 L 78.744726,4.3377142 81.089608,24.862605 80.783754,37.333334 H 68.888891 c -3.177778,0 -6.177778,-0.4 -6.666666,-0.888889 z"
         id="path305"
         sodipodi:nodetypes="sssscccsssssscccsssssssssssssssscccsssssscccss" />
      <path
         style="fill:#01d6dd;stroke-width:1.33333"
         d="m 18.709071,66.333335 c 0.03936,-12.684525 1.406755,-18.333333 4.43792,-18.333333 0.469155,0 0.85301,7.2 0.85301,16 0,15.111111 -0.148148,16.000001 -2.666667,16.000001 -2.495983,0 -2.663952,-0.874755 -2.624263,-13.666668 z m 56.000002,0 c 0.03936,-12.684525 1.406755,-18.333333 4.43792,-18.333333 0.469155,0 0.85301,7.2 0.85301,16 0,15.111111 -0.148149,16.000001 -2.666667,16.000001 -2.495983,0 -2.663952,-0.874755 -2.624263,-13.666668 z M 18.709071,23.666667 c 0.03936,-12.684525 1.406755,-18.3333335 4.43792,-18.3333335 0.469155,0 0.85301,7.2000005 0.85301,16.0000005 0,15.111111 -0.148148,16 -2.666667,16 -2.495983,0 -2.663952,-0.874754 -2.624263,-13.666667 z m 56.000002,0 c 0.03936,-12.684525 1.406755,-18.3333335 4.43792,-18.3333335 0.469155,0 0.85301,7.2000005 0.85301,16.0000005 0,15.111111 -0.148149,16 -2.666667,16 -2.495983,0 -2.663952,-0.874754 -2.624263,-13.666667 z"
         id="path303" />
      <path
         style="fill:#e2b90f;stroke-width:1.33333"
         d="m 12.333334,48.414234 c 1.283333,-0.33537 3.383333,-0.33537 4.666667,0 1.283333,0.33537 0.233333,0.609764 -2.333334,0.609764 -2.566667,0 -3.616667,-0.274394 -2.333333,-0.609764 z m 56.000001,0 c 1.283334,-0.33537 3.383334,-0.33537 4.666667,0 1.283334,0.33537 0.233334,0.609764 -2.333333,0.609764 -2.566667,0 -3.616667,-0.274394 -2.333334,-0.609764 z M 12.333334,5.7475662 c 1.283333,-0.3353702 3.383333,-0.3353702 4.666667,0 1.283333,0.33537 0.233333,0.6097637 -2.333334,0.6097637 C 12.1,6.3573299 11.05,6.0829362 12.333334,5.7475662 Z m 56.000001,0 c 1.283334,-0.3353702 3.383334,-0.3353702 4.666667,0 1.283334,0.33537 0.233334,0.6097637 -2.333333,0.6097637 -2.566667,0 -3.616667,-0.2743937 -2.333334,-0.6097637 z"
         id="path301" />
      <path
         style="fill:#005dcd;stroke-width:1.33333"
         d="m 41.333335,45.333335 c 0,-3.555556 0.444444,-4 4,-4 3.555556,0 4,0.444444 4,4 0,3.555556 -0.444444,4 -4,4 -3.555556,0 -4,-0.444444 -4,-4 z"
         id="path299" />
      <path
         style="fill:#c2243d;stroke-width:1.33333"
         d="m 41.333335,65.333335 c 0,-0.733333 0.6,-1.333333 1.333333,-1.333333 0.733333,0 1.333333,0.6 1.333333,1.333333 0,0.733334 -0.6,1.333334 -1.333333,1.333334 -0.733333,0 -1.333333,-0.6 -1.333333,-1.333334 z m 0,-45.333334 c 0,-0.733334 0.6,-1.333334 1.333333,-1.333334 0.733333,0 1.333333,0.6 1.333333,1.333334 0,0.733333 -0.6,1.333333 -1.333333,1.333333 -0.733333,0 -1.333333,-0.6 -1.333333,-1.333333 z"
         id="path297" />
      <path
         style="fill:#cbb32b;fill-opacity:1;stroke-width:1.33333"
         d="m 4.2666668,81.066669 c -2.2064978,-2.206497 -2.2064978,-31.926837 0,-34.133334 0.9212122,-0.921212 5.3333335,-1.6 10.4000002,-1.6 5.066667,0 9.478788,0.678788 10.4,1.6 2.206498,2.206497 2.206498,31.926837 0,34.133334 -0.921212,0.921212 -5.333333,1.6 -10.4,1.6 -5.0666667,0 -9.478788,-0.678788 -10.4000002,-1.6 z M 24.000001,64.000002 c 0,-10.102362 -0.506895,-16 -1.37518,-16 -0.756348,0 -1.720542,0.9 -2.142652,2 -0.465726,1.213661 -2.481988,2 -5.128227,2 -2.398416,0 -5.107689,-0.9 -6.0206084,-2 -0.9129189,-1.1 -2.1863858,-2 -2.8299263,-2 -0.6435406,0 -1.1700738,7.2 -1.1700738,16 v 16.000001 h 9.3333335 9.333334 z m -7,-15.585768 c -1.283334,-0.33537 -3.383334,-0.33537 -4.666667,0 -1.283334,0.33537 -0.233334,0.609764 2.333333,0.609764 2.566667,0 3.616667,-0.274394 2.333334,-0.609764 z m 43.266668,32.652435 c -2.206498,-2.206497 -2.206498,-31.926837 0,-34.133334 0.921212,-0.921212 5.333333,-1.6 10.4,-1.6 5.066667,0 9.478788,0.678788 10.4,1.6 2.206498,2.206497 2.206498,31.926837 0,34.133334 -0.921212,0.921212 -5.333333,1.6 -10.4,1.6 -5.066667,0 -9.478788,-0.678788 -10.4,-1.6 z M 80.000003,64.000002 c 0,-10.102362 -0.506895,-16 -1.375181,-16 -0.756348,0 -1.720541,0.9 -2.142652,2 -0.465725,1.213661 -2.481988,2 -5.128226,2 -2.398417,0 -5.10769,-0.9 -6.020609,-2 -0.912918,-1.1 -2.186385,-2 -2.829926,-2 -0.64354,0 -1.170074,7.2 -1.170074,16 v 16.000001 h 9.333334 9.333334 z M 73.000002,48.414234 c -1.283333,-0.33537 -3.383333,-0.33537 -4.666667,0 -1.283333,0.33537 -0.233333,0.609764 2.333334,0.609764 2.566667,0 3.616667,-0.274394 2.333333,-0.609764 z M 40.666668,68.000002 c -0.453225,-0.733333 -3.188635,-1.333333 -6.07869,-1.333333 -7.065646,0 -6.726418,-2.406852 0.412023,-2.923336 5.318863,-0.384834 5.692311,-0.675964 6.084478,-4.743331 0.229797,-2.383334 0.941781,-4.333334 1.582189,-4.333334 0.640408,0 1.352392,1.95 1.582189,4.333334 0.392167,4.067367 0.765615,4.358497 6.084478,4.743331 7.138441,0.516484 7.477669,2.923336 0.412023,2.923336 -2.890055,0 -5.625465,0.6 -6.07869,1.333333 -0.453225,0.733333 -1.353225,1.333334 -2,1.333334 -0.646775,0 -1.546775,-0.600001 -2,-1.333334 z m 3.333333,-2.666667 c 0,-0.733333 -0.6,-1.333333 -1.333333,-1.333333 -0.733333,0 -1.333333,0.6 -1.333333,1.333333 0,0.733334 0.6,1.333334 1.333333,1.333334 0.733333,0 1.333333,-0.6 1.333333,-1.333334 z M 33.983031,49.840366 C 31.798244,47.514769 33.333334,42.467099 33.333334,37.85056 v -4.517226 h 12.489854 c 8.764385,0 6.523108,3.875535 5.927844,12.175738 l -0.417697,5.824263 -6.043407,0.394548 c -4.930265,0.321875 -8.894882,0.679957 -11.306897,-1.887517 z m 15.350304,-4.507031 c 0,-3.555556 -0.444444,-4 -4,-4 -3.555556,0 -4,0.444444 -4,4 0,3.555556 0.444444,4 4,4 3.555556,0 4,-0.444444 4,-4 z m -11.887114,-5.75378 c -1.039404,-1.039404 -1.44622,-0.496066 -1.44622,1.931557 0,4.396363 1.868568,6.276745 2.44622,2.461688 0.245422,-1.620864 -0.204578,-3.597824 -1,-4.393245 z m 8.55378,-2.246221 c -0.453225,-0.733333 -2.324045,-1.333333 -4.157378,-1.333333 -1.882698,0 -2.974716,0.580255 -2.509288,1.333333 0.453225,0.733334 2.324045,1.333334 4.157378,1.333334 1.882698,0 2.974716,-0.580255 2.509288,-1.333334 z M 4.2666668,38.400001 c -2.2064978,-2.206497 -2.2064978,-31.9268364 0,-34.1333342 2.1073774,-2.1073774 18.6926232,-2.1073774 20.8000002,0 2.206498,2.2064978 2.206498,31.9268372 0,34.1333342 -2.107377,2.107378 -18.6926228,2.107378 -20.8000002,0 z M 24.000001,21.333334 c 0,-10.102362 -0.506895,-16.0000005 -1.37518,-16.0000005 -0.756348,0 -1.720542,0.9 -2.142652,2.0000001 -1.008643,2.6284808 -8.96739,2.6284808 -11.1488354,0 C 8.4204147,6.2333335 7.1469478,5.3333335 6.5034073,5.3333335 c -0.6435406,0 -1.1700738,7.2000005 -1.1700738,16.0000005 v 16 h 9.3333335 9.333334 z m -7,-15.5857678 c -1.283334,-0.3353702 -3.383334,-0.3353702 -4.666667,0 C 11.05,6.0829362 12.1,6.3573299 14.666667,6.3573299 c 2.566667,0 3.616667,-0.2743937 2.333334,-0.6097637 z M 60.266669,38.400001 c -2.206498,-2.206497 -2.206498,-31.9268364 0,-34.1333342 2.107377,-2.1073774 18.692623,-2.1073774 20.8,0 2.206498,2.2064978 2.206498,31.9268372 0,34.1333342 -2.107377,2.107378 -18.692623,2.107378 -20.8,0 z M 80.000003,21.333334 c 0,-10.102362 -0.506895,-16.0000005 -1.375181,-16.0000005 -0.756348,0 -1.720541,0.9 -2.142652,2.0000001 -1.008642,2.6284808 -8.967389,2.6284808 -11.148835,0 -0.912918,-1.1000001 -2.186385,-2.0000001 -2.829926,-2.0000001 -0.64354,0 -1.170074,7.2000005 -1.170074,16.0000005 v 16 h 9.333334 9.333334 z M 73.000002,5.7475662 c -1.283333,-0.3353702 -3.383333,-0.3353702 -4.666667,0 -1.283333,0.33537 -0.233333,0.6097637 2.333334,0.6097637 2.566667,0 3.616667,-0.2743937 2.333333,-0.6097637 z M 41.084479,26.333334 c -0.392167,-4.067367 -0.765615,-4.358497 -6.084478,-4.743331 -7.031744,-0.508764 -7.527323,-2.923336 -0.6,-2.923336 2.786667,0 5.786667,-0.72 6.666667,-1.6 1.244444,-1.244444 1.955556,-1.244444 3.2,0 0.88,0.88 3.88,1.6 6.666667,1.6 6.927323,0 6.431744,2.414572 -0.6,2.923336 -5.318863,0.384834 -5.692311,0.675964 -6.084478,4.743331 -0.540136,5.602015 -2.624242,5.602015 -3.164378,0 z m 2.915522,-6.333333 c 0,-0.733334 -0.6,-1.333334 -1.333333,-1.333334 -0.733333,0 -1.333333,0.6 -1.333333,1.333334 0,0.733333 0.6,1.333333 1.333333,1.333333 0.733333,0 1.333333,-0.6 1.333333,-1.333333 z"
         id="path295"
         sodipodi:nodetypes="sssssssssssssscccssssssssssssssssssscccssssssssssssssssssssssscsscssssssssssssssssssssssssssscccsssssssssssssssscccsssssssssssssssssss" />
    </g>
  </g>
</svg>
