<?xml version="1.0" encoding="UTF-8" standalone="no"?>
<!-- Created with Inkscape (http://www.inkscape.org/) -->

<svg
   version="1.1"
   id="svg2"
   width="200"
   height="200"
   viewBox="0 0 200 200"
   sodipodi:docname="etapas06.svg"
   xmlns:inkscape="http://www.inkscape.org/namespaces/inkscape"
   xmlns:sodipodi="http://sodipodi.sourceforge.net/DTD/sodipodi-0.dtd"
   xmlns="http://www.w3.org/2000/svg"
   xmlns:svg="http://www.w3.org/2000/svg">
  <defs
     id="defs6" />
  <sodipodi:namedview
     id="namedview4"
     pagecolor="#ffffff"
     bordercolor="#000000"
     borderopacity="0.25"
     inkscape:showpageshadow="2"
     inkscape:pageopacity="0.0"
     inkscape:pagecheckerboard="0"
     inkscape:deskcolor="#d1d1d1"
     showgrid="false" />
  <g
     inkscape:groupmode="layer"
     inkscape:label="Image"
     id="g8">
    <g
       id="g311"
       transform="translate(-0.8808345,1.0477359)">
      <path
         style="fill:#b5f1f5;stroke-width:1.33333"
         d="M 32.888889,167.11111 C 32.4,166.62223 32,144.42223 32,117.77778 c 86.13501,-144.131866 183.39605,88.91889 0.888889,49.33333 z M 32.836867,56.333333 c 0.368066,-2.75 0.941774,-6.35 1.274908,-8 0.605697,-3 0.605697,-3 72.024735,-3 48.61466,0 71.27221,0.440491 70.9592,1.379535 -0.30947,0.928403 -23.45502,1.357083 -70.77778,1.31088 C 36,47.955095 36,47.955095 36,52.470811 c 0,4.32704 0.236764,4.541466 5.666667,5.132037 3.116666,0.338976 34.916026,0.567008 70.665243,0.506736 51.16772,-0.08627 64.99888,0.245061 65,1.557083 0.001,1.31294 -15.40327,1.666666 -72.58142,1.666666 -72.582835,0 -72.582835,0 -71.913623,-5 z m 12.496466,-3 c 0,-2.2 0.6,-4 1.333334,-4 0.733333,0 1.333333,1.8 1.333333,4 0,2.2 -0.6,4 -1.333333,4 -0.733334,0 -1.333334,-1.8 -1.333334,-4 z m 12,0 c 0,-2.666666 0.666667,-4 2,-4 1.333334,0 2,1.333334 2,4 0,2.666667 -0.666666,4 -2,4 -1.333333,0 -2,-1.333333 -2,-4 z m 13.333334,0 c 0,-2.2 0.6,-4 1.333333,-4 0.733333,0 1.333333,1.8 1.333333,4 0,2.2 -0.6,4 -1.333333,4 -0.733333,0 -1.333333,-1.8 -1.333333,-4 z m 100.000003,0 c 0,-2.2 0.6,-4 1.33333,-4 0.73333,0 1.33333,1.8 1.33333,4 0,2.2 -0.6,4 -1.33333,4 -0.73333,0 -1.33333,-1.8 -1.33333,-4 z M 133,36.336805 c 9.71667,-0.227813 25.61667,-0.227813 35.33333,0 9.71667,0.227812 1.76667,0.414206 -17.66666,0.414206 -19.43334,0 -27.38334,-0.186394 -17.66667,-0.414206 z"
         id="path325"
         sodipodi:nodetypes="cccsssssssscssssssssssssssssssssssssss" />
      <path
         style="fill:#45f9fd;stroke-width:1.33333"
         d="M 16.848485,183.15152 C 13.333333,179.63636 13.333333,179.63636 13.333333,100 c 0,-79.636364 0,-79.636364 3.515152,-83.151515 1.933334,-1.933333 4.24034,-3.515152 5.126683,-3.515152 1.892712,0 6.024832,4.27398 6.024832,6.231671 0,0.745267 1.097244,2.348021 2.438321,3.561679 2.10208,1.902357 6.210076,2.20665 29.790039,2.20665 27.351719,0 27.351719,0 29.864884,-4.666666 2.692353,-4.999398 5.122837,-5.966038 6.430771,-2.557618 1.159832,3.022475 1.001522,17.888152 -0.190682,17.905511 -0.55,0.008 -15.787496,0.158009 -33.861101,0.333333 C 32.285759,36.640721 29.382781,36.873401 26.805565,39.206651 24.027415,41.721815 24,42.376496 24,106.20665 c 0,62.68224 0.07354,64.53356 2.666667,67.12668 C 29.1939,175.86056 31.111111,176 63.333333,176 c 31.692407,0 34,0.16085 34,2.36999 0,1.3035 -0.934022,3.7035 -2.075605,5.33333 -2.058705,2.93921 -2.372059,2.96335 -38.484848,2.96335 -36.409244,0 -36.409244,0 -39.924395,-3.51515 z M 177.87268,166.46065 c -0.61941,-1.00224 -0.36225,-1.17524 0.73704,-0.49584 2.98191,1.84291 4.01556,-2.26538 4.03653,-16.0433 0.0148,-9.75403 -0.51348,-14.1177 -1.93718,-16 -2.71806,-3.5936 -2.74979,-17.36476 -0.0424,-18.40368 1.60865,-0.6173 2,-3.6136 2,-15.31272 0,-11.302517 -0.44588,-14.915307 -2,-16.20511 -1.27755,-1.060271 -2,-4.009055 -2,-8.16326 0,-6.337119 0.10228,-6.503407 4,-6.503407 4,0 4,0 4,47.733337 0,35.34814 -0.41515,48.14848 -1.6,49.33333 -2.03262,2.03261 -5.95482,2.06568 -7.19399,0.0607 z"
         id="path323" />
      <path
         style="fill:#2ed9ad;fill-opacity:1;stroke-width:1.33333"
         d="m 10.722809,189.53979 c -5.3894757,-5.1269 -5.3894757,-5.1269 -5.3894757,-88.79429 0,-75.059007 0.2243704,-84.047216 2.1807218,-87.359056 4.6779429,-7.9191261 5.5400919,-8.0531107 51.8192779,-8.0531107 37.176484,0 42.710927,0.2691946 46.046737,2.2397051 6.21174,3.6693636 8.20509,8.9974006 7.64224,20.4269616 -0.49245,10 -0.49245,10 -0.75738,-0.955556 -0.25672,-10.616036 -0.41093,-11.101555 -4.97604,-15.666666 -4.71111,-4.7111113 -4.71111,-4.7111113 -47.955557,-4.7111113 -43.244444,0 -43.244444,0 -47.955555,4.7111113 C 6.6666667,16.088889 6.6666667,16.088889 6.6666667,100 c 0,83.91111 0,83.91111 4.7111113,88.62223 4.711111,4.7111 4.711111,4.7111 47.955555,4.7111 43.244447,0 43.244447,0 47.867847,-4.62341 3.00849,-3.00848 4.77048,-6.15211 5.04445,-9 0.42104,-4.37659 0.42104,-4.37659 37.6914,-4.73149 36.09818,-0.34374 37.36668,-0.44539 40.33333,-3.23242 3.06297,-2.87752 3.06297,-2.87752 3.06297,-65.88166 0,-63.004137 0,-63.004137 -3.51314,-65.767577 -1.93223,-1.519892 -2.7784,-2.76344 -1.88039,-2.76344 0.89801,0 2.75897,1.35 4.13545,3 2.36903,2.839778 2.50507,6.367903 2.54706,66.060607 0.0444,63.06061 0.0444,63.06061 -3.22838,66.33333 C 188.12121,176 188.12121,176 150.72727,176 c -37.39394,0 -37.39394,0 -37.39394,3.46095 0,4.63934 -3.53429,10.35566 -8.05311,13.025 -3.21069,1.8966 -9.259865,2.18072 -46.4298,2.18072 -42.738135,0 -42.738135,0 -48.127611,-5.12688 z M 31.555556,168.44444 C 31.066667,167.95556 29.048109,91.142311 28.277181,63.775391 220.30292,-0.48646956 188.2332,103.50509 189.54511,144.15108 c 0.34975,48.9887 -156.863409,22.23752 -84.21178,23.86617 73.14457,1.6397 72.66667,0.68391 -0.1111,1 -40.027782,0.17384 -73.177782,-0.0839 -73.66667,-0.57281 z M 30.666667,54.046912 c 0,-7.157492 0.437506,-8.853901 2.579012,-10 2.942637,-1.574852 138.627091,-1.837364 147.420991,-0.28522 5.33333,0.941347 5.33333,0.941347 5.72758,9.923161 0.39426,8.981814 0.39426,8.981814 -77.66666,8.981814 -78.060923,0 -78.060923,0 -78.060923,-8.619755 z m 146.665243,5.619755 c -0.001,-1.312022 -13.83228,-1.643348 -65,-1.557083 C 76.582693,58.169856 44.783333,57.941824 41.666667,57.602848 36.236764,57.012277 36,56.797851 36,52.470811 c 0,-4.515716 0,-4.515716 70.31793,-4.447063 47.32276,0.0462 70.46831,-0.382477 70.77778,-1.31088 0.31301,-0.939044 -22.34454,-1.379535 -70.9592,-1.379535 -71.419038,0 -71.419038,0 -72.024735,3 -0.333134,1.65 -0.906842,5.25 -1.274908,8 -0.669212,5 -0.669212,5 71.913623,5 57.17815,0 72.58254,-0.353726 72.58142,-1.666666 z M 48,53.333333 c 0,-2.2 -0.6,-4 -1.333333,-4 -0.733334,0 -1.333334,1.8 -1.333334,4 0,2.2 0.6,4 1.333334,4 0.733333,0 1.333333,-1.8 1.333333,-4 z m 13.333333,0 c 0,-2.666666 -0.666666,-4 -2,-4 -1.333333,0 -2,1.333334 -2,4 0,2.666667 0.666667,4 2,4 1.333334,0 2,-1.333333 2,-4 z m 12,0 c 0,-2.2 -0.6,-4 -1.333333,-4 -0.733333,0 -1.333333,1.8 -1.333333,4 0,2.2 0.6,4 1.333333,4 0.733333,0 1.333333,-1.8 1.333333,-4 z m 99.999997,0 c 0,-2.2 -0.6,-4 -1.33333,-4 -0.73333,0 -1.33333,1.8 -1.33333,4 0,2.2 0.6,4 1.33333,4 0.73333,0 1.33333,-1.8 1.33333,-4 z M 43.168203,53.949528 c 0.455962,-1.18822 -0.08243,-2.38404 -1.280304,-2.843711 -2.489815,-0.95543 -5.214299,1.414688 -3.9597,3.444674 1.308373,2.116992 4.330009,1.770448 5.240004,-0.600963 z m 12.580918,-0.96484 c 0.308132,-1.6 -0.40989,-2.318021 -2.318022,-2.318021 -1.908132,0 -2.764432,0.8563 -2.764432,2.764432 0,3.416857 4.413105,3.029238 5.082454,-0.446411 z M 68,53.333333 c 0,-1.777777 -0.888889,-2.666666 -2.666667,-2.666666 -2.569586,0 -3.613196,2.609025 -1.777777,4.444444 C 65.390975,56.946529 68,55.90292 68,53.333333 Z m 113.33333,-0.809318 c 0,-2.621854 -0.51824,-3.277116 -2.10905,-2.666667 -1.15997,0.445125 -2.35997,0.809319 -2.66667,0.809319 -0.30668,0 -0.55761,1.2 -0.55761,2.666666 C 176,55.111111 176.88889,56 178.66667,56 c 1.98473,0 2.66666,-0.888889 2.66666,-3.475985 z M 35.537075,16.225131 C 34.321817,14.882287 33.728824,13.382287 34.219313,12.891798 34.709803,12.401309 46.111111,12 59.555556,12 78.723647,12 84,12.374141 84,13.733333 c 0,4.303578 -3.156443,4.933334 -24.726683,4.933334 -19.17171,0 -21.768405,-0.267099 -23.736242,-2.441536 z"
         id="path321"
         sodipodi:nodetypes="sssssssssssssssssssssssssssssccsssssssssscssssssssscssssssssssssssssssssssssssssssssssssssssssss" />
      <path
         style="fill:#e3b75c;fill-opacity:1;stroke-width:1.33333"
         d="M 15.954528,184.15965 C 12,180.20513 12,180.20513 12,100 c 0,-80.205128 0,-80.205128 3.897436,-84.102564 5.420536,-5.420536 8.518755,-5.000955 13.064145,1.769231 3.804507,5.666666 3.804507,5.666666 30.494226,6.026777 26.689717,0.360111 26.689717,0.360111 29.623506,-4.859863 3.540827,-6.30005 6.268143,-7.567837 10.423324,-4.845258 5.459963,3.577502 7.346543,7.82826 6.904583,15.55707 C 106,36.666667 106,36.666667 100,36.943471 c -3.3,0.152242 -5.25,-0.04776 -4.333333,-0.444444 1.060501,-0.458931 1.666666,-3.550772 1.666666,-8.501088 0,-12.928515 -2.734566,-15.697521 -7.240089,-7.331272 -2.513165,4.666666 -2.513165,4.666666 -30.096555,4.666666 -25.029016,0 -27.787737,-0.225801 -29.790038,-2.438321 C 28.992992,21.553936 28,19.846928 28,19.101663 c 0,-1.701534 -4.410968,-5.76833 -6.256503,-5.76833 -0.758924,0 -2.961678,1.581819 -4.895012,3.515152 -3.515152,3.515151 -3.515152,3.515151 -3.515152,83.151515 0,79.63636 0,79.63636 3.515152,83.15152 3.515151,3.51515 3.515151,3.51515 39.924395,3.51515 36.112789,0 36.426143,-0.0241 38.484848,-2.96335 1.141583,-1.62983 2.075605,-4.02983 2.075605,-5.33333 0,-2.20914 -2.307593,-2.36999 -34,-2.36999 C 31.111111,176 29.1939,175.86056 26.666667,173.33333 24.073545,170.74021 24,168.88889 24,106.20665 c 0,-63.817231 0.02796,-64.485345 2.803859,-66.999999 2.588633,-2.345014 5.27525,-2.546296 35,-2.622212 C 94,36.502212 94,36.502212 62.470088,37.251105 c -28.519221,0.677386 -31.797603,0.99143 -34.333333,3.288879 -2.77431,2.513607 -2.803422,3.200288 -2.803422,66.126686 0,59.68366 0.148231,63.72084 2.414904,65.77216 2.097306,1.89804 7.387232,2.23208 40.222771,2.53998 27.419732,0.25711 37.950662,0.78336 38.327582,1.9153 0.28584,0.85844 -1.26442,3.55844 -3.44502,6 -3.964718,4.43922 -3.964718,4.43922 -43.454615,4.82965 -39.489898,0.39043 -39.489898,0.39043 -43.444427,-3.56411 z M 180,168.35733 c 6.80883,-1.25182 6.66667,-0.16214 6.66667,-51.10278 0,-47.752261 0,-47.752261 -4.33334,-48.344098 C 178,68.318613 178,68.318613 182.66667,68.49264 c 4.66666,0.174027 4.66666,0.174027 5.01681,48.68381 0.25044,34.69443 -0.0808,49.02912 -1.16325,50.33334 -0.83238,1.00294 -3.38995,1.74184 -5.68348,1.64197 -3.64726,-0.15881 -3.75216,-0.25841 -0.83675,-0.79443 z m -0.26667,-3.29066 c 2.50527,-2.50527 2.16626,-28.2702 -0.4,-30.4 -1.1,-0.91292 -1.98004,-2.33639 -1.95564,-3.16326 0.0244,-0.82688 1.2244,-0.0869 2.66667,1.6443 2.21529,2.65916 2.62231,5.17733 2.62231,16.22429 0,13.67012 -0.64466,17.29467 -3.07599,17.29467 -0.97499,0 -0.92777,-0.52958 0.14265,-1.6 z m -33.4,-15.35096 C 143.91201,147.0256 142.97691,136 145.17008,136 c 2.67273,0 4.29319,4.16825 3.9072,10.05043 -0.39816,6.06778 -0.4814,6.17898 -2.74395,3.66528 z M 50,136.64025 c -2.2,-3.28228 -4.45,-5.96909 -5,-5.97068 -0.55,-0.002 -1,-8.7029 -1,-19.33624 C 44,100.7 44.478232,92 45.062736,92 c 0.584505,0 3.284505,2.275297 6,5.056217 C 56,102.11243 56,102.11243 56,122.38955 c 0,11.15241 -0.45,20.26393 -1,20.24781 -0.55,-0.0161 -2.8,-2.71483 -5,-5.99711 z m 112.66667,-3.61809 c 0,-0.76716 -1.05,-2.24206 -2.33334,-3.27754 -2.12741,-1.71655 -2.03916,-1.80514 1,-1.00389 1.83334,0.48334 4.12978,1.63228 5.10322,2.5532 1.45661,1.37804 1.27961,1.80261 -1,2.39875 -1.52344,0.39839 -2.76988,0.0967 -2.76988,-0.67052 z m 17.3,-17.89994 c 0.8046,-0.39903 1.36666,-6.48369 1.36666,-14.79501 0,-11.500229 -0.43254,-14.631035 -2.33333,-16.888889 -2.33333,-2.771654 -2.33333,-2.771654 0.70805,-0.194218 2.87366,2.435298 3.02072,3.385192 2.66667,17.224697 -0.27019,10.56119 -0.84896,14.74265 -2.07472,14.98923 -0.935,0.18808 -1.085,0.037 -0.33333,-0.33581 z m -33.63334,-14.74108 c -2.18413,-2.425437 -3.50228,-15.047807 -1.57142,-15.047807 2.85904,0 4.67686,4.554368 4.30862,10.794759 -0.39101,6.626368 -0.47812,6.761708 -2.7372,4.253048 z M 94.623672,95.435743 C 94.600019,94.646084 91.750025,92.053628 88.290339,89.674728 82,85.349456 82,85.349456 86.333333,85.341395 c 2.383334,-0.0044 4.334407,0.441938 4.335718,0.991938 0.0013,0.55 2.701312,2.705095 6,4.789099 3.298689,2.084004 5.997619,3.965905 5.997619,4.182001 0,1.21169 -8.00673,1.342407 -8.042998,0.131307 z M 161,81.222223 c -2.22223,-2.433863 -2.22223,-2.553538 0,-2.513152 2.4218,0.04401 7,2.94654 7,4.43792 0,1.818261 -4.78335,0.503001 -7,-1.924768 z"
         id="path319" />
      <path
         style="fill:#0561d0;stroke-width:1.33333"
         d="m 102,184 c 1.32731,-1.46667 2.7133,-2.66667 3.07997,-2.66667 0.36666,0 -0.41932,1.2 -1.74664,2.66667 -1.32731,1.46667 -2.7133,2.66667 -3.07996,2.66667 -0.36667,0 0.41932,-1.2 1.74663,-2.66667 z m 9.696,-55.52498 c -73.876777,-86.348504 -36.938389,-43.174252 0,0 z M 47.666667,37.670665 c 8.983333,-0.230674 23.683333,-0.230674 32.666666,0 8.983334,0.230676 1.633334,0.41941 -16.333333,0.41941 -17.966667,0 -25.316667,-0.188734 -16.333333,-0.41941 z M 102.78132,16.824288 c -3.218679,-4.157621 -3.218679,-4.157621 0.59596,-0.531359 2.09805,1.994444 3.54646,3.865375 3.21868,4.157622 -0.32778,0.292248 -2.04437,-1.33957 -3.81464,-3.626263 z"
         id="path317"
         sodipodi:nodetypes="sssssccssssssss" />
      <path
         style="fill:#1e5054;stroke-width:1.33333"
         d="m 11.377778,188.62223 c -2.5911113,-2.59112 -4.685962,-5.74112 -4.655224,-7 0.034009,-1.3929 1.0007241,-0.5154 2.4695213,2.24158 1.3274987,2.49176 4.4523497,5.61662 6.9441127,6.94411 2.756985,1.4688 3.634475,2.43552 2.241589,2.46952 -1.258888,0.0308 -4.408888,-2.06411 -6.999999,-4.65521 z m 91.152702,2.18569 c 2.49176,-1.32749 5.61661,-4.45235 6.94411,-6.94411 1.4688,-2.75698 2.43551,-3.63448 2.46952,-2.24158 0.0725,2.96972 -8.6855,11.72773 -11.65522,11.65521 -1.392886,-0.034 -0.515397,-1.00072 2.24159,-2.46952 z M 14.564103,185.43589 C 10.666667,181.53847 10.666667,181.53847 10.666667,100 c 0,-81.538461 0,-81.538461 3.983169,-85.521631 4.938193,-4.9381937 11.718727,-4.9688539 14.149787,-0.06399 0.839905,1.69458 2.859216,4.613122 4.48736,6.485652 1.628142,1.872528 2.154629,3.140121 1.169972,2.816872 -0.984659,-0.32325 -3.479947,-3.091794 -5.545084,-6.152319 C 24.401647,10.880457 20.720975,10.376514 15.582788,15.739625 12,19.479251 12,19.479251 12,100.15684 c 0,80.67759 0,80.67759 3.739625,84.26037 C 19.479251,188 19.479251,188 59.175523,188 c 39.696272,0 39.696272,0 43.593707,-3.89744 2.14359,-2.14359 3.89744,-5.14359 3.89744,-6.66667 0,-2.73864 -0.41976,-2.76922 -38.000003,-2.76922 C 32.444444,174.66667 30.541911,174.54191 28,172 c -2.591568,-2.59157 -2.666667,-4.44444 -2.666667,-65.79335 0,-61.876593 0.05394,-63.175502 2.724046,-65.591911 2.387568,-2.160719 2.61699,-2.186244 1.857349,-0.20665 -0.476684,1.242218 -1.402505,2.258578 -2.05738,2.258578 -0.68192,0 -1.190681,26.97312 -1.190681,63.126683 0,59.23962 0.148698,63.26125 2.414904,65.31214 2.09772,1.89842 7.39528,2.23203 40.333333,2.53999 C 107.33333,174 107.33333,174 107.75646,177.67944 c 0.30595,2.66041 -0.68113,4.78369 -3.5641,7.66667 -3.98723,3.98722 -3.98723,3.98722 -44.859027,3.98722 -40.871794,0 -40.871794,0 -44.76923,-3.89744 z M 186.19067,173.34456 c 1.57153,-0.6342 3.82153,-2.52967 5,-4.21216 1.17846,-1.68249 2.14266,-2.43017 2.14266,-1.66149 0,2.05404 -5.86202,7.20944 -8.08593,7.11124 -1.05273,-0.0465 -0.62827,-0.6034 0.94327,-1.23759 z M 30.933333,169.06667 c -1.198892,-1.1989 -1.522482,-14.15134 -1.290788,-51.66667 0.309212,-50.066667 0.309212,-50.066667 1,0.6 0.690788,50.66667 0.690788,50.66667 77.207585,51.011 56.16464,0.25275 77.00834,-0.0636 78.36483,-1.1894 1.52636,-1.26677 1.78453,-10.08781 1.4832,-50.6782 -0.20065,-27.029451 0.0852,-49.14422 0.63517,-49.143929 0.55,2.9e-4 1,22.380529 1,49.733859 0,36.90371 -0.41274,50.14608 -1.6,51.33334 -2.30997,2.30997 -154.490019,2.30997 -156.799997,0 z M 68.427725,67.000712 c 20.401916,-0.207108 53.401915,-0.206943 73.333325,3.69e-4 19.93143,0.207311 3.23895,0.376763 -37.09438,0.37656 -40.333337,-2.02e-4 -56.640861,-0.16982 -36.238945,-0.376929 z M 30.222223,63.111111 c -1.111335,-1.111334 -1.17371,-15.484116 -0.07957,-18.335395 0.445126,-1.159977 1.795126,-2.090804 3,-2.068504 1.943264,0.03596 1.927154,0.194036 -0.142652,1.399587 -1.840597,1.07205 -2.33333,3.175204 -2.33333,9.959454 0,8.600414 0,8.600414 78.060919,8.600414 78.06092,0 78.06092,0 77.66666,-9 -0.39425,-9 -0.39425,-9 -5.06092,-9.874702 -4.66666,-0.8747 -4.66666,-0.8747 0.66667,-0.666666 5.33333,0.208034 5.33333,0.208034 6.08751,8.874701 0.41478,4.766667 0.5006,9.416667 0.19068,10.333333 C 187.83596,63.641349 170.86492,64 109.4129,64 66.346917,64 30.711111,63.6 30.222223,63.111111 Z m 7.722952,-8.533152 c -0.483378,-0.782123 -0.518788,-1.782123 -0.07869,-2.222223 0.4401,-0.440099 0.800182,-0.144175 0.800182,0.657609 0,0.801786 1.05,1.732184 2.333333,2.067554 2.10362,0.549733 2.111367,0.62499 0.07869,0.764433 -1.240054,0.08507 -2.650136,-0.485251 -3.133514,-1.267373 z m 14.30618,0.59684 c 1.238246,-0.369648 2.553796,-1.685198 2.923444,-2.923444 0.487413,-1.632732 0.597324,-1.522822 0.4,0.4 -0.159482,1.55406 -1.369384,2.763962 -2.923444,2.923444 -1.922822,0.197324 -2.032732,0.08741 -0.4,-0.4 z M 63.126769,53.942496 C 62.692523,52.810868 62.711353,51.510868 63.168615,51.053607 63.625877,50.596345 64,51.178228 64,52.346679 c 0,1.168452 1.05,2.39885 2.333333,2.73422 2.186786,0.571468 2.184158,0.619478 -0.04185,0.764433 -1.306348,0.08507 -2.730472,-0.771209 -3.164717,-1.902836 z m 114.663601,1.114579 c 1.64986,-0.425442 2.2384,-1.469702 1.7915,-3.178666 -0.36606,-1.399792 -0.12172,-2.545076 0.54296,-2.545076 0.66468,0 1.2085,1.5 1.2085,3.333334 0,2.613729 -0.64764,3.299942 -3,3.178665 -2.44357,-0.125987 -2.54428,-0.272185 -0.54296,-0.788257 z m 14.3149,-9.135568 c -0.0579,-0.776506 -0.95615,-2.576506 -1.9961,-4 -1.77408,-2.428359 -4.26458,-2.631826 -40.33333,-3.295108 -38.44251,-0.706934 -38.44251,-0.706934 -0.85019,-1 37.59231,-0.293066 37.59231,-0.293066 41.19054,2.801993 2.0644,1.77572 3.27769,3.907084 2.84628,5 -0.41358,1.047717 -0.79931,1.269619 -0.8572,0.493115 z m -90.78183,-8.20072 c 5.34323,-0.540782 5.34323,-0.540782 5.34323,-9.678926 0,-8.567294 -0.25627,-9.353778 -4.1023,-12.590002 -5.723417,-4.815935 -8.436265,-4.368494 -12.809574,2.112733 -2.065137,3.060525 -4.530392,5.819057 -5.478344,6.130072 -0.947951,0.311013 -0.197951,-1.080667 1.666667,-3.092623 1.864618,-2.011956 3.390214,-4.706294 3.390214,-5.98742 0,-5.3125965 9.512778,-5.3069721 14.828517,0.0088 3.75956,3.759555 3.93716,4.440578 3.5641,13.666667 C 107.33333,38 107.33333,38 101.65677,38.130784 c -5.676565,0.130787 -5.676565,0.130787 -0.33333,-0.409997 z M 6.722554,18.377777 C 6.6500428,15.408052 15.408052,6.6500428 18.377777,6.722554 19.770663,6.7565639 18.893173,7.7232781 16.136188,9.1920753 13.644425,10.519574 10.519574,13.644425 9.1920753,16.136188 7.7232781,18.893173 6.7565639,19.770663 6.722554,18.377777 Z M 34.933333,18.4 c -2.612464,-2.612464 -1.817193,-4.343191 0.875828,-1.90604 2.144626,1.94086 5.394738,2.191461 24.295528,1.873316 21.775983,-0.36654 21.823076,-0.373955 23.504516,-3.700609 1.371582,-2.713611 1.688471,-2.864884 1.704472,-0.813658 C 85.354597,19.098441 81.789945,19.913032 58.6,19.957596 43.16438,19.987257 36.052532,19.519199 34.933333,18.4 Z m 75.199997,-0.533333 c -0.47452,-1.236588 -0.56277,-2.548342 -0.1961,-2.915008 0.36667,-0.366667 1.05491,0.345086 1.52944,1.581674 0.47452,1.236588 0.56277,2.548342 0.1961,2.915008 -0.36667,0.366667 -1.05491,-0.345086 -1.52944,-1.581674 z m -6.8,-7.9704166 C 100.4,8.1441067 98.9,6.7036445 100,6.6952235 c 1.1,-0.00843 3.8,1.4601309 6,3.2634488 4.96415,4.0690647 4.22089,4.0516667 -2.66667,-0.062422 z"
         id="path315"
         sodipodi:nodetypes="sssscssssssssssssssssssssssssssssssssssssssssssssssssssssssssssssssssssssssssssssssssssssssssssssssssssssssssssssssssssssssssssssssss" />
      <path
         style="fill:#cbb32b;fill-opacity:1;stroke-width:1.33333"
         d="M 16.136188,190.80792 C 13.644425,189.48043 10.519574,186.35557 9.1920753,183.86381 6.9428805,179.64199 6.7746339,173.9542 6.722554,100.37857 6.6597227,11.613697 6.3852769,14.238399 16.256148,9.2026565 20.798469,6.8853371 24.512877,6.6666667 59.333333,6.6666667 c 35.58284,0 38.455338,0.1780989 43.378097,2.6895048 C 109.3385,12.73705 112,18.698883 112,30.162832 c 0,8.503835 0,8.503835 36.55761,8.503835 20.1067,0 37.52888,0.372709 38.71599,0.828241 5.78867,2.221321 6.05973,5.249617 6.05973,67.697862 0,59.32519 0,59.32519 -3.2161,63.06622 C 186.90113,174 186.90113,174 149.45056,174.39275 117.27769,174.73013 112,175.06644 112,176.77919 c 0,4.50189 -5.22458,12.00838 -9.91456,14.24488 -4.254035,2.02861 -9.495929,2.30248 -43.130676,2.25337 -34.326353,-0.0501 -38.756875,-0.30563 -42.818576,-2.46952 z m 88.056172,-5.46181 c 2.88297,-2.88298 3.87005,-5.00626 3.5641,-7.66667 C 107.33333,174 107.33333,174 69.414904,173.64548 c -32.938053,-0.30796 -38.235613,-0.64157 -40.333333,-2.53999 -2.265572,-2.05032 -2.414904,-6.05128 -2.414904,-64.70122 0,-58.479165 0.155786,-62.682989 2.41269,-65.105493 2.263504,-2.429585 4.757488,-2.611641 40.333334,-2.944248 C 107.33333,38 107.33333,38 107.72595,28.290056 c 0.37306,-9.226089 0.19546,-9.907112 -3.5641,-13.666667 -5.315739,-5.3157401 -14.828517,-5.3213645 -14.828517,-0.0088 0,1.281126 -1.47135,3.916932 -3.269668,5.857348 C 82.793997,24 82.793997,24 59.38818,24 36.239296,24 35.951323,23.964299 33.154543,20.74772 31.599241,18.958967 29.639528,16.108967 28.799623,14.414387 26.368563,9.5095151 19.588029,9.5401753 14.649836,14.478369 10.666667,18.461539 10.666667,18.461539 10.666667,100 c 0,81.53847 0,81.53847 3.897436,85.43589 3.897436,3.89744 3.897436,3.89744 44.76923,3.89744 40.871797,0 40.871797,0 44.859027,-3.98722 z m 83.54097,-16.27944 c 1.18703,-1.18703 1.6,-14.38679 1.6,-51.14053 0,-49.540527 0,-49.540527 -9,-50.390521 -11.48573,-1.084758 -146.079038,-1.138664 -148.890947,-0.05963 -1.870867,0.717919 -2.10905,6.409772 -2.10905,50.400001 0,36.79274 0.412915,50.0036 1.6,51.19068 2.309978,2.30997 154.490027,2.30997 156.799997,0 z M 152.68416,73.333333 c -101.202217,-49.587379 -50.60111,-24.79369 0,0 z m 35.59403,-11 C 188.58811,61.416667 188.50229,56.766667 188.08751,52 187.33333,43.333333 187.33333,43.333333 109.41873,42.989152 47.970136,42.717708 31.279055,42.999552 30.439144,44.322485 29.150433,46.352419 28.971389,61.860277 30.222223,63.111111 30.711111,63.6 66.346917,64 109.4129,64 c 61.45202,0 78.42306,-0.358651 78.86529,-1.666667 z M 38.666667,52.666667 c 0,-1.1 0.9,-2 2,-2 1.1,0 2,0.9 2,2 0,1.1 -0.9,2 -2,2 -1.1,0 -2,-0.9 -2,-2 z m 12.305556,0.416666 c 0.824098,-2.472297 3.694444,-2.882346 3.694444,-0.527777 0,1.161111 -0.95,2.111111 -2.111111,2.111111 -1.161112,0 -1.873612,-0.7125 -1.583333,-1.583334 z M 64,52.555556 c 0,-2.354569 2.870345,-1.94452 3.694444,0.527777 0.290279,0.870834 -0.422221,1.583334 -1.583333,1.583334 C 64.95,54.666667 64,53.716667 64,52.555556 Z m 112,0.111111 c 0,-1.1 0.9,-2 2,-2 1.1,0 2,0.9 2,2 0,1.1 -0.9,2 -2,2 -1.1,0 -2,-0.9 -2,-2 z M 83,18.143939 c 1.283333,-0.97419 2.333333,-2.755107 2.333333,-3.957596 0,-2.410275 1.36512,-2.307555 -30.666666,-2.307555 -10.266667,0 -19.266667,0.02727 -20,0.06061 -1.854594,0.0843 -1.671402,4.522538 0.266666,6.460606 C 37.304072,20.770739 79.838116,20.544151 83,18.143939 Z"
         id="path313"
         sodipodi:nodetypes="sssssssssssssssssssssssssscsssssssssssssssccssscsssssssssssssssssssssssscss" />
      <path
         style="fill:#fce7a9;stroke-width:1.33333"
         d="m 38.243139,110.28612 c -3.110599,-0.90976 -3.333334,-1.55 -3.333334,-9.58146 0,-8.606546 0,-8.606546 13.000001,-8.988166 8.326167,-0.24441 13,0.11511 13,1 0,0.82169 -3.782555,1.38162 -9.333334,1.38162 -5.333333,0 -9.333333,0.57143 -9.333333,1.33333 0,0.76191 4,1.33334 9.333333,1.33334 5.333334,0 9.333334,0.57143 9.333334,1.33333 0,0.79012 -4.888889,1.33333 -12,1.33333 -7.111112,0 -12.000001,0.54321 -12.000001,1.333336 0,0.79012 4.888889,1.33333 12.000001,1.33333 12,0 12,0 12,4 0,3.83492 -0.240741,4 -5.833334,4 -3.208333,0 -7.558333,0.26166 -9.666666,0.58146 -2.108334,0.3198 -5.333334,0.14275 -7.166667,-0.39345 z m 20,-4.18801 c 0,-0.77778 -4.444444,-1.33333 -10.666667,-1.33333 -6.222222,0 -10.666667,0.55555 -10.666667,1.33333 0,0.77778 4.444445,1.33333 10.666667,1.33333 6.222223,0 10.666667,-0.55555 10.666667,-1.33333 z M 39.576472,95.431444 c 0,-0.73333 -0.6,-1.33333 -1.333333,-1.33333 -0.733334,0 -1.333334,0.6 -1.333334,1.33333 0,0.73334 0.6,1.33334 1.333334,1.33334 0.733333,0 1.333333,-0.6 1.333333,-1.33334 z"
         id="path436"
         sodipodi:nodetypes="sssssssssssssssssssssssss" />
      <path
         style="fill:#fddc53;stroke-width:1.33333"
         d="m 40.909805,114.09811 c 0,-1.50864 0.888889,-2.66667 2.046912,-2.66667 1.633742,0 1.758839,0.53827 0.619755,2.66667 -0.784936,1.46667 -1.706046,2.66667 -2.046912,2.66667 -0.340865,0 -0.619755,-1.2 -0.619755,-2.66667 z m 20.000001,-5.12446 c 0,-0.72599 0.75,-1.6243 1.666667,-1.99625 1.254953,-0.50922 1.17261,-1.03072 -0.333334,-2.11112 -1.777777,-1.27541 -1.777777,-1.58298 0,-2.76817 1.777778,-1.18519 1.777778,-1.48148 0,-2.666666 -1.777777,-1.18518 -1.777777,-1.48148 0,-2.66666 1.755506,-1.17034 1.760226,-1.48747 0.03861,-2.59417 -2.452866,-1.57678 -0.900467,-3.35519 1.967953,-2.25448 3.211241,1.23227 2.309301,17.301356 -1.006567,17.933016 -1.283333,0.24447 -2.333333,-0.1495 -2.333333,-0.8755 z"
         id="path434"
         sodipodi:nodetypes="ssssssssssssssss" />
      <path
         style="fill:#56a1fa;stroke-width:1.33333"
         d="m 36.28811,157.29922 c -1.592689,-2.44059 -2.044972,-7.08891 -2.044972,-12.78383 0,-8.3432 0,-8.3432 2.732833,-5.61037 2.322131,2.32213 3.970424,4.54587 3.630963,12.35129 -0.399499,9.18591 -1.985491,9.61845 -4.318824,6.04291 z m 0.188115,-20.86778 c -2.539984,-3 5.678338,-5.16271 8.678338,-2.62273 2.819259,2.38696 -2.304436,5.62273 -3.371441,5.62273 -0.253009,0 -3.909906,-1.35 -5.306897,-3 z m 5.434378,2.25205 c -1.526564,-5.32491 9.172457,-7.47997 13.701573,-3.93725 2.510177,1.96349 5.530392,5.76081 3.887153,5.66482 -1.455416,-0.085 -17.345938,-0.88068 -17.588726,-1.72757 z"
         id="path432"
         sodipodi:nodetypes="sssssssssssss" />
      <path
         style="fill:#0064dd;stroke-width:1.33333"
         d="m 42.243139,152.76478 c 0,-10.66667 0,-10.66667 10.666667,-10.66667 10.666667,0 10.666667,0 10.666667,10.66667 0,10.66667 0,10.66667 -10.666667,10.66667 -10.666667,0 -10.666667,0 -10.666667,-10.66667 z"
         id="path426" />
      <path
         style="fill:#cbb32b;fill-opacity:1;stroke-width:1.33333"
         d="m 35.802498,160.21347 c -3.96081,-5.51533 -4.226026,-6.60313 -4.226026,-17.33333 0,-11.4487 0,-11.4487 11.448696,-11.4487 10.730203,0 11.818004,0.26522 17.333334,4.22603 5.884641,4.22603 5.884641,4.22603 5.884641,17.33333 0,13.10731 0,13.10731 -13.107311,13.10731 -13.107307,0 -13.107307,0 -17.333334,-5.88464 z m 27.773975,-7.44869 c 0,-10.66667 0,-10.66667 -10.666667,-10.66667 -10.666667,0 -10.666667,0 -10.666667,10.66667 0,10.66667 0,10.66667 10.666667,10.66667 10.666667,0 10.666667,0 10.666667,-10.66667 z M 36.975971,138.90502 c -2.732833,-2.73283 -2.732833,-2.73283 -2.732833,5.93345 0,6.10885 0.688574,9.63915 2.333334,11.96297 2.324617,3.28436 2.334826,3.26219 2.732832,-5.93346 0.339752,-7.8497 -0.0092,-9.63884 -2.333333,-11.96296 z m 20.600502,-2.14024 c -1.975462,-2.18286 -4.106623,-2.66667 -11.746634,-2.66667 -9.248878,0 -9.311496,0.0241 -6.920034,2.66667 1.975462,2.18286 4.106623,2.66666 11.746634,2.66666 9.248878,0 9.311496,-0.0241 6.920034,-2.66666 z m -19.333334,-18.3505 c 0,-3.92411 -0.653584,-5.3039 -3.000001,-6.33333 -2.62549,-1.15187 -3.049558,-2.45469 -3.396988,-10.43619 -0.242713,-5.575826 0.209348,-9.850606 1.163259,-10.999996 2.051961,-2.47246 31.342314,-2.04528 34.300394,-0.27998 2.58032,1.53985 3.46254,17.066426 0,20.799996 -0.88887,0.95845 -5.352293,1.6 -10.485329,1.6 -8.861332,0 -8.895316,0.0144 -12.581335,5.33333 -2.032802,2.93333 -4.214402,5.33333 -4.848002,5.33333 -0.633599,0 -1.151998,-2.25772 -1.151998,-5.01716 z m 18.38342,-8.31617 c 9.616584,0 9.616584,0 9.616584,-9.33333 0,-9.333336 0,-9.333336 -16.000004,-9.333336 -16,0 -16,0 -16,9.333336 0,9.06666 0.09524,9.33333 3.333333,9.33333 2.73585,0 3.341928,0.65723 3.381284,3.66667 0.04795,3.66666 0.04795,3.66666 3.050085,0 2.770358,-3.38359 3.744582,-3.66667 12.618718,-3.66667 z m -19.716754,-4 c 0,-0.77778 4.444445,-1.33333 10.666667,-1.33333 6.222223,0 10.666667,0.55555 10.666667,1.33333 0,0.77778 -4.444444,1.33333 -10.666667,1.33333 -6.222222,0 -10.666667,-0.55555 -10.666667,-1.33333 z m 24.000001,0 c 0,-0.73333 0.6,-1.33333 1.333333,-1.33333 0.733334,0 1.333334,0.6 1.333334,1.33333 0,0.73333 -0.6,1.33333 -1.333334,1.33333 -0.733333,0 -1.333333,-0.6 -1.333333,-1.33333 z m -24.000001,-5.33333 c 0,-0.799996 5.333334,-1.333336 13.333334,-1.333336 8,0 13.333334,0.53334 13.333334,1.333336 0,0.8 -5.333334,1.33333 -13.333334,1.33333 -8,0 -13.333334,-0.53333 -13.333334,-1.33333 z m 0,-5.333336 c 0,-0.73333 0.6,-1.33333 1.333334,-1.33333 0.733333,0 1.333333,0.6 1.333333,1.33333 0,0.73334 -0.6,1.33334 -1.333333,1.33334 -0.733334,0 -1.333334,-0.6 -1.333334,-1.33334 z m 5.333334,0 c 0,-0.77777 4.444444,-1.33333 10.666667,-1.33333 6.222223,0 12.396837,0.9881 12.396837,1.76588 0,0.77777 -6.174614,0.90079 -12.396837,0.90079 -6.222223,0 -10.666667,-0.55556 -10.666667,-1.33334 z"
         id="path424"
         sodipodi:nodetypes="sssssssssssscssscssssssssssssssssssssssssssssssssssssssssssssssss" />
      <path
         style="fill:#fce7a9;stroke-width:1.33333"
         d="m 90.811837,108.37453 c -3.110599,-0.90976 -3.333334,-1.55 -3.333334,-9.581455 0,-8.60655 0,-8.60655 12.999997,-8.98817 8.32617,-0.24441 13,0.11511 13,1 0,0.82169 -3.78255,1.38162 -9.33333,1.38162 -5.333333,0 -9.333333,0.57143 -9.333333,1.33333 0,0.76191 4,1.33334 9.333333,1.33334 5.33333,0 9.33333,0.57143 9.33333,1.33333 0,0.79012 -4.88889,1.33333 -12,1.33333 -7.111108,0 -11.999997,0.54321 -11.999997,1.33334 0,0.79012 4.888889,1.333335 11.999997,1.333335 12,0 12,0 12,4 0,3.83492 -0.24074,4 -5.83333,4 -3.20833,0 -7.55833,0.26166 -9.666666,0.58146 -2.108334,0.3198 -5.333334,0.14275 -7.166667,-0.39346 z m 20.000003,-4.18801 c 0,-0.77778 -4.44445,-1.33333 -10.66667,-1.33333 -6.222222,0 -10.666667,0.55555 -10.666667,1.33333 0,0.77778 4.444445,1.33333 10.666667,1.33333 6.22222,0 10.66667,-0.55555 10.66667,-1.33333 z M 92.14517,93.519855 c 0,-0.73333 -0.6,-1.33333 -1.333333,-1.33333 -0.733334,0 -1.333334,0.6 -1.333334,1.33333 0,0.73334 0.6,1.33334 1.333334,1.33334 0.733333,0 1.333333,-0.6 1.333333,-1.33334 z"
         id="path436-2"
         sodipodi:nodetypes="sssssssssssssssssssssssss" />
      <path
         style="fill:#fddc53;stroke-width:1.33333"
         d="m 93.478503,112.18653 c 0,-1.50865 0.888889,-2.66668 2.046912,-2.66668 1.633742,0 1.758839,0.53828 0.619755,2.66668 -0.784936,1.46666 -1.706046,2.66667 -2.046912,2.66667 -0.340865,0 -0.619755,-1.2 -0.619755,-2.66667 z m 19.999997,-5.12446 c 0,-0.72599 0.75,-1.6243 1.66667,-1.99625 1.25495,-0.50922 1.17261,-1.03073 -0.33333,-2.11112 -1.77778,-1.27541 -1.77778,-1.58299 0,-2.76817 1.77778,-1.185195 1.77778,-1.481485 0,-2.666675 -1.77778,-1.18518 -1.77778,-1.48148 0,-2.66666 1.7555,-1.17034 1.76022,-1.48747 0.0386,-2.59417 -2.45287,-1.57678 -0.90047,-3.35519 1.96795,-2.25448 3.21124,1.23227 2.3093,17.301365 -1.00657,17.933015 -1.28333,0.24448 -2.33333,-0.14949 -2.33333,-0.87549 z"
         id="path434-0"
         sodipodi:nodetypes="ssssssssssssssss" />
      <path
         style="fill:#56a1fa;stroke-width:1.33333"
         d="m 88.856808,155.38763 c -1.592689,-2.44059 -2.044972,-7.08891 -2.044972,-12.78383 0,-8.3432 0,-8.3432 2.732833,-5.61037 2.322131,2.32213 3.970424,4.54588 3.630963,12.35129 -0.399499,9.18592 -1.985491,9.61845 -4.318824,6.04291 z m 0.188115,-20.86778 c -2.539984,-3 5.678338,-5.16271 8.678338,-2.62273 2.819259,2.38696 -2.304436,5.62273 -3.371441,5.62273 -0.253009,0 -3.909906,-1.35 -5.306897,-3 z m 5.434378,2.25205 c -1.526564,-5.32491 9.172459,-7.47997 13.701569,-3.93725 2.51018,1.96349 5.5304,5.76081 3.88716,5.66482 -1.45542,-0.085 -17.345941,-0.88068 -17.588729,-1.72757 z"
         id="path432-3"
         sodipodi:nodetypes="sssssssssssss" />
      <path
         style="fill:#0064dd;stroke-width:1.33333"
         d="m 94.811837,150.85319 c 0,-10.66667 0,-10.66667 10.666663,-10.66667 10.66667,0 10.66667,0 10.66667,10.66667 0,10.66667 0,10.66667 -10.66667,10.66667 -10.666663,0 -10.666663,0 -10.666663,-10.66667 z"
         id="path426-7" />
      <path
         style="fill:#cbb32b;fill-opacity:1;stroke-width:1.33333"
         d="m 88.371196,158.30188 c -3.96081,-5.51533 -4.226026,-6.60313 -4.226026,-17.33333 0,-11.4487 0,-11.4487 11.448696,-11.4487 10.730204,0 11.818004,0.26522 17.333334,4.22604 5.88464,4.22603 5.88464,4.22603 5.88464,17.33332 0,13.10732 0,13.10732 -13.10731,13.10732 -13.107307,0 -13.107307,0 -17.333334,-5.88465 z m 27.773974,-7.44869 c 0,-10.66667 0,-10.66667 -10.66667,-10.66667 -10.666663,0 -10.666663,0 -10.666663,10.66667 0,10.66667 0,10.66667 10.666663,10.66667 10.66667,0 10.66667,0 10.66667,-10.66667 z M 89.544669,136.99343 c -2.732833,-2.73283 -2.732833,-2.73283 -2.732833,5.93345 0,6.10885 0.688574,9.63915 2.333334,11.96297 2.324617,3.28436 2.334826,3.26219 2.732832,-5.93346 0.339752,-7.8497 -0.0092,-9.63884 -2.333333,-11.96296 z m 20.600501,-2.14024 c -1.97546,-2.18286 -4.10662,-2.66667 -11.746633,-2.66667 -9.248878,0 -9.311496,0.0241 -6.920034,2.66667 1.975462,2.18286 4.106623,2.66666 11.746637,2.66666 9.24887,0 9.31149,-0.0241 6.92003,-2.66666 z m -19.333333,-18.3505 c 0,-3.92411 -0.653584,-5.3039 -3.000001,-6.33333 -2.62549,-1.15187 -3.049558,-2.45469 -3.396988,-10.436185 -0.242713,-5.57583 0.209348,-9.85061 1.163259,-11 2.051961,-2.47246 31.342313,-2.04528 34.300393,-0.27998 2.58032,1.53985 3.46254,17.066425 0,20.799995 -0.88887,0.95845 -5.35229,1.6 -10.48533,1.6 -8.86133,0 -8.89531,0.0144 -12.581333,5.33333 -2.032802,2.93333 -4.214402,5.33333 -4.848002,5.33333 -0.633599,0 -1.151998,-2.25772 -1.151998,-5.01716 z m 18.383423,-8.31617 c 9.61658,0 9.61658,0 9.61658,-9.333325 0,-9.33334 0,-9.33334 -16,-9.33334 -16.000003,0 -16.000003,0 -16.000003,9.33334 0,9.066655 0.09524,9.333325 3.333333,9.333325 2.73585,0 3.341928,0.65723 3.381284,3.66667 0.04795,3.66666 0.04795,3.66666 3.050085,0 2.770358,-3.38359 3.744581,-3.66667 12.618721,-3.66667 z m -19.716757,-4 c 0,-0.77778 4.444445,-1.33333 10.666667,-1.33333 6.22222,0 10.66667,0.55555 10.66667,1.33333 0,0.77778 -4.44445,1.33333 -10.66667,1.33333 -6.222222,0 -10.666667,-0.55555 -10.666667,-1.33333 z m 23.999997,0 c 0,-0.73333 0.6,-1.33333 1.33334,-1.33333 0.73333,0 1.33333,0.6 1.33333,1.33333 0,0.73333 -0.6,1.33333 -1.33333,1.33333 -0.73334,0 -1.33334,-0.6 -1.33334,-1.33333 z M 89.478503,98.853195 c 0,-0.8 5.333334,-1.33334 13.333337,-1.33334 8,0 13.33333,0.53334 13.33333,1.33334 0,0.8 -5.33333,1.333325 -13.33333,1.333325 -8.000003,0 -13.333337,-0.533325 -13.333337,-1.333325 z m 0,-5.33334 c 0,-0.73333 0.6,-1.33333 1.333334,-1.33333 0.733333,0 1.333333,0.6 1.333333,1.33333 0,0.73334 -0.6,1.33334 -1.333333,1.33334 -0.733334,0 -1.333334,-0.6 -1.333334,-1.33334 z m 5.333334,0 c 0,-0.77777 4.444444,-1.33333 10.666663,-1.33333 6.22223,0 12.39684,0.9881 12.39684,1.76588 0,0.77777 -6.17461,0.90079 -12.39684,0.90079 -6.222219,0 -10.666663,-0.55556 -10.666663,-1.33334 z"
         id="path424-1"
         sodipodi:nodetypes="sssssssssssscssscssssssssssssssssssssssssssssssssssssssssssssssss" />
      <path
         style="fill:#fce7a9;stroke-width:1.33333"
         d="m 147.68161,107.89664 c -3.1106,-0.90976 -3.33333,-1.55 -3.33333,-9.581462 0,-8.60655 0,-8.60655 13,-8.98817 8.32616,-0.24441 13,0.11511 13,1 0,0.82169 -3.78256,1.38162 -9.33334,1.38162 -5.33333,0 -9.33333,0.57143 -9.33333,1.33333 0,0.76191 4,1.33334 9.33333,1.33334 5.33334,0 9.33334,0.57143 9.33334,1.33333 0,0.79012 -4.88889,1.33333 -12,1.33333 -7.11112,0 -12,0.54321 -12,1.33334 0,0.79012 4.88888,1.33333 12,1.33333 12,0 12,0 12,4.000002 0,3.83492 -0.24074,4 -5.83334,4 -3.20833,0 -7.55833,0.26166 -9.66666,0.58146 -2.10834,0.3198 -5.33334,0.14275 -7.16667,-0.39345 z m 20,-4.18801 c 0,-0.77778 -4.44444,-1.33333 -10.66667,-1.33333 -6.22222,0 -10.66666,0.55555 -10.66666,1.33333 0,0.77778 4.44444,1.33333 10.66666,1.33333 6.22223,0 10.66667,-0.55555 10.66667,-1.33333 z M 149.01494,93.041958 c 0,-0.73333 -0.6,-1.33333 -1.33333,-1.33333 -0.73333,0 -1.33333,0.6 -1.33333,1.33333 0,0.73334 0.6,1.33334 1.33333,1.33334 0.73333,0 1.33333,-0.6 1.33333,-1.33334 z"
         id="path436-22"
         sodipodi:nodetypes="sssssssssssssssssssssssss" />
      <path
         style="fill:#fddc53;stroke-width:1.33333"
         d="m 150.34828,111.70863 c 0,-1.50864 0.88888,-2.66667 2.04691,-2.66667 1.63374,0 1.75884,0.53827 0.61975,2.66667 -0.78493,1.46667 -1.70604,2.66667 -2.04691,2.66667 -0.34086,0 -0.61975,-1.2 -0.61975,-2.66667 z m 20,-5.12446 c 0,-0.72599 0.75,-1.6243 1.66666,-1.99625 1.25496,-0.50922 1.17261,-1.03072 -0.33333,-2.11112 -1.77778,-1.27541 -1.77778,-1.58298 0,-2.768172 1.77778,-1.18519 1.77778,-1.48148 0,-2.66667 -1.77778,-1.18518 -1.77778,-1.48148 0,-2.66666 1.75551,-1.17034 1.76023,-1.48747 0.0386,-2.59417 -2.45287,-1.57678 -0.90047,-3.35519 1.96795,-2.25448 3.21124,1.23227 2.3093,17.301362 -1.00656,17.933022 -1.28334,0.24447 -2.33334,-0.1495 -2.33334,-0.8755 z"
         id="path434-4"
         sodipodi:nodetypes="ssssssssssssssss" />
      <path
         style="fill:#56a1fa;stroke-width:1.33333"
         d="m 145.72658,154.90974 c -1.59269,-2.44059 -2.04497,-7.08891 -2.04497,-12.78383 0,-8.3432 0,-8.3432 2.73283,-5.61037 2.32213,2.32213 3.97043,4.54587 3.63096,12.35129 -0.39949,9.18591 -1.98549,9.61845 -4.31882,6.04291 z m 0.18812,-20.86778 c -2.53999,-3 5.67833,-5.16271 8.67833,-2.62273 2.81926,2.38696 -2.30443,5.62273 -3.37144,5.62273 -0.25301,0 -3.9099,-1.35 -5.30689,-3 z m 5.43437,2.25205 c -1.52656,-5.32491 9.17246,-7.47997 13.70158,-3.93725 2.51017,1.96349 5.53039,5.76081 3.88715,5.66482 -1.45542,-0.085 -17.34594,-0.88068 -17.58873,-1.72757 z"
         id="path432-4"
         sodipodi:nodetypes="sssssssssssss" />
      <path
         style="fill:#0064dd;stroke-width:1.33333"
         d="m 151.68161,150.3753 c 0,-10.66667 0,-10.66667 10.66667,-10.66667 10.66666,0 10.66666,0 10.66666,10.66667 0,10.66667 0,10.66667 -10.66666,10.66667 -10.66667,0 -10.66667,0 -10.66667,-10.66667 z"
         id="path426-0" />
      <path
         style="fill:#cbb32b;fill-opacity:1;stroke-width:1.33333"
         d="m 145.24097,157.82399 c -3.96081,-5.51533 -4.22603,-6.60313 -4.22603,-17.33333 0,-11.4487 0,-11.4487 11.4487,-11.4487 10.7302,0 11.818,0.26522 17.33333,4.22603 5.88464,4.22603 5.88464,4.22603 5.88464,17.33333 0,13.10731 0,13.10731 -13.10731,13.10731 -13.1073,0 -13.1073,0 -17.33333,-5.88464 z m 27.77397,-7.44869 c 0,-10.66667 0,-10.66667 -10.66666,-10.66667 -10.66667,0 -10.66667,0 -10.66667,10.66667 0,10.66667 0,10.66667 10.66667,10.66667 10.66666,0 10.66666,0 10.66666,-10.66667 z m -26.6005,-13.85976 c -2.73283,-2.73283 -2.73283,-2.73283 -2.73283,5.93345 0,6.10885 0.68857,9.63915 2.33333,11.96297 2.32462,3.28436 2.33483,3.26219 2.73283,-5.93346 0.33976,-7.8497 -0.009,-9.63884 -2.33333,-11.96296 z m 20.6005,-2.14024 c -1.97546,-2.18286 -4.10662,-2.66667 -11.74663,-2.66667 -9.24888,0 -9.3115,0.0241 -6.92003,2.66667 1.97546,2.18286 4.10662,2.66666 11.74663,2.66666 9.24888,0 9.3115,-0.0241 6.92003,-2.66666 z m -19.33333,-18.3505 c 0,-3.92411 -0.65358,-5.3039 -3,-6.33333 -2.62549,-1.15187 -3.04956,-2.45469 -3.39699,-10.436192 -0.24271,-5.57583 0.20935,-9.85061 1.16326,-11 2.05196,-2.47246 31.34231,-2.04528 34.30039,-0.27998 2.58032,1.53985 3.46254,17.066432 0,20.800002 -0.88887,0.95845 -5.35229,1.6 -10.48533,1.6 -8.86133,0 -8.89531,0.0144 -12.58133,5.33333 -2.0328,2.93333 -4.2144,5.33333 -4.848,5.33333 -0.6336,0 -1.152,-2.25772 -1.152,-5.01716 z m 18.38342,-8.31617 c 9.61658,0 9.61658,0 9.61658,-9.333332 0,-9.33334 0,-9.33334 -16,-9.33334 -16,0 -16,0 -16,9.33334 0,9.066662 0.0952,9.333332 3.33333,9.333332 2.73585,0 3.34193,0.65723 3.38129,3.66667 0.0479,3.66666 0.0479,3.66666 3.05008,0 2.77036,-3.38359 3.74458,-3.66667 12.61872,-3.66667 z m -19.71675,-4 c 0,-0.77778 4.44444,-1.33333 10.66666,-1.33333 6.22223,0 10.66667,0.55555 10.66667,1.33333 0,0.77778 -4.44444,1.33333 -10.66667,1.33333 -6.22222,0 -10.66666,-0.55555 -10.66666,-1.33333 z m 24,0 c 0,-0.73333 0.6,-1.33333 1.33333,-1.33333 0.73333,0 1.33333,0.6 1.33333,1.33333 0,0.73333 -0.6,1.33333 -1.33333,1.33333 -0.73333,0 -1.33333,-0.6 -1.33333,-1.33333 z m -24,-5.333332 c 0,-0.8 5.33333,-1.33334 13.33333,-1.33334 8,0 13.33333,0.53334 13.33333,1.33334 0,0.8 -5.33333,1.33333 -13.33333,1.33333 -8,0 -13.33333,-0.53333 -13.33333,-1.33333 z m 0,-5.33334 c 0,-0.73333 0.6,-1.33333 1.33333,-1.33333 0.73333,0 1.33333,0.6 1.33333,1.33333 0,0.73334 -0.6,1.33334 -1.33333,1.33334 -0.73333,0 -1.33333,-0.6 -1.33333,-1.33334 z m 5.33333,0 c 0,-0.77777 4.44444,-1.33333 10.66667,-1.33333 6.22222,0 12.39683,0.9881 12.39683,1.76588 0,0.77777 -6.17461,0.90079 -12.39683,0.90079 -6.22223,0 -10.66667,-0.55556 -10.66667,-1.33334 z"
         id="path424-8"
         sodipodi:nodetypes="sssssssssssscssscssssssssssssssssssssssssssssssssssssssssssssssss" />
    </g>
  </g>
</svg>
