<?xml version="1.0" encoding="UTF-8" standalone="no"?>
<!-- Created with Inkscape (http://www.inkscape.org/) -->

<svg
   version="1.1"
   id="svg2"
   width="85.333336"
   height="85.333336"
   viewBox="0 0 85.333336 85.333336"
   sodipodi:docname="etapas05.png"
   xmlns:inkscape="http://www.inkscape.org/namespaces/inkscape"
   xmlns:sodipodi="http://sodipodi.sourceforge.net/DTD/sodipodi-0.dtd"
   xmlns="http://www.w3.org/2000/svg"
   xmlns:svg="http://www.w3.org/2000/svg">
  <defs
     id="defs6" />
  <sodipodi:namedview
     id="namedview4"
     pagecolor="#ffffff"
     bordercolor="#000000"
     borderopacity="0.25"
     inkscape:showpageshadow="2"
     inkscape:pageopacity="0.0"
     inkscape:pagecheckerboard="0"
     inkscape:deskcolor="#d1d1d1"
     showgrid="false" />
  <g
     inkscape:groupmode="layer"
     inkscape:label="Image"
     id="g8">
    <g
       id="g311"
       transform="translate(1.0908854e-7,-0.43254363)">
      <path
         style="fill:#a6cbf6;stroke-width:1.33333"
         d="m 8.6666669,68.000002 c -0.4532249,-0.733333 0.075955,-1.333333 1.1759547,-1.333333 1.1000004,0 2.3708204,0.6 2.8240454,1.333333 0.453225,0.733333 -0.07596,1.333334 -1.175955,1.333334 -1.1,0 -2.3708201,-0.600001 -2.8240451,-1.333334 z m 30.6666681,0 c -0.453226,-0.733333 0.07596,-1.333333 1.175954,-1.333333 1.1,0 2.37082,0.6 2.824046,1.333333 0.453225,0.733333 -0.07596,1.333334 -1.175955,1.333334 -1.1,0 -2.37082,-0.600001 -2.824045,-1.333334 z m 30.666667,0 c -0.453225,-0.733333 0.07596,-1.333333 1.175955,-1.333333 1.1,0 2.37082,0.6 2.824045,1.333333 0.453226,0.733333 -0.07596,1.333334 -1.175954,1.333334 -1.1,0 -2.37082,-0.600001 -2.824046,-1.333334 z M 8.6666669,37.333334 c -0.4532249,-0.733333 0.075955,-1.333333 1.1759547,-1.333333 1.1000004,0 2.3708204,0.6 2.8240454,1.333333 0.453225,0.733334 -0.07596,1.333334 -1.175955,1.333334 -1.1,0 -2.3708201,-0.6 -2.8240451,-1.333334 z m 61.3333351,0 c -0.453225,-0.733333 0.07596,-1.333333 1.175955,-1.333333 1.1,0 2.37082,0.6 2.824045,1.333333 0.453226,0.733334 -0.07596,1.333334 -1.175954,1.333334 -1.1,0 -2.37082,-0.6 -2.824046,-1.333334 z M 8.6666669,6.6666669 C 8.213442,5.9333335 8.7426216,5.3333335 9.8426216,5.3333335 c 1.1000004,0 2.3708204,0.6 2.8240454,1.3333334 0.453225,0.7333333 -0.07596,1.3333333 -1.175955,1.3333333 -1.1,0 -2.3708201,-0.6 -2.8240451,-1.3333333 z m 30.6666681,0 c -0.453226,-0.7333334 0.07596,-1.3333334 1.175954,-1.3333334 1.1,0 2.37082,0.6 2.824046,1.3333334 0.453225,0.7333333 -0.07596,1.3333333 -1.175955,1.3333333 -1.1,0 -2.37082,-0.6 -2.824045,-1.3333333 z m 30.666667,0 c -0.453225,-0.7333334 0.07596,-1.3333334 1.175955,-1.3333334 1.1,0 2.37082,0.6 2.824045,1.3333334 0.453226,0.7333333 -0.07596,1.3333333 -1.175954,1.3333333 -1.1,0 -2.37082,-0.6 -2.824046,-1.3333333 z"
         id="path325" />
      <path
         style="fill:#539df5;stroke-width:1.33333"
         d="m 6.3333335,76.571025 c -0.55,-0.558507 -1,-2.535467 -1,-4.393245 0,-2.427623 0.4068156,-2.970962 1.4462199,-1.931558 0.795421,0.795422 1.245421,2.772382 1,4.393246 -0.2454209,1.620864 -0.8962199,2.490065 -1.4462199,1.931557 z m 30.6666675,0 c -0.55,-0.558507 -1,-2.535467 -1,-4.393245 0,-2.427623 0.406816,-2.970962 1.44622,-1.931558 0.795422,0.795422 1.245422,2.772382 1,4.393246 -0.245421,1.620864 -0.89622,2.490065 -1.44622,1.931557 z m 30.666668,0 c -0.55,-0.558507 -1,-2.535467 -1,-4.393245 0,-2.427623 0.406816,-2.970962 1.44622,-1.931558 0.795421,0.795422 1.245421,2.772382 1,4.393246 -0.245422,1.620864 -0.89622,2.490065 -1.44622,1.931557 z M 12.666667,68.000002 c -0.453225,-0.733333 -0.224045,-1.333333 0.509288,-1.333333 0.733333,0 1.704153,0.6 2.157379,1.333333 0.453225,0.733333 0.224045,1.333334 -0.509288,1.333334 -0.733334,0 -1.704154,-0.600001 -2.157379,-1.333334 z m 30.666668,0 c -0.453226,-0.733333 -0.224046,-1.333333 0.509288,-1.333333 0.733333,0 1.704153,0.6 2.157378,1.333333 0.453226,0.733333 0.224046,1.333334 -0.509288,1.333334 -0.733333,0 -1.704153,-0.600001 -2.157378,-1.333334 z m 30.666667,0 c -0.453225,-0.733333 -0.224045,-1.333333 0.509288,-1.333333 0.733334,0 1.704154,0.6 2.157379,1.333333 0.453225,0.733333 0.224045,1.333334 -0.509288,1.333334 -0.733333,0 -1.704153,-0.600001 -2.157379,-1.333334 z M 31.627926,46.721191 c -0.53939,-2.062636 -0.0728,-2.72119 1.928,-2.72119 1.747431,0 2.493896,0.751312 2.208507,2.222846 -0.639944,3.2997 -3.319516,3.62252 -4.136507,0.498344 z m 18.594298,1.723255 c -1.798888,-1.798889 -0.814969,-4.444445 1.652951,-4.444445 1.885401,0 2.361748,0.688676 1.844492,2.666667 -0.714861,2.733635 -1.925971,3.349251 -3.497443,1.777778 z M 6.3333335,45.904357 c -0.55,-0.558506 -1,-2.535466 -1,-4.393245 0,-2.427623 0.4068156,-2.970961 1.4462199,-1.931557 0.795421,0.795421 1.245421,2.772381 1,4.393245 -0.2454209,1.620864 -0.8962199,2.490065 -1.4462199,1.931557 z m 61.3333355,0 c -0.55,-0.558506 -1,-2.535466 -1,-4.393245 0,-2.427623 0.406816,-2.970961 1.44622,-1.931557 0.795421,0.795421 1.245421,2.772381 1,4.393245 -0.245422,1.620864 -0.89622,2.490065 -1.44622,1.931557 z M 38.666668,40.000001 c 0,-0.733333 1.8,-1.333333 4,-1.333333 2.2,0 4,0.6 4,1.333333 0,0.733334 -1.8,1.333334 -4,1.333334 -2.2,0 -4,-0.6 -4,-1.333334 z M 12.666667,37.333334 c -0.453225,-0.733333 -0.224045,-1.333333 0.509288,-1.333333 0.733333,0 1.704153,0.6 2.157379,1.333333 0.453225,0.733334 0.224045,1.333334 -0.509288,1.333334 -0.733334,0 -1.704154,-0.6 -2.157379,-1.333334 z m 61.333335,0 c -0.453225,-0.733333 -0.224045,-1.333333 0.509288,-1.333333 0.733334,0 1.704154,0.6 2.157379,1.333333 0.453225,0.733334 0.224045,1.333334 -0.509288,1.333334 -0.733333,0 -1.704153,-0.6 -2.157379,-1.333334 z M 6.3333335,15.23769 c -0.55,-0.558507 -1,-2.535467 -1,-4.393245 0,-2.4276233 0.4068156,-2.9709625 1.4462199,-1.9315582 0.795421,0.795421 1.245421,2.7723812 1,4.3932452 -0.2454209,1.620864 -0.8962199,2.490066 -1.4462199,1.931558 z m 30.6666675,0 c -0.55,-0.558507 -1,-2.535467 -1,-4.393245 0,-2.4276233 0.406816,-2.9709625 1.44622,-1.9315582 0.795422,0.795421 1.245422,2.7723812 1,4.3932452 -0.245421,1.620864 -0.89622,2.490066 -1.44622,1.931558 z m 30.666668,0 c -0.55,-0.558507 -1,-2.535467 -1,-4.393245 0,-2.4276233 0.406816,-2.9709625 1.44622,-1.9315582 0.795421,0.795421 1.245421,2.7723812 1,4.3932452 -0.245422,1.620864 -0.89622,2.490066 -1.44622,1.931558 z M 12.666667,6.6666669 c -0.453225,-0.7333334 -0.224045,-1.3333334 0.509288,-1.3333334 0.733333,0 1.704153,0.6 2.157379,1.3333334 0.453225,0.7333333 0.224045,1.3333333 -0.509288,1.3333333 -0.733334,0 -1.704154,-0.6 -2.157379,-1.3333333 z m 30.666668,0 c -0.453226,-0.7333334 -0.224046,-1.3333334 0.509288,-1.3333334 0.733333,0 1.704153,0.6 2.157378,1.3333334 0.453226,0.7333333 0.224046,1.3333333 -0.509288,1.3333333 -0.733333,0 -1.704153,-0.6 -2.157378,-1.3333333 z m 30.666667,0 C 73.546777,5.9333335 73.775957,5.3333335 74.50929,5.3333335 c 0.733334,0 1.704154,0.6 2.157379,1.3333334 0.453225,0.7333333 0.224045,1.3333333 -0.509288,1.3333333 -0.733333,0 -1.704153,-0.6 -2.157379,-1.3333333 z"
         id="path323" />
      <path
         style="fill:#9c9c9c;stroke-width:1.33333"
         d="m 34.308285,57.226456 c 0.471479,-1.802938 1.075869,-2.407329 1.408733,-1.408734 0.320642,0.961921 -0.05095,2.382877 -0.82575,3.15768 -0.989424,0.989424 -1.162948,0.468848 -0.582983,-1.748946 z m 15.485153,0.716042 c -0.434247,-1.131628 -0.491618,-2.355426 -0.127494,-2.719551 0.364126,-0.364127 0.982078,0.561751 1.373226,2.057504 0.830866,3.177239 -0.09229,3.667855 -1.245732,0.662047 z m -23.435504,-7.50043 c 0.774803,-0.774802 2.195759,-1.146392 3.15768,-0.82575 0.998595,0.332864 0.394204,0.937254 -1.408734,1.408733 -2.217794,0.579965 -2.73837,0.406441 -1.748946,-0.582983 z m 30.308734,0.2246 c -2.173877,-0.934146 -2.250017,-1.163224 -0.412022,-1.23962 1.240054,-0.05154 2.625464,0.506287 3.078689,1.23962 0.947552,1.533172 0.901218,1.533172 -2.666667,0 z M 26.07685,34.791013 c -0.410957,-0.664944 0.453632,-0.894965 1.921311,-0.511159 3.113316,0.814151 3.506863,1.720147 0.747196,1.720147 -1.056721,0 -2.25755,-0.544045 -2.668507,-1.208988 z m 28.589818,0.697829 c 0,-0.281136 1.200828,-0.825181 2.668507,-1.208988 1.467679,-0.383806 2.332268,-0.153785 1.921311,0.511159 -0.717668,1.161211 -4.589818,1.749928 -4.589818,0.697829 z M 34.308285,28.10688 c -0.579965,-2.217794 -0.406441,-2.73837 0.582983,-1.748946 0.774802,0.774803 1.146392,2.195759 0.82575,3.15768 -0.332864,0.998595 -0.937254,0.394204 -1.408733,-1.408734 z m 15.02505,0.638477 c 0,-1.056721 0.544045,-2.25755 1.208988,-2.668507 0.664944,-0.410957 0.894965,0.453632 0.511159,1.921311 -0.814151,3.113316 -1.720147,3.506863 -1.720147,0.747196 z"
         id="path321" />
      <path
         style="fill:#006bec;stroke-width:1.33333"
         d="m 10.666667,76.000002 c 0,-2.666666 0.666667,-4 2,-4 1.333333,0 2,1.333334 2,4 0,2.666667 -0.666667,4.000001 -2,4.000001 -1.333333,0 -2,-1.333334 -2,-4.000001 z m 30.666668,0 c 0,-2.666666 0.666666,-4 2,-4 1.333333,0 2,1.333334 2,4 0,2.666667 -0.666667,4.000001 -2,4.000001 -1.333334,0 -2,-1.333334 -2,-4.000001 z m 30.666667,0 c 0,-2.666666 0.666667,-4 2,-4 1.333334,0 2,1.333334 2,4 0,2.666667 -0.666666,4.000001 -2,4.000001 -1.333333,0 -2,-1.333334 -2,-4.000001 z M 40.916668,52.472224 c -1.738799,-1.738798 -0.908656,-3.138889 1.861111,-3.138889 1.551657,0 2.544814,0.698889 2.25,1.583333 -0.649486,1.948458 -2.875815,2.790852 -4.111111,1.555556 z M 10.666667,45.333335 c 0,-2.666667 0.666667,-4 2,-4 1.333333,0 2,1.333333 2,4 0,2.666667 -0.666667,4 -2,4 -1.333333,0 -2,-1.333333 -2,-4 z m 61.333335,0 c 0,-2.666667 0.666667,-4 2,-4 1.333334,0 2,1.333333 2,4 0,2.666667 -0.666666,4 -2,4 -1.333333,0 -2,-1.333333 -2,-4 z m -32.666667,0 c -0.482066,-0.779999 0.901273,-1.333334 3.333333,-1.333334 2.43206,0 3.815399,0.553335 3.333333,1.333334 -0.453225,0.733333 -1.953225,1.333333 -3.333333,1.333333 -1.380108,0 -2.880108,-0.6 -3.333333,-1.333333 z m -7.313347,-6.704011 c 1.543753,-2.884531 3.980013,-2.405422 3.980013,0.7827 0,1.056721 -1.221111,1.921311 -2.713579,1.921311 -2.3129,0 -2.499897,-0.399266 -1.266434,-2.704011 z m 17.548915,0.633583 c 0.603028,-2.896151 2.96936,-3.073363 3.510604,-0.262906 0.281068,1.459471 -0.372895,2.333334 -1.746172,2.333334 -1.280969,0 -2.015955,-0.86245 -1.764432,-2.070428 z m -8.845295,-4.504109 c -0.986055,-1.595469 1.522167,-3.176302 3.298143,-2.078689 1.491144,0.921579 0.512222,3.319892 -1.355083,3.319892 -0.646775,0 -1.521152,-0.558541 -1.94306,-1.241203 z M 10.666667,14.666667 c 0,-2.666667 0.666667,-4 2,-4 1.333333,0 2,1.333333 2,4 0,2.666667 -0.666667,4 -2,4 -1.333333,0 -2,-1.333333 -2,-4 z m 30.666668,0 c 0,-2.666667 0.666666,-4 2,-4 1.333333,0 2,1.333333 2,4 0,2.666667 -0.666667,4 -2,4 -1.333334,0 -2,-1.333333 -2,-4 z m 30.666667,0 c 0,-2.666667 0.666667,-4 2,-4 1.333334,0 2,1.333333 2,4 0,2.666667 -0.666666,4 -2,4 -1.333333,0 -2,-1.333333 -2,-4 z"
         id="path319" />
      <path
         style="fill:#014eaa;stroke-width:1.33333"
         d="m 14.666667,76.000002 c 0,-2.666666 0.666667,-4 2,-4 1.333334,0 2,1.333334 2,4 0,2.666667 -0.666666,4.000001 -2,4.000001 -1.333333,0 -2,-1.333334 -2,-4.000001 z m 30.666668,0 c 0,-2.666666 0.666666,-4 2,-4 1.333333,0 2,1.333334 2,4 0,2.666667 -0.666667,4.000001 -2,4.000001 -1.333334,0 -2,-1.333334 -2,-4.000001 z m 30.666667,0 c 0,-2.666666 0.666667,-4 2,-4 1.333334,0 2.000001,1.333334 2.000001,4 0,2.666667 -0.666667,4.000001 -2.000001,4.000001 -1.333333,0 -2,-1.333334 -2,-4.000001 z M 40.843249,53.61905 c -0.356105,-0.576191 0.464434,-1.04762 1.823419,-1.04762 1.358985,0 2.179524,0.471429 1.823419,1.04762 -0.356106,0.57619 -1.176644,1.047618 -1.823419,1.047618 -0.646775,0 -1.467313,-0.471428 -1.823419,-1.047618 z M 14.666667,45.333335 c 0,-2.666667 0.666667,-4 2,-4 1.333334,0 2,1.333333 2,4 0,2.666667 -0.666666,4 -2,4 -1.333333,0 -2,-1.333333 -2,-4 z m 61.333335,0 c 0,-2.666667 0.666667,-4 2,-4 1.333334,0 2.000001,1.333333 2.000001,4 0,2.666667 -0.666667,4 -2.000001,4 -1.333333,0 -2,-1.333333 -2,-4 z M 41.352383,31.44762 c 0.863492,-0.863492 1.765078,-0.863492 2.62857,0 0.863492,0.863492 0.412699,1.314286 -1.314285,1.314286 -1.726984,0 -2.177777,-0.450794 -1.314285,-1.314286 z M 14.666667,14.666667 c 0,-2.666667 0.666667,-4 2,-4 1.333334,0 2,1.333333 2,4 0,2.666667 -0.666666,4 -2,4 -1.333333,0 -2,-1.333333 -2,-4 z m 30.666668,0 c 0,-2.666667 0.666666,-4 2,-4 1.333333,0 2,1.333333 2,4 0,2.666667 -0.666667,4 -2,4 -1.333334,0 -2,-1.333333 -2,-4 z m 30.666667,0 c 0,-2.666667 0.666667,-4 2,-4 1.333334,0 2.000001,1.333333 2.000001,4 0,2.666667 -0.666667,4 -2.000001,4 -1.333333,0 -2,-1.333333 -2,-4 z"
         id="path317" />
      <path
         style="fill:#cbb32b;fill-opacity:0;stroke-width:1.33333"
         d="m 5.4247231,79.430616 c -2.7073799,-2.881875 -2.7693004,-3.196307 -0.565752,-2.872895 1.3608994,0.199737 2.4835501,0.905961 2.4947795,1.569387 0.011227,0.663425 0.4966395,1.956228 1.0786894,2.872895 1.694914,2.669309 0.2814721,1.931794 -3.0077169,-1.569387 z m 30.6666669,0 c -2.70738,-2.881875 -2.7693,-3.196307 -0.565752,-2.872895 1.3609,0.199737 2.483551,0.905961 2.494781,1.569387 0.0112,0.663425 0.496638,1.956228 1.078689,2.872895 1.694913,2.669309 0.281472,1.931794 -3.007718,-1.569387 z m 30.666668,0 c -2.70738,-2.881875 -2.7693,-3.196307 -0.565752,-2.872895 1.3609,0.199737 2.483551,0.905961 2.49478,1.569387 0.0112,0.663425 0.496639,1.956228 1.07869,2.872895 1.694913,2.669309 0.281472,1.931794 -3.007718,-1.569387 z m -60.6876759,-9.9834 c -0.4293009,-0.694623 -0.2122189,-1.614198 0.4824045,-2.043499 0.6946234,-0.4293 1.6141977,-0.212219 2.0434985,0.482405 0.4293008,0.694623 0.2122188,1.614198 -0.4824046,2.043499 -0.6946233,0.4293 -1.6141976,0.212219 -2.0434984,-0.482405 z m 13.3740629,0.219453 c -0.55,-0.55 -1.642802,-1 -2.42845,-1 -0.785648,0 -1.591872,-1.113463 -1.791609,-2.474363 -0.323412,-2.203548 -0.0089,-2.141628 2.872895,0.565752 1.779829,1.672063 3.236053,3.235527 3.236053,3.474363 0,0.734952 -0.839684,0.483453 -1.888889,-0.565752 z m 17.292604,-0.219453 c -0.4293,-0.694623 -0.212219,-1.614198 0.482405,-2.043499 0.694623,-0.4293 1.614198,-0.212219 2.043499,0.482405 0.4293,0.694623 0.212219,1.614198 -0.482405,2.043499 -0.694623,0.4293 -1.614198,0.212219 -2.043499,-0.482405 z m 13.374063,0.219453 c -0.55,-0.55 -1.642801,-1 -2.428449,-1 -0.785648,0 -1.591872,-1.113463 -1.79161,-2.474363 -0.323412,-2.203548 -0.0089,-2.141628 2.872895,0.565752 1.77983,1.672063 3.236054,3.235527 3.236054,3.474363 0,0.734952 -0.839684,0.483453 -1.88889,-0.565752 z m 17.292605,-0.219453 c -0.4293,-0.694623 -0.212219,-1.614198 0.482405,-2.043499 0.694623,-0.4293 1.614198,-0.212219 2.043499,0.482405 0.4293,0.694623 0.212219,1.614198 -0.482405,2.043499 -0.694623,0.4293 -1.614198,0.212219 -2.043499,-0.482405 z m 13.374063,0.219453 c -0.55,-0.55 -1.642802,-1 -2.42845,-1 -0.785648,0 -1.591872,-1.113463 -1.791609,-2.474363 -0.323412,-2.203548 -0.0089,-2.141628 2.872895,0.565752 1.779829,1.672063 3.236053,3.235527 3.236053,3.474363 0,0.734952 -0.839684,0.483453 -1.888889,-0.565752 z M 32.098516,52.785372 c -1.138984,-1.372392 -1.159151,-2.129861 -0.07455,-2.800181 0.817732,-0.505387 1.846867,-0.558803 2.286967,-0.118707 0.440094,0.440103 0.02671,0.800184 -0.918639,0.800184 -1.376659,0 -1.388396,0.398131 -0.05896,2 0.912919,1.1 1.359852,2 0.993186,2 -0.366667,0 -1.369268,-0.846584 -2.228004,-1.881296 z m 18.568152,1.37789 c 0,-0.276875 1.05,-1.326875 2.333334,-2.333334 2.114741,-1.658494 2.161901,-1.611334 0.503406,0.503407 -1.741825,2.220997 -2.83674,2.927305 -2.83674,1.829927 z M 5.4247231,48.763948 c -2.7073799,-2.881875 -2.7693004,-3.196307 -0.565752,-2.872895 1.3608994,0.199738 2.4835501,0.905962 2.4947795,1.569387 0.011227,0.663426 0.4966395,1.956228 1.0786894,2.872895 1.694914,2.669309 0.2814721,1.931795 -3.0077169,-1.569387 z m 61.3333349,0 c -2.70738,-2.881875 -2.7693,-3.196307 -0.565752,-2.872895 1.3609,0.199738 2.483551,0.905962 2.49478,1.569387 0.0112,0.663426 0.496639,1.956228 1.07869,2.872895 1.694913,2.669309 0.281472,1.931795 -3.007718,-1.569387 z M 6.0703821,38.780548 C 5.6410812,38.085925 5.8581632,37.16635 6.5527866,36.737049 c 0.6946234,-0.4293 1.6141977,-0.212219 2.0434985,0.482405 0.4293008,0.694623 0.2122188,1.614198 -0.4824046,2.043499 -0.6946233,0.4293 -1.6141976,0.212219 -2.0434984,-0.482405 z m 13.3740629,0.219453 c -0.55,-0.55 -1.642802,-1 -2.42845,-1 -0.785648,0 -1.591872,-1.113463 -1.791609,-2.474363 -0.323412,-2.203548 -0.0089,-2.141628 2.872895,0.565752 1.779829,1.672063 3.236053,3.235527 3.236053,3.474363 0,0.734952 -0.839684,0.483454 -1.888889,-0.565752 z m 47.959272,-0.219453 c -0.4293,-0.694623 -0.212219,-1.614198 0.482405,-2.043499 0.694623,-0.4293 1.614198,-0.212219 2.043499,0.482405 0.4293,0.694623 0.212219,1.614198 -0.482405,2.043499 -0.694623,0.4293 -1.614198,0.212219 -2.043499,-0.482405 z m 13.374063,0.219453 c -0.55,-0.55 -1.642802,-1 -2.42845,-1 -0.785648,0 -1.591872,-1.113463 -1.791609,-2.474363 -0.323412,-2.203548 -0.0089,-2.141628 2.872895,0.565752 1.779829,1.672063 3.236053,3.235527 3.236053,3.474363 0,0.734952 -0.839684,0.483454 -1.888889,-0.565752 z M 30.666668,34.32652 c 0,-0.366667 0.846584,-1.369268 1.881296,-2.228004 1.449449,-1.202935 2.110646,-1.163895 2.880434,0.170074 0.549526,0.952276 0.508147,1.286616 -0.09195,0.742979 -0.600099,-0.543637 -1.896295,-0.320171 -2.880435,0.496593 -0.984144,0.816763 -1.789349,1.185024 -1.789349,0.818358 z m 21.986559,-1.014935 c -0.460619,-0.745295 -1.488733,-0.952591 -2.284701,-0.460655 -0.884618,0.546723 -1.061819,0.270846 -0.455832,-0.709662 0.759128,-1.228294 1.43212,-1.23831 2.872678,-0.04275 1.886918,1.565999 2.391599,2.568147 1.293319,2.568147 -0.323388,0 -0.964847,-0.609787 -1.425464,-1.355083 z M 5.4247231,18.097281 c -2.7073799,-2.881875 -2.7693004,-3.196307 -0.565752,-2.872895 1.3608994,0.199737 2.4835501,0.905961 2.4947795,1.569387 0.011227,0.663425 0.4966395,1.956228 1.0786894,2.872894 1.694914,2.66931 0.2814721,1.931795 -3.0077169,-1.569386 z m 30.6666669,0 c -2.70738,-2.881875 -2.7693,-3.196307 -0.565752,-2.872895 1.3609,0.199737 2.483551,0.905961 2.494781,1.569387 0.0112,0.663425 0.496638,1.956228 1.078689,2.872894 1.694913,2.66931 0.281472,1.931795 -3.007718,-1.569386 z m 30.666668,0 c -2.70738,-2.881875 -2.7693,-3.196307 -0.565752,-2.872895 1.3609,0.199737 2.483551,0.905961 2.49478,1.569387 0.0112,0.663425 0.496639,1.956228 1.07869,2.872894 1.694913,2.66931 0.281472,1.931795 -3.007718,-1.569386 z M 6.0703821,8.1138805 C 5.6410812,7.4192572 5.8581632,6.4996829 6.5527866,6.0703821 7.24741,5.6410812 8.1669843,5.8581632 8.5962851,6.5527866 9.0255859,7.24741 8.8085039,8.1669843 8.1138805,8.5962851 7.4192572,9.0255859 6.4996829,8.8085039 6.0703821,8.1138805 Z M 19.444445,8.3333336 c -0.55,-0.55 -1.642802,-1 -2.42845,-1 -0.785648,0 -1.591872,-1.1134631 -1.791609,-2.4743625 -0.323412,-2.2035484 -0.009,-2.1416279 2.872895,0.565752 1.779829,1.672063 3.236053,3.2355261 3.236053,3.4743625 0,0.7349519 -0.839684,0.4834535 -1.888889,-0.565752 z M 36.737049,8.1138805 c -0.4293,-0.6946233 -0.212219,-1.6141976 0.482405,-2.0434984 0.694623,-0.4293009 1.614198,-0.2122189 2.043499,0.4824045 0.4293,0.6946234 0.212219,1.6141977 -0.482405,2.0434985 -0.694623,0.4293008 -1.614198,0.2122188 -2.043499,-0.4824046 z m 13.374063,0.2194531 c -0.55,-0.55 -1.642801,-1 -2.428449,-1 -0.785648,0 -1.591872,-1.1134631 -1.79161,-2.4743625 -0.323412,-2.2035484 -0.009,-2.1416279 2.872895,0.565752 1.77983,1.672063 3.236054,3.2355261 3.236054,3.4743625 0,0.7349519 -0.839684,0.4834535 -1.88889,-0.565752 z M 67.403717,8.1138805 C 66.974417,7.4192572 67.191498,6.4996829 67.886122,6.0703821 68.580745,5.6410812 69.50032,5.8581632 69.929621,6.5527866 70.358921,7.24741 70.14184,8.1669843 69.447216,8.5962851 68.752593,9.0255859 67.833018,8.8085039 67.403717,8.1138805 Z M 80.77778,8.3333336 c -0.55,-0.55 -1.642802,-1 -2.42845,-1 -0.785648,0 -1.591872,-1.1134631 -1.791609,-2.4743625 -0.323412,-2.2035484 -0.009,-2.1416279 2.872895,0.565752 1.779829,1.672063 3.236053,3.2355261 3.236053,3.4743625 0,0.7349519 -0.839684,0.4834535 -1.888889,-0.565752 z"
         id="path315" />
      <path
         style="fill:#cbb32b;fill-opacity:1;stroke-width:1.33333"
         d="M 6.2180782,78.894293 C 3.2024304,75.746636 2.567245,74.006918 2.9096148,69.832702 3.3157312,64.881277 3.547942,64.649066 8.4993665,64.24295 c 4.1742165,-0.342369 5.9139335,0.292816 9.0615915,3.308463 3.243083,3.107071 3.829412,4.629641 3.500635,9.090385 -0.385111,5.225038 -0.528092,5.368019 -5.75313,5.75313 -4.460744,0.328777 -5.9833151,-0.257552 -9.0903848,-3.500635 z M 18.666667,76.000002 c 0,-3.555556 -0.444444,-4 -4,-4 -3.555556,0 -4,0.444444 -4,4 0,3.555556 0.444444,4.000001 4,4.000001 3.555556,0 4,-0.444445 4,-4.000001 z M 7.8029049,73.66286 c -0.47719,-5.00381 -0.47719,-5.00381 4.8599531,-4.530099 4.058487,0.36022 4.978467,0.09828 3.84002,-1.093315 -0.823419,-0.861863 -3.523418,-1.373319 -6.000001,-1.136567 -3.8290364,0.36604 -4.5676385,0.996015 -4.9356416,4.209754 -0.4547516,3.971305 0.4294488,7.554036 1.8642991,7.554036 0.4667081,0 0.6338248,-2.251715 0.3713704,-5.003809 z m 29.0818401,5.231433 c -3.015647,-3.147657 -3.650832,-4.887375 -3.308463,-9.061591 0.406116,-4.951425 0.638327,-5.183636 5.589753,-5.589752 4.174216,-0.342369 5.913933,0.292816 9.061591,3.308463 3.243082,3.107071 3.829412,4.629641 3.500634,9.090385 -0.38511,5.225038 -0.528092,5.368019 -5.753129,5.75313 -4.460744,0.328777 -5.983315,-0.257552 -9.090386,-3.500635 z m 12.44859,-2.894291 c 0,-3.555556 -0.444444,-4 -4,-4 -3.555556,0 -4,0.444444 -4,4 0,3.555556 0.444444,4.000001 4,4.000001 3.555556,0 4,-0.444445 4,-4.000001 z M 38.469572,73.66286 c -0.477189,-5.00381 -0.477189,-5.00381 4.859953,-4.530099 4.058487,0.36022 4.978467,0.09828 3.84002,-1.093315 -0.823418,-0.861863 -3.523418,-1.373319 -6,-1.136567 -3.829037,0.36604 -4.567639,0.996015 -4.935643,4.209754 -0.45475,3.971305 0.42945,7.554036 1.864301,7.554036 0.466708,0 0.633824,-2.251715 0.371369,-5.003809 z m 29.081841,5.231433 c -3.015647,-3.147657 -3.650832,-4.887375 -3.308463,-9.061591 0.406116,-4.951425 0.638327,-5.183636 5.589752,-5.589752 4.174216,-0.342369 5.913934,0.292816 9.061591,3.308463 3.243083,3.107071 3.829412,4.629641 3.500635,9.090385 -0.385111,5.225038 -0.528092,5.368019 -5.75313,5.75313 -4.460744,0.328777 -5.983314,-0.257552 -9.090385,-3.500635 z m 12.44859,-2.894291 c 0,-3.555556 -0.444445,-4 -4.000001,-4 -3.555556,0 -4,0.444444 -4,4 0,3.555556 0.444444,4.000001 4,4.000001 3.555556,0 4.000001,-0.444445 4.000001,-4.000001 z M 69.136239,73.66286 c -0.477189,-5.00381 -0.477189,-5.00381 4.859954,-4.530099 4.058487,0.36022 4.978467,0.09828 3.84002,-1.093315 -0.823419,-0.861863 -3.523419,-1.373319 -6,-1.136567 -3.829038,0.36604 -4.567639,0.996015 -4.935643,4.209754 -0.454751,3.971305 0.429449,7.554036 1.8643,7.554036 0.466708,0 0.633824,-2.251715 0.371369,-5.003809 z m -45.136238,1.003809 c 0,-0.733333 1.2,-1.333333 2.666667,-1.333333 1.466666,0 2.666666,0.6 2.666666,1.333333 0,0.733333 -1.2,1.333333 -2.666666,1.333333 -1.466667,0 -2.666667,-0.6 -2.666667,-1.333333 z m 32.000001,0 c 0,-0.733333 1.2,-1.333333 2.666666,-1.333333 1.466667,0 2.666667,0.6 2.666667,1.333333 0,0.733333 -1.2,1.333333 -2.666667,1.333333 -1.466666,0 -2.666666,-0.6 -2.666666,-1.333333 z M 9.3333336,58.666668 c 0,-1.466666 0.6,-2.666666 1.3333334,-2.666666 0.733333,0 1.333333,1.2 1.333333,2.666666 0,1.466667 -0.6,2.666667 -1.333333,2.666667 -0.7333334,0 -1.3333334,-1.2 -1.3333334,-2.666667 z m 32.0000014,1.333334 c 0,-0.733333 0.6,-1.333334 1.333333,-1.333334 0.733333,0 1.333333,0.600001 1.333333,1.333334 0,0.733333 -0.6,1.333333 -1.333333,1.333333 -0.733333,0 -1.333333,-0.6 -1.333333,-1.333333 z m 32.000001,-1.333334 c 0,-1.466666 0.6,-2.666666 1.333333,-2.666666 0.733333,0 1.333333,1.2 1.333333,2.666666 0,1.466667 -0.6,2.666667 -1.333333,2.666667 -0.733333,0 -1.333333,-1.2 -1.333333,-2.666667 z M 39.183671,56.382346 c -1.548983,-0.285822 -4.480802,-2.257008 -6.515153,-4.380412 -8.381795,-8.748709 -2.181404,-23.032236 9.99815,-23.032236 12.263066,0 18.524099,14.620822 9.848486,22.998272 -3.974507,3.837908 -8.440819,5.316812 -13.331483,4.414376 z m 5.914096,-4.826166 c 0.290673,-1.498778 -0.469384,-2.222845 -2.333334,-2.222845 -1.520437,0 -2.764432,0.8 -2.764432,1.777777 0,4.083658 4.318967,4.460731 5.097766,0.445068 z m -6.431099,1.189178 c 0,-0.323388 -0.6,-0.958798 -1.333334,-1.412023 -0.733333,-0.453225 -1.333333,-0.188635 -1.333333,0.587977 0,0.776612 0.6,1.412023 1.333333,1.412023 0.733334,0 1.333334,-0.264589 1.333334,-0.587977 z m 10.666667,-0.745356 c 0,-0.733334 -0.264589,-1.333334 -0.587977,-1.333334 -0.323388,0 -0.958798,0.6 -1.412023,1.333334 -0.453226,0.733333 -0.188635,1.333333 0.587977,1.333333 0.776612,0 1.412023,-0.6 1.412023,-1.333333 z M 35.951528,48.725075 c 2.016587,-2.429839 0.706558,-4.725074 -2.696883,-4.725074 -2.713051,0 -3.123749,1.052368 -1.778659,4.557618 1.00769,2.625996 2.392143,2.677797 4.475542,0.167456 z m 18.71514,-2.888334 c 0,-2.140418 -4.770893,-2.492144 -6.036097,-0.445 -0.473079,0.765458 -0.12888,2.272856 0.764883,3.349775 1.846964,2.225456 5.271214,0.338476 5.271214,-2.904775 z m -8,-0.170073 c 0,-0.962963 -1.688889,-1.666667 -4,-1.666667 -2.311111,0 -4,0.703704 -4,1.666667 0,0.962963 1.688889,1.666667 4,1.666667 2.311111,0 4,-0.703704 4,-1.666667 z M 36.465784,39.376035 c 0.413097,-1.076515 0.148558,-2.329683 -0.587864,-2.784818 -2.028971,-1.253972 -5.211252,0.394964 -5.211252,2.700271 0,2.608504 4.803708,2.678539 5.799116,0.08455 z m 10.200884,0.290633 c 0,-0.962963 -1.688889,-1.666667 -4,-1.666667 -2.311111,0 -4,0.703704 -4,1.666667 0,0.962963 1.688889,1.666667 4,1.666667 2.311111,0 4,-0.703704 4,-1.666667 z m 8,-0.254644 c 0,-1.056721 -0.628732,-2.309888 -1.397182,-2.784818 -2.262192,-1.398112 -5.296473,0.4177 -4.437687,2.655657 0.99558,2.59444 5.834869,2.701562 5.834869,0.129161 z m -9.587161,-5.745356 c -0.247147,-1.283334 -1.332926,-2.333334 -2.412839,-2.333334 -1.079913,0 -2.165692,1.05 -2.412839,2.333334 -0.315282,1.637132 0.40464,2.333333 2.412839,2.333333 2.008199,0 2.728121,-0.696201 2.412839,-2.333333 z m -7.079506,-0.333334 c 0.453226,-0.733333 -0.146774,-1.333333 -1.333333,-1.333333 -1.186559,0 -1.786559,0.6 -1.333334,1.333333 0.453226,0.733334 1.053226,1.333334 1.333334,1.333334 0.280108,0 0.880108,-0.6 1.333333,-1.333334 z m 12.000001,0 c 0.453225,-0.733333 -0.146775,-1.333333 -1.333334,-1.333333 -1.186559,0 -1.786559,0.6 -1.333333,1.333333 0.453225,0.733334 1.053225,1.333334 1.333333,1.333334 0.280108,0 0.880108,-0.6 1.333334,-1.333334 z M 6.2180782,48.227626 C 3.2024304,45.079968 2.567245,43.340251 2.9096148,39.166035 3.3157312,34.214609 3.547942,33.982398 8.4993665,33.576282 c 4.1742165,-0.342369 5.9139335,0.292816 9.0615915,3.308463 3.243083,3.107071 3.829412,4.629642 3.500635,9.090386 -0.385111,5.225037 -0.528092,5.368019 -5.75313,5.753129 -4.460744,0.328778 -5.9833151,-0.257552 -9.0903848,-3.500634 z M 18.666667,45.333335 c 0,-3.555556 -0.444444,-4 -4,-4 -3.555556,0 -4,0.444444 -4,4 0,3.555556 0.444444,4 4,4 3.555556,0 4,-0.444444 4,-4 z M 7.8029049,42.996192 c -0.47719,-5.003809 -0.47719,-5.003809 4.8599531,-4.530099 4.058487,0.36022 4.978467,0.09828 3.84002,-1.093314 -0.823419,-0.861863 -3.523418,-1.373319 -6.000001,-1.136567 -3.8290364,0.36604 -4.5676385,0.996014 -4.9356416,4.209753 -0.4547516,3.971306 0.4294488,7.554037 1.8642991,7.554037 0.4667081,0 0.6338248,-2.251715 0.3713704,-5.00381 z m 59.7485081,5.231434 c -3.015647,-3.147658 -3.650832,-4.887375 -3.308463,-9.061591 0.406116,-4.951426 0.638327,-5.183637 5.589752,-5.589753 4.174216,-0.342369 5.913934,0.292816 9.061591,3.308463 3.243083,3.107071 3.829412,4.629642 3.500635,9.090386 -0.385111,5.225037 -0.528092,5.368019 -5.75313,5.753129 -4.460744,0.328778 -5.983314,-0.257552 -9.090385,-3.500634 z m 12.44859,-2.894291 c 0,-3.555556 -0.444445,-4 -4.000001,-4 -3.555556,0 -4,0.444444 -4,4 0,3.555556 0.444444,4 4,4 3.555556,0 4.000001,-0.444444 4.000001,-4 z M 69.136239,42.996192 c -0.477189,-5.003809 -0.477189,-5.003809 4.859954,-4.530099 4.058487,0.36022 4.978467,0.09828 3.84002,-1.093314 -0.823419,-0.861863 -3.523419,-1.373319 -6,-1.136567 -3.829038,0.36604 -4.567639,0.996014 -4.935643,4.209753 -0.454751,3.971306 0.429449,7.554037 1.8643,7.554037 0.466708,0 0.633824,-2.251715 0.371369,-5.00381 z M 24.000001,42.666668 c 0,-0.733333 0.6,-1.333333 1.333333,-1.333333 0.733333,0 1.333334,0.6 1.333334,1.333333 0,0.733333 -0.600001,1.333333 -1.333334,1.333333 -0.733333,0 -1.333333,-0.6 -1.333333,-1.333333 z m 34.666667,0 c 0,-0.733333 0.600001,-1.333333 1.333334,-1.333333 0.733333,0 1.333333,0.6 1.333333,1.333333 0,0.733333 -0.6,1.333333 -1.333333,1.333333 -0.733333,0 -1.333334,-0.6 -1.333334,-1.333333 z m -49.3333344,-16 c 0,-1.466667 0.6,-2.666667 1.3333334,-2.666667 0.733333,0 1.333333,1.2 1.333333,2.666667 0,1.466666 -0.6,2.666666 -1.333333,2.666666 -0.7333334,0 -1.3333334,-1.2 -1.3333334,-2.666666 z m 64.0000024,0 c 0,-1.466667 0.6,-2.666667 1.333333,-2.666667 0.733333,0 1.333333,1.2 1.333333,2.666667 0,1.466666 -0.6,2.666666 -1.333333,2.666666 -0.733333,0 -1.333333,-1.2 -1.333333,-2.666666 z M 41.333335,25.333334 c 0,-0.733333 0.6,-1.333333 1.333333,-1.333333 0.733333,0 1.333333,0.6 1.333333,1.333333 0,0.733333 -0.6,1.333334 -1.333333,1.333334 -0.733333,0 -1.333333,-0.600001 -1.333333,-1.333334 z M 6.2180782,17.560958 C 3.2024304,14.4133 2.567245,12.673583 2.9096148,8.4993665 3.3157312,3.547942 3.547942,3.3157312 8.4993665,2.9096148 12.673583,2.567245 14.4133,3.2024304 17.560958,6.2180782 c 3.243083,3.1070697 3.829412,4.6296408 3.500635,9.0903848 -0.385111,5.225038 -0.528092,5.368019 -5.75313,5.75313 C 10.847719,21.39037 9.3251479,20.804041 6.2180782,17.560958 Z M 18.666667,14.666667 c 0,-3.555556 -0.444444,-4 -4,-4 -3.555556,0 -4,0.444444 -4,4 0,3.555556 0.444444,4 4,4 3.555556,0 4,-0.444444 4,-4 z M 7.8029049,12.329524 C 7.3257149,7.3257149 7.3257149,7.3257149 12.662858,7.799425 16.721345,8.1596452 17.641325,7.897712 16.502878,6.7061113 15.679459,5.8442482 12.97946,5.3327928 10.502877,5.5695438 6.6738406,5.9355838 5.9352385,6.5655593 5.5672354,9.7792972 5.1124838,13.750603 5.9966842,17.333334 7.4315345,17.333334 c 0.4667081,0 0.6338248,-2.251715 0.3713704,-5.00381 z M 36.884745,17.560958 C 33.869098,14.4133 33.233913,12.673583 33.576282,8.4993665 33.982398,3.547942 34.214609,3.3157312 39.166035,2.9096148 c 4.174216,-0.3423698 5.913933,0.2928156 9.061591,3.3084634 3.243082,3.1070697 3.829412,4.6296408 3.500634,9.0903848 -0.38511,5.225038 -0.528092,5.368019 -5.753129,5.75313 -4.460744,0.328777 -5.983315,-0.257552 -9.090386,-3.500635 z m 12.44859,-2.894291 c 0,-3.555556 -0.444444,-4 -4,-4 -3.555556,0 -4,0.444444 -4,4 0,3.555556 0.444444,4 4,4 3.555556,0 4,-0.444444 4,-4 z M 38.469572,12.329524 c -0.477189,-5.0038091 -0.477189,-5.0038091 4.859953,-4.530099 4.058487,0.3602202 4.978467,0.098288 3.84002,-1.0933137 -0.823418,-0.8618631 -3.523418,-1.3733185 -6,-1.1365675 -3.829037,0.36604 -4.567639,0.9960155 -4.935643,4.2097534 -0.45475,3.9713058 0.42945,7.5540368 1.864301,7.5540368 0.466708,0 0.633824,-2.251715 0.371369,-5.00381 z m 29.081841,5.231434 C 64.535766,14.4133 63.900581,12.673583 64.24295,8.4993665 64.649066,3.547942 64.881277,3.3157312 69.832702,2.9096148 c 4.174216,-0.3423698 5.913934,0.2928156 9.061591,3.3084634 3.243083,3.1070697 3.829412,4.6296408 3.500635,9.0903848 -0.385111,5.225038 -0.528092,5.368019 -5.75313,5.75313 -4.460744,0.328777 -5.983314,-0.257552 -9.090385,-3.500635 z m 12.44859,-2.894291 c 0,-3.555556 -0.444445,-4 -4.000001,-4 -3.555556,0 -4,0.444444 -4,4 0,3.555556 0.444444,4 4,4 3.555556,0 4.000001,-0.444444 4.000001,-4 z M 69.136239,12.329524 C 68.65905,7.3257149 68.65905,7.3257149 73.996193,7.799425 c 4.058487,0.3602202 4.978467,0.098288 3.84002,-1.0933137 -0.823419,-0.8618631 -3.523419,-1.3733185 -6,-1.1365675 -3.829038,0.36604 -4.567639,0.9960155 -4.935643,4.2097534 -0.454751,3.9713058 0.429449,7.5540368 1.8643,7.5540368 0.466708,0 0.633824,-2.251715 0.371369,-5.00381 z M 24.000001,10.666667 c 0,-0.7333334 1.2,-1.3333334 2.666667,-1.3333334 1.466666,0 2.666666,0.6 2.666666,1.3333334 0,0.733333 -1.2,1.333333 -2.666666,1.333333 -1.466667,0 -2.666667,-0.6 -2.666667,-1.333333 z m 32.000001,0 c 0,-0.7333334 1.2,-1.3333334 2.666666,-1.3333334 1.466667,0 2.666667,0.6 2.666667,1.3333334 0,0.733333 -1.2,1.333333 -2.666667,1.333333 -1.466666,0 -2.666666,-0.6 -2.666666,-1.333333 z"
         id="path313" />
    </g>
  </g>
</svg>
