<?xml version="1.0" encoding="UTF-8" standalone="no"?>
<!-- Created with Inkscape (http://www.inkscape.org/) -->

<svg
   version="1.1"
   id="svg2"
   width="85.333336"
   height="85.333336"
   viewBox="0 0 85.333336 85.333336"
   sodipodi:docname="etapas02.png"
   xmlns:inkscape="http://www.inkscape.org/namespaces/inkscape"
   xmlns:sodipodi="http://sodipodi.sourceforge.net/DTD/sodipodi-0.dtd"
   xmlns="http://www.w3.org/2000/svg"
   xmlns:svg="http://www.w3.org/2000/svg">
  <defs
     id="defs6" />
  <sodipodi:namedview
     id="namedview4"
     pagecolor="#ffffff"
     bordercolor="#000000"
     borderopacity="0.25"
     inkscape:showpageshadow="2"
     inkscape:pageopacity="0.0"
     inkscape:pagecheckerboard="0"
     inkscape:deskcolor="#d1d1d1"
     showgrid="false" />
  <g
     inkscape:groupmode="layer"
     inkscape:label="Image"
     id="g8">
    <g
       id="g293"
       transform="translate(-0.10495308,-0.35833044)">
      <path
         style="fill:#b3d3fa;stroke-width:1.33333"
         d="m 8.6666669,68.000002 c -0.4532249,-0.733333 0.075955,-1.333333 1.1759547,-1.333333 1.1000004,0 2.3708204,0.6 2.8240454,1.333333 0.453225,0.733333 -0.07596,1.333334 -1.175955,1.333334 -1.1,0 -2.3708201,-0.600001 -2.8240451,-1.333334 z m 61.3333351,0 c -0.453225,-0.733333 0.07596,-1.333333 1.175955,-1.333333 1.1,0 2.37082,0.6 2.824045,1.333333 0.453226,0.733333 -0.07596,1.333334 -1.175954,1.333334 -1.1,0 -2.37082,-0.600001 -2.824046,-1.333334 z m -38.666668,-38.666668 -3.832242,-4 h 8.666666 c 7.889131,0 9.010479,0.358863 12.49891,4 l 3.832243,4 h -8.666667 c -7.889131,0 -9.010479,-0.358862 -12.49891,-4 z M 8.6666669,6.6666669 C 8.213442,5.9333335 8.7426216,5.3333335 9.8426216,5.3333335 c 1.1000004,0 2.3708204,0.6 2.8240454,1.3333334 0.453225,0.7333333 -0.07596,1.3333333 -1.175955,1.3333333 -1.1,0 -2.3708201,-0.6 -2.8240451,-1.3333333 z m 61.3333351,0 c -0.453225,-0.7333334 0.07596,-1.3333334 1.175955,-1.3333334 1.1,0 2.37082,0.6 2.824045,1.3333334 0.453226,0.7333333 -0.07596,1.3333333 -1.175954,1.3333333 -1.1,0 -2.37082,-0.6 -2.824046,-1.3333333 z"
         id="path305" />
      <path
         style="fill:#549ff8;stroke-width:1.33333"
         d="m 6.3333335,76.571025 c -0.55,-0.558507 -1,-2.535467 -1,-4.393245 0,-2.427623 0.4068156,-2.970962 1.4462199,-1.931558 0.795421,0.795422 1.245421,2.772382 1,4.393246 -0.2454209,1.620864 -0.8962199,2.490065 -1.4462199,1.931557 z m 61.3333355,0 c -0.55,-0.558507 -1,-2.535467 -1,-4.393245 0,-2.427623 0.406816,-2.970962 1.44622,-1.931558 0.795421,0.795422 1.245421,2.772382 1,4.393246 -0.245422,1.620864 -0.89622,2.490065 -1.44622,1.931557 z M 12.666667,68.000002 c -0.453225,-0.733333 -0.224045,-1.333333 0.509288,-1.333333 0.733333,0 1.704153,0.6 2.157379,1.333333 0.453225,0.733333 0.224045,1.333334 -0.509288,1.333334 -0.733334,0 -1.704154,-0.600001 -2.157379,-1.333334 z m 61.333335,0 c -0.453225,-0.733333 -0.224045,-1.333333 0.509288,-1.333333 0.733334,0 1.704154,0.6 2.157379,1.333333 0.453225,0.733333 0.224045,1.333334 -0.509288,1.333334 -0.733333,0 -1.704153,-0.600001 -2.157379,-1.333334 z M 29.000001,53.688462 C 25.593481,50.126131 25.333334,49.05699 25.333334,38.619351 V 27.384617 l 4.057959,4.057957 c 3.950044,3.950046 4.047552,4.350779 3.666667,15.069111 L 32.666668,57.522839 Z M 48.666668,29.333334 c -3.460012,-3.611475 -3.573227,-4 -1.165576,-4 1.466667,0 4.391176,1.8 6.49891,4 3.460012,3.611475 3.573226,4 1.165576,4 -1.466667,0 -4.391176,-1.8 -6.49891,-4 z M 6.3333335,15.23769 c -0.55,-0.558507 -1,-2.535467 -1,-4.393245 0,-2.4276233 0.4068156,-2.9709625 1.4462199,-1.9315582 0.795421,0.795421 1.245421,2.7723812 1,4.3932452 -0.2454209,1.620864 -0.8962199,2.490066 -1.4462199,1.931558 z m 61.3333355,0 c -0.55,-0.558507 -1,-2.535467 -1,-4.393245 0,-2.4276233 0.406816,-2.9709625 1.44622,-1.9315582 0.795421,0.795421 1.245421,2.7723812 1,4.3932452 -0.245422,1.620864 -0.89622,2.490066 -1.44622,1.931558 z M 12.666667,6.6666669 c -0.453225,-0.7333334 -0.224045,-1.3333334 0.509288,-1.3333334 0.733333,0 1.704153,0.6 2.157379,1.3333334 0.453225,0.7333333 0.224045,1.3333333 -0.509288,1.3333333 -0.733334,0 -1.704154,-0.6 -2.157379,-1.3333333 z m 61.333335,0 C 73.546777,5.9333335 73.775957,5.3333335 74.50929,5.3333335 c 0.733334,0 1.704154,0.6 2.157379,1.3333334 0.453225,0.7333333 0.224045,1.3333333 -0.509288,1.3333333 -0.733333,0 -1.704153,-0.6 -2.157379,-1.3333333 z"
         id="path303" />
      <path
         style="fill:#006cef;stroke-width:1.33333"
         d="m 10.666667,76.000002 c 0,-2.666666 0.666667,-4 2,-4 1.333333,0 2,1.333334 2,4 0,2.666667 -0.666667,4.000001 -2,4.000001 -1.333333,0 -2,-1.333334 -2,-4.000001 z m 61.333335,0 c 0,-2.666666 0.666667,-4 2,-4 1.333334,0 2,1.333334 2,4 0,2.666667 -0.666666,4.000001 -2,4.000001 -1.333333,0 -2,-1.333334 -2,-4.000001 z m -36.000001,-28 V 36.000001 h 8.666667 8.666667 v 12.000001 12 H 44.666668 36.000001 Z M 10.666667,14.666667 c 0,-2.666667 0.666667,-4 2,-4 1.333333,0 2,1.333333 2,4 0,2.666667 -0.666667,4 -2,4 -1.333333,0 -2,-1.333333 -2,-4 z m 61.333335,0 c 0,-2.666667 0.666667,-4 2,-4 1.333334,0 2,1.333333 2,4 0,2.666667 -0.666666,4 -2,4 -1.333333,0 -2,-1.333333 -2,-4 z"
         id="path301" />
      <path
         style="fill:#004eab;stroke-width:1.33333"
         d="m 14.666667,76.000002 c 0,-2.666666 0.666667,-4 2,-4 1.333334,0 2,1.333334 2,4 0,2.666667 -0.666666,4.000001 -2,4.000001 -1.333333,0 -2,-1.333334 -2,-4.000001 z m 61.333335,0 c 0,-2.666666 0.666667,-4 2,-4 1.333334,0 2.000001,1.333334 2.000001,4 0,2.666667 -0.666667,4.000001 -2.000001,4.000001 -1.333333,0 -2,-1.333334 -2,-4.000001 z m -22.666667,-28 c 0,-11.911112 0.02469,-12.000001 3.333333,-12.000001 3.308642,0 3.333334,0.08889 3.333334,12.000001 0,11.911111 -0.02469,12 -3.333334,12 -3.308641,0 -3.333333,-0.08889 -3.333333,-12 z M 14.666667,14.666667 c 0,-2.666667 0.666667,-4 2,-4 1.333334,0 2,1.333333 2,4 0,2.666667 -0.666666,4 -2,4 -1.333333,0 -2,-1.333333 -2,-4 z m 61.333335,0 c 0,-2.666667 0.666667,-4 2,-4 1.333334,0 2.000001,1.333333 2.000001,4 0,2.666667 -0.666667,4 -2.000001,4 -1.333333,0 -2,-1.333333 -2,-4 z"
         id="path299" />
      <path
         style="fill:#cbb32b;fill-opacity:1;stroke-width:1.33333"
         d="m 5.4247231,79.430616 c -2.7073799,-2.881875 -2.7693004,-3.196307 -0.565752,-2.872895 1.3608994,0.199737 2.4835501,0.905961 2.4947795,1.569387 0.011227,0.663425 0.4966395,1.956228 1.0786894,2.872895 1.694914,2.669309 0.2814721,1.931794 -3.0077169,-1.569387 z m 61.3333349,0 c -2.70738,-2.881875 -2.7693,-3.196307 -0.565752,-2.872895 1.3609,0.199737 2.483551,0.905961 2.49478,1.569387 0.0112,0.663425 0.496639,1.956228 1.07869,2.872895 1.694913,2.669309 0.281472,1.931794 -3.007718,-1.569387 z m -60.6876759,-9.9834 c -0.4293009,-0.694623 -0.2122189,-1.614198 0.4824045,-2.043499 0.6946234,-0.4293 1.6141977,-0.212219 2.0434985,0.482405 0.4293008,0.694623 0.2122188,1.614198 -0.4824046,2.043499 -0.6946233,0.4293 -1.6141976,0.212219 -2.0434984,-0.482405 z m 13.3740629,0.219453 c -0.55,-0.55 -1.642802,-1 -2.42845,-1 -0.785648,0 -1.591872,-1.113463 -1.791609,-2.474363 -0.323412,-2.203548 -0.0089,-2.141628 2.872895,0.565752 1.779829,1.672063 3.236053,3.235527 3.236053,3.474363 0,0.734952 -0.839684,0.483453 -1.888889,-0.565752 z m 47.959272,-0.219453 c -0.4293,-0.694623 -0.212219,-1.614198 0.482405,-2.043499 0.694623,-0.4293 1.614198,-0.212219 2.043499,0.482405 0.4293,0.694623 0.212219,1.614198 -0.482405,2.043499 -0.694623,0.4293 -1.614198,0.212219 -2.043499,-0.482405 z m 13.374063,0.219453 c -0.55,-0.55 -1.642802,-1 -2.42845,-1 -0.785648,0 -1.591872,-1.113463 -1.791609,-2.474363 -0.323412,-2.203548 -0.0089,-2.141628 2.872895,0.565752 1.779829,1.672063 3.236053,3.235527 3.236053,3.474363 0,0.734952 -0.839684,0.483453 -1.888889,-0.565752 z M 28.088556,56.756899 c -3.377878,-3.441807 -4.89781,-5.777355 -3.639622,-5.592692 2.486476,0.364936 9.19741,6.300564 8.224044,7.273928 -0.357413,0.357414 0.01841,1.455048 0.835184,2.439188 3.201624,3.85772 0.08441,1.487768 -5.419606,-4.120424 z m 3.911445,1.475521 c 0,-0.238836 -1.65,-1.888836 -3.666667,-3.666666 l -3.666667,-3.232419 3.232419,3.666667 c 3.021183,3.427052 4.100915,4.278117 4.100915,3.232418 z M 28.76137,30.765517 c -2.005682,-2.093483 -3.089312,-4.150814 -2.408065,-4.571847 0.681247,-0.421033 2.879643,0.947334 4.885327,3.040815 2.005682,2.093483 3.089312,4.150813 2.408065,4.571847 -0.681247,0.421033 -2.879643,-0.947334 -4.885327,-3.040815 z m 4.571964,2.133569 c 0,-0.238836 -1.65,-1.888836 -3.666666,-3.666666 l -3.666667,-3.232419 3.232419,3.666667 c 3.021182,3.427052 4.100914,4.278117 4.100914,3.232418 z m 27.319893,0.412499 c -0.460618,-0.745295 -1.308812,-1.063788 -1.884876,-0.70776 -1.328428,0.821013 -7.191512,-5.343441 -7.576397,-7.965835 -0.159131,-1.084228 -0.167344,-1.971323 -0.01825,-1.971323 0.149092,0 2.920927,2.7 6.159632,6.000001 3.238706,3.3 5.49904,6 5.022967,6 -0.476073,0 -1.242457,-0.609787 -1.703075,-1.355083 z m -1.986559,-1.745832 c 0,-0.238836 -1.65,-1.888836 -3.666666,-3.666667 l -3.666667,-3.232419 3.232419,3.666667 c 3.021182,3.427052 4.100914,4.278118 4.100914,3.232419 z M 5.4247231,18.097281 c -2.7073799,-2.881875 -2.7693004,-3.196307 -0.565752,-2.872895 1.3608994,0.199737 2.4835501,0.905961 2.4947795,1.569387 0.011227,0.663425 0.4966395,1.956228 1.0786894,2.872894 1.694914,2.66931 0.2814721,1.931795 -3.0077169,-1.569386 z m 61.3333349,0 c -2.70738,-2.881875 -2.7693,-3.196307 -0.565752,-2.872895 1.3609,0.199737 2.483551,0.905961 2.49478,1.569387 0.0112,0.663425 0.496639,1.956228 1.07869,2.872894 1.694913,2.66931 0.281472,1.931795 -3.007718,-1.569386 z M 6.0703821,8.1138805 C 5.6410812,7.4192572 5.8581632,6.4996829 6.5527866,6.0703821 7.24741,5.6410812 8.1669843,5.8581632 8.5962851,6.5527866 9.0255859,7.24741 8.8085039,8.1669843 8.1138805,8.5962851 7.4192572,9.0255859 6.4996829,8.8085039 6.0703821,8.1138805 Z M 19.444445,8.3333336 c -0.55,-0.55 -1.642802,-1 -2.42845,-1 -0.785648,0 -1.591872,-1.1134631 -1.791609,-2.4743625 -0.323412,-2.2035484 -0.009,-2.1416279 2.872895,0.565752 1.779829,1.672063 3.236053,3.2355261 3.236053,3.4743625 0,0.7349519 -0.839684,0.4834535 -1.888889,-0.565752 z M 67.403717,8.1138805 C 66.974417,7.4192572 67.191498,6.4996829 67.886122,6.0703821 68.580745,5.6410812 69.50032,5.8581632 69.929621,6.5527866 70.358921,7.24741 70.14184,8.1669843 69.447216,8.5962851 68.752593,9.0255859 67.833018,8.8085039 67.403717,8.1138805 Z M 80.77778,8.3333336 c -0.55,-0.55 -1.642802,-1 -2.42845,-1 -0.785648,0 -1.591872,-1.1134631 -1.791609,-2.4743625 -0.323412,-2.2035484 -0.009,-2.1416279 2.872895,0.565752 1.779829,1.672063 3.236053,3.2355261 3.236053,3.4743625 0,0.7349519 -0.839684,0.4834535 -1.888889,-0.565752 z"
         id="path297" />
      <path
         style="fill:#cbb32b;fill-opacity:1;stroke-width:1.33333"
         d="M 6.2180782,78.894293 C 3.2024304,75.746636 2.567245,74.006918 2.9096148,69.832702 3.3157312,64.881277 3.547942,64.649066 8.4993665,64.24295 c 4.1742165,-0.342369 5.9139335,0.292816 9.0615915,3.308463 3.243083,3.107071 3.829412,4.629641 3.500635,9.090385 -0.385111,5.225038 -0.528092,5.368019 -5.75313,5.75313 -4.460744,0.328777 -5.9833151,-0.257552 -9.0903848,-3.500635 z M 18.666667,76.000002 c 0,-3.555556 -0.444444,-4 -4,-4 -3.555556,0 -4,0.444444 -4,4 0,3.555556 0.444444,4.000001 4,4.000001 3.555556,0 4,-0.444445 4,-4.000001 z M 7.8029049,73.66286 l -0.47719,-5.00381 5.3371431,0.473711 c 4.058487,0.36022 4.978467,0.09828 3.84002,-1.093315 -0.823419,-0.861863 -3.523418,-1.373319 -6.000001,-1.136567 -3.8290364,0.36604 -4.5676385,0.996015 -4.9356416,4.209754 -0.4547516,3.971305 0.4294488,7.554036 1.8642991,7.554036 0.4667081,0 0.6338248,-2.251715 0.3713704,-5.003809 z m 59.7485081,5.231433 c -3.015647,-3.147657 -3.650832,-4.887375 -3.308463,-9.061591 0.406116,-4.951425 0.638327,-5.183636 5.589752,-5.589752 4.174216,-0.342369 5.913934,0.292816 9.061591,3.308463 3.243083,3.107071 3.829412,4.629641 3.500635,9.090385 -0.385111,5.225038 -0.528092,5.368019 -5.75313,5.75313 -4.460744,0.328777 -5.983314,-0.257552 -9.090385,-3.500635 z m 12.44859,-2.894291 c 0,-3.555556 -0.444445,-4 -4.000001,-4 -3.555556,0 -4,0.444444 -4,4 0,3.555556 0.444444,4.000001 4,4.000001 3.555556,0 4.000001,-0.444445 4.000001,-4.000001 z M 69.136239,73.66286 68.65905,68.65905 l 5.337143,0.473711 c 4.058487,0.36022 4.978467,0.09828 3.84002,-1.093315 -0.823419,-0.861863 -3.523419,-1.373319 -6,-1.136567 -3.829038,0.36604 -4.567639,0.996015 -4.935643,4.209754 -0.454751,3.971305 0.429449,7.554036 1.8643,7.554036 0.466708,0 0.633824,-2.251715 0.371369,-5.003809 z m -45.136238,1.003809 c 0,-0.825397 7.111111,-1.333333 18.666667,-1.333333 11.555556,0 18.666667,0.507936 18.666667,1.333333 0,0.825397 -7.111111,1.333333 -18.666667,1.333333 -11.555556,0 -18.666667,-0.507936 -18.666667,-1.333333 z m 4.941155,-18.387989 -6.376738,-6.474086 0.384457,-13.23563 0.384459,-13.23563 13.341054,-0.376383 13.341055,-0.376382 6.376737,6.474087 6.376738,6.474086 -0.384457,13.23563 -0.384459,13.23563 -13.341054,0.376383 -13.341055,0.376382 z M 60.000002,48.000002 V 36.000001 h -12 -12.000001 v 12.000001 12 h 12.000001 12 z M 29.71942,30.12802 26.000001,26.000001 30.07296,29.666668 c 3.832349,3.450058 4.811973,3.666666 16.582788,3.666666 h 12.50983 L 55.290455,29.288578 C 51.44304,25.272742 51.32447,25.246525 38.707667,25.621911 l -12.707666,0.37809 -0.386086,12.538648 c -0.373901,12.143018 -0.268725,12.661338 3.333334,16.427058 l 3.719419,3.88841 0.386085,-12.29904 C 33.424278,34.719825 33.298581,34.100374 29.71942,30.12802 Z M 8.0000002,42.666668 c 0,-11.555556 0.5079366,-18.666667 1.3333334,-18.666667 0.8253964,0 1.3333334,7.111111 1.3333334,18.666667 0,11.555556 -0.507937,18.666667 -1.3333334,18.666667 -0.8253968,0 -1.3333334,-7.111111 -1.3333334,-18.666667 z m 66.6666688,0 c 0,-11.555556 0.507936,-18.666667 1.333333,-18.666667 0.825398,0 1.333334,7.111111 1.333334,18.666667 0,11.555556 -0.507936,18.666667 -1.333334,18.666667 -0.825397,0 -1.333333,-7.111111 -1.333333,-18.666667 z M 6.2180782,17.560958 C 3.2024304,14.4133 2.567245,12.673583 2.9096148,8.4993665 3.3157312,3.547942 3.547942,3.3157312 8.4993665,2.9096148 12.673583,2.567245 14.4133,3.2024304 17.560958,6.2180782 c 3.243083,3.1070697 3.829412,4.6296408 3.500635,9.0903848 -0.385111,5.225038 -0.528092,5.368019 -5.75313,5.75313 C 10.847719,21.39037 9.3251479,20.804041 6.2180782,17.560958 Z M 18.666667,14.666667 c 0,-3.555556 -0.444444,-4 -4,-4 -3.555556,0 -4,0.444444 -4,4 0,3.555556 0.444444,4 4,4 3.555556,0 4,-0.444444 4,-4 z M 7.8029049,12.329524 7.3257149,7.3257149 12.662858,7.799425 c 4.058487,0.3602202 4.978467,0.098288 3.84002,-1.0933137 C 15.679459,5.8442482 12.97946,5.3327928 10.502877,5.5695438 6.6738406,5.9355838 5.9352385,6.5655593 5.5672354,9.7792972 5.1124838,13.750603 5.9966842,17.333334 7.4315345,17.333334 c 0.4667081,0 0.6338248,-2.251715 0.3713704,-5.00381 z M 67.551413,17.560958 C 64.535766,14.4133 63.900581,12.673583 64.24295,8.4993665 64.649066,3.547942 64.881277,3.3157312 69.832702,2.9096148 c 4.174216,-0.3423698 5.913934,0.2928156 9.061591,3.3084634 3.243083,3.1070697 3.829412,4.6296408 3.500635,9.0903848 -0.385111,5.225038 -0.528092,5.368019 -5.75313,5.75313 -4.460744,0.328777 -5.983314,-0.257552 -9.090385,-3.500635 z m 12.44859,-2.894291 c 0,-3.555556 -0.444445,-4 -4.000001,-4 -3.555556,0 -4,0.444444 -4,4 0,3.555556 0.444444,4 4,4 3.555556,0 4.000001,-0.444444 4.000001,-4 z M 69.136239,12.329524 68.65905,7.3257149 73.996193,7.799425 c 4.058487,0.3602202 4.978467,0.098288 3.84002,-1.0933137 -0.823419,-0.8618631 -3.523419,-1.3733185 -6,-1.1365675 -3.829038,0.36604 -4.567639,0.9960155 -4.935643,4.2097534 -0.454751,3.9713058 0.429449,7.5540368 1.8643,7.5540368 0.466708,0 0.633824,-2.251715 0.371369,-5.00381 z M 24.000001,10.666667 c 0,-0.8253968 7.111111,-1.3333334 18.666667,-1.3333334 11.555556,0 18.666667,0.5079366 18.666667,1.3333334 C 61.333335,11.492064 54.222224,12 42.666668,12 31.111112,12 24.000001,11.492064 24.000001,10.666667 Z"
         id="path295" />
    </g>
  </g>
</svg>
