<?xml version="1.0" encoding="UTF-8" standalone="no"?>
<!-- Uploaded to: SVG Repo, www.svgrepo.com, Generator: SVG Repo Mixer Tools -->

<svg
   fill="#000000"
   height="800"
   width="800"
   version="1.1"
   id="Layer_1"
   viewBox="0 0 512 512"
   xml:space="preserve"
   sodipodi:docname="approve-bill-svgrepo-com.svg"
   xmlns:inkscape="http://www.inkscape.org/namespaces/inkscape"
   xmlns:sodipodi="http://sodipodi.sourceforge.net/DTD/sodipodi-0.dtd"
   xmlns="http://www.w3.org/2000/svg"
   xmlns:svg="http://www.w3.org/2000/svg"><defs
   id="defs23" /><sodipodi:namedview
   id="namedview21"
   pagecolor="#ffffff"
   bordercolor="#000000"
   borderopacity="0.25"
   inkscape:showpageshadow="2"
   inkscape:pageopacity="0.0"
   inkscape:pagecheckerboard="0"
   inkscape:deskcolor="#d1d1d1"
   showgrid="false" />
<g
   id="g6"
   style="fill:#cbb32b;fill-opacity:1">
	<g
   id="g4"
   style="fill:#cbb32b;fill-opacity:1">
		<path
   d="M 434.087,42.402 H 340.803 312.485 C 305.306,17.472 282.542,0 256,0 229.458,0 206.695,17.472 199.515,42.402 H 171.197 77.913 c -4.391,0 -7.95,3.559 -7.95,7.95 V 504.05 c 0,4.392 3.56,7.95 7.95,7.95 h 356.174 c 4.391,0 7.95,-3.559 7.95,-7.95 V 50.352 c 0,-4.392 -3.559,-7.95 -7.95,-7.95 z M 179.147,84.273 V 58.302 h 26.688 c 0.038,0 0.075,-0.005 0.113,-0.005 0.174,-0.002 0.347,-0.013 0.518,-0.027 0.092,-0.007 0.184,-0.014 0.276,-0.023 0.172,-0.019 0.34,-0.047 0.509,-0.077 0.092,-0.017 0.184,-0.032 0.276,-0.051 0.159,-0.035 0.315,-0.077 0.471,-0.121 0.098,-0.028 0.195,-0.053 0.29,-0.085 0.145,-0.047 0.286,-0.102 0.427,-0.156 0.101,-0.039 0.202,-0.077 0.301,-0.12 0.134,-0.058 0.262,-0.124 0.391,-0.189 0.1,-0.05 0.2,-0.099 0.297,-0.154 0.127,-0.071 0.25,-0.148 0.373,-0.227 0.091,-0.057 0.183,-0.113 0.272,-0.175 0.125,-0.086 0.244,-0.179 0.364,-0.272 0.08,-0.061 0.16,-0.122 0.237,-0.187 0.122,-0.102 0.237,-0.211 0.353,-0.321 0.068,-0.065 0.137,-0.127 0.202,-0.194 0.115,-0.117 0.222,-0.239 0.329,-0.363 0.059,-0.069 0.122,-0.137 0.179,-0.208 0.101,-0.124 0.194,-0.253 0.287,-0.384 0.057,-0.08 0.116,-0.158 0.17,-0.24 0.082,-0.124 0.157,-0.252 0.232,-0.382 0.056,-0.097 0.115,-0.194 0.166,-0.294 0.061,-0.118 0.118,-0.239 0.174,-0.36 0.055,-0.12 0.111,-0.238 0.161,-0.361 0.043,-0.108 0.082,-0.218 0.121,-0.329 0.05,-0.142 0.1,-0.285 0.141,-0.43 0.03,-0.102 0.054,-0.206 0.079,-0.31 0.038,-0.156 0.074,-0.312 0.104,-0.472 0.007,-0.04 0.019,-0.08 0.026,-0.12 3.479,-20.726 21.278,-35.768 42.324,-35.768 21.045,0 38.846,15.042 42.324,35.767 0.007,0.044 0.02,0.086 0.028,0.129 0.024,0.13 0.053,0.26 0.084,0.388 0.028,0.118 0.057,0.235 0.09,0.351 0.035,0.123 0.073,0.243 0.113,0.364 0.041,0.122 0.086,0.243 0.133,0.362 0.042,0.107 0.085,0.213 0.131,0.318 0.058,0.13 0.121,0.258 0.185,0.385 0.046,0.089 0.09,0.178 0.139,0.265 0.078,0.14 0.162,0.275 0.248,0.408 0.046,0.071 0.088,0.142 0.136,0.212 0.103,0.151 0.213,0.294 0.325,0.436 0.038,0.049 0.074,0.101 0.115,0.148 0.156,0.187 0.318,0.368 0.49,0.539 0.001,10e-4 0.002,0.002 0.003,0.003 0.172,0.171 0.351,0.333 0.536,0.488 0.071,0.059 0.147,0.112 0.221,0.17 0.116,0.09 0.231,0.18 0.352,0.263 0.094,0.066 0.193,0.125 0.29,0.185 0.106,0.067 0.212,0.134 0.321,0.195 0.105,0.059 0.212,0.113 0.32,0.167 0.11,0.056 0.221,0.11 0.334,0.161 0.108,0.049 0.217,0.093 0.328,0.137 0.122,0.049 0.245,0.093 0.37,0.136 0.105,0.035 0.209,0.07 0.316,0.102 0.144,0.042 0.289,0.078 0.436,0.112 0.092,0.021 0.182,0.044 0.276,0.063 0.186,0.036 0.374,0.063 0.563,0.086 0.058,0.007 0.117,0.018 0.175,0.023 0.255,0.025 0.513,0.04 0.774,0.04 0.004,0 0.008,-10e-4 0.013,-10e-4 h 26.685 V 84.27 106.002 H 179.147 Z m -7.95,37.632 h 169.607 c 4.391,0 7.95,-3.559 7.95,-7.95 V 92.224 h 43.462 v 293.631 h -72.613 c -4.391,0 -7.95,3.559 -7.95,7.95 v 72.613 H 119.785 V 92.224 h 43.462 v 21.731 c -0.001,4.391 3.559,7.95 7.95,7.95 z m 209.774,279.851 -53.419,53.419 v -53.419 z m 45.166,94.343 H 85.863 V 58.302 h 77.383 v 18.021 h -51.412 c -4.391,0 -7.95,3.559 -7.95,7.95 v 390.095 c 0,4.392 3.56,7.95 7.95,7.95 h 207.768 c 0.262,0 0.524,-0.014 0.784,-0.039 0.12,-0.012 0.235,-0.034 0.354,-0.051 0.138,-0.02 0.278,-0.036 0.414,-0.064 0.136,-0.026 0.266,-0.064 0.399,-0.098 0.119,-0.03 0.239,-0.056 0.355,-0.091 0.129,-0.039 0.254,-0.088 0.382,-0.134 0.118,-0.042 0.236,-0.082 0.353,-0.129 0.119,-0.049 0.233,-0.107 0.349,-0.162 0.119,-0.056 0.24,-0.109 0.356,-0.172 0.111,-0.059 0.216,-0.127 0.324,-0.192 0.115,-0.069 0.231,-0.134 0.343,-0.209 0.118,-0.078 0.228,-0.165 0.34,-0.25 0.095,-0.071 0.192,-0.137 0.284,-0.212 0.19,-0.156 0.371,-0.32 0.545,-0.493 0.012,-0.013 0.025,-0.022 0.037,-0.034 l 80.563,-80.563 c 0.011,-0.011 0.019,-0.022 0.03,-0.033 0.174,-0.176 0.34,-0.358 0.497,-0.549 0.075,-0.092 0.141,-0.189 0.212,-0.284 0.085,-0.113 0.173,-0.224 0.251,-0.341 0.075,-0.113 0.141,-0.23 0.211,-0.347 0.064,-0.106 0.13,-0.211 0.189,-0.32 0.064,-0.12 0.119,-0.243 0.176,-0.365 0.053,-0.113 0.109,-0.224 0.158,-0.339 0.05,-0.12 0.089,-0.242 0.133,-0.363 0.044,-0.123 0.092,-0.246 0.13,-0.372 0.037,-0.122 0.064,-0.245 0.094,-0.368 0.032,-0.128 0.068,-0.255 0.094,-0.386 0.029,-0.144 0.046,-0.288 0.066,-0.434 0.016,-0.112 0.037,-0.223 0.049,-0.336 0.025,-0.262 0.04,-0.526 0.039,-0.789 V 84.273 c 0,-4.392 -3.56,-7.95 -7.95,-7.95 H 348.752 V 58.302 h 77.383 v 437.797 z"
   id="path2"
   style="fill:#cbb32b;fill-opacity:1" />
	</g>
</g>
<g
   id="g12"
   style="fill:#cbb32b;fill-opacity:1">
	<g
   id="g10"
   style="fill:#cbb32b;fill-opacity:1">
		<path
   d="m 256,152.646 c -55.821,0 -101.234,45.413 -101.234,101.234 0,55.821 45.413,101.234 101.234,101.234 55.821,0 101.234,-45.413 101.234,-101.234 0,-55.821 -45.413,-101.234 -101.234,-101.234 z m 0,186.567 c -47.053,0 -85.333,-38.28 -85.333,-85.333 0,-47.053 38.28,-85.333 85.333,-85.333 47.053,0 85.333,38.28 85.333,85.333 0,47.053 -38.28,85.333 -85.333,85.333 z"
   id="path8"
   style="fill:#cbb32b;fill-opacity:1" />
	</g>
</g>
<g
   id="g18"
   style="fill:#cbb32b;fill-opacity:1">
	<g
   id="g16"
   style="fill:#cbb32b;fill-opacity:1">
		<path
   d="m 304.023,212.216 c -3.105,-3.104 -8.139,-3.104 -11.243,0 l -68.581,68.583 -19.82,-19.82 c -3.105,-3.104 -8.139,-3.104 -11.243,0 -3.105,3.106 -3.105,8.139 0,11.244 l 25.441,25.441 c 1.552,1.552 3.587,2.328 5.621,2.328 2.034,0 4.07,-0.776 5.621,-2.328 l 74.203,-74.203 c 3.106,-3.106 3.106,-8.139 0.001,-11.245 z"
   id="path14"
   style="fill:#cbb32b;fill-opacity:1" />
	</g>
</g>
</svg>
