<?xml version="1.0" encoding="UTF-8" standalone="no"?>
<!-- Created with Inkscape (http://www.inkscape.org/) -->

<svg
   version="1.1"
   id="svg62"
   width="153.33333"
   height="129.33333"
   viewBox="0 0 153.33333 129.33333"
   sodipodi:docname="usuario-config-amarillo.svg"
   inkscape:version="1.2.1 (9c6d41e410, 2022-07-14)"
   xmlns:inkscape="http://www.inkscape.org/namespaces/inkscape"
   xmlns:sodipodi="http://sodipodi.sourceforge.net/DTD/sodipodi-0.dtd"
   xmlns="http://www.w3.org/2000/svg"
   xmlns:svg="http://www.w3.org/2000/svg">
  <defs
     id="defs66" />
  <sodipodi:namedview
     id="namedview64"
     pagecolor="#ffffff"
     bordercolor="#000000"
     borderopacity="0.25"
     inkscape:showpageshadow="2"
     inkscape:pageopacity="0.0"
     inkscape:pagecheckerboard="0"
     inkscape:deskcolor="#d1d1d1"
     showgrid="false"
     inkscape:zoom="6.4716497"
     inkscape:cx="76.641972"
     inkscape:cy="64.589404"
     inkscape:window-width="1920"
     inkscape:window-height="1017"
     inkscape:window-x="-8"
     inkscape:window-y="-8"
     inkscape:window-maximized="1"
     inkscape:current-layer="g68" />
  <g
     inkscape:groupmode="layer"
     inkscape:label="Image"
     id="g68">
    <path
       style="fill:#2ed9ad;fill-opacity:1;stroke-width:0.333333"
       d="m 110.64633,122.94909 -0.97241,-6.0509 -1.84304,-0.8039 c -3.29246,-1.43612 -5.80697,-2.81029 -7.62357,-4.16627 l -1.780526,-1.32905 -5.31467,1.33032 -5.314655,1.33032 -2.82147,-4.75104 c -1.551811,-2.61307 -2.808214,-4.88399 -2.792011,-5.04648 0.0162,-0.16248 1.940541,-2.02043 4.276311,-4.128751 l 4.24685,-3.833343 0.009,-5.097435 0.009,-5.097433 -4.28523,-3.899843 c -2.35687,-2.144914 -4.285224,-4.01375 -4.285224,-4.15297 0,-0.21527 5.181844,-9.13298 5.561694,-9.57142 0.0726,-0.08384 2.41347,0.406847 5.201845,1.090417 2.78839,0.68357 5.22383,1.239666 5.41209,1.23577 0.18827,-0.0039 1.155865,-0.61838 2.150216,-1.36552 0.99434,-0.747137 3.24031,-2.033574 4.99102,-2.858744 1.75072,-0.825166 3.40473,-1.615576 3.67558,-1.756463 0.3413,-0.177537 0.80169,-2.08802 1.5,-6.22459 l 1.00755,-5.968433 6.08333,-0.09085 c 3.34583,-0.04997 6.08506,0.02503 6.08718,0.166666 0.0154,1.02784 2.02543,11.913147 2.23338,12.09462 0.14453,0.126123 0.93777,0.487387 1.76277,0.802813 2.20034,0.841267 5.59604,2.743264 7.5,4.200894 l 1.66667,1.275963 5,-1.30663 c 2.75,-0.718647 5.17219,-1.30742 5.38264,-1.308387 0.2773,-0.0013 4.64136,7.07538 5.9602,9.664913 0.0467,0.09167 -1.88635,1.964127 -4.29564,4.161024 l -4.38053,3.994353 0.0327,4.992673 0.0327,4.992672 4.3006,3.940693 c 2.36534,2.167371 4.27512,4.049661 4.24398,4.182851 -0.04,0.17091 -5.07994,8.86366 -5.58535,9.63339 -0.0232,0.0354 -2.43829,-0.53914 -5.3668,-1.27671 -3.01397,-0.75909 -5.48016,-1.22096 -5.68312,-1.06433 -2.12153,1.63721 -5.94985,3.91109 -8.04463,4.77821 -1.42824,0.59122 -2.64107,1.1145 -2.69517,1.16286 -0.0949,0.0848 -2.05664,11.4109 -2.06446,11.91898 -0.002,0.1375 -2.74939,0.25 -6.10506,0.25 h -6.10122 l -0.97241,-6.05091 z m 11.34151,-17.73554 c 2.54834,-0.68073 4.44657,-1.78205 6.58166,-3.81858 4.22061,-4.025772 5.64643,-10.570022 3.59929,-16.520109 -3.36544,-9.78184 -16.25142,-13.08094 -24.61139,-6.301066 -5.1264,4.157466 -6.69594,12.796646 -3.49193,19.220473 1.66547,3.339152 4.875,6.009542 8.68827,7.228792 2.29887,0.73504 6.84448,0.82881 9.2341,0.19049 z M 0.48785366,109.64913 c 0,-12.328202 0.203521,-14.019744 2.18364724,-18.149132 3.096614,-6.457724 7.2111333,-9.41924 19.8163521,-14.263267 9.392721,-3.609503 18.718406,-5.984243 27.666666,-7.045179 5.099416,-0.604604 15.35066,-1.00152 15.90434,-0.615797 0.30645,0.21349 0.165596,1.024093 -0.581804,3.348226 -0.54238,1.6866 -1.239013,4.493674 -1.548076,6.237947 l -0.56193,3.171403 -3.022934,2.8e-4 c -10.869366,10e-4 -23.391726,2.67064 -35.255486,7.51611 -7.557832,3.086817 -9.054965,4.126435 -10.671699,7.410487 -1.057773,2.148651 -1.092486,2.351581 -1.094089,6.396082 l -0.0017,4.17704 25.356443,0.0854 25.356446,0.0854 0.596444,1.9146 c 0.80753,2.59218 2.496363,6.21567 3.972543,8.52331 0.669966,1.04733 1.218123,1.97632 1.218123,2.06443 0,0.0881 -15.6,0.16019 -34.666666,0.16019 H 0.48785366 Z M 55.987852,58.617852 c -2.270336,-0.418993 -5.653953,-1.538827 -7.666666,-2.53734 -4.330034,-2.148143 -9.31259,-6.798587 -11.837277,-11.048263 -4.76752,-8.024923 -5.303707,-19.691873 -1.301223,-28.313423 3.69603,-7.9614261 10.2544,-13.4575802 18.805166,-15.75941705 3.667063,-0.9871609 11.437957,-1.0766499 15.333333,-0.1765775 9.07453,2.09677645 17.091994,9.04456845 20.300594,17.59212755 1.449885,3.862449 1.968005,7.571551 1.763565,12.62504 -0.21536,5.32354 -0.781505,7.76589 -2.756185,11.89001 -3.76339,7.85987 -11.206724,13.74151 -19.575864,15.468623 -3.329243,0.68705 -10.02718,0.819936 -13.065443,0.25922 z m 11.597067,-13.31722 c 4.850679,-1.634073 8.562006,-5.3694 10.252336,-10.31862 1.00195,-2.933675 1.018193,-7.594246 0.03711,-10.648679 -1.74305,-5.426697 -6.345983,-9.733111 -11.729116,-10.973531 -3.62268,-0.834764 -8.512437,-0.285658 -11.90542,1.336945 -3.548373,1.696914 -7.481273,6.695347 -8.398463,10.673845 -0.577527,2.505136 -0.426574,6.989307 0.316243,9.394274 1.73626,5.621353 6.904773,10.195316 12.663576,11.206846 2.46528,0.433027 6.374944,0.133647 8.763734,-0.67108 z"
       id="path206" />
  </g>
</svg>
