<svg xmlns="http://www.w3.org/2000/svg" xmlns:xlink="http://www.w3.org/1999/xlink" width="500" zoomAndPan="magnify" viewBox="0 0 375 374.999991" height="500" preserveAspectRatio="xMidYMid meet" version="1.2"><defs><clipPath id="a39f276d7f"><path d="M 18 37.5 L 375 37.5 L 375 317 L 18 317 Z M 18 37.5 "/></clipPath><clipPath id="a10cf2377f"><path d="M 0 73 L 302 73 L 302 333.75 L 0 333.75 Z M 0 73 "/></clipPath></defs><g id="3233874442"><g clip-rule="nonzero" clip-path="url(#a39f276d7f)"><path style=" stroke:none;fill-rule:nonzero;fill:#2ed9ad;fill-opacity:1;" d="M 368.734375 37.820312 C 368.492188 37.820312 368.261719 37.878906 368.042969 38 L 298.28125 73.160156 L 262.078125 55.78125 C 261.667969 55.574219 261.183594 55.574219 260.773438 55.769531 L 201.476562 83.617188 C 200.714844 83.980469 200.386719 84.886719 200.738281 85.648438 C 201.101562 86.410156 202.007812 86.734375 202.769531 86.386719 L 261.414062 58.839844 L 297.640625 76.230469 C 298.0625 76.4375 298.570312 76.4375 298.992188 76.21875 L 369.421875 40.722656 C 370.183594 40.359375 370.511719 39.453125 370.148438 38.691406 C 369.894531 38.148438 369.339844 37.808594 368.734375 37.820312 Z M 368.238281 93.78125 C 367.996094 93.78125 367.765625 93.84375 367.550781 93.953125 L 301.808594 125.484375 L 230.917969 117.507812 C 230.628906 117.472656 230.328125 117.519531 230.0625 117.652344 L 179.914062 142.816406 C 179.152344 143.179688 178.8125 144.085938 179.175781 144.847656 C 179.539062 145.609375 180.445312 145.949219 181.207031 145.585938 C 181.230469 145.574219 181.253906 145.5625 181.277344 145.550781 L 231.015625 120.589844 L 297.144531 128.023438 C 297.070312 128.058594 297.035156 128.074219 296.960938 128.109375 C 294.207031 129.4375 290.773438 131.191406 287.402344 132.945312 C 280.886719 136.328125 275.046875 139.480469 274.636719 139.710938 L 246.597656 136.011719 C 246.234375 135.964844 245.882812 136.050781 245.570312 136.242188 L 156.792969 193.460938 L 127.300781 186.089844 C 126.839844 185.96875 126.34375 186.078125 125.96875 186.378906 L 97.445312 209.527344 C 96.78125 210.03125 96.648438 210.988281 97.15625 211.652344 C 97.664062 212.316406 98.617188 212.449219 99.28125 211.941406 C 99.304688 211.917969 99.332031 211.90625 99.355469 211.882812 L 127.289062 189.21875 L 156.683594 196.570312 C 157.09375 196.675781 157.527344 196.605469 157.890625 196.375 L 246.742188 139.09375 L 274.710938 142.792969 C 275.023438 142.84375 275.351562 142.78125 275.640625 142.625 C 275.640625 142.625 282.082031 139.132812 288.804688 135.640625 C 292.164062 133.898438 295.570312 132.144531 298.28125 130.851562 C 299.632812 130.199219 300.804688 129.667969 301.675781 129.304688 C 302.109375 129.125 302.472656 128.980469 302.714844 128.90625 C 302.96875 128.820312 303.1875 128.832031 302.910156 128.832031 C 303.621094 128.832031 304.238281 128.339844 304.394531 127.636719 L 368.84375 96.71875 C 369.605469 96.367188 369.953125 95.472656 369.605469 94.699219 C 369.375 94.132812 368.832031 93.78125 368.238281 93.78125 Z M 372.925781 140.824219 C 372.867188 140.824219 372.808594 140.824219 372.746094 140.835938 C 372.503906 140.859375 372.285156 140.945312 372.082031 141.078125 L 299.949219 186.488281 L 263.964844 179.066406 C 263.578125 178.980469 263.179688 179.054688 262.851562 179.261719 C 262.851562 179.261719 250.886719 186.667969 238.765625 194.332031 C 232.707031 198.164062 226.605469 202.066406 221.9375 205.160156 C 219.605469 206.710938 217.648438 208.050781 216.210938 209.078125 C 215.484375 209.597656 214.90625 210.03125 214.445312 210.40625 C 214.214844 210.589844 214.023438 210.769531 213.851562 210.941406 C 213.683594 211.109375 213.539062 211.207031 213.320312 211.628906 C 212.921875 212.367188 213.1875 213.296875 213.925781 213.695312 C 214.652344 214.09375 215.558594 213.839844 215.96875 213.128906 C 216.039062 213.054688 216.175781 212.933594 216.355469 212.777344 C 216.71875 212.472656 217.285156 212.0625 217.976562 211.566406 C 219.351562 210.578125 221.3125 209.246094 223.621094 207.710938 C 228.25 204.640625 234.316406 200.738281 240.371094 196.90625 C 252.214844 189.402344 263.445312 182.464844 263.929688 182.171875 L 299.921875 189.582031 C 300.308594 189.65625 300.710938 189.582031 301.035156 189.375 L 335.605469 167.621094 L 355.136719 192.167969 L 293.347656 242.339844 C 292.671875 242.847656 292.539062 243.804688 293.046875 244.480469 C 293.554688 245.15625 294.507812 245.289062 295.183594 244.78125 C 295.210938 244.757812 295.234375 244.734375 295.269531 244.722656 L 358.21875 193.59375 C 358.871094 193.074219 358.980469 192.121094 358.460938 191.457031 L 338.191406 165.988281 L 373.675781 143.640625 C 374.402344 143.207031 374.632812 142.273438 374.210938 141.550781 C 373.953125 141.101562 373.460938 140.824219 372.925781 140.824219 Z M 109.714844 154.289062 C 109.460938 154.300781 109.21875 154.375 108.988281 154.496094 L 34.714844 196.460938 C 33.976562 196.871094 33.722656 197.800781 34.132812 198.539062 C 34.546875 199.277344 35.476562 199.53125 36.214844 199.117188 C 36.214844 199.117188 36.226562 199.117188 36.226562 199.105469 L 109.917969 157.457031 L 146.433594 168.042969 C 147.242188 168.273438 148.089844 167.8125 148.332031 167.003906 C 148.558594 166.195312 148.101562 165.347656 147.292969 165.105469 L 110.160156 154.347656 C 110.015625 154.300781 109.871094 154.289062 109.714844 154.289062 Z M 275.992188 214.007812 C 275.703125 214.023438 275.421875 214.117188 275.183594 214.277344 L 227.28125 246.027344 C 226.824219 246.328125 226.570312 246.863281 226.605469 247.40625 L 228.683594 273.34375 L 156.886719 313.230469 C 156.152344 313.640625 155.898438 314.570312 156.308594 315.308594 C 156.71875 316.046875 157.636719 316.300781 158.375 315.902344 L 231.015625 275.542969 C 231.535156 275.253906 231.839844 274.683594 231.789062 274.09375 L 229.710938 248.070312 L 276.863281 216.824219 C 277.574219 216.378906 277.792969 215.4375 277.34375 214.722656 C 277.054688 214.25 276.535156 213.984375 275.992188 214.007812 Z M 181.785156 245.761719 C 181.546875 245.773438 181.316406 245.847656 181.109375 245.96875 L 103.078125 289.019531 C 102.328125 289.40625 102.039062 290.324219 102.414062 291.074219 C 102.800781 291.824219 103.71875 292.113281 104.46875 291.738281 C 104.492188 291.726562 104.527344 291.714844 104.550781 291.691406 L 182.585938 248.636719 C 183.320312 248.25 183.613281 247.320312 183.226562 246.582031 C 182.945312 246.039062 182.378906 245.726562 181.785156 245.761719 Z M 98.386719 247.371094 C 98.144531 247.382812 97.917969 247.453125 97.699219 247.574219 L 19.667969 290.617188 C 18.917969 291.003906 18.613281 291.921875 19 292.671875 C 19.386719 293.421875 20.308594 293.722656 21.054688 293.335938 C 21.082031 293.324219 21.117188 293.300781 21.140625 293.285156 L 99.171875 250.234375 C 99.910156 249.835938 100.199219 248.917969 99.800781 248.179688 C 99.535156 247.660156 98.980469 247.34375 98.386719 247.371094 Z M 98.386719 247.371094 "/></g><g clip-rule="nonzero" clip-path="url(#a10cf2377f)"><path style=" stroke:none;fill-rule:nonzero;fill:#cbb32b;fill-opacity:1;" d="M 198.261719 73.921875 C 190.066406 73.921875 183.417969 80.570312 183.417969 88.765625 C 183.417969 96.960938 190.066406 103.609375 198.261719 103.609375 C 206.457031 103.609375 213.105469 96.960938 213.105469 88.765625 C 213.105469 80.570312 206.457031 73.921875 198.261719 73.921875 Z M 179.238281 131.757812 C 171.042969 131.757812 164.394531 138.40625 164.394531 146.601562 C 164.394531 154.796875 171.042969 161.445312 179.238281 161.445312 C 187.429688 161.445312 194.078125 154.796875 194.078125 146.601562 C 194.066406 138.40625 187.429688 131.757812 179.238281 131.757812 Z M 31.597656 187.320312 C 23.402344 187.320312 16.753906 193.96875 16.753906 202.164062 C 16.753906 210.359375 23.402344 217.007812 31.597656 217.007812 C 39.789062 217.007812 46.4375 210.359375 46.4375 202.164062 C 46.4375 193.957031 39.789062 187.320312 31.597656 187.320312 Z M 208.148438 200.253906 C 199.953125 200.253906 193.304688 206.902344 193.304688 215.097656 C 193.304688 223.292969 199.953125 229.941406 208.148438 229.941406 C 216.34375 229.941406 222.992188 223.292969 222.992188 215.097656 C 222.992188 206.902344 216.34375 200.253906 208.148438 200.253906 Z M 85.757812 203.867188 C 77.5625 203.867188 70.914062 210.515625 70.914062 218.710938 C 70.914062 226.90625 77.5625 233.554688 85.757812 233.554688 C 93.953125 233.554688 100.601562 226.90625 100.601562 218.710938 C 100.601562 210.515625 93.953125 203.867188 85.757812 203.867188 Z M 286.351562 235.078125 C 278.15625 235.078125 271.507812 241.726562 271.507812 249.917969 C 271.507812 258.113281 278.15625 264.761719 286.351562 264.761719 C 294.542969 264.761719 301.191406 258.113281 301.191406 249.917969 C 301.191406 241.726562 294.542969 235.078125 286.351562 235.078125 Z M 14.855469 280.160156 C 6.660156 280.160156 0.0117188 286.808594 0.0117188 295.003906 C 0.0117188 303.199219 6.660156 309.847656 14.855469 309.847656 C 23.050781 309.847656 29.699219 303.199219 29.699219 295.003906 C 29.699219 286.808594 23.050781 280.160156 14.855469 280.160156 Z M 92.476562 280.160156 C 84.28125 280.160156 77.636719 286.808594 77.636719 295.003906 C 77.636719 303.199219 84.28125 309.847656 92.476562 309.847656 C 100.671875 309.847656 107.320312 303.199219 107.320312 295.003906 C 107.320312 286.808594 100.671875 280.160156 92.476562 280.160156 Z M 145.742188 303.753906 C 137.550781 303.753906 130.902344 310.402344 130.902344 318.597656 C 130.902344 326.792969 137.550781 333.4375 145.742188 333.4375 C 153.9375 333.4375 160.585938 326.792969 160.585938 318.597656 C 160.585938 310.402344 153.9375 303.753906 145.742188 303.753906 Z M 145.742188 303.753906 "/></g></g></svg>