<svg xmlns="http://www.w3.org/2000/svg" xmlns:xlink="http://www.w3.org/1999/xlink" width="500" zoomAndPan="magnify" viewBox="0 0 375 374.999991" height="500" preserveAspectRatio="xMidYMid meet" version="1.2"><defs><clipPath id="1fb20c9612"><path d="M 4.773438 1 L 370 1 L 370 374 L 4.773438 374 Z M 4.773438 1 "/></clipPath></defs><g id="5bb8194d84"><g clip-rule="nonzero" clip-path="url(#1fb20c9612)"><path style=" stroke:none;fill-rule:nonzero;fill:#2ed9ad;fill-opacity:1;" d="M 5.691406 141.910156 C 16.109375 100.6875 39.84375 65.617188 71.621094 40.863281 C 103.449219 16.058594 143.265625 1.625 185.800781 1.625 C 192.628906 1.625 199.460938 2.011719 206.339844 2.785156 C 213.121094 3.511719 219.902344 4.675781 226.636719 6.175781 L 225.472656 11.3125 C 218.980469 9.859375 212.394531 8.746094 205.757812 8.019531 C 199.167969 7.292969 192.484375 6.902344 185.800781 6.902344 C 144.429688 6.902344 105.773438 20.953125 74.867188 45.027344 C 44.011719 69.054688 20.902344 103.15625 10.828125 143.21875 Z M 242.378906 241.410156 C 234.96875 249.113281 226.152344 255.167969 216.558594 259.285156 C 206.917969 263.402344 196.457031 265.632812 185.800781 265.632812 C 174.027344 265.632812 162.546875 262.964844 152.132812 258.027344 C 141.765625 253.085938 132.464844 245.867188 125.054688 236.710938 L 129.171875 233.367188 C 136.050781 241.894531 144.71875 248.628906 154.410156 253.230469 C 164.097656 257.832031 174.804688 260.300781 185.800781 260.300781 C 195.730469 260.300781 205.515625 258.269531 214.476562 254.441406 C 223.4375 250.613281 231.671875 244.945312 238.550781 237.777344 Z M 192.097656 109.359375 C 212.394531 111.003906 230.414062 120.304688 243.300781 134.304688 C 256.183594 148.304688 264.03125 166.957031 264.03125 187.347656 C 264.03125 194.226562 263.113281 201.058594 261.367188 207.644531 C 259.574219 214.234375 256.960938 220.582031 253.519531 226.539062 L 248.917969 223.875 C 252.164062 218.351562 254.585938 212.441406 256.234375 206.289062 C 257.878906 200.136719 258.753906 193.792969 258.753906 187.347656 C 258.753906 168.359375 251.4375 150.921875 239.425781 137.890625 C 227.363281 124.859375 210.601562 116.140625 191.660156 114.636719 Z M 112.652344 215.15625 C 110.957031 210.746094 109.648438 206.144531 108.824219 201.496094 C 107.953125 196.796875 107.515625 192.046875 107.515625 187.347656 C 107.515625 169.667969 113.425781 153.101562 123.648438 139.78125 C 133.820312 126.457031 148.257812 116.429688 165.355469 111.828125 L 166.714844 116.914062 C 150.824219 121.226562 137.308594 130.574219 127.816406 142.976562 C 118.320312 155.425781 112.796875 170.878906 112.796875 187.347656 C 112.796875 191.804688 113.234375 196.214844 114.007812 200.527344 C 114.785156 204.886719 115.996094 209.148438 117.59375 213.3125 Z M 157.21875 95.40625 C 161.917969 94.003906 166.617188 92.886719 171.363281 92.160156 C 176.109375 91.433594 180.953125 91.097656 185.800781 91.097656 C 212.34375 91.097656 236.421875 101.851562 253.859375 119.289062 C 271.25 136.679688 282.050781 160.753906 282.050781 187.347656 C 282.050781 203.917969 277.789062 219.902344 269.992188 233.949219 C 262.191406 248 250.90625 260.109375 236.90625 268.875 L 231.285156 259.964844 C 243.785156 252.117188 253.8125 241.363281 260.738281 228.863281 C 267.664062 216.367188 271.445312 202.125 271.445312 187.347656 C 271.445312 163.710938 261.851562 142.25 246.351562 126.75 C 230.851562 111.246094 209.4375 101.65625 185.800781 101.65625 C 181.4375 101.65625 177.128906 101.996094 172.914062 102.625 C 168.601562 103.304688 164.4375 104.273438 160.320312 105.53125 Z M 185.800781 283.601562 C 159.203125 283.601562 135.128906 272.847656 117.691406 255.410156 C 100.300781 238.019531 89.496094 213.945312 89.496094 187.347656 C 89.496094 169.667969 94.390625 152.617188 103.15625 137.9375 C 111.925781 123.261719 124.617188 110.957031 140.214844 102.578125 L 145.253906 111.878906 C 131.300781 119.335938 120.015625 130.332031 112.214844 143.363281 C 104.417969 156.394531 100.105469 171.558594 100.105469 187.347656 C 100.105469 210.988281 109.699219 232.449219 125.199219 247.949219 C 140.699219 263.449219 162.109375 273.042969 185.800781 273.042969 Z M 185.800781 78.402344 C 215.882812 78.402344 243.105469 90.613281 262.820312 110.277344 C 282.535156 129.996094 294.746094 157.265625 294.746094 187.347656 C 294.746094 217.429688 282.535156 244.703125 262.820312 264.421875 C 243.105469 284.136719 215.882812 296.292969 185.800781 296.292969 C 155.667969 296.292969 128.445312 284.136719 108.726562 264.421875 C 89.011719 244.703125 76.804688 217.429688 76.804688 187.347656 C 76.804688 157.265625 89.011719 129.996094 108.726562 110.277344 C 128.445312 90.613281 155.667969 78.402344 185.800781 78.402344 Z M 259.089844 114.058594 C 240.34375 95.308594 214.378906 83.683594 185.800781 83.683594 C 157.171875 83.683594 131.253906 95.308594 112.457031 114.058594 C 93.710938 132.804688 82.085938 158.71875 82.085938 187.347656 C 82.085938 215.976562 93.710938 241.894531 112.457031 260.640625 C 131.253906 279.386719 157.171875 291.015625 185.800781 291.015625 C 214.378906 291.015625 240.296875 279.386719 259.089844 260.640625 C 277.839844 241.894531 289.464844 215.976562 289.464844 187.347656 C 289.464844 158.71875 277.839844 132.804688 259.089844 114.058594 Z M 62.757812 169.472656 C 66.050781 146.851562 75.402344 126.070312 89.304688 108.972656 C 103.15625 91.871094 121.613281 78.453125 143.074219 70.605469 L 144.867188 75.59375 C 124.328125 83.101562 106.695312 95.941406 93.371094 112.3125 C 80.097656 128.6875 71.136719 148.546875 67.988281 170.199219 C 67.164062 175.867188 66.730469 181.585938 66.730469 187.347656 C 66.730469 220.191406 80.097656 249.984375 101.609375 271.492188 C 123.164062 293.050781 152.90625 306.371094 185.800781 306.371094 L 185.800781 311.652344 C 151.453125 311.652344 120.355469 297.746094 97.878906 275.269531 C 75.351562 252.746094 61.449219 221.695312 61.449219 187.347656 C 61.449219 181.390625 61.886719 175.382812 62.757812 169.472656 Z M 305.207031 221.792969 C 303.320312 228.378906 300.894531 234.773438 297.988281 240.878906 L 297.894531 240.972656 L 297.554688 241.75 C 296.972656 242.960938 296.34375 244.171875 295.714844 245.332031 L 295.277344 246.15625 L 295.277344 246.207031 L 294.839844 247.03125 L 294.792969 247.078125 C 293.96875 248.53125 293.144531 249.984375 292.324219 251.4375 L 291.933594 252.066406 L 291.789062 252.261719 L 291.257812 253.085938 L 290.917969 253.664062 L 290.722656 253.957031 L 290.382812 254.488281 L 290.191406 254.78125 L 289.65625 255.605469 L 289.320312 256.089844 L 289.125 256.425781 L 288.785156 256.910156 L 288.542969 257.25 L 287.429688 258.898438 L 287.140625 259.285156 L 286.847656 259.671875 L 285.6875 261.269531 L 285.445312 261.609375 L 285.105469 262.09375 L 284.910156 262.386719 L 284.523438 262.871094 L 284.28125 263.160156 L 283.941406 263.644531 L 283.3125 264.421875 L 283.117188 264.664062 L 282.683594 265.195312 L 282.535156 265.390625 L 282.101562 265.921875 L 281.90625 266.164062 L 281.472656 266.695312 L 281.324219 266.890625 L 280.839844 267.472656 L 280.695312 267.617188 L 280.210938 268.199219 L 280.066406 268.34375 L 279.582031 268.925781 L 279.4375 269.070312 L 278.902344 269.699219 L 278.808594 269.796875 L 278.273438 270.425781 L 278.175781 270.523438 L 277.597656 271.152344 L 277.546875 271.203125 L 276.917969 271.878906 L 276.871094 271.929688 L 276.289062 272.558594 L 276.238281 272.605469 L 275.609375 273.285156 L 275.5625 273.332031 L 274.933594 274.011719 L 274.882812 274.011719 L 274.253906 274.691406 L 274.207031 274.691406 L 273.527344 275.367188 L 271.492188 277.402344 L 271.445312 277.402344 L 270.8125 278.03125 L 270.71875 278.082031 L 270.085938 278.710938 L 270.039062 278.757812 L 269.359375 279.339844 L 269.3125 279.4375 L 268.683594 279.96875 L 268.585938 280.066406 L 267.957031 280.597656 L 267.230469 281.230469 L 267.132812 281.375 L 266.503906 281.859375 L 266.359375 282.003906 L 265.777344 282.488281 L 265.632812 282.632812 L 265.050781 283.117188 L 264.855469 283.261719 L 264.273438 283.699219 L 264.128906 283.84375 L 263.546875 284.328125 L 263.355469 284.476562 L 262.773438 284.910156 L 262.628906 285.054688 L 262.046875 285.539062 L 261.851562 285.6875 L 261.269531 286.121094 L 261.078125 286.265625 L 260.496094 286.703125 L 260.300781 286.847656 L 259.722656 287.234375 L 259.480469 287.429688 L 258.945312 287.816406 L 258.703125 288.011719 L 258.171875 288.398438 L 257.929688 288.59375 L 257.394531 288.929688 L 257.105469 289.125 L 256.621094 289.511719 L 256.332031 289.707031 L 255.847656 290.046875 L 255.507812 290.238281 L 255.023438 290.578125 L 254.730469 290.773438 L 254.199219 291.109375 L 253.90625 291.304688 L 253.421875 291.644531 L 253.085938 291.835938 L 252.601562 292.175781 L 252.261719 292.371094 L 251.777344 292.660156 L 251.4375 292.902344 L 250.953125 293.195312 L 250.613281 293.4375 L 250.128906 293.679688 L 249.789062 293.921875 L 249.304688 294.210938 L 248.917969 294.40625 L 248.484375 294.695312 L 248.09375 294.890625 L 247.660156 295.179688 L 247.222656 295.421875 L 246.789062 295.664062 L 246.398438 295.859375 L 245.964844 296.101562 L 245.140625 296.585938 L 244.703125 296.828125 L 244.269531 297.019531 L 243.394531 297.503906 L 242.960938 297.746094 L 242.523438 297.941406 L 242.089844 298.183594 L 241.214844 298.621094 L 240.828125 298.8125 L 240.34375 299.054688 L 239.957031 299.25 L 239.472656 299.492188 L 239.085938 299.683594 L 238.601562 299.878906 L 238.164062 300.074219 L 237.679688 300.316406 L 237.292969 300.460938 L 236.808594 300.703125 L 236.421875 300.894531 L 235.886719 301.089844 L 235.5 301.285156 L 235.015625 301.476562 L 234.628906 301.671875 L 234.09375 301.867188 L 233.707031 302.058594 L 233.175781 302.253906 L 232.835938 302.398438 C 231.914062 302.785156 230.996094 303.125 230.074219 303.511719 L 229.542969 303.707031 L 229.15625 303.851562 L 228.621094 304.046875 L 228.234375 304.191406 C 226.730469 304.722656 225.132812 305.257812 223.582031 305.789062 L 223.050781 305.933594 L 222.664062 306.078125 C 215.542969 308.257812 208.226562 309.859375 200.671875 310.777344 L 200.039062 305.5 C 206.96875 304.675781 213.652344 303.269531 220.191406 301.285156 C 221.695312 300.847656 223.195312 300.363281 224.699219 299.832031 L 225.035156 299.734375 L 225.570312 299.539062 L 225.910156 299.394531 L 226.441406 299.199219 L 226.78125 299.105469 L 227.3125 298.863281 L 228.234375 298.570312 L 228.574219 298.425781 L 229.105469 298.230469 L 229.445312 298.085938 L 229.976562 297.84375 L 230.316406 297.746094 L 230.851562 297.503906 L 231.1875 297.359375 L 231.671875 297.167969 L 232.0625 297.019531 L 232.546875 296.777344 L 232.933594 296.632812 L 233.417969 296.441406 L 233.757812 296.246094 L 234.289062 296.050781 L 234.628906 295.90625 L 235.113281 295.664062 L 235.5 295.519531 L 235.984375 295.277344 L 236.324219 295.082031 L 236.808594 294.890625 L 237.195312 294.695312 L 237.632812 294.453125 L 238.019531 294.308594 L 238.503906 294.066406 L 238.84375 293.871094 L 239.328125 293.679688 L 239.714844 293.4375 L 240.152344 293.242188 L 240.539062 293.050781 L 241.363281 292.613281 L 241.796875 292.371094 L 242.183594 292.175781 C 246.835938 289.65625 251.339844 286.847656 255.605469 283.75 C 261.417969 279.535156 266.84375 274.785156 271.78125 269.601562 L 272.363281 269.023438 L 272.414062 268.925781 L 272.992188 268.34375 L 273.089844 268.246094 L 273.625 267.664062 L 273.722656 267.570312 C 274.542969 266.648438 275.367188 265.726562 276.191406 264.757812 L 276.675781 264.226562 L 276.820312 264.03125 L 277.257812 263.5 L 277.402344 263.304688 L 277.839844 262.820312 L 277.984375 262.578125 L 278.417969 262.09375 L 278.613281 261.851562 L 279.195312 261.125 L 279.535156 260.640625 L 279.777344 260.398438 L 280.113281 259.914062 L 280.355469 259.625 L 281.472656 258.121094 L 281.761719 257.734375 L 282.050781 257.394531 L 282.292969 256.960938 L 282.585938 256.621094 L 283.117188 255.847656 L 283.359375 255.457031 L 283.652344 255.070312 C 285.296875 252.746094 286.800781 250.324219 288.253906 247.851562 L 288.351562 247.707031 L 288.738281 247.03125 L 288.835938 246.933594 C 290.53125 243.929688 292.128906 240.878906 293.628906 237.730469 C 296.246094 232.15625 298.425781 226.34375 300.121094 220.339844 Z M 163.953125 64.984375 C 167.585938 64.308594 171.21875 63.824219 174.851562 63.53125 C 178.53125 63.195312 182.214844 63.046875 185.800781 63.046875 C 220.097656 63.046875 251.195312 76.949219 273.671875 99.429688 C 296.148438 121.953125 310.101562 153.003906 310.101562 187.347656 L 304.773438 187.347656 C 304.773438 154.507812 291.449219 124.714844 269.941406 103.207031 C 248.386719 81.648438 218.640625 68.328125 185.800781 68.328125 C 182.214844 68.328125 178.679688 68.472656 175.289062 68.765625 C 171.800781 69.101562 168.3125 69.585938 164.871094 70.167969 Z M 324.828125 156.976562 C 325.890625 161.917969 326.714844 166.957031 327.25 172.089844 C 327.828125 177.226562 328.070312 182.3125 328.070312 187.347656 C 328.070312 215.734375 319.644531 242.816406 304.625 265.582031 C 289.609375 288.398438 268.101562 306.855469 241.992188 318.09375 L 237.824219 308.355469 C 261.996094 297.941406 281.957031 280.839844 295.808594 259.816406 C 309.664062 238.746094 317.511719 213.703125 317.511719 187.347656 C 317.511719 182.554688 317.269531 177.804688 316.738281 173.203125 C 316.253906 168.554688 315.476562 163.902344 314.460938 159.203125 Z M 190.835938 329.574219 L 185.800781 329.671875 C 146.464844 329.671875 110.910156 313.734375 85.136719 287.960938 C 59.367188 262.238281 43.476562 226.636719 43.476562 187.347656 C 43.476562 148.0625 59.367188 112.457031 85.136719 86.734375 C 110.910156 60.964844 146.464844 45.027344 185.800781 45.027344 C 214.234375 45.027344 241.3125 53.554688 264.128906 68.570312 C 286.945312 83.636719 305.402344 105.191406 316.589844 131.398438 L 306.902344 135.515625 C 296.535156 111.296875 279.4375 91.289062 258.363281 77.386719 C 237.246094 63.484375 212.152344 55.636719 185.800781 55.636719 C 149.417969 55.636719 116.480469 70.363281 92.644531 94.195312 C 68.8125 118.03125 54.039062 150.96875 54.039062 187.347656 C 54.039062 223.730469 68.8125 256.667969 92.644531 280.503906 C 116.480469 304.335938 149.417969 319.0625 185.800781 319.0625 L 188.074219 319.0625 L 190.546875 319.011719 Z M 39.601562 128.25 C 51.664062 98.457031 72.15625 73.800781 97.636719 56.605469 C 123.117188 39.410156 153.632812 29.671875 185.800781 29.671875 C 198.585938 29.671875 211.28125 31.269531 223.679688 34.320312 C 236.03125 37.375 248.046875 41.925781 259.382812 47.933594 L 254.441406 57.285156 C 243.878906 51.664062 232.691406 47.449219 221.160156 44.59375 C 209.679688 41.734375 197.765625 40.28125 185.800781 40.28125 C 155.8125 40.28125 127.332031 49.386719 103.546875 65.421875 C 79.761719 81.457031 60.625 104.417969 49.4375 132.175781 Z M 297.601562 76.222656 C 312.28125 91 323.710938 108.339844 331.511719 127.234375 C 339.3125 146.175781 343.429688 166.566406 343.429688 187.347656 C 343.429688 210.890625 338.148438 233.851562 328.3125 254.683594 C 318.527344 275.464844 304.140625 294.113281 285.929688 309.132812 L 279.195312 300.945312 C 296.199219 286.992188 309.617188 269.601562 318.769531 250.179688 C 327.925781 230.800781 332.867188 209.34375 332.867188 187.347656 C 332.867188 167.875 328.992188 148.839844 321.773438 131.253906 C 314.507812 113.667969 303.804688 97.441406 290.09375 83.636719 Z M 268.632812 321.4375 C 256.183594 329.136719 242.765625 335.046875 228.863281 339.019531 C 214.863281 342.992188 200.378906 345.027344 185.800781 345.027344 C 142.25 345.027344 102.820312 327.34375 74.285156 298.863281 C 45.753906 270.28125 28.121094 230.898438 28.121094 187.347656 L 28.265625 180.082031 L 38.828125 180.566406 L 38.730469 183.957031 L 38.683594 187.347656 C 38.683594 227.945312 55.152344 264.757812 81.796875 291.351562 C 108.390625 317.949219 145.15625 334.417969 185.800781 334.417969 C 199.460938 334.417969 212.976562 332.527344 226.003906 328.847656 C 239.035156 325.117188 251.535156 319.644531 263.113281 312.472656 Z M 355.878906 219.03125 C 348.222656 259.964844 326.523438 295.324219 296.34375 320.417969 C 266.117188 345.511719 227.410156 360.382812 185.800781 360.382812 C 162.742188 360.382812 140.167969 355.78125 119.289062 347.0625 C 98.410156 338.390625 79.226562 325.601562 63 309.226562 L 70.460938 301.769531 C 85.71875 317.125 103.738281 329.136719 123.308594 337.324219 C 142.929688 345.460938 164.097656 349.773438 185.800781 349.773438 C 224.941406 349.773438 261.269531 335.824219 289.609375 312.28125 C 317.949219 288.738281 338.292969 255.554688 345.460938 217.09375 Z M 37.859375 277.0625 C 29.671875 263.546875 23.375 249.015625 19.160156 233.949219 C 14.945312 218.789062 12.765625 203.140625 12.765625 187.347656 C 12.765625 139.585938 32.140625 96.328125 63.433594 64.984375 C 94.730469 33.691406 137.988281 14.316406 185.800781 14.316406 C 233.5625 14.316406 276.820312 33.691406 308.113281 64.984375 C 339.40625 96.328125 358.785156 139.585938 358.785156 187.347656 L 348.222656 187.347656 C 348.222656 142.492188 330.011719 101.898438 300.652344 72.496094 C 271.25 43.089844 230.609375 24.925781 185.800781 24.925781 C 140.941406 24.925781 100.300781 43.089844 70.894531 72.496094 C 41.539062 101.898438 23.324219 142.492188 23.324219 187.347656 C 23.324219 202.222656 25.359375 216.945312 29.332031 231.09375 C 33.304688 245.285156 39.167969 258.945312 46.867188 271.636719 Z M 271.734375 22.746094 C 298.523438 36.695312 321.046875 56.75 337.90625 80.824219 C 354.714844 104.851562 365.855469 132.902344 369.878906 162.835938 L 364.644531 163.515625 C 360.769531 134.402344 349.917969 107.179688 333.546875 83.828125 C 317.222656 60.480469 295.324219 41.007812 269.3125 27.394531 Z M 369.972656 211.132812 C 363.96875 257.445312 341.25 297.941406 308.40625 326.859375 C 275.511719 355.734375 232.449219 373.074219 185.800781 373.074219 C 142.492188 373.074219 102.09375 358.105469 70.070312 332.625 C 38.101562 307.144531 14.460938 271.105469 4.773438 228.960938 L 9.90625 227.796875 C 19.355469 268.730469 42.265625 303.753906 73.367188 328.507812 C 104.464844 353.261719 143.75 367.792969 185.800781 367.792969 C 231.140625 367.792969 272.945312 350.9375 304.917969 322.839844 C 336.839844 294.792969 358.929688 255.457031 364.742188 210.503906 Z M 369.972656 211.132812 "/></g></g></svg>